G04*
G04 #@! TF.GenerationSoftware,Altium Limited,Altium Designer,21.1.1 (26)*
G04*
G04 Layer_Color=8388736*
%FSLAX25Y25*%
%MOIN*%
G70*
G04*
G04 #@! TF.SameCoordinates,E00B1EB5-E982-4F3D-9705-A7A521AA3BB6*
G04*
G04*
G04 #@! TF.FilePolarity,Negative*
G04*
G01*
G75*
%ADD22C,0.00000*%
%ADD23R,0.14186X0.03162*%
%ADD24R,0.07900X0.05200*%
%ADD25R,0.05200X0.07900*%
%ADD26C,0.07800*%
%ADD27C,0.07178*%
%ADD28O,0.13792X0.07887*%
%ADD29O,0.08674X0.15761*%
%ADD30C,0.03300*%
D22*
X193390Y80000D02*
G03*
X193390Y80000I-3390J0D01*
G01*
X183390D02*
G03*
X183390Y80000I-3390J0D01*
G01*
X59390Y100000D02*
G03*
X59390Y100000I-3390J0D01*
G01*
Y110000D02*
G03*
X59390Y110000I-3390J0D01*
G01*
D23*
X57370Y79500D02*
D03*
Y74500D02*
D03*
Y69500D02*
D03*
Y64500D02*
D03*
X78630D02*
D03*
Y69500D02*
D03*
Y74500D02*
D03*
Y79500D02*
D03*
D24*
X310000Y14100D02*
D03*
Y25900D02*
D03*
X282000Y14100D02*
D03*
Y25900D02*
D03*
X250000Y14100D02*
D03*
Y25900D02*
D03*
X220000Y14100D02*
D03*
Y25900D02*
D03*
X22000Y40100D02*
D03*
Y51900D02*
D03*
Y65500D02*
D03*
Y77300D02*
D03*
X100000Y142100D02*
D03*
Y153900D02*
D03*
Y179900D02*
D03*
Y168100D02*
D03*
X310000Y80000D02*
D03*
Y68200D02*
D03*
X282000Y80000D02*
D03*
Y68200D02*
D03*
X250000Y80000D02*
D03*
Y68200D02*
D03*
X220000Y79900D02*
D03*
Y68100D02*
D03*
X22000Y25900D02*
D03*
Y14100D02*
D03*
X78000Y179900D02*
D03*
Y168100D02*
D03*
D25*
X77600Y100000D02*
D03*
X89400D02*
D03*
D26*
X74000Y40000D02*
D03*
X84000D02*
D03*
X54000D02*
D03*
X64000D02*
D03*
X254000Y50000D02*
D03*
X264000D02*
D03*
X234000D02*
D03*
X244000D02*
D03*
X152000Y58000D02*
D03*
X162000D02*
D03*
X132000D02*
D03*
X142000D02*
D03*
X36000Y142000D02*
D03*
X26000D02*
D03*
X56000D02*
D03*
X46000D02*
D03*
D27*
X190000Y80000D02*
D03*
X180000D02*
D03*
X56000Y100000D02*
D03*
Y110000D02*
D03*
D28*
X46158Y161693D02*
D03*
D29*
X32378Y180000D02*
D03*
X56000D02*
D03*
D30*
X65000Y73500D02*
D03*
X71000Y67500D02*
D03*
X94500Y55000D02*
D03*
Y62000D02*
D03*
X310000Y7500D02*
D03*
X282000D02*
D03*
X250000D02*
D03*
X220000Y7000D02*
D03*
X46000Y79500D02*
D03*
X22000Y8000D02*
D03*
X78000Y161500D02*
D03*
X100000Y135000D02*
D03*
X99500Y100000D02*
D03*
M02*
