G04*
G04 #@! TF.GenerationSoftware,Altium Limited,Altium Designer,21.1.1 (26)*
G04*
G04 Layer_Color=32896*
%FSLAX25Y25*%
%MOIN*%
G70*
G04*
G04 #@! TF.SameCoordinates,E00B1EB5-E982-4F3D-9705-A7A521AA3BB6*
G04*
G04*
G04 #@! TF.FilePolarity,Positive*
G04*
G01*
G75*
%ADD17C,0.00600*%
D17*
X306500Y16300D02*
X313500D01*
X306500Y13300D02*
Y16300D01*
X313500Y13300D02*
Y16300D01*
X306500Y23700D02*
X313500D01*
Y26700D01*
X306500Y23700D02*
Y26700D01*
X313500D01*
X306500Y13300D02*
X313500D01*
X306500Y16300D02*
X313500D01*
X306500Y13300D02*
Y16300D01*
X313500Y13300D02*
Y16300D01*
X306500Y23700D02*
X313500D01*
Y26700D01*
X306500Y23700D02*
Y26700D01*
X313500D01*
X306500Y13300D02*
X313500D01*
X278500Y16300D02*
X285500D01*
X278500Y13300D02*
Y16300D01*
X285500Y13300D02*
Y16300D01*
X278500Y23700D02*
X285500D01*
Y26700D01*
X278500Y23700D02*
Y26700D01*
X285500D01*
X278500Y13300D02*
X285500D01*
X278500Y16300D02*
X285500D01*
X278500Y13300D02*
Y16300D01*
X285500Y13300D02*
Y16300D01*
X278500Y23700D02*
X285500D01*
Y26700D01*
X278500Y23700D02*
Y26700D01*
X285500D01*
X278500Y13300D02*
X285500D01*
X246500Y16300D02*
X253500D01*
X246500Y13300D02*
Y16300D01*
X253500Y13300D02*
Y16300D01*
X246500Y23700D02*
X253500D01*
Y26700D01*
X246500Y23700D02*
Y26700D01*
X253500D01*
X246500Y13300D02*
X253500D01*
X246500Y16300D02*
X253500D01*
X246500Y13300D02*
Y16300D01*
X253500Y13300D02*
Y16300D01*
X246500Y23700D02*
X253500D01*
Y26700D01*
X246500Y23700D02*
Y26700D01*
X253500D01*
X246500Y13300D02*
X253500D01*
X216500Y16300D02*
X223500D01*
X216500Y13300D02*
Y16300D01*
X223500Y13300D02*
Y16300D01*
X216500Y23700D02*
X223500D01*
Y26700D01*
X216500Y23700D02*
Y26700D01*
X223500D01*
X216500Y13300D02*
X223500D01*
X216500Y16300D02*
X223500D01*
X216500Y13300D02*
Y16300D01*
X223500Y13300D02*
Y16300D01*
X216500Y23700D02*
X223500D01*
Y26700D01*
X216500Y23700D02*
Y26700D01*
X223500D01*
X216500Y13300D02*
X223500D01*
X18500Y42300D02*
X25500D01*
X18500Y39300D02*
Y42300D01*
X25500Y39300D02*
Y42300D01*
X18500Y49700D02*
X25500D01*
Y52700D01*
X18500Y49700D02*
Y52700D01*
X25500D01*
X18500Y39300D02*
X25500D01*
X18500Y42300D02*
X25500D01*
X18500Y39300D02*
Y42300D01*
X25500Y39300D02*
Y42300D01*
X18500Y49700D02*
X25500D01*
Y52700D01*
X18500Y49700D02*
Y52700D01*
X25500D01*
X18500Y39300D02*
X25500D01*
X18500Y67700D02*
X25500D01*
X18500Y64700D02*
Y67700D01*
X25500Y64700D02*
Y67700D01*
X18500Y75100D02*
X25500D01*
Y78100D01*
X18500Y75100D02*
Y78100D01*
X25500D01*
X18500Y64700D02*
X25500D01*
X18500Y67700D02*
X25500D01*
X18500Y64700D02*
Y67700D01*
X25500Y64700D02*
Y67700D01*
X18500Y75100D02*
X25500D01*
Y78100D01*
X18500Y75100D02*
Y78100D01*
X25500D01*
X18500Y64700D02*
X25500D01*
X96500Y144300D02*
X103500D01*
X96500Y141300D02*
Y144300D01*
X103500Y141300D02*
Y144300D01*
X96500Y151700D02*
X103500D01*
Y154700D01*
X96500Y151700D02*
Y154700D01*
X103500D01*
X96500Y141300D02*
X103500D01*
X96500Y144300D02*
X103500D01*
X96500Y141300D02*
Y144300D01*
X103500Y141300D02*
Y144300D01*
X96500Y151700D02*
X103500D01*
Y154700D01*
X96500Y151700D02*
Y154700D01*
X103500D01*
X96500Y141300D02*
X103500D01*
X96500Y177700D02*
X103500D01*
Y180700D01*
X96500Y177700D02*
Y180700D01*
Y170300D02*
X103500D01*
X96500Y167300D02*
Y170300D01*
X103500Y167300D02*
Y170300D01*
X96500D02*
Y177700D01*
Y167300D02*
X103500D01*
Y170300D02*
Y177700D01*
X96500Y180700D02*
X103500D01*
X96500Y177700D02*
X103500D01*
Y180700D01*
X96500Y177700D02*
Y180700D01*
Y170300D02*
X103500D01*
X96500Y167300D02*
Y170300D01*
X103500Y167300D02*
Y170300D01*
X96500D02*
Y177700D01*
Y167300D02*
X103500D01*
Y170300D02*
Y177700D01*
X96500Y180700D02*
X103500D01*
X306500Y77800D02*
X313500D01*
Y80800D01*
X306500Y77800D02*
Y80800D01*
Y70400D02*
X313500D01*
X306500Y67400D02*
Y70400D01*
X313500Y67400D02*
Y70400D01*
X306500D02*
Y77800D01*
Y67400D02*
X313500D01*
Y70400D02*
Y77800D01*
X306500Y80800D02*
X313500D01*
X306500Y77800D02*
X313500D01*
Y80800D01*
X306500Y77800D02*
Y80800D01*
Y70400D02*
X313500D01*
X306500Y67400D02*
Y70400D01*
X313500Y67400D02*
Y70400D01*
X306500D02*
Y77800D01*
Y67400D02*
X313500D01*
Y70400D02*
Y77800D01*
X306500Y80800D02*
X313500D01*
X278500Y77800D02*
X285500D01*
Y80800D01*
X278500Y77800D02*
Y80800D01*
Y70400D02*
X285500D01*
X278500Y67400D02*
Y70400D01*
X285500Y67400D02*
Y70400D01*
X278500D02*
Y77800D01*
Y67400D02*
X285500D01*
Y70400D02*
Y77800D01*
X278500Y80800D02*
X285500D01*
X278500Y77800D02*
X285500D01*
Y80800D01*
X278500Y77800D02*
Y80800D01*
Y70400D02*
X285500D01*
X278500Y67400D02*
Y70400D01*
X285500Y67400D02*
Y70400D01*
X278500D02*
Y77800D01*
Y67400D02*
X285500D01*
Y70400D02*
Y77800D01*
X278500Y80800D02*
X285500D01*
X246500Y77800D02*
X253500D01*
Y80800D01*
X246500Y77800D02*
Y80800D01*
Y70400D02*
X253500D01*
X246500Y67400D02*
Y70400D01*
X253500Y67400D02*
Y70400D01*
X246500D02*
Y77800D01*
Y67400D02*
X253500D01*
Y70400D02*
Y77800D01*
X246500Y80800D02*
X253500D01*
X246500Y77800D02*
X253500D01*
Y80800D01*
X246500Y77800D02*
Y80800D01*
Y70400D02*
X253500D01*
X246500Y67400D02*
Y70400D01*
X253500Y67400D02*
Y70400D01*
X246500D02*
Y77800D01*
Y67400D02*
X253500D01*
Y70400D02*
Y77800D01*
X246500Y80800D02*
X253500D01*
X216500Y77700D02*
X223500D01*
Y80700D01*
X216500Y77700D02*
Y80700D01*
Y70300D02*
X223500D01*
X216500Y67300D02*
Y70300D01*
X223500Y67300D02*
Y70300D01*
X216500D02*
Y77700D01*
Y67300D02*
X223500D01*
Y70300D02*
Y77700D01*
X216500Y80700D02*
X223500D01*
X216500Y77700D02*
X223500D01*
Y80700D01*
X216500Y77700D02*
Y80700D01*
Y70300D02*
X223500D01*
X216500Y67300D02*
Y70300D01*
X223500Y67300D02*
Y70300D01*
X216500D02*
Y77700D01*
Y67300D02*
X223500D01*
Y70300D02*
Y77700D01*
X216500Y80700D02*
X223500D01*
X18500Y13300D02*
X25500D01*
X18500Y16300D02*
Y23700D01*
Y26700D02*
X25500D01*
Y16300D02*
Y23700D01*
X18500D02*
Y26700D01*
X25500Y23700D02*
Y26700D01*
X18500Y23700D02*
X25500D01*
Y13300D02*
Y16300D01*
X18500Y13300D02*
Y16300D01*
X25500D01*
X18500Y13300D02*
X25500D01*
X18500Y16300D02*
Y23700D01*
Y26700D02*
X25500D01*
Y16300D02*
Y23700D01*
X18500D02*
Y26700D01*
X25500Y23700D02*
Y26700D01*
X18500Y23700D02*
X25500D01*
Y13300D02*
Y16300D01*
X18500Y13300D02*
Y16300D01*
X25500D01*
X90200Y96500D02*
Y103500D01*
X79800Y96500D02*
X87200D01*
X76800D02*
Y103500D01*
X79800D02*
X87200D01*
X76800Y96500D02*
X79800D01*
X76800Y103500D02*
X79800D01*
Y96500D02*
Y103500D01*
X87200D02*
X90200D01*
X87200Y96500D02*
X90200D01*
X87200D02*
Y103500D01*
X90200Y96500D02*
Y103500D01*
X79800Y96500D02*
X87200D01*
X76800D02*
Y103500D01*
X79800D02*
X87200D01*
X76800Y96500D02*
X79800D01*
X76800Y103500D02*
X79800D01*
Y96500D02*
Y103500D01*
X87200D02*
X90200D01*
X87200Y96500D02*
X90200D01*
X87200D02*
Y103500D01*
X74500Y167300D02*
X81500D01*
X74500Y170300D02*
Y177700D01*
Y180700D02*
X81500D01*
Y170300D02*
Y177700D01*
X74500D02*
Y180700D01*
X81500Y177700D02*
Y180700D01*
X74500Y177700D02*
X81500D01*
Y167300D02*
Y170300D01*
X74500Y167300D02*
Y170300D01*
X81500D01*
X74500Y167300D02*
X81500D01*
X74500Y170300D02*
Y177700D01*
Y180700D02*
X81500D01*
Y170300D02*
Y177700D01*
X74500D02*
Y180700D01*
X81500Y177700D02*
Y180700D01*
X74500Y177700D02*
X81500D01*
Y167300D02*
Y170300D01*
X74500Y167300D02*
Y170300D01*
X81500D01*
M02*
