M48
;Layer_Color=9474304
;FILE_FORMAT=2:5
INCH,LZ
;TYPE=PLATED
T1F00S00C0.01300
T3F00S00C0.04000
T4F00S00C0.04016
%
T01
X0022Y0008
X00945Y0055
X022Y0007
X025Y00075
X0282
X031
X00945Y0062
X0071Y00675
X0065Y00735
X00995Y01
X01Y0135
X0078Y01615
X0046Y00795
T03
X0054Y004
X0064
X0074
X0084
X0234Y005
X0244
X0254
X0264
X0162Y0058
X0152
X0142
X0132
X0056Y0142
X0046
X0036
X0026
T04
X018Y008
X019
X0056Y01
Y011
M30
