M48
;Layer_Color=9474304
;FILE_FORMAT=4:4
METRIC,LZ
;TYPE=PLATED
T01F00S00C0.3302
T02F00S00C0.7112
T03F00S00C1.0160
T04F00S00C1.0200
T05F00S00C1.5000
;TYPE=NON_PLATED
T06F00S00C2.5400
%
T01
X0051562Y0010668
X0086106
X0036068Y0035814
X0028194Y0034544
X0065786
X0074168Y003556
X005969Y0011684
X0094742
X012319Y0011176
X0109982Y0035814
X0101346Y0034544
X0139192Y0034798
X0147828Y003556
X0131318Y0012192
X0168148Y0053594
Y0073914
X0169672Y0078486
X0162052Y0077216
X0159258Y0078232
X015875Y0073914
X016129Y0072898
X0151653Y0072883
X0149098Y0073914
X014986Y0078232
X01524Y0077216
X0143002
X0140447Y0078247
X01397Y0073914
X0141986Y0072898
X0132603Y0072883
X0130048Y0073914
X013081Y0078232
X013335Y007747
X0130048Y0053594
X0160782Y0052578
X0121666
X012319Y0072898
X012065Y0073914
X0121158Y0078232
X0123952Y0077216
X01143
X011176Y0078232
X0110998Y0073914
X0113553Y0072883
X010414Y0072898
X0101854Y0073914
X0102362Y0078486
X0104902Y007747
X0094742
X009271Y0078994
X0091948Y0073914
X0094742Y0072898
X0095758Y0089154
X0094742Y0053594
X0085852Y0052578
X008509Y0072898
X0082804Y0073914
X0083058Y0078232
X0085852Y007747
X00762
X007366Y0078486
X0073406Y0073914
X0075453Y0072883
X006604Y0072898
X00635Y0073914
X0064262Y0078486
X0066548Y0077216
X0056642
X0054864Y0078486
X0053848Y0073914
X0056642Y0072898
X0053848Y0053086
X0076708Y0089662
X0047498Y0076962
X0045197Y0078247
X0043942Y0074168
X004699Y0072898
X0037592
X0035052Y0074168
X0035814Y0078232
X0038608Y0076962
X0028702Y0077216
X0026147Y0078247
X0025654Y0073914
X002794Y0072644
X0018288
X0016002Y0074422
X0016764Y0078486
X0018542Y0077216
X0009652
X0015494Y00508
X0020828Y0053594
X004572Y0051816
X0008128Y0072898
X0008382Y0090678
X0012446Y0094742
X0016764Y0096266
X0018796Y0094996
X0018542Y0090424
X0016002Y0091694
X0025908
X002794Y0090678
X0028194Y0094996
X002667Y009906
X0027686Y0108204
X00254Y010922
X0018288Y0108204
X0015748Y0109474
X0008382Y0108204
X001016Y0126238
X0017272Y012954
X0043434Y0124714
X0044704Y0109474
X004699Y0108204
X0038862Y0107188
X0034798Y0109474
X0035814Y0096266
X0037846Y0094996
X0037338Y0090424
X0035052Y0091694
X004445
X0046736Y0090424
X0047498Y0094996
X0045212Y0096266
X0054864
X0056642Y0094996
Y0090424
X0054102Y0091694
X00635
X0066294Y0090678
X0066802Y009525
X0064262Y0096266
X007366
X00762Y0094996
X007366Y0091948
X0083058Y0091694
X0084836Y0090424
X0085852Y0094742
X0083312Y0096266
X008509Y0108204
X008255Y0109474
X0076962Y0107188
X0073152Y0109474
X0065786Y0108458
X00635Y0109474
X0056388Y0108204
X0053848Y010922
X0054356Y0127254
X0078232Y0124714
X0089408Y0127254
X0092202Y0109474
X0094742Y0108458
X0101854Y0109474
X0104394Y0108458
X0110998Y0109474
X0113792Y0108204
X012065Y0109474
X0123444Y0108458
X0123698Y0094742
X0121412Y0096266
X012065Y0091694
X012319Y0090424
X0113538
X0111252Y0091694
X0112014Y0096266
X0113792Y0094996
X0104394Y0094742
X0102108Y0096266
Y0091694
X0103886Y0090424
X0091948Y0091694
X0092964Y0096012
X0094996Y0094996
X0117348Y0124714
X012827Y0127254
X0130048Y010922
X0132842Y0108458
X01397Y0109474
X014224Y0108204
X0149098Y0109474
X0151638Y0108204
X0159004Y0109474
X0161036Y0108204
X0159512Y0096266
X0162052Y0094488
X0161036Y0090424
X015875Y0091694
X0151638Y0090424
X0149098Y0091694
X014986Y0096266
X0152146Y0094488
X0143002
X0140208Y0096266
Y009144
X014224Y0090424
X0132588
X0130048Y0091694
X0131064Y0096266
X0133096Y0094996
X0152908Y0124714
X0163322Y0127254
X0168402Y0109474
X0169672Y0096266
X0168148Y0091694
X014732Y0143002
X0140462Y0140208
X0127508Y0165354
X0117348Y0162814
X0104902Y016383
X0105156Y0139954
X0114046Y0144526
X007366Y0143002
X0065405Y014224
X0057912Y0165354
X0048006Y0162814
X003556Y0142494
X0027178Y0141224
T02
X0018415Y011811
T03
X008763Y016383
X008509
X008255
X008001
Y017018
X008255
X008509
X008763
X0093345
X0095885
X0098425
X0100965
T04
X008509Y0174625
X008763
X009017
X009271
T05
X0034798Y0021844
X0141986Y0021082
X0138684Y0158242
X0039116Y0159512
T06
X010922Y0006604
X0067564
Y0172466
X010922
M30
