G04*
G04 #@! TF.GenerationSoftware,Altium Limited,Altium Designer,24.2.2 (26)*
G04*
G04 Layer_Color=8421504*
%FSLAX44Y44*%
%MOMM*%
G71*
G04*
G04 #@! TF.SameCoordinates,C09E280A-887C-4CB5-B33B-2E433380E6FD*
G04*
G04*
G04 #@! TF.FilePolarity,Positive*
G04*
G01*
G75*
%ADD14C,1.5500*%
%ADD15R,1.2065X1.9000*%
%ADD16R,1.8034X1.1176*%
%ADD17R,1.1176X1.8034*%
D14*
X391160Y1595120D02*
D03*
X1386840Y1582420D02*
D03*
X1419860Y210820D02*
D03*
X347980Y218440D02*
D03*
D15*
X1286129Y950900D02*
D03*
Y1004900D02*
D03*
X1253871Y950900D02*
D03*
Y1004900D02*
D03*
X110871Y916000D02*
D03*
Y862000D02*
D03*
X143129Y916000D02*
D03*
Y862000D02*
D03*
X168529Y1217600D02*
D03*
Y1271600D02*
D03*
X136271Y1217600D02*
D03*
Y1271600D02*
D03*
X524129Y1217600D02*
D03*
Y1271600D02*
D03*
X491871Y1217600D02*
D03*
Y1271600D02*
D03*
X346329Y303200D02*
D03*
Y357200D02*
D03*
X314071Y303200D02*
D03*
Y357200D02*
D03*
X727329Y303200D02*
D03*
Y357200D02*
D03*
X695071Y303200D02*
D03*
Y357200D02*
D03*
X1082929Y303200D02*
D03*
Y357200D02*
D03*
X1050671Y303200D02*
D03*
Y357200D02*
D03*
X1463929Y303200D02*
D03*
Y357200D02*
D03*
X1431671Y303200D02*
D03*
Y357200D02*
D03*
X1247521Y166700D02*
D03*
Y112700D02*
D03*
X1279779Y166700D02*
D03*
Y112700D02*
D03*
X879221Y160350D02*
D03*
Y106350D02*
D03*
X911479Y160350D02*
D03*
Y106350D02*
D03*
X529971Y160350D02*
D03*
Y106350D02*
D03*
X562229Y160350D02*
D03*
Y106350D02*
D03*
X873379Y1217600D02*
D03*
Y1271600D02*
D03*
X841121Y1217600D02*
D03*
Y1271600D02*
D03*
X565658Y1600200D02*
D03*
Y1654200D02*
D03*
X533400Y1600200D02*
D03*
Y1654200D02*
D03*
X1260729Y1217600D02*
D03*
Y1271600D02*
D03*
X1228471Y1217600D02*
D03*
Y1271600D02*
D03*
X1260729Y1598600D02*
D03*
Y1652600D02*
D03*
X1228471Y1598600D02*
D03*
Y1652600D02*
D03*
X1616329Y1217600D02*
D03*
Y1271600D02*
D03*
X1584071Y1217600D02*
D03*
Y1271600D02*
D03*
X1406271Y1474800D02*
D03*
Y1420800D02*
D03*
X1438529Y1474800D02*
D03*
Y1420800D02*
D03*
X1622171Y579450D02*
D03*
Y525450D02*
D03*
X1654429Y579450D02*
D03*
Y525450D02*
D03*
X1050671Y1474800D02*
D03*
Y1420800D02*
D03*
X1082929Y1474800D02*
D03*
Y1420800D02*
D03*
X1234821Y579450D02*
D03*
Y525450D02*
D03*
X1267079Y579450D02*
D03*
Y525450D02*
D03*
X669671Y1474800D02*
D03*
Y1420800D02*
D03*
X701929Y1474800D02*
D03*
Y1420800D02*
D03*
X879221Y579450D02*
D03*
Y525450D02*
D03*
X911479Y579450D02*
D03*
Y525450D02*
D03*
X288671Y1468450D02*
D03*
Y1414450D02*
D03*
X320929Y1468450D02*
D03*
Y1414450D02*
D03*
X472821Y573100D02*
D03*
Y519100D02*
D03*
X505079Y573100D02*
D03*
Y519100D02*
D03*
X142621Y579450D02*
D03*
Y525450D02*
D03*
X174879Y579450D02*
D03*
Y525450D02*
D03*
X206121Y1093800D02*
D03*
Y1039800D02*
D03*
X238379Y1093800D02*
D03*
Y1039800D02*
D03*
Y950900D02*
D03*
Y1004900D02*
D03*
X206121Y950900D02*
D03*
Y1004900D02*
D03*
X143129Y950900D02*
D03*
Y1004900D02*
D03*
X110871Y950900D02*
D03*
Y1004900D02*
D03*
X396621Y1093800D02*
D03*
Y1039800D02*
D03*
X428879Y1093800D02*
D03*
Y1039800D02*
D03*
X491871Y1093800D02*
D03*
Y1039800D02*
D03*
X524129Y1093800D02*
D03*
Y1039800D02*
D03*
X301371Y1093800D02*
D03*
Y1039800D02*
D03*
X333629Y1093800D02*
D03*
Y1039800D02*
D03*
X619379Y950900D02*
D03*
Y1004900D02*
D03*
X587121Y950900D02*
D03*
Y1004900D02*
D03*
X682371Y1093800D02*
D03*
Y1039800D02*
D03*
X714629Y1093800D02*
D03*
Y1039800D02*
D03*
X333629Y950900D02*
D03*
Y1004900D02*
D03*
X301371Y950900D02*
D03*
Y1004900D02*
D03*
X524129Y950900D02*
D03*
Y1004900D02*
D03*
X491871Y950900D02*
D03*
Y1004900D02*
D03*
X428879Y950900D02*
D03*
Y1004900D02*
D03*
X396621Y950900D02*
D03*
Y1004900D02*
D03*
X809879Y950900D02*
D03*
Y1004900D02*
D03*
X777621Y950900D02*
D03*
Y1004900D02*
D03*
X1253871Y916000D02*
D03*
Y862000D02*
D03*
X1286129Y916000D02*
D03*
Y862000D02*
D03*
X1158621Y916000D02*
D03*
Y862000D02*
D03*
X1190879Y916000D02*
D03*
Y862000D02*
D03*
X1063371Y916000D02*
D03*
Y862000D02*
D03*
X1095629Y916000D02*
D03*
Y862000D02*
D03*
X968121Y916000D02*
D03*
Y862000D02*
D03*
X1000379Y916000D02*
D03*
Y862000D02*
D03*
X714629Y950900D02*
D03*
Y1004900D02*
D03*
X682371Y950900D02*
D03*
Y1004900D02*
D03*
X1000379Y950900D02*
D03*
Y1004900D02*
D03*
X968121Y950900D02*
D03*
Y1004900D02*
D03*
X905129Y950900D02*
D03*
Y1004900D02*
D03*
X872871Y950900D02*
D03*
Y1004900D02*
D03*
X777621Y916000D02*
D03*
Y862000D02*
D03*
X809879Y916000D02*
D03*
Y862000D02*
D03*
X682371Y916000D02*
D03*
Y862000D02*
D03*
X714629Y916000D02*
D03*
Y862000D02*
D03*
X587121Y916000D02*
D03*
Y862000D02*
D03*
X619379Y916000D02*
D03*
Y862000D02*
D03*
X872871Y916000D02*
D03*
Y862000D02*
D03*
X905129Y916000D02*
D03*
Y862000D02*
D03*
X1539621Y916000D02*
D03*
Y862000D02*
D03*
X1571879Y916000D02*
D03*
Y862000D02*
D03*
X1444371Y916000D02*
D03*
Y862000D02*
D03*
X1476629Y916000D02*
D03*
Y862000D02*
D03*
X1667129Y773100D02*
D03*
Y827100D02*
D03*
X1634871Y773100D02*
D03*
Y827100D02*
D03*
Y916000D02*
D03*
Y862000D02*
D03*
X1667129Y916000D02*
D03*
Y862000D02*
D03*
X1571879Y773100D02*
D03*
Y827100D02*
D03*
X1539621Y773100D02*
D03*
Y827100D02*
D03*
X1349121Y916000D02*
D03*
Y862000D02*
D03*
X1381379Y916000D02*
D03*
Y862000D02*
D03*
X1476629Y773100D02*
D03*
Y827100D02*
D03*
X1444371Y773100D02*
D03*
Y827100D02*
D03*
X1381379Y773100D02*
D03*
Y827100D02*
D03*
X1349121Y773100D02*
D03*
Y827100D02*
D03*
X1634871Y1093800D02*
D03*
Y1039800D02*
D03*
X1667129Y1093800D02*
D03*
Y1039800D02*
D03*
X1539621Y1093800D02*
D03*
Y1039800D02*
D03*
X1571879Y1093800D02*
D03*
Y1039800D02*
D03*
X1444371Y1093800D02*
D03*
Y1039800D02*
D03*
X1476629Y1093800D02*
D03*
Y1039800D02*
D03*
X1349121Y1093800D02*
D03*
Y1039800D02*
D03*
X1381379Y1093800D02*
D03*
Y1039800D02*
D03*
X1667129Y950900D02*
D03*
Y1004900D02*
D03*
X1634871Y950900D02*
D03*
Y1004900D02*
D03*
X1571879Y950900D02*
D03*
Y1004900D02*
D03*
X1539621Y950900D02*
D03*
Y1004900D02*
D03*
X1190879Y950900D02*
D03*
Y1004900D02*
D03*
X1158621Y950900D02*
D03*
Y1004900D02*
D03*
X1095629Y950900D02*
D03*
Y1004900D02*
D03*
X1063371Y950900D02*
D03*
Y1004900D02*
D03*
X1476629Y950900D02*
D03*
Y1004900D02*
D03*
X1444371Y950900D02*
D03*
Y1004900D02*
D03*
X1381379Y950900D02*
D03*
Y1004900D02*
D03*
X1349121Y950900D02*
D03*
Y1004900D02*
D03*
X1063371Y1093800D02*
D03*
Y1039800D02*
D03*
X1095629Y1093800D02*
D03*
Y1039800D02*
D03*
X968121Y1093800D02*
D03*
Y1039800D02*
D03*
X1000379Y1093800D02*
D03*
Y1039800D02*
D03*
X110871Y1093800D02*
D03*
Y1039800D02*
D03*
X143129Y1093800D02*
D03*
Y1039800D02*
D03*
X1286129Y773100D02*
D03*
Y827100D02*
D03*
X1253871Y773100D02*
D03*
Y827100D02*
D03*
X491871Y916000D02*
D03*
Y862000D02*
D03*
X524129Y916000D02*
D03*
Y862000D02*
D03*
X396621Y916000D02*
D03*
Y862000D02*
D03*
X428879Y916000D02*
D03*
Y862000D02*
D03*
Y773100D02*
D03*
Y827100D02*
D03*
X396621Y773100D02*
D03*
Y827100D02*
D03*
X1190879Y773100D02*
D03*
Y827100D02*
D03*
X1158621Y773100D02*
D03*
Y827100D02*
D03*
X1095629Y773100D02*
D03*
Y827100D02*
D03*
X1063371Y773100D02*
D03*
Y827100D02*
D03*
X1000379Y773100D02*
D03*
Y827100D02*
D03*
X968121Y773100D02*
D03*
Y827100D02*
D03*
X905129Y773100D02*
D03*
Y827100D02*
D03*
X872871Y773100D02*
D03*
Y827100D02*
D03*
X809879Y773100D02*
D03*
Y827100D02*
D03*
X777621Y773100D02*
D03*
Y827100D02*
D03*
X714629Y773100D02*
D03*
Y827100D02*
D03*
X682371Y773100D02*
D03*
Y827100D02*
D03*
X619379Y773100D02*
D03*
Y827100D02*
D03*
X587121Y773100D02*
D03*
Y827100D02*
D03*
X524129Y773100D02*
D03*
Y827100D02*
D03*
X491871Y773100D02*
D03*
Y827100D02*
D03*
X587121Y1093800D02*
D03*
Y1039800D02*
D03*
X619379Y1093800D02*
D03*
Y1039800D02*
D03*
X1253871Y1093800D02*
D03*
Y1039800D02*
D03*
X1286129Y1093800D02*
D03*
Y1039800D02*
D03*
X872871Y1093800D02*
D03*
Y1039800D02*
D03*
X905129Y1093800D02*
D03*
Y1039800D02*
D03*
X777621Y1093800D02*
D03*
Y1039800D02*
D03*
X809879Y1093800D02*
D03*
Y1039800D02*
D03*
X1158621Y1093800D02*
D03*
Y1039800D02*
D03*
X1190879Y1093800D02*
D03*
Y1039800D02*
D03*
X1634871Y738200D02*
D03*
Y684200D02*
D03*
X1667129Y738200D02*
D03*
Y684200D02*
D03*
X206121Y916000D02*
D03*
Y862000D02*
D03*
X238379Y916000D02*
D03*
Y862000D02*
D03*
X301371Y916000D02*
D03*
Y862000D02*
D03*
X333629Y916000D02*
D03*
Y862000D02*
D03*
X110871Y738200D02*
D03*
Y684200D02*
D03*
X143129Y738200D02*
D03*
Y684200D02*
D03*
X238379Y773100D02*
D03*
Y827100D02*
D03*
X206121Y773100D02*
D03*
Y827100D02*
D03*
X333629Y773100D02*
D03*
Y827100D02*
D03*
X301371Y773100D02*
D03*
Y827100D02*
D03*
X143129Y773100D02*
D03*
Y827100D02*
D03*
X110871Y773100D02*
D03*
Y827100D02*
D03*
X1444371Y738200D02*
D03*
Y684200D02*
D03*
X1476629Y738200D02*
D03*
Y684200D02*
D03*
X1349121Y738200D02*
D03*
Y684200D02*
D03*
X1381379Y738200D02*
D03*
Y684200D02*
D03*
X1158621Y738200D02*
D03*
Y684200D02*
D03*
X1190879Y738200D02*
D03*
Y684200D02*
D03*
X1063371Y738200D02*
D03*
Y684200D02*
D03*
X1095629Y738200D02*
D03*
Y684200D02*
D03*
X1253871Y738200D02*
D03*
Y684200D02*
D03*
X1286129Y738200D02*
D03*
Y684200D02*
D03*
X968121Y738200D02*
D03*
Y684200D02*
D03*
X1000379Y738200D02*
D03*
Y684200D02*
D03*
X1539621Y738200D02*
D03*
Y684200D02*
D03*
X1571879Y738200D02*
D03*
Y684200D02*
D03*
X206121Y738200D02*
D03*
Y684200D02*
D03*
X238379Y738200D02*
D03*
Y684200D02*
D03*
X301371Y738200D02*
D03*
Y684200D02*
D03*
X333629Y738200D02*
D03*
Y684200D02*
D03*
X396621Y738200D02*
D03*
Y684200D02*
D03*
X428879Y738200D02*
D03*
Y684200D02*
D03*
X491871Y738200D02*
D03*
Y684200D02*
D03*
X524129Y738200D02*
D03*
Y684200D02*
D03*
X777621Y738200D02*
D03*
Y684200D02*
D03*
X809879Y738200D02*
D03*
Y684200D02*
D03*
X682371Y738200D02*
D03*
Y684200D02*
D03*
X714629Y738200D02*
D03*
Y684200D02*
D03*
X587121Y738200D02*
D03*
Y684200D02*
D03*
X619379Y738200D02*
D03*
Y684200D02*
D03*
X872871Y738200D02*
D03*
Y684200D02*
D03*
X905129Y738200D02*
D03*
Y684200D02*
D03*
D16*
X1320800Y137414D02*
D03*
Y167386D02*
D03*
X946150Y131064D02*
D03*
Y161036D02*
D03*
X596900Y131064D02*
D03*
Y161036D02*
D03*
X1193800Y1627886D02*
D03*
Y1597914D02*
D03*
X501650Y1627886D02*
D03*
Y1597914D02*
D03*
X279400Y332486D02*
D03*
Y302514D02*
D03*
X660400Y332486D02*
D03*
Y302514D02*
D03*
X1016000Y332486D02*
D03*
Y302514D02*
D03*
X1397000Y332486D02*
D03*
Y302514D02*
D03*
X946150Y550164D02*
D03*
Y580136D02*
D03*
X355600Y1439164D02*
D03*
Y1469136D02*
D03*
X539750Y543814D02*
D03*
Y573786D02*
D03*
X101600Y1246886D02*
D03*
Y1216914D02*
D03*
X209550Y550164D02*
D03*
Y580136D02*
D03*
X457200Y1246886D02*
D03*
Y1216914D02*
D03*
X806450Y1246886D02*
D03*
Y1216914D02*
D03*
X1200150Y1246886D02*
D03*
Y1216914D02*
D03*
X1549400Y1246886D02*
D03*
Y1216914D02*
D03*
X1473200Y1445514D02*
D03*
Y1475486D02*
D03*
X1682750Y550164D02*
D03*
Y580136D02*
D03*
X1117600Y1445514D02*
D03*
Y1475486D02*
D03*
X1301750Y550164D02*
D03*
Y580136D02*
D03*
X736600Y1445514D02*
D03*
Y1475486D02*
D03*
X171450Y1005586D02*
D03*
Y975614D02*
D03*
X266700Y1005586D02*
D03*
Y975614D02*
D03*
X463550Y1039114D02*
D03*
Y1069086D02*
D03*
X368300Y1039114D02*
D03*
Y1069086D02*
D03*
X742950Y1005586D02*
D03*
Y975614D02*
D03*
X654050Y1039114D02*
D03*
Y1069086D02*
D03*
X647700Y1005586D02*
D03*
Y975614D02*
D03*
X749300Y1039114D02*
D03*
Y1069086D02*
D03*
X558800Y1039114D02*
D03*
Y1069086D02*
D03*
X552450Y1005586D02*
D03*
Y975614D02*
D03*
X361950Y1005586D02*
D03*
Y975614D02*
D03*
X457200Y1005586D02*
D03*
Y975614D02*
D03*
X1511300Y861314D02*
D03*
Y891286D02*
D03*
X1416050Y861314D02*
D03*
Y891286D02*
D03*
X1504950Y827786D02*
D03*
Y797814D02*
D03*
X1600200Y827786D02*
D03*
Y797814D02*
D03*
X1606550Y861314D02*
D03*
Y891286D02*
D03*
X1409700Y827786D02*
D03*
Y797814D02*
D03*
X1606550Y1039114D02*
D03*
Y1069086D02*
D03*
X1511300Y1039114D02*
D03*
Y1069086D02*
D03*
X1416050Y1039114D02*
D03*
Y1069086D02*
D03*
X1123950Y1005586D02*
D03*
Y975614D02*
D03*
X1130300Y1039114D02*
D03*
Y1069086D02*
D03*
X844550Y1039114D02*
D03*
Y1069086D02*
D03*
X939800Y1039114D02*
D03*
Y1069086D02*
D03*
X1035050Y1039114D02*
D03*
Y1069086D02*
D03*
X1504950Y1005586D02*
D03*
Y975614D02*
D03*
X1600200Y1005586D02*
D03*
Y975614D02*
D03*
X1409700Y1005586D02*
D03*
Y975614D02*
D03*
X1314450Y1005586D02*
D03*
Y975614D02*
D03*
X1219200Y1005586D02*
D03*
Y975614D02*
D03*
X1028700Y1005586D02*
D03*
Y975614D02*
D03*
X933450Y1005586D02*
D03*
Y975614D02*
D03*
X838200Y1005586D02*
D03*
Y975614D02*
D03*
X273050Y1039114D02*
D03*
Y1069086D02*
D03*
X177800Y1039114D02*
D03*
Y1069086D02*
D03*
X1314450Y827786D02*
D03*
Y797814D02*
D03*
X1225550Y861314D02*
D03*
Y891286D02*
D03*
X1123950Y797814D02*
D03*
Y827786D02*
D03*
X1130300Y861314D02*
D03*
Y891286D02*
D03*
X558800Y861314D02*
D03*
Y891286D02*
D03*
X463550Y861314D02*
D03*
Y891286D02*
D03*
X368300Y861314D02*
D03*
Y891286D02*
D03*
X844550Y861314D02*
D03*
Y891286D02*
D03*
X1035050Y861314D02*
D03*
Y891286D02*
D03*
X939800Y861314D02*
D03*
Y891286D02*
D03*
X654050Y861314D02*
D03*
Y891286D02*
D03*
X749300Y861314D02*
D03*
Y891286D02*
D03*
X1320800Y1039114D02*
D03*
Y1069086D02*
D03*
X1225550Y1039114D02*
D03*
Y1069086D02*
D03*
X1320800Y861314D02*
D03*
Y891286D02*
D03*
X273050Y861314D02*
D03*
Y891286D02*
D03*
X177800Y861314D02*
D03*
Y891286D02*
D03*
X266700Y827786D02*
D03*
Y797814D02*
D03*
X457200Y827786D02*
D03*
Y797814D02*
D03*
X361950Y827786D02*
D03*
Y797814D02*
D03*
X838200Y827786D02*
D03*
Y797814D02*
D03*
X552450Y827786D02*
D03*
Y797814D02*
D03*
X647700Y827786D02*
D03*
Y797814D02*
D03*
X742950Y827786D02*
D03*
Y797814D02*
D03*
X1219200Y827786D02*
D03*
Y797814D02*
D03*
X1028700Y827786D02*
D03*
Y797814D02*
D03*
X933450Y834136D02*
D03*
Y804164D02*
D03*
X171450Y827786D02*
D03*
Y797814D02*
D03*
X1606550Y683514D02*
D03*
Y713486D02*
D03*
X1416050D02*
D03*
Y683514D02*
D03*
X1130300D02*
D03*
Y713486D02*
D03*
X1320800D02*
D03*
Y683514D02*
D03*
X1225550Y713486D02*
D03*
Y683514D02*
D03*
X1511300D02*
D03*
Y713486D02*
D03*
X177800Y683514D02*
D03*
Y713486D02*
D03*
X749300Y683514D02*
D03*
Y713486D02*
D03*
X654050Y683514D02*
D03*
Y713486D02*
D03*
X558800Y683514D02*
D03*
Y713486D02*
D03*
X463550Y683514D02*
D03*
Y713486D02*
D03*
X368300Y683514D02*
D03*
Y713486D02*
D03*
X273050Y683514D02*
D03*
Y713486D02*
D03*
X844550Y683514D02*
D03*
Y713486D02*
D03*
X939800Y683514D02*
D03*
Y713486D02*
D03*
X1035050Y683514D02*
D03*
Y713486D02*
D03*
X82550Y683514D02*
D03*
Y713486D02*
D03*
Y861314D02*
D03*
Y891286D02*
D03*
X1695450Y827786D02*
D03*
Y797814D02*
D03*
Y975614D02*
D03*
Y1005586D02*
D03*
X82550Y1069086D02*
D03*
Y1039114D02*
D03*
D17*
X1030986Y1638300D02*
D03*
X1001014D02*
D03*
X931164D02*
D03*
X961136D02*
D03*
M02*
