G04*
G04 #@! TF.GenerationSoftware,Altium Limited,Altium Designer,24.2.2 (26)*
G04*
G04 Layer_Physical_Order=2*
G04 Layer_Color=16711680*
%FSLAX44Y44*%
%MOMM*%
G71*
G04*
G04 #@! TF.SameCoordinates,C09E280A-887C-4CB5-B33B-2E433380E6FD*
G04*
G04*
G04 #@! TF.FilePolarity,Positive*
G04*
G01*
G75*
%ADD11C,0.2540*%
%ADD25C,1.5000*%
%ADD28C,1.5240*%
%ADD29C,1.7780*%
%ADD30R,1.5240X1.5240*%
%ADD31C,0.6350*%
%ADD32C,1.2700*%
G36*
X917921Y1772438D02*
X946811Y1771019D01*
X975639Y1768655D01*
X1004374Y1765349D01*
X1032985Y1761105D01*
X1061442Y1755927D01*
X1089715Y1749821D01*
X1117773Y1742793D01*
X1145586Y1734850D01*
X1173124Y1726002D01*
X1200358Y1716258D01*
X1227258Y1705628D01*
X1253796Y1694123D01*
X1279944Y1681756D01*
X1305673Y1668540D01*
X1330956Y1654490D01*
X1355765Y1639619D01*
X1380075Y1623945D01*
X1403859Y1607484D01*
X1427091Y1590254D01*
X1449747Y1572273D01*
X1471803Y1553560D01*
X1493235Y1534135D01*
X1514020Y1514020D01*
X1534135Y1493235D01*
X1553560Y1471803D01*
X1572273Y1449747D01*
X1590254Y1427091D01*
X1607484Y1403859D01*
X1623945Y1380075D01*
X1639619Y1355765D01*
X1654490Y1330956D01*
X1668540Y1305673D01*
X1681756Y1279944D01*
X1694123Y1253796D01*
X1705628Y1227258D01*
X1716258Y1200358D01*
X1726002Y1173124D01*
X1734850Y1145586D01*
X1742793Y1117773D01*
X1749821Y1089715D01*
X1755927Y1061442D01*
X1761105Y1032985D01*
X1765349Y1004374D01*
X1768655Y975639D01*
X1771019Y946811D01*
X1772438Y917921D01*
X1772904Y889422D01*
X1772820Y889000D01*
X1772904Y888578D01*
X1772438Y860079D01*
X1771019Y831189D01*
X1768655Y802362D01*
X1765349Y773626D01*
X1761105Y745015D01*
X1755927Y716557D01*
X1749821Y688285D01*
X1742793Y660227D01*
X1734850Y632414D01*
X1726002Y604876D01*
X1716258Y577642D01*
X1705628Y550742D01*
X1694123Y524204D01*
X1681756Y498056D01*
X1668540Y472327D01*
X1654490Y447044D01*
X1639619Y422235D01*
X1623945Y397925D01*
X1607484Y374141D01*
X1590254Y350909D01*
X1572273Y328253D01*
X1553560Y306197D01*
X1534135Y284765D01*
X1514020Y263980D01*
X1493235Y243865D01*
X1471803Y224440D01*
X1449747Y205727D01*
X1427091Y187746D01*
X1403859Y170516D01*
X1380075Y154055D01*
X1355765Y138381D01*
X1330956Y123510D01*
X1305673Y109460D01*
X1279944Y96244D01*
X1253796Y83877D01*
X1227258Y72372D01*
X1200358Y61742D01*
X1173124Y51998D01*
X1145586Y43150D01*
X1117773Y35207D01*
X1089715Y28179D01*
X1061442Y22073D01*
X1032985Y16895D01*
X1004374Y12651D01*
X975639Y9345D01*
X946811Y6981D01*
X917921Y5562D01*
X889422Y5096D01*
X889000Y5179D01*
X888578Y5096D01*
X860079Y5562D01*
X831189Y6981D01*
X802362Y9345D01*
X773626Y12651D01*
X745015Y16895D01*
X716557Y22073D01*
X688285Y28179D01*
X660227Y35207D01*
X632414Y43150D01*
X604876Y51998D01*
X577642Y61742D01*
X550742Y72372D01*
X524204Y83877D01*
X498056Y96244D01*
X472327Y109460D01*
X447044Y123510D01*
X422235Y138381D01*
X397925Y154055D01*
X374141Y170516D01*
X350909Y187746D01*
X328253Y205727D01*
X306197Y224440D01*
X284765Y243865D01*
X263980Y263980D01*
X243865Y284765D01*
X224440Y306197D01*
X205727Y328253D01*
X187746Y350909D01*
X170516Y374141D01*
X154055Y397925D01*
X138381Y422235D01*
X123510Y447044D01*
X109460Y472327D01*
X96244Y498056D01*
X83877Y524204D01*
X72372Y550742D01*
X61742Y577642D01*
X51998Y604876D01*
X43150Y632414D01*
X35207Y660227D01*
X28179Y688285D01*
X22073Y716557D01*
X16895Y745015D01*
X12651Y773626D01*
X9345Y802362D01*
X6981Y831189D01*
X5562Y860079D01*
X5096Y888578D01*
X5179Y889000D01*
X5096Y889422D01*
X5562Y917921D01*
X6981Y946811D01*
X9345Y975639D01*
X12651Y1004374D01*
X16895Y1032985D01*
X22073Y1061442D01*
X28179Y1089715D01*
X35207Y1117773D01*
X43150Y1145586D01*
X51998Y1173124D01*
X61742Y1200358D01*
X72372Y1227258D01*
X83877Y1253796D01*
X96244Y1279944D01*
X109460Y1305673D01*
X123510Y1330956D01*
X138381Y1355765D01*
X154055Y1380075D01*
X170516Y1403859D01*
X187746Y1427091D01*
X205727Y1449747D01*
X224440Y1471803D01*
X243865Y1493235D01*
X263980Y1514020D01*
X284765Y1534135D01*
X306197Y1553560D01*
X328253Y1572273D01*
X350909Y1590254D01*
X374141Y1607484D01*
X397925Y1623945D01*
X422235Y1639619D01*
X447044Y1654490D01*
X472327Y1668540D01*
X498056Y1681756D01*
X524204Y1694123D01*
X550742Y1705628D01*
X577642Y1716258D01*
X604876Y1726002D01*
X632414Y1734850D01*
X660227Y1742793D01*
X688285Y1749821D01*
X716557Y1755927D01*
X745015Y1761105D01*
X773626Y1765349D01*
X802362Y1768655D01*
X831189Y1771019D01*
X860079Y1772438D01*
X888578Y1772904D01*
X889000Y1772820D01*
X889422Y1772904D01*
X917921Y1772438D01*
D02*
G37*
%LPC*%
G36*
X852238Y1756410D02*
X852170D01*
Y1747520D01*
X861060D01*
Y1747588D01*
X860368Y1750172D01*
X859030Y1752488D01*
X857138Y1754380D01*
X854822Y1755718D01*
X852238Y1756410D01*
D02*
G37*
G36*
X849630D02*
X849562D01*
X846978Y1755718D01*
X844662Y1754380D01*
X842770Y1752488D01*
X841432Y1750172D01*
X840740Y1747588D01*
Y1747520D01*
X849630D01*
Y1756410D01*
D02*
G37*
G36*
X937260D02*
X916940D01*
Y1736090D01*
X937260D01*
Y1756410D01*
D02*
G37*
G36*
X903038D02*
X900362D01*
X897778Y1755718D01*
X895462Y1754380D01*
X893570Y1752488D01*
X892232Y1750172D01*
X891540Y1747588D01*
Y1744912D01*
X892232Y1742328D01*
X893570Y1740012D01*
X895462Y1738120D01*
X897778Y1736782D01*
X900362Y1736090D01*
X903038D01*
X905622Y1736782D01*
X907938Y1738120D01*
X909830Y1740012D01*
X911168Y1742328D01*
X911860Y1744912D01*
Y1747588D01*
X911168Y1750172D01*
X909830Y1752488D01*
X907938Y1754380D01*
X905622Y1755718D01*
X903038Y1756410D01*
D02*
G37*
G36*
X877638D02*
X874962D01*
X872378Y1755718D01*
X870062Y1754380D01*
X868170Y1752488D01*
X866832Y1750172D01*
X866140Y1747588D01*
Y1744912D01*
X866832Y1742328D01*
X868170Y1740012D01*
X870062Y1738120D01*
X872378Y1736782D01*
X874962Y1736090D01*
X877638D01*
X880222Y1736782D01*
X882538Y1738120D01*
X884430Y1740012D01*
X885768Y1742328D01*
X886460Y1744912D01*
Y1747588D01*
X885768Y1750172D01*
X884430Y1752488D01*
X882538Y1754380D01*
X880222Y1755718D01*
X877638Y1756410D01*
D02*
G37*
G36*
X861060Y1744980D02*
X852170D01*
Y1736090D01*
X852238D01*
X854822Y1736782D01*
X857138Y1738120D01*
X859030Y1740012D01*
X860368Y1742328D01*
X861060Y1744912D01*
Y1744980D01*
D02*
G37*
G36*
X849630D02*
X840740D01*
Y1744912D01*
X841432Y1742328D01*
X842770Y1740012D01*
X844662Y1738120D01*
X846978Y1736782D01*
X849562Y1736090D01*
X849630D01*
Y1744980D01*
D02*
G37*
G36*
X1093701Y1739900D02*
X1090699D01*
X1087755Y1739314D01*
X1084981Y1738165D01*
X1082485Y1736498D01*
X1080362Y1734375D01*
X1078695Y1731879D01*
X1077546Y1729105D01*
X1076960Y1726161D01*
Y1723159D01*
X1077546Y1720215D01*
X1078695Y1717441D01*
X1080362Y1714945D01*
X1082485Y1712822D01*
X1084981Y1711154D01*
X1087755Y1710006D01*
X1090699Y1709420D01*
X1093701D01*
X1096645Y1710006D01*
X1099419Y1711154D01*
X1101915Y1712822D01*
X1104038Y1714945D01*
X1105705Y1717441D01*
X1106854Y1720215D01*
X1107440Y1723159D01*
Y1726161D01*
X1106854Y1729105D01*
X1105705Y1731879D01*
X1104038Y1734375D01*
X1101915Y1736498D01*
X1099419Y1738165D01*
X1096645Y1739314D01*
X1093701Y1739900D01*
D02*
G37*
G36*
X677141D02*
X674139D01*
X671195Y1739314D01*
X668421Y1738165D01*
X665925Y1736498D01*
X663802Y1734375D01*
X662134Y1731879D01*
X660986Y1729105D01*
X660400Y1726161D01*
Y1723159D01*
X660986Y1720215D01*
X662134Y1717441D01*
X663802Y1714945D01*
X665925Y1712822D01*
X668421Y1711154D01*
X671195Y1710006D01*
X674139Y1709420D01*
X677141D01*
X680085Y1710006D01*
X682859Y1711154D01*
X685355Y1712822D01*
X687478Y1714945D01*
X689146Y1717441D01*
X690294Y1720215D01*
X690880Y1723159D01*
Y1726161D01*
X690294Y1729105D01*
X689146Y1731879D01*
X687478Y1734375D01*
X685355Y1736498D01*
X682859Y1738165D01*
X680085Y1739314D01*
X677141Y1739900D01*
D02*
G37*
G36*
X827005Y1713230D02*
X826770D01*
Y1703070D01*
X836930D01*
Y1703305D01*
X836151Y1706212D01*
X834646Y1708818D01*
X832518Y1710946D01*
X829912Y1712451D01*
X827005Y1713230D01*
D02*
G37*
G36*
X852405D02*
X852170D01*
Y1703070D01*
X862330D01*
Y1703305D01*
X861551Y1706212D01*
X860046Y1708818D01*
X857918Y1710946D01*
X855312Y1712451D01*
X852405Y1713230D01*
D02*
G37*
G36*
X801605D02*
X801370D01*
Y1703070D01*
X811530D01*
Y1703305D01*
X810751Y1706212D01*
X809246Y1708818D01*
X807118Y1710946D01*
X804512Y1712451D01*
X801605Y1713230D01*
D02*
G37*
G36*
X1011155D02*
X1010920D01*
Y1703070D01*
X1021080D01*
Y1703305D01*
X1020301Y1706212D01*
X1018796Y1708818D01*
X1016668Y1710946D01*
X1014062Y1712451D01*
X1011155Y1713230D01*
D02*
G37*
G36*
X1008380D02*
X1008145D01*
X1005238Y1712451D01*
X1002632Y1710946D01*
X1000504Y1708818D01*
X998999Y1706212D01*
X998220Y1703305D01*
Y1703070D01*
X1008380D01*
Y1713230D01*
D02*
G37*
G36*
X985755D02*
X985520D01*
Y1703070D01*
X995680D01*
Y1703305D01*
X994901Y1706212D01*
X993396Y1708818D01*
X991268Y1710946D01*
X988662Y1712451D01*
X985755Y1713230D01*
D02*
G37*
G36*
X982980D02*
X982745D01*
X979838Y1712451D01*
X977232Y1710946D01*
X975104Y1708818D01*
X973599Y1706212D01*
X972820Y1703305D01*
Y1703070D01*
X982980D01*
Y1713230D01*
D02*
G37*
G36*
X960355D02*
X960120D01*
Y1703070D01*
X970280D01*
Y1703305D01*
X969501Y1706212D01*
X967996Y1708818D01*
X965868Y1710946D01*
X963262Y1712451D01*
X960355Y1713230D01*
D02*
G37*
G36*
X957580D02*
X957345D01*
X954438Y1712451D01*
X951832Y1710946D01*
X949704Y1708818D01*
X948199Y1706212D01*
X947420Y1703305D01*
Y1703070D01*
X957580D01*
Y1713230D01*
D02*
G37*
G36*
X824230D02*
X823995D01*
X821088Y1712451D01*
X818482Y1710946D01*
X816354Y1708818D01*
X814849Y1706212D01*
X814070Y1703305D01*
Y1703070D01*
X824230D01*
Y1713230D01*
D02*
G37*
G36*
X798830D02*
X798595D01*
X795688Y1712451D01*
X793082Y1710946D01*
X790954Y1708818D01*
X789449Y1706212D01*
X788670Y1703305D01*
Y1703070D01*
X798830D01*
Y1713230D01*
D02*
G37*
G36*
X849630D02*
X849395D01*
X846488Y1712451D01*
X843882Y1710946D01*
X841754Y1708818D01*
X840249Y1706212D01*
X839470Y1703305D01*
Y1703070D01*
X849630D01*
Y1713230D01*
D02*
G37*
G36*
X1021080Y1700530D02*
X1010920D01*
Y1690370D01*
X1011155D01*
X1014062Y1691149D01*
X1016668Y1692654D01*
X1018796Y1694782D01*
X1020301Y1697388D01*
X1021080Y1700295D01*
Y1700530D01*
D02*
G37*
G36*
X1008380D02*
X998220D01*
Y1700295D01*
X998999Y1697388D01*
X1000504Y1694782D01*
X1002632Y1692654D01*
X1005238Y1691149D01*
X1008145Y1690370D01*
X1008380D01*
Y1700530D01*
D02*
G37*
G36*
X995680D02*
X985520D01*
Y1690370D01*
X985755D01*
X988662Y1691149D01*
X991268Y1692654D01*
X993396Y1694782D01*
X994901Y1697388D01*
X995680Y1700295D01*
Y1700530D01*
D02*
G37*
G36*
X982980D02*
X972820D01*
Y1700295D01*
X973599Y1697388D01*
X975104Y1694782D01*
X977232Y1692654D01*
X979838Y1691149D01*
X982745Y1690370D01*
X982980D01*
Y1700530D01*
D02*
G37*
G36*
X970280D02*
X960120D01*
Y1690370D01*
X960355D01*
X963262Y1691149D01*
X965868Y1692654D01*
X967996Y1694782D01*
X969501Y1697388D01*
X970280Y1700295D01*
Y1700530D01*
D02*
G37*
G36*
X957580D02*
X947420D01*
Y1700295D01*
X948199Y1697388D01*
X949704Y1694782D01*
X951832Y1692654D01*
X954438Y1691149D01*
X957345Y1690370D01*
X957580D01*
Y1700530D01*
D02*
G37*
G36*
X934955Y1713230D02*
X931945D01*
X929038Y1712451D01*
X926432Y1710946D01*
X924304Y1708818D01*
X922799Y1706212D01*
X922020Y1703305D01*
Y1700295D01*
X922799Y1697388D01*
X924304Y1694782D01*
X926432Y1692654D01*
X929038Y1691149D01*
X931945Y1690370D01*
X934955D01*
X937862Y1691149D01*
X940468Y1692654D01*
X942596Y1694782D01*
X944101Y1697388D01*
X944880Y1700295D01*
Y1703305D01*
X944101Y1706212D01*
X942596Y1708818D01*
X940468Y1710946D01*
X937862Y1712451D01*
X934955Y1713230D01*
D02*
G37*
G36*
X877805D02*
X874795D01*
X871888Y1712451D01*
X869282Y1710946D01*
X867154Y1708818D01*
X865649Y1706212D01*
X864870Y1703305D01*
Y1700295D01*
X865649Y1697388D01*
X865922Y1696915D01*
X823891Y1654885D01*
X654050D01*
X652563Y1654589D01*
X651303Y1653747D01*
X187076Y1189520D01*
X185320Y1189990D01*
X182980D01*
X180719Y1189384D01*
X178691Y1188214D01*
X177036Y1186559D01*
X175866Y1184531D01*
X175260Y1182270D01*
Y1179930D01*
X175866Y1177669D01*
X177036Y1175641D01*
X178691Y1173986D01*
X180719Y1172816D01*
X182980Y1172210D01*
X185320D01*
X187581Y1172816D01*
X189609Y1173986D01*
X191264Y1175641D01*
X192434Y1177669D01*
X193040Y1179930D01*
Y1182270D01*
X192570Y1184026D01*
X655659Y1647115D01*
X791092D01*
X791578Y1645942D01*
X790954Y1645318D01*
X789449Y1642712D01*
X788670Y1639805D01*
Y1639570D01*
X800100D01*
X811530D01*
Y1639805D01*
X810751Y1642712D01*
X809246Y1645318D01*
X808622Y1645942D01*
X809109Y1647115D01*
X816491D01*
X816978Y1645942D01*
X816354Y1645318D01*
X814849Y1642712D01*
X814070Y1639805D01*
Y1639570D01*
X825500D01*
X836930D01*
Y1639805D01*
X836151Y1642712D01*
X834646Y1645318D01*
X832518Y1647446D01*
X830437Y1648648D01*
X830103Y1650109D01*
X871415Y1691422D01*
X871888Y1691149D01*
X874795Y1690370D01*
X877805D01*
X880712Y1691149D01*
X883318Y1692654D01*
X885446Y1694782D01*
X886951Y1697388D01*
X887730Y1700295D01*
Y1703305D01*
X886951Y1706212D01*
X885446Y1708818D01*
X883318Y1710946D01*
X880712Y1712451D01*
X877805Y1713230D01*
D02*
G37*
G36*
X862330Y1700530D02*
X852170D01*
Y1690370D01*
X852405D01*
X855312Y1691149D01*
X857918Y1692654D01*
X860046Y1694782D01*
X861551Y1697388D01*
X862330Y1700295D01*
Y1700530D01*
D02*
G37*
G36*
X849630D02*
X839470D01*
Y1700295D01*
X840249Y1697388D01*
X841754Y1694782D01*
X843882Y1692654D01*
X846488Y1691149D01*
X849395Y1690370D01*
X849630D01*
Y1700530D01*
D02*
G37*
G36*
X836930D02*
X826770D01*
Y1690370D01*
X827005D01*
X829912Y1691149D01*
X832518Y1692654D01*
X834646Y1694782D01*
X836151Y1697388D01*
X836930Y1700295D01*
Y1700530D01*
D02*
G37*
G36*
X824230D02*
X814070D01*
Y1700295D01*
X814849Y1697388D01*
X816354Y1694782D01*
X818482Y1692654D01*
X821088Y1691149D01*
X823995Y1690370D01*
X824230D01*
Y1700530D01*
D02*
G37*
G36*
X811530D02*
X801370D01*
Y1690370D01*
X801605D01*
X804512Y1691149D01*
X807118Y1692654D01*
X809246Y1694782D01*
X810751Y1697388D01*
X811530Y1700295D01*
Y1700530D01*
D02*
G37*
G36*
X798830D02*
X788670D01*
Y1700295D01*
X789449Y1697388D01*
X790954Y1694782D01*
X793082Y1692654D01*
X795688Y1691149D01*
X798595Y1690370D01*
X798830D01*
Y1700530D01*
D02*
G37*
G36*
X852405Y1649730D02*
X852170D01*
Y1639570D01*
X862330D01*
Y1639805D01*
X861551Y1642712D01*
X860046Y1645318D01*
X857918Y1647446D01*
X855312Y1648951D01*
X852405Y1649730D01*
D02*
G37*
G36*
X849630D02*
X849395D01*
X846488Y1648951D01*
X843882Y1647446D01*
X841754Y1645318D01*
X840249Y1642712D01*
X839470Y1639805D01*
Y1639570D01*
X849630D01*
Y1649730D01*
D02*
G37*
G36*
X877805D02*
X874795D01*
X871888Y1648951D01*
X869282Y1647446D01*
X867154Y1645318D01*
X865649Y1642712D01*
X864870Y1639805D01*
Y1636795D01*
X865649Y1633888D01*
X867154Y1631282D01*
X869282Y1629154D01*
X871888Y1627649D01*
X874795Y1626870D01*
X877805D01*
X880712Y1627649D01*
X883318Y1629154D01*
X885446Y1631282D01*
X886951Y1633888D01*
X887730Y1636795D01*
Y1639805D01*
X886951Y1642712D01*
X885446Y1645318D01*
X883318Y1647446D01*
X880712Y1648951D01*
X877805Y1649730D01*
D02*
G37*
G36*
X862330Y1637030D02*
X852170D01*
Y1626870D01*
X852405D01*
X855312Y1627649D01*
X857918Y1629154D01*
X860046Y1631282D01*
X861551Y1633888D01*
X862330Y1636795D01*
Y1637030D01*
D02*
G37*
G36*
X849630D02*
X839470D01*
Y1636795D01*
X840249Y1633888D01*
X841754Y1631282D01*
X843882Y1629154D01*
X846488Y1627649D01*
X849395Y1626870D01*
X849630D01*
Y1637030D01*
D02*
G37*
G36*
X836930D02*
X826770D01*
Y1626870D01*
X827005D01*
X829912Y1627649D01*
X832518Y1629154D01*
X834646Y1631282D01*
X836151Y1633888D01*
X836930Y1636795D01*
Y1637030D01*
D02*
G37*
G36*
X824230D02*
X814070D01*
Y1636795D01*
X814849Y1633888D01*
X816354Y1631282D01*
X818482Y1629154D01*
X821088Y1627649D01*
X823995Y1626870D01*
X824230D01*
Y1637030D01*
D02*
G37*
G36*
X811530D02*
X801370D01*
Y1626870D01*
X801605D01*
X804512Y1627649D01*
X807118Y1629154D01*
X809246Y1631282D01*
X810751Y1633888D01*
X811530Y1636795D01*
Y1637030D01*
D02*
G37*
G36*
X798830D02*
X788670D01*
Y1636795D01*
X789449Y1633888D01*
X790954Y1631282D01*
X793082Y1629154D01*
X795688Y1627649D01*
X798595Y1626870D01*
X798830D01*
Y1637030D01*
D02*
G37*
G36*
X392482Y1605160D02*
X389838D01*
X387285Y1604476D01*
X384995Y1603154D01*
X383126Y1601285D01*
X381804Y1598995D01*
X381120Y1596442D01*
Y1593798D01*
X381804Y1591245D01*
X383126Y1588955D01*
X384995Y1587086D01*
X387285Y1585764D01*
X389838Y1585080D01*
X392482D01*
X395035Y1585764D01*
X397325Y1587086D01*
X399194Y1588955D01*
X400516Y1591245D01*
X401200Y1593798D01*
Y1596442D01*
X400516Y1598995D01*
X399194Y1601285D01*
X397325Y1603154D01*
X395035Y1604476D01*
X392482Y1605160D01*
D02*
G37*
G36*
X1388162Y1592460D02*
X1385518D01*
X1382965Y1591776D01*
X1380675Y1590454D01*
X1378806Y1588585D01*
X1377484Y1586295D01*
X1376800Y1583742D01*
Y1581098D01*
X1377484Y1578545D01*
X1378806Y1576255D01*
X1380675Y1574386D01*
X1382965Y1573064D01*
X1385518Y1572380D01*
X1388162D01*
X1390715Y1573064D01*
X1393005Y1574386D01*
X1394874Y1576255D01*
X1396196Y1578545D01*
X1396880Y1581098D01*
Y1583742D01*
X1396196Y1586295D01*
X1394874Y1588585D01*
X1393005Y1590454D01*
X1390715Y1591776D01*
X1388162Y1592460D01*
D02*
G37*
G36*
X349302Y228480D02*
X346658D01*
X344105Y227796D01*
X341815Y226474D01*
X339946Y224605D01*
X338624Y222315D01*
X337940Y219762D01*
Y217118D01*
X338624Y214565D01*
X339946Y212275D01*
X341815Y210406D01*
X344105Y209084D01*
X346658Y208400D01*
X349302D01*
X351855Y209084D01*
X354145Y210406D01*
X356014Y212275D01*
X357336Y214565D01*
X358020Y217118D01*
Y219762D01*
X357336Y222315D01*
X356014Y224605D01*
X354145Y226474D01*
X351855Y227796D01*
X349302Y228480D01*
D02*
G37*
G36*
X1421182Y220860D02*
X1418538D01*
X1415985Y220176D01*
X1413695Y218854D01*
X1411826Y216985D01*
X1410504Y214695D01*
X1409820Y212142D01*
Y209498D01*
X1410504Y206945D01*
X1411826Y204655D01*
X1413695Y202786D01*
X1415985Y201464D01*
X1418538Y200780D01*
X1421182D01*
X1423735Y201464D01*
X1426025Y202786D01*
X1427894Y204655D01*
X1429216Y206945D01*
X1429900Y209498D01*
Y212142D01*
X1429216Y214695D01*
X1427894Y216985D01*
X1426025Y218854D01*
X1423735Y220176D01*
X1421182Y220860D01*
D02*
G37*
G36*
X1093701Y81280D02*
X1090699D01*
X1087755Y80694D01*
X1084981Y79545D01*
X1082485Y77878D01*
X1080362Y75755D01*
X1078695Y73259D01*
X1077546Y70485D01*
X1076960Y67541D01*
Y64539D01*
X1077546Y61595D01*
X1078695Y58821D01*
X1080362Y56325D01*
X1082485Y54202D01*
X1084981Y52534D01*
X1087755Y51386D01*
X1090699Y50800D01*
X1093701D01*
X1096645Y51386D01*
X1099419Y52534D01*
X1101915Y54202D01*
X1104038Y56325D01*
X1105705Y58821D01*
X1106854Y61595D01*
X1107440Y64539D01*
Y67541D01*
X1106854Y70485D01*
X1105705Y73259D01*
X1104038Y75755D01*
X1101915Y77878D01*
X1099419Y79545D01*
X1096645Y80694D01*
X1093701Y81280D01*
D02*
G37*
G36*
X677141D02*
X674139D01*
X671195Y80694D01*
X668421Y79545D01*
X665925Y77878D01*
X663802Y75755D01*
X662134Y73259D01*
X660986Y70485D01*
X660400Y67541D01*
Y64539D01*
X660986Y61595D01*
X662134Y58821D01*
X663802Y56325D01*
X665925Y54202D01*
X668421Y52534D01*
X671195Y51386D01*
X674139Y50800D01*
X677141D01*
X680085Y51386D01*
X682859Y52534D01*
X685355Y54202D01*
X687478Y56325D01*
X689146Y58821D01*
X690294Y61595D01*
X690880Y64539D01*
Y67541D01*
X690294Y70485D01*
X689146Y73259D01*
X687478Y75755D01*
X685355Y77878D01*
X682859Y79545D01*
X680085Y80694D01*
X677141Y81280D01*
D02*
G37*
%LPD*%
D11*
X184150Y1181100D02*
X654050Y1651000D01*
X825500D01*
X876300Y1701800D01*
D25*
X391160Y1595120D02*
D03*
X1386840Y1582420D02*
D03*
X1419860Y210820D02*
D03*
X347980Y218440D02*
D03*
D28*
X675640Y66040D02*
D03*
X1092200Y1724660D02*
D03*
Y66040D02*
D03*
X675640Y1724660D02*
D03*
X901700Y1746250D02*
D03*
X876300D02*
D03*
X850900D02*
D03*
D29*
Y1638300D02*
D03*
X876300D02*
D03*
X800100D02*
D03*
X825500D02*
D03*
X850900Y1701800D02*
D03*
X876300D02*
D03*
X800100D02*
D03*
X825500D02*
D03*
X958850D02*
D03*
X933450D02*
D03*
X1009650D02*
D03*
X984250D02*
D03*
D30*
X927100Y1746250D02*
D03*
D31*
X919480Y916940D02*
D03*
X762000Y949960D02*
D03*
X858520Y947420D02*
D03*
X949960Y949960D02*
D03*
X1236980Y947420D02*
D03*
X922020Y1094740D02*
D03*
X769620Y1071880D02*
D03*
X447040Y1094740D02*
D03*
X259080Y916940D02*
D03*
X736600Y919480D02*
D03*
X830580Y916940D02*
D03*
X1021080D02*
D03*
X1043940Y947420D02*
D03*
X1112520Y916940D02*
D03*
X1137920Y949960D02*
D03*
X1206500Y916940D02*
D03*
X1587500D02*
D03*
X1330960Y949960D02*
D03*
X1402080Y914400D02*
D03*
X1521460Y944880D02*
D03*
X1590040Y1094740D02*
D03*
X1109980D02*
D03*
X1051560Y1399540D02*
D03*
X858520Y525780D02*
D03*
X1216660D02*
D03*
X861060Y106680D02*
D03*
X1018540Y1094740D02*
D03*
X1397000D02*
D03*
X947420Y774700D02*
D03*
X665480Y772160D02*
D03*
X566420D02*
D03*
X185420D02*
D03*
X160020Y744220D02*
D03*
X566420Y949960D02*
D03*
X474980D02*
D03*
X444500Y916940D02*
D03*
X378460Y949960D02*
D03*
X281940D02*
D03*
X187960D02*
D03*
X266700Y990600D02*
D03*
X350520Y741680D02*
D03*
X635000Y1094740D02*
D03*
X657860Y1084580D02*
D03*
X731520Y1094740D02*
D03*
X154940Y508000D02*
D03*
X947420Y535940D02*
D03*
X1300480D02*
D03*
X957580Y891540D02*
D03*
X767080Y896620D02*
D03*
X566420Y904240D02*
D03*
X947420Y116840D02*
D03*
X208280Y535940D02*
D03*
X256540Y739140D02*
D03*
X287020Y772160D02*
D03*
X261470Y782470D02*
D03*
X358140Y782320D02*
D03*
X451970Y782470D02*
D03*
X538480Y739140D02*
D03*
X635000D02*
D03*
X734060D02*
D03*
X754530Y728830D02*
D03*
X828040Y739140D02*
D03*
X850900Y728980D02*
D03*
X947420D02*
D03*
X1018540Y739140D02*
D03*
X1049020Y774700D02*
D03*
X1041400Y728980D02*
D03*
X1117600Y782320D02*
D03*
X1109980Y739140D02*
D03*
X1135530Y728830D02*
D03*
X1143000Y772160D02*
D03*
X1211580Y782320D02*
D03*
X1206500Y739140D02*
D03*
X1231900Y728980D02*
D03*
X1326030Y728830D02*
D03*
X1300480Y739140D02*
D03*
X1308100Y782320D02*
D03*
X1333500Y774700D02*
D03*
X1404470Y782470D02*
D03*
X1419860Y728980D02*
D03*
X1430020Y772160D02*
D03*
X1498600Y782320D02*
D03*
X1516530Y728830D02*
D03*
X1524000Y772160D02*
D03*
X1592580Y782320D02*
D03*
X1620520Y772160D02*
D03*
X1587500Y739140D02*
D03*
X1612900Y728980D02*
D03*
X1681480Y535940D02*
D03*
X1607820Y525780D02*
D03*
X1684020Y1094740D02*
D03*
X474980Y769620D02*
D03*
X1490980Y739140D02*
D03*
X1397000D02*
D03*
X927100Y789940D02*
D03*
X830580Y782320D02*
D03*
X762000Y774700D02*
D03*
X736600Y784860D02*
D03*
X642620D02*
D03*
X660400Y728980D02*
D03*
X566420D02*
D03*
X469900D02*
D03*
X375920D02*
D03*
X279400Y726440D02*
D03*
X81280Y728980D02*
D03*
X83820Y906780D02*
D03*
X160020Y916940D02*
D03*
X185420Y904240D02*
D03*
X279400Y906780D02*
D03*
X350520Y916940D02*
D03*
X373380Y904240D02*
D03*
X467360D02*
D03*
X541020Y916940D02*
D03*
X635000D02*
D03*
X662940Y906780D02*
D03*
X1681480Y916940D02*
D03*
X825500Y1094740D02*
D03*
X850900Y1082040D02*
D03*
X947420Y1084580D02*
D03*
X1043940D02*
D03*
X1137920Y1082040D02*
D03*
X1206500Y1094740D02*
D03*
X1234440Y1084580D02*
D03*
X1300480Y1092200D02*
D03*
X1328420Y1084580D02*
D03*
X1422400Y1082040D02*
D03*
X1490980Y1094740D02*
D03*
X1516380Y1082040D02*
D03*
X1610360D02*
D03*
X1633220Y1272540D02*
D03*
X1529080Y1247140D02*
D03*
X1282700Y1272540D02*
D03*
X1173480Y1247140D02*
D03*
X894080Y1272540D02*
D03*
X782320Y1247140D02*
D03*
X543560Y1272540D02*
D03*
X434340Y1247140D02*
D03*
X172720Y1295400D02*
D03*
X101600Y1262380D02*
D03*
X355600Y1424940D02*
D03*
X271780Y1412240D02*
D03*
X736600Y1430020D02*
D03*
X1140460Y1445260D02*
D03*
X1473200Y1430020D02*
D03*
X1404620Y1402080D02*
D03*
X1275080Y1653540D02*
D03*
X1173480Y1628140D02*
D03*
X1049020Y1638300D02*
D03*
X480060Y1628140D02*
D03*
X579120Y1653540D02*
D03*
X515620Y106680D02*
D03*
X596900Y116840D02*
D03*
X1231900Y111760D02*
D03*
X1313180Y121920D02*
D03*
X1478280Y355600D02*
D03*
X1391920Y347980D02*
D03*
X1099820Y358140D02*
D03*
X1013460Y345440D02*
D03*
X741680Y355600D02*
D03*
X657860Y345440D02*
D03*
X281940D02*
D03*
X360680Y358140D02*
D03*
X457200Y518160D02*
D03*
X538480Y530860D02*
D03*
X1696720Y784860D02*
D03*
X1681480Y739140D02*
D03*
X1239520Y772160D02*
D03*
X1023620Y784860D02*
D03*
X919480Y739140D02*
D03*
X858520Y774700D02*
D03*
X182880Y726440D02*
D03*
X439420Y741680D02*
D03*
X548640Y784860D02*
D03*
X386080Y769620D02*
D03*
X96520Y772160D02*
D03*
X167640Y784860D02*
D03*
Y962660D02*
D03*
X848360Y904240D02*
D03*
X1038860D02*
D03*
X1135380D02*
D03*
X1231900D02*
D03*
X1300480Y916940D02*
D03*
X1325880Y904240D02*
D03*
X1422400D02*
D03*
X1490980Y916940D02*
D03*
X1516380Y904240D02*
D03*
X1610360D02*
D03*
X1696720Y962660D02*
D03*
X1620520Y944880D02*
D03*
X1595120Y962660D02*
D03*
X1498600D02*
D03*
X1430020Y944880D02*
D03*
X1402080Y962660D02*
D03*
X1310640D02*
D03*
X1214120D02*
D03*
X1120140D02*
D03*
X1021080D02*
D03*
X929640Y960120D02*
D03*
X833120Y962660D02*
D03*
X736600D02*
D03*
X668020Y952500D02*
D03*
X642620Y962660D02*
D03*
X548640D02*
D03*
X452120D02*
D03*
X358140D02*
D03*
X124460Y947420D02*
D03*
X83820Y1082040D02*
D03*
X157480Y1094740D02*
D03*
X182880Y1082040D02*
D03*
X254000Y1092200D02*
D03*
X276860Y1082040D02*
D03*
X347980Y1094740D02*
D03*
X388620Y1071880D02*
D03*
X469900Y1082040D02*
D03*
X538480Y1092200D02*
D03*
X563880Y1082040D02*
D03*
X654050Y1422400D02*
D03*
D32*
X184150Y1181100D02*
D03*
M02*
