G04*
G04 #@! TF.GenerationSoftware,Altium Limited,Altium Designer,24.2.2 (26)*
G04*
G04 Layer_Color=8388736*
%FSLAX44Y44*%
%MOMM*%
G71*
G04*
G04 #@! TF.SameCoordinates,C09E280A-887C-4CB5-B33B-2E433380E6FD*
G04*
G04*
G04 #@! TF.FilePolarity,Negative*
G04*
G01*
G75*
%ADD18R,1.4097X2.1032*%
%ADD19R,2.0066X1.3208*%
%ADD20R,1.3208X2.0066*%
%ADD21C,1.7272*%
%ADD22C,1.9812*%
%ADD23R,1.7272X1.7272*%
%ADD24C,0.8382*%
%ADD25C,1.5000*%
%ADD26C,1.4732*%
D18*
X1286129Y950900D02*
D03*
Y1004900D02*
D03*
X1253871Y950900D02*
D03*
Y1004900D02*
D03*
X110871Y916000D02*
D03*
Y862000D02*
D03*
X143129Y916000D02*
D03*
Y862000D02*
D03*
X168529Y1217600D02*
D03*
Y1271600D02*
D03*
X136271Y1217600D02*
D03*
Y1271600D02*
D03*
X524129Y1217600D02*
D03*
Y1271600D02*
D03*
X491871Y1217600D02*
D03*
Y1271600D02*
D03*
X346329Y303200D02*
D03*
Y357200D02*
D03*
X314071Y303200D02*
D03*
Y357200D02*
D03*
X727329Y303200D02*
D03*
Y357200D02*
D03*
X695071Y303200D02*
D03*
Y357200D02*
D03*
X1082929Y303200D02*
D03*
Y357200D02*
D03*
X1050671Y303200D02*
D03*
Y357200D02*
D03*
X1463929Y303200D02*
D03*
Y357200D02*
D03*
X1431671Y303200D02*
D03*
Y357200D02*
D03*
X1247521Y166700D02*
D03*
Y112700D02*
D03*
X1279779Y166700D02*
D03*
Y112700D02*
D03*
X879221Y160350D02*
D03*
Y106350D02*
D03*
X911479Y160350D02*
D03*
Y106350D02*
D03*
X529971Y160350D02*
D03*
Y106350D02*
D03*
X562229Y160350D02*
D03*
Y106350D02*
D03*
X873379Y1217600D02*
D03*
Y1271600D02*
D03*
X841121Y1217600D02*
D03*
Y1271600D02*
D03*
X565658Y1600200D02*
D03*
Y1654200D02*
D03*
X533400Y1600200D02*
D03*
Y1654200D02*
D03*
X1260729Y1217600D02*
D03*
Y1271600D02*
D03*
X1228471Y1217600D02*
D03*
Y1271600D02*
D03*
X1260729Y1598600D02*
D03*
Y1652600D02*
D03*
X1228471Y1598600D02*
D03*
Y1652600D02*
D03*
X1616329Y1217600D02*
D03*
Y1271600D02*
D03*
X1584071Y1217600D02*
D03*
Y1271600D02*
D03*
X1406271Y1474800D02*
D03*
Y1420800D02*
D03*
X1438529Y1474800D02*
D03*
Y1420800D02*
D03*
X1622171Y579450D02*
D03*
Y525450D02*
D03*
X1654429Y579450D02*
D03*
Y525450D02*
D03*
X1050671Y1474800D02*
D03*
Y1420800D02*
D03*
X1082929Y1474800D02*
D03*
Y1420800D02*
D03*
X1234821Y579450D02*
D03*
Y525450D02*
D03*
X1267079Y579450D02*
D03*
Y525450D02*
D03*
X669671Y1474800D02*
D03*
Y1420800D02*
D03*
X701929Y1474800D02*
D03*
Y1420800D02*
D03*
X879221Y579450D02*
D03*
Y525450D02*
D03*
X911479Y579450D02*
D03*
Y525450D02*
D03*
X288671Y1468450D02*
D03*
Y1414450D02*
D03*
X320929Y1468450D02*
D03*
Y1414450D02*
D03*
X472821Y573100D02*
D03*
Y519100D02*
D03*
X505079Y573100D02*
D03*
Y519100D02*
D03*
X142621Y579450D02*
D03*
Y525450D02*
D03*
X174879Y579450D02*
D03*
Y525450D02*
D03*
X206121Y1093800D02*
D03*
Y1039800D02*
D03*
X238379Y1093800D02*
D03*
Y1039800D02*
D03*
Y950900D02*
D03*
Y1004900D02*
D03*
X206121Y950900D02*
D03*
Y1004900D02*
D03*
X143129Y950900D02*
D03*
Y1004900D02*
D03*
X110871Y950900D02*
D03*
Y1004900D02*
D03*
X396621Y1093800D02*
D03*
Y1039800D02*
D03*
X428879Y1093800D02*
D03*
Y1039800D02*
D03*
X491871Y1093800D02*
D03*
Y1039800D02*
D03*
X524129Y1093800D02*
D03*
Y1039800D02*
D03*
X301371Y1093800D02*
D03*
Y1039800D02*
D03*
X333629Y1093800D02*
D03*
Y1039800D02*
D03*
X619379Y950900D02*
D03*
Y1004900D02*
D03*
X587121Y950900D02*
D03*
Y1004900D02*
D03*
X682371Y1093800D02*
D03*
Y1039800D02*
D03*
X714629Y1093800D02*
D03*
Y1039800D02*
D03*
X333629Y950900D02*
D03*
Y1004900D02*
D03*
X301371Y950900D02*
D03*
Y1004900D02*
D03*
X524129Y950900D02*
D03*
Y1004900D02*
D03*
X491871Y950900D02*
D03*
Y1004900D02*
D03*
X428879Y950900D02*
D03*
Y1004900D02*
D03*
X396621Y950900D02*
D03*
Y1004900D02*
D03*
X809879Y950900D02*
D03*
Y1004900D02*
D03*
X777621Y950900D02*
D03*
Y1004900D02*
D03*
X1253871Y916000D02*
D03*
Y862000D02*
D03*
X1286129Y916000D02*
D03*
Y862000D02*
D03*
X1158621Y916000D02*
D03*
Y862000D02*
D03*
X1190879Y916000D02*
D03*
Y862000D02*
D03*
X1063371Y916000D02*
D03*
Y862000D02*
D03*
X1095629Y916000D02*
D03*
Y862000D02*
D03*
X968121Y916000D02*
D03*
Y862000D02*
D03*
X1000379Y916000D02*
D03*
Y862000D02*
D03*
X714629Y950900D02*
D03*
Y1004900D02*
D03*
X682371Y950900D02*
D03*
Y1004900D02*
D03*
X1000379Y950900D02*
D03*
Y1004900D02*
D03*
X968121Y950900D02*
D03*
Y1004900D02*
D03*
X905129Y950900D02*
D03*
Y1004900D02*
D03*
X872871Y950900D02*
D03*
Y1004900D02*
D03*
X777621Y916000D02*
D03*
Y862000D02*
D03*
X809879Y916000D02*
D03*
Y862000D02*
D03*
X682371Y916000D02*
D03*
Y862000D02*
D03*
X714629Y916000D02*
D03*
Y862000D02*
D03*
X587121Y916000D02*
D03*
Y862000D02*
D03*
X619379Y916000D02*
D03*
Y862000D02*
D03*
X872871Y916000D02*
D03*
Y862000D02*
D03*
X905129Y916000D02*
D03*
Y862000D02*
D03*
X1539621Y916000D02*
D03*
Y862000D02*
D03*
X1571879Y916000D02*
D03*
Y862000D02*
D03*
X1444371Y916000D02*
D03*
Y862000D02*
D03*
X1476629Y916000D02*
D03*
Y862000D02*
D03*
X1667129Y773100D02*
D03*
Y827100D02*
D03*
X1634871Y773100D02*
D03*
Y827100D02*
D03*
Y916000D02*
D03*
Y862000D02*
D03*
X1667129Y916000D02*
D03*
Y862000D02*
D03*
X1571879Y773100D02*
D03*
Y827100D02*
D03*
X1539621Y773100D02*
D03*
Y827100D02*
D03*
X1349121Y916000D02*
D03*
Y862000D02*
D03*
X1381379Y916000D02*
D03*
Y862000D02*
D03*
X1476629Y773100D02*
D03*
Y827100D02*
D03*
X1444371Y773100D02*
D03*
Y827100D02*
D03*
X1381379Y773100D02*
D03*
Y827100D02*
D03*
X1349121Y773100D02*
D03*
Y827100D02*
D03*
X1634871Y1093800D02*
D03*
Y1039800D02*
D03*
X1667129Y1093800D02*
D03*
Y1039800D02*
D03*
X1539621Y1093800D02*
D03*
Y1039800D02*
D03*
X1571879Y1093800D02*
D03*
Y1039800D02*
D03*
X1444371Y1093800D02*
D03*
Y1039800D02*
D03*
X1476629Y1093800D02*
D03*
Y1039800D02*
D03*
X1349121Y1093800D02*
D03*
Y1039800D02*
D03*
X1381379Y1093800D02*
D03*
Y1039800D02*
D03*
X1667129Y950900D02*
D03*
Y1004900D02*
D03*
X1634871Y950900D02*
D03*
Y1004900D02*
D03*
X1571879Y950900D02*
D03*
Y1004900D02*
D03*
X1539621Y950900D02*
D03*
Y1004900D02*
D03*
X1190879Y950900D02*
D03*
Y1004900D02*
D03*
X1158621Y950900D02*
D03*
Y1004900D02*
D03*
X1095629Y950900D02*
D03*
Y1004900D02*
D03*
X1063371Y950900D02*
D03*
Y1004900D02*
D03*
X1476629Y950900D02*
D03*
Y1004900D02*
D03*
X1444371Y950900D02*
D03*
Y1004900D02*
D03*
X1381379Y950900D02*
D03*
Y1004900D02*
D03*
X1349121Y950900D02*
D03*
Y1004900D02*
D03*
X1063371Y1093800D02*
D03*
Y1039800D02*
D03*
X1095629Y1093800D02*
D03*
Y1039800D02*
D03*
X968121Y1093800D02*
D03*
Y1039800D02*
D03*
X1000379Y1093800D02*
D03*
Y1039800D02*
D03*
X110871Y1093800D02*
D03*
Y1039800D02*
D03*
X143129Y1093800D02*
D03*
Y1039800D02*
D03*
X1286129Y773100D02*
D03*
Y827100D02*
D03*
X1253871Y773100D02*
D03*
Y827100D02*
D03*
X491871Y916000D02*
D03*
Y862000D02*
D03*
X524129Y916000D02*
D03*
Y862000D02*
D03*
X396621Y916000D02*
D03*
Y862000D02*
D03*
X428879Y916000D02*
D03*
Y862000D02*
D03*
Y773100D02*
D03*
Y827100D02*
D03*
X396621Y773100D02*
D03*
Y827100D02*
D03*
X1190879Y773100D02*
D03*
Y827100D02*
D03*
X1158621Y773100D02*
D03*
Y827100D02*
D03*
X1095629Y773100D02*
D03*
Y827100D02*
D03*
X1063371Y773100D02*
D03*
Y827100D02*
D03*
X1000379Y773100D02*
D03*
Y827100D02*
D03*
X968121Y773100D02*
D03*
Y827100D02*
D03*
X905129Y773100D02*
D03*
Y827100D02*
D03*
X872871Y773100D02*
D03*
Y827100D02*
D03*
X809879Y773100D02*
D03*
Y827100D02*
D03*
X777621Y773100D02*
D03*
Y827100D02*
D03*
X714629Y773100D02*
D03*
Y827100D02*
D03*
X682371Y773100D02*
D03*
Y827100D02*
D03*
X619379Y773100D02*
D03*
Y827100D02*
D03*
X587121Y773100D02*
D03*
Y827100D02*
D03*
X524129Y773100D02*
D03*
Y827100D02*
D03*
X491871Y773100D02*
D03*
Y827100D02*
D03*
X587121Y1093800D02*
D03*
Y1039800D02*
D03*
X619379Y1093800D02*
D03*
Y1039800D02*
D03*
X1253871Y1093800D02*
D03*
Y1039800D02*
D03*
X1286129Y1093800D02*
D03*
Y1039800D02*
D03*
X872871Y1093800D02*
D03*
Y1039800D02*
D03*
X905129Y1093800D02*
D03*
Y1039800D02*
D03*
X777621Y1093800D02*
D03*
Y1039800D02*
D03*
X809879Y1093800D02*
D03*
Y1039800D02*
D03*
X1158621Y1093800D02*
D03*
Y1039800D02*
D03*
X1190879Y1093800D02*
D03*
Y1039800D02*
D03*
X1634871Y738200D02*
D03*
Y684200D02*
D03*
X1667129Y738200D02*
D03*
Y684200D02*
D03*
X206121Y916000D02*
D03*
Y862000D02*
D03*
X238379Y916000D02*
D03*
Y862000D02*
D03*
X301371Y916000D02*
D03*
Y862000D02*
D03*
X333629Y916000D02*
D03*
Y862000D02*
D03*
X110871Y738200D02*
D03*
Y684200D02*
D03*
X143129Y738200D02*
D03*
Y684200D02*
D03*
X238379Y773100D02*
D03*
Y827100D02*
D03*
X206121Y773100D02*
D03*
Y827100D02*
D03*
X333629Y773100D02*
D03*
Y827100D02*
D03*
X301371Y773100D02*
D03*
Y827100D02*
D03*
X143129Y773100D02*
D03*
Y827100D02*
D03*
X110871Y773100D02*
D03*
Y827100D02*
D03*
X1444371Y738200D02*
D03*
Y684200D02*
D03*
X1476629Y738200D02*
D03*
Y684200D02*
D03*
X1349121Y738200D02*
D03*
Y684200D02*
D03*
X1381379Y738200D02*
D03*
Y684200D02*
D03*
X1158621Y738200D02*
D03*
Y684200D02*
D03*
X1190879Y738200D02*
D03*
Y684200D02*
D03*
X1063371Y738200D02*
D03*
Y684200D02*
D03*
X1095629Y738200D02*
D03*
Y684200D02*
D03*
X1253871Y738200D02*
D03*
Y684200D02*
D03*
X1286129Y738200D02*
D03*
Y684200D02*
D03*
X968121Y738200D02*
D03*
Y684200D02*
D03*
X1000379Y738200D02*
D03*
Y684200D02*
D03*
X1539621Y738200D02*
D03*
Y684200D02*
D03*
X1571879Y738200D02*
D03*
Y684200D02*
D03*
X206121Y738200D02*
D03*
Y684200D02*
D03*
X238379Y738200D02*
D03*
Y684200D02*
D03*
X301371Y738200D02*
D03*
Y684200D02*
D03*
X333629Y738200D02*
D03*
Y684200D02*
D03*
X396621Y738200D02*
D03*
Y684200D02*
D03*
X428879Y738200D02*
D03*
Y684200D02*
D03*
X491871Y738200D02*
D03*
Y684200D02*
D03*
X524129Y738200D02*
D03*
Y684200D02*
D03*
X777621Y738200D02*
D03*
Y684200D02*
D03*
X809879Y738200D02*
D03*
Y684200D02*
D03*
X682371Y738200D02*
D03*
Y684200D02*
D03*
X714629Y738200D02*
D03*
Y684200D02*
D03*
X587121Y738200D02*
D03*
Y684200D02*
D03*
X619379Y738200D02*
D03*
Y684200D02*
D03*
X872871Y738200D02*
D03*
Y684200D02*
D03*
X905129Y738200D02*
D03*
Y684200D02*
D03*
D19*
X1320800Y137414D02*
D03*
Y167386D02*
D03*
X946150Y131064D02*
D03*
Y161036D02*
D03*
X596900Y131064D02*
D03*
Y161036D02*
D03*
X1193800Y1627886D02*
D03*
Y1597914D02*
D03*
X501650Y1627886D02*
D03*
Y1597914D02*
D03*
X279400Y332486D02*
D03*
Y302514D02*
D03*
X660400Y332486D02*
D03*
Y302514D02*
D03*
X1016000Y332486D02*
D03*
Y302514D02*
D03*
X1397000Y332486D02*
D03*
Y302514D02*
D03*
X946150Y550164D02*
D03*
Y580136D02*
D03*
X355600Y1439164D02*
D03*
Y1469136D02*
D03*
X539750Y543814D02*
D03*
Y573786D02*
D03*
X101600Y1246886D02*
D03*
Y1216914D02*
D03*
X209550Y550164D02*
D03*
Y580136D02*
D03*
X457200Y1246886D02*
D03*
Y1216914D02*
D03*
X806450Y1246886D02*
D03*
Y1216914D02*
D03*
X1200150Y1246886D02*
D03*
Y1216914D02*
D03*
X1549400Y1246886D02*
D03*
Y1216914D02*
D03*
X1473200Y1445514D02*
D03*
Y1475486D02*
D03*
X1682750Y550164D02*
D03*
Y580136D02*
D03*
X1117600Y1445514D02*
D03*
Y1475486D02*
D03*
X1301750Y550164D02*
D03*
Y580136D02*
D03*
X736600Y1445514D02*
D03*
Y1475486D02*
D03*
X171450Y1005586D02*
D03*
Y975614D02*
D03*
X266700Y1005586D02*
D03*
Y975614D02*
D03*
X463550Y1039114D02*
D03*
Y1069086D02*
D03*
X368300Y1039114D02*
D03*
Y1069086D02*
D03*
X742950Y1005586D02*
D03*
Y975614D02*
D03*
X654050Y1039114D02*
D03*
Y1069086D02*
D03*
X647700Y1005586D02*
D03*
Y975614D02*
D03*
X749300Y1039114D02*
D03*
Y1069086D02*
D03*
X558800Y1039114D02*
D03*
Y1069086D02*
D03*
X552450Y1005586D02*
D03*
Y975614D02*
D03*
X361950Y1005586D02*
D03*
Y975614D02*
D03*
X457200Y1005586D02*
D03*
Y975614D02*
D03*
X1511300Y861314D02*
D03*
Y891286D02*
D03*
X1416050Y861314D02*
D03*
Y891286D02*
D03*
X1504950Y827786D02*
D03*
Y797814D02*
D03*
X1600200Y827786D02*
D03*
Y797814D02*
D03*
X1606550Y861314D02*
D03*
Y891286D02*
D03*
X1409700Y827786D02*
D03*
Y797814D02*
D03*
X1606550Y1039114D02*
D03*
Y1069086D02*
D03*
X1511300Y1039114D02*
D03*
Y1069086D02*
D03*
X1416050Y1039114D02*
D03*
Y1069086D02*
D03*
X1123950Y1005586D02*
D03*
Y975614D02*
D03*
X1130300Y1039114D02*
D03*
Y1069086D02*
D03*
X844550Y1039114D02*
D03*
Y1069086D02*
D03*
X939800Y1039114D02*
D03*
Y1069086D02*
D03*
X1035050Y1039114D02*
D03*
Y1069086D02*
D03*
X1504950Y1005586D02*
D03*
Y975614D02*
D03*
X1600200Y1005586D02*
D03*
Y975614D02*
D03*
X1409700Y1005586D02*
D03*
Y975614D02*
D03*
X1314450Y1005586D02*
D03*
Y975614D02*
D03*
X1219200Y1005586D02*
D03*
Y975614D02*
D03*
X1028700Y1005586D02*
D03*
Y975614D02*
D03*
X933450Y1005586D02*
D03*
Y975614D02*
D03*
X838200Y1005586D02*
D03*
Y975614D02*
D03*
X273050Y1039114D02*
D03*
Y1069086D02*
D03*
X177800Y1039114D02*
D03*
Y1069086D02*
D03*
X1314450Y827786D02*
D03*
Y797814D02*
D03*
X1225550Y861314D02*
D03*
Y891286D02*
D03*
X1123950Y797814D02*
D03*
Y827786D02*
D03*
X1130300Y861314D02*
D03*
Y891286D02*
D03*
X558800Y861314D02*
D03*
Y891286D02*
D03*
X463550Y861314D02*
D03*
Y891286D02*
D03*
X368300Y861314D02*
D03*
Y891286D02*
D03*
X844550Y861314D02*
D03*
Y891286D02*
D03*
X1035050Y861314D02*
D03*
Y891286D02*
D03*
X939800Y861314D02*
D03*
Y891286D02*
D03*
X654050Y861314D02*
D03*
Y891286D02*
D03*
X749300Y861314D02*
D03*
Y891286D02*
D03*
X1320800Y1039114D02*
D03*
Y1069086D02*
D03*
X1225550Y1039114D02*
D03*
Y1069086D02*
D03*
X1320800Y861314D02*
D03*
Y891286D02*
D03*
X273050Y861314D02*
D03*
Y891286D02*
D03*
X177800Y861314D02*
D03*
Y891286D02*
D03*
X266700Y827786D02*
D03*
Y797814D02*
D03*
X457200Y827786D02*
D03*
Y797814D02*
D03*
X361950Y827786D02*
D03*
Y797814D02*
D03*
X838200Y827786D02*
D03*
Y797814D02*
D03*
X552450Y827786D02*
D03*
Y797814D02*
D03*
X647700Y827786D02*
D03*
Y797814D02*
D03*
X742950Y827786D02*
D03*
Y797814D02*
D03*
X1219200Y827786D02*
D03*
Y797814D02*
D03*
X1028700Y827786D02*
D03*
Y797814D02*
D03*
X933450Y834136D02*
D03*
Y804164D02*
D03*
X171450Y827786D02*
D03*
Y797814D02*
D03*
X1606550Y683514D02*
D03*
Y713486D02*
D03*
X1416050D02*
D03*
Y683514D02*
D03*
X1130300D02*
D03*
Y713486D02*
D03*
X1320800D02*
D03*
Y683514D02*
D03*
X1225550Y713486D02*
D03*
Y683514D02*
D03*
X1511300D02*
D03*
Y713486D02*
D03*
X177800Y683514D02*
D03*
Y713486D02*
D03*
X749300Y683514D02*
D03*
Y713486D02*
D03*
X654050Y683514D02*
D03*
Y713486D02*
D03*
X558800Y683514D02*
D03*
Y713486D02*
D03*
X463550Y683514D02*
D03*
Y713486D02*
D03*
X368300Y683514D02*
D03*
Y713486D02*
D03*
X273050Y683514D02*
D03*
Y713486D02*
D03*
X844550Y683514D02*
D03*
Y713486D02*
D03*
X939800Y683514D02*
D03*
Y713486D02*
D03*
X1035050Y683514D02*
D03*
Y713486D02*
D03*
X82550Y683514D02*
D03*
Y713486D02*
D03*
Y861314D02*
D03*
Y891286D02*
D03*
X1695450Y827786D02*
D03*
Y797814D02*
D03*
Y975614D02*
D03*
Y1005586D02*
D03*
X82550Y1069086D02*
D03*
Y1039114D02*
D03*
D20*
X1030986Y1638300D02*
D03*
X1001014D02*
D03*
X931164D02*
D03*
X961136D02*
D03*
D21*
X675640Y66040D02*
D03*
X1092200Y1724660D02*
D03*
Y66040D02*
D03*
X675640Y1724660D02*
D03*
X901700Y1746250D02*
D03*
X876300D02*
D03*
X850900D02*
D03*
D22*
Y1638300D02*
D03*
X876300D02*
D03*
X800100D02*
D03*
X825500D02*
D03*
X850900Y1701800D02*
D03*
X876300D02*
D03*
X800100D02*
D03*
X825500D02*
D03*
X958850D02*
D03*
X933450D02*
D03*
X1009650D02*
D03*
X984250D02*
D03*
D23*
X927100Y1746250D02*
D03*
D24*
X919480Y916940D02*
D03*
X762000Y949960D02*
D03*
X858520Y947420D02*
D03*
X949960Y949960D02*
D03*
X1236980Y947420D02*
D03*
X922020Y1094740D02*
D03*
X769620Y1071880D02*
D03*
X447040Y1094740D02*
D03*
X259080Y916940D02*
D03*
X736600Y919480D02*
D03*
X830580Y916940D02*
D03*
X1021080D02*
D03*
X1043940Y947420D02*
D03*
X1112520Y916940D02*
D03*
X1137920Y949960D02*
D03*
X1206500Y916940D02*
D03*
X1587500D02*
D03*
X1330960Y949960D02*
D03*
X1402080Y914400D02*
D03*
X1521460Y944880D02*
D03*
X1590040Y1094740D02*
D03*
X1109980D02*
D03*
X1051560Y1399540D02*
D03*
X858520Y525780D02*
D03*
X1216660D02*
D03*
X861060Y106680D02*
D03*
X1018540Y1094740D02*
D03*
X1397000D02*
D03*
X947420Y774700D02*
D03*
X665480Y772160D02*
D03*
X566420D02*
D03*
X185420D02*
D03*
X160020Y744220D02*
D03*
X566420Y949960D02*
D03*
X474980D02*
D03*
X444500Y916940D02*
D03*
X378460Y949960D02*
D03*
X281940D02*
D03*
X187960D02*
D03*
X266700Y990600D02*
D03*
X350520Y741680D02*
D03*
X635000Y1094740D02*
D03*
X657860Y1084580D02*
D03*
X731520Y1094740D02*
D03*
X154940Y508000D02*
D03*
X947420Y535940D02*
D03*
X1300480D02*
D03*
X957580Y891540D02*
D03*
X767080Y896620D02*
D03*
X566420Y904240D02*
D03*
X947420Y116840D02*
D03*
X208280Y535940D02*
D03*
X256540Y739140D02*
D03*
X287020Y772160D02*
D03*
X261470Y782470D02*
D03*
X358140Y782320D02*
D03*
X451970Y782470D02*
D03*
X538480Y739140D02*
D03*
X635000D02*
D03*
X734060D02*
D03*
X754530Y728830D02*
D03*
X828040Y739140D02*
D03*
X850900Y728980D02*
D03*
X947420D02*
D03*
X1018540Y739140D02*
D03*
X1049020Y774700D02*
D03*
X1041400Y728980D02*
D03*
X1117600Y782320D02*
D03*
X1109980Y739140D02*
D03*
X1135530Y728830D02*
D03*
X1143000Y772160D02*
D03*
X1211580Y782320D02*
D03*
X1206500Y739140D02*
D03*
X1231900Y728980D02*
D03*
X1326030Y728830D02*
D03*
X1300480Y739140D02*
D03*
X1308100Y782320D02*
D03*
X1333500Y774700D02*
D03*
X1404470Y782470D02*
D03*
X1419860Y728980D02*
D03*
X1430020Y772160D02*
D03*
X1498600Y782320D02*
D03*
X1516530Y728830D02*
D03*
X1524000Y772160D02*
D03*
X1592580Y782320D02*
D03*
X1620520Y772160D02*
D03*
X1587500Y739140D02*
D03*
X1612900Y728980D02*
D03*
X1681480Y535940D02*
D03*
X1607820Y525780D02*
D03*
X1684020Y1094740D02*
D03*
X474980Y769620D02*
D03*
X1490980Y739140D02*
D03*
X1397000D02*
D03*
X927100Y789940D02*
D03*
X830580Y782320D02*
D03*
X762000Y774700D02*
D03*
X736600Y784860D02*
D03*
X642620D02*
D03*
X660400Y728980D02*
D03*
X566420D02*
D03*
X469900D02*
D03*
X375920D02*
D03*
X279400Y726440D02*
D03*
X81280Y728980D02*
D03*
X83820Y906780D02*
D03*
X160020Y916940D02*
D03*
X185420Y904240D02*
D03*
X279400Y906780D02*
D03*
X350520Y916940D02*
D03*
X373380Y904240D02*
D03*
X467360D02*
D03*
X541020Y916940D02*
D03*
X635000D02*
D03*
X662940Y906780D02*
D03*
X1681480Y916940D02*
D03*
X825500Y1094740D02*
D03*
X850900Y1082040D02*
D03*
X947420Y1084580D02*
D03*
X1043940D02*
D03*
X1137920Y1082040D02*
D03*
X1206500Y1094740D02*
D03*
X1234440Y1084580D02*
D03*
X1300480Y1092200D02*
D03*
X1328420Y1084580D02*
D03*
X1422400Y1082040D02*
D03*
X1490980Y1094740D02*
D03*
X1516380Y1082040D02*
D03*
X1610360D02*
D03*
X1633220Y1272540D02*
D03*
X1529080Y1247140D02*
D03*
X1282700Y1272540D02*
D03*
X1173480Y1247140D02*
D03*
X894080Y1272540D02*
D03*
X782320Y1247140D02*
D03*
X543560Y1272540D02*
D03*
X434340Y1247140D02*
D03*
X172720Y1295400D02*
D03*
X101600Y1262380D02*
D03*
X355600Y1424940D02*
D03*
X271780Y1412240D02*
D03*
X736600Y1430020D02*
D03*
X1140460Y1445260D02*
D03*
X1473200Y1430020D02*
D03*
X1404620Y1402080D02*
D03*
X1275080Y1653540D02*
D03*
X1173480Y1628140D02*
D03*
X1049020Y1638300D02*
D03*
X480060Y1628140D02*
D03*
X579120Y1653540D02*
D03*
X515620Y106680D02*
D03*
X596900Y116840D02*
D03*
X1231900Y111760D02*
D03*
X1313180Y121920D02*
D03*
X1478280Y355600D02*
D03*
X1391920Y347980D02*
D03*
X1099820Y358140D02*
D03*
X1013460Y345440D02*
D03*
X741680Y355600D02*
D03*
X657860Y345440D02*
D03*
X281940D02*
D03*
X360680Y358140D02*
D03*
X457200Y518160D02*
D03*
X538480Y530860D02*
D03*
X1696720Y784860D02*
D03*
X1681480Y739140D02*
D03*
X1239520Y772160D02*
D03*
X1023620Y784860D02*
D03*
X919480Y739140D02*
D03*
X858520Y774700D02*
D03*
X182880Y726440D02*
D03*
X439420Y741680D02*
D03*
X548640Y784860D02*
D03*
X386080Y769620D02*
D03*
X96520Y772160D02*
D03*
X167640Y784860D02*
D03*
Y962660D02*
D03*
X848360Y904240D02*
D03*
X1038860D02*
D03*
X1135380D02*
D03*
X1231900D02*
D03*
X1300480Y916940D02*
D03*
X1325880Y904240D02*
D03*
X1422400D02*
D03*
X1490980Y916940D02*
D03*
X1516380Y904240D02*
D03*
X1610360D02*
D03*
X1696720Y962660D02*
D03*
X1620520Y944880D02*
D03*
X1595120Y962660D02*
D03*
X1498600D02*
D03*
X1430020Y944880D02*
D03*
X1402080Y962660D02*
D03*
X1310640D02*
D03*
X1214120D02*
D03*
X1120140D02*
D03*
X1021080D02*
D03*
X929640Y960120D02*
D03*
X833120Y962660D02*
D03*
X736600D02*
D03*
X668020Y952500D02*
D03*
X642620Y962660D02*
D03*
X548640D02*
D03*
X452120D02*
D03*
X358140D02*
D03*
X124460Y947420D02*
D03*
X83820Y1082040D02*
D03*
X157480Y1094740D02*
D03*
X182880Y1082040D02*
D03*
X254000Y1092200D02*
D03*
X276860Y1082040D02*
D03*
X347980Y1094740D02*
D03*
X388620Y1071880D02*
D03*
X469900Y1082040D02*
D03*
X538480Y1092200D02*
D03*
X563880Y1082040D02*
D03*
X654050Y1422400D02*
D03*
D25*
X391160Y1595120D02*
D03*
X1386840Y1582420D02*
D03*
X1419860Y210820D02*
D03*
X347980Y218440D02*
D03*
D26*
X184150Y1181100D02*
D03*
M02*
