G04*
G04 #@! TF.GenerationSoftware,Altium Limited,Altium Designer,21.1.1 (26)*
G04*
G04 Layer_Physical_Order=2*
G04 Layer_Color=16711680*
%FSLAX25Y25*%
%MOIN*%
G70*
G04*
G04 #@! TF.SameCoordinates,FBF54A61-61D9-4F17-B791-177234694A3B*
G04*
G04*
G04 #@! TF.FilePolarity,Positive*
G04*
G01*
G75*
%ADD11C,0.02000*%
%ADD15C,0.00600*%
%ADD42O,0.12992X0.07087*%
%ADD43O,0.07874X0.14961*%
%ADD44C,0.07000*%
%ADD45C,0.06378*%
%ADD46C,0.06496*%
%ADD47C,0.02500*%
G36*
X347961Y180000D02*
X270439D01*
Y183044D01*
X270650Y183552D01*
Y184448D01*
X270307Y185275D01*
X269674Y185907D01*
X268848Y186250D01*
X267952D01*
X267126Y185907D01*
X266493Y185275D01*
X266150Y184448D01*
Y183552D01*
X266361Y183044D01*
Y180000D01*
X160000D01*
Y2039D01*
X2039D01*
X2039Y233333D01*
Y347961D01*
X347961D01*
Y180000D01*
D02*
G37*
%LPC*%
G36*
X210592Y344500D02*
X210500D01*
Y340500D01*
X214500D01*
Y340592D01*
X214193Y341737D01*
X213601Y342763D01*
X212763Y343601D01*
X211737Y344193D01*
X210592Y344500D01*
D02*
G37*
G36*
X209500D02*
X209408D01*
X208263Y344193D01*
X207237Y343601D01*
X206399Y342763D01*
X205807Y341737D01*
X205500Y340592D01*
Y340500D01*
X209500D01*
Y344500D01*
D02*
G37*
G36*
X200592D02*
X200500D01*
Y340500D01*
X204500D01*
Y340592D01*
X204193Y341737D01*
X203601Y342763D01*
X202763Y343601D01*
X201737Y344193D01*
X200592Y344500D01*
D02*
G37*
G36*
X199500D02*
X199408D01*
X198263Y344193D01*
X197237Y343601D01*
X196399Y342763D01*
X195807Y341737D01*
X195500Y340592D01*
Y340500D01*
X199500D01*
Y344500D01*
D02*
G37*
G36*
X190592D02*
X190500D01*
Y340500D01*
X194500D01*
Y340592D01*
X194193Y341737D01*
X193601Y342763D01*
X192763Y343601D01*
X191737Y344193D01*
X190592Y344500D01*
D02*
G37*
G36*
X189500D02*
X189408D01*
X188263Y344193D01*
X187237Y343601D01*
X186399Y342763D01*
X185807Y341737D01*
X185500Y340592D01*
Y340500D01*
X189500D01*
Y344500D01*
D02*
G37*
G36*
X214500Y339500D02*
X210500D01*
Y335500D01*
X210592D01*
X211737Y335807D01*
X212763Y336399D01*
X213601Y337237D01*
X214193Y338263D01*
X214500Y339408D01*
Y339500D01*
D02*
G37*
G36*
X209500D02*
X205500D01*
Y339408D01*
X205807Y338263D01*
X206399Y337237D01*
X207237Y336399D01*
X208263Y335807D01*
X209408Y335500D01*
X209500D01*
Y339500D01*
D02*
G37*
G36*
X204500D02*
X200500D01*
Y335500D01*
X200592D01*
X201737Y335807D01*
X202763Y336399D01*
X203601Y337237D01*
X204193Y338263D01*
X204500Y339408D01*
Y339500D01*
D02*
G37*
G36*
X199500D02*
X195500D01*
Y339408D01*
X195807Y338263D01*
X196399Y337237D01*
X197237Y336399D01*
X198263Y335807D01*
X199408Y335500D01*
X199500D01*
Y339500D01*
D02*
G37*
G36*
X194500D02*
X190500D01*
Y335500D01*
X190592D01*
X191737Y335807D01*
X192763Y336399D01*
X193601Y337237D01*
X194193Y338263D01*
X194500Y339408D01*
Y339500D01*
D02*
G37*
G36*
X189500D02*
X185500D01*
Y339408D01*
X185807Y338263D01*
X186399Y337237D01*
X187237Y336399D01*
X188263Y335807D01*
X189408Y335500D01*
X189500D01*
Y339500D01*
D02*
G37*
G36*
X180592Y344500D02*
X179408D01*
X178263Y344193D01*
X177237Y343601D01*
X176399Y342763D01*
X175807Y341737D01*
X175500Y340592D01*
Y339408D01*
X175807Y338263D01*
X176399Y337237D01*
X177237Y336399D01*
X178263Y335807D01*
X179408Y335500D01*
X180592D01*
X181737Y335807D01*
X182763Y336399D01*
X183601Y337237D01*
X184193Y338263D01*
X184500Y339408D01*
Y340592D01*
X184193Y341737D01*
X183601Y342763D01*
X182763Y343601D01*
X181737Y344193D01*
X180592Y344500D01*
D02*
G37*
G36*
X34500Y337827D02*
Y329870D01*
X38980D01*
Y332913D01*
X38810Y334202D01*
X38313Y335403D01*
X37521Y336435D01*
X36490Y337226D01*
X35289Y337723D01*
X34500Y337827D01*
D02*
G37*
G36*
X33500D02*
X32711Y337723D01*
X31510Y337226D01*
X30479Y336435D01*
X29688Y335403D01*
X29190Y334202D01*
X29020Y332913D01*
Y329870D01*
X33500D01*
Y337827D01*
D02*
G37*
G36*
X157059Y332748D02*
X155941D01*
X154860Y332458D01*
X153892Y331899D01*
X153101Y331108D01*
X152541Y330140D01*
X152252Y329059D01*
Y327941D01*
X152541Y326860D01*
X153101Y325892D01*
X153892Y325101D01*
X154860Y324541D01*
X155941Y324252D01*
X157059D01*
X158140Y324541D01*
X159108Y325101D01*
X159899Y325892D01*
X160459Y326860D01*
X160748Y327941D01*
Y329059D01*
X160459Y330140D01*
X159899Y331108D01*
X159108Y331899D01*
X158140Y332458D01*
X157059Y332748D01*
D02*
G37*
G36*
X38980Y328870D02*
X34500D01*
Y320913D01*
X35289Y321017D01*
X36490Y321514D01*
X37521Y322306D01*
X38313Y323337D01*
X38810Y324538D01*
X38980Y325827D01*
Y328870D01*
D02*
G37*
G36*
X33500D02*
X29020D01*
Y325827D01*
X29190Y324538D01*
X29688Y323337D01*
X30479Y322306D01*
X31510Y321514D01*
X32711Y321017D01*
X33500Y320913D01*
Y328870D01*
D02*
G37*
G36*
X57622Y337893D02*
X56333Y337723D01*
X55132Y337226D01*
X54101Y336435D01*
X53310Y335403D01*
X52812Y334202D01*
X52642Y332913D01*
Y325827D01*
X52812Y324538D01*
X53310Y323337D01*
X54101Y322306D01*
X55132Y321514D01*
X56333Y321017D01*
X57622Y320847D01*
X58911Y321017D01*
X60112Y321514D01*
X61143Y322306D01*
X61935Y323337D01*
X62432Y324538D01*
X62602Y325827D01*
Y332913D01*
X62432Y334202D01*
X61935Y335403D01*
X61143Y336435D01*
X60112Y337226D01*
X58911Y337723D01*
X57622Y337893D01*
D02*
G37*
G36*
X260552Y324189D02*
X259449D01*
X258383Y323903D01*
X257428Y323352D01*
X256648Y322572D01*
X256097Y321617D01*
X255811Y320551D01*
Y319448D01*
X256097Y318383D01*
X256648Y317428D01*
X257428Y316648D01*
X258383Y316096D01*
X259449Y315811D01*
X260552D01*
X261617Y316096D01*
X262572Y316648D01*
X263352Y317428D01*
X263903Y318383D01*
X264189Y319448D01*
Y320551D01*
X263903Y321617D01*
X263352Y322572D01*
X262572Y323352D01*
X261617Y323903D01*
X260552Y324189D01*
D02*
G37*
G36*
X250552D02*
X249448D01*
X248383Y323903D01*
X247428Y323352D01*
X246648Y322572D01*
X246096Y321617D01*
X245811Y320551D01*
Y319448D01*
X246096Y318383D01*
X246648Y317428D01*
X247428Y316648D01*
X248383Y316096D01*
X249448Y315811D01*
X250552D01*
X251617Y316096D01*
X252572Y316648D01*
X253352Y317428D01*
X253904Y318383D01*
X254189Y319448D01*
Y320551D01*
X253904Y321617D01*
X253352Y322572D01*
X252572Y323352D01*
X251617Y323903D01*
X250552Y324189D01*
D02*
G37*
G36*
X157059Y322748D02*
X155941D01*
X154860Y322459D01*
X153892Y321899D01*
X153101Y321108D01*
X152541Y320140D01*
X152252Y319059D01*
Y317941D01*
X152541Y316860D01*
X153101Y315892D01*
X153892Y315101D01*
X154860Y314542D01*
X155941Y314252D01*
X157059D01*
X158140Y314542D01*
X159108Y315101D01*
X159899Y315892D01*
X160459Y316860D01*
X160748Y317941D01*
Y319059D01*
X160459Y320140D01*
X159899Y321108D01*
X159108Y321899D01*
X158140Y322459D01*
X157059Y322748D01*
D02*
G37*
G36*
X50732Y315646D02*
X48280D01*
Y311563D01*
X55249D01*
X55159Y312249D01*
X54701Y313354D01*
X53973Y314303D01*
X53023Y315032D01*
X51918Y315489D01*
X50732Y315646D01*
D02*
G37*
G36*
X47280D02*
X44827D01*
X43641Y315489D01*
X42535Y315032D01*
X41587Y314303D01*
X40858Y313354D01*
X40400Y312249D01*
X40310Y311563D01*
X47280D01*
Y315646D01*
D02*
G37*
G36*
X55249Y310563D02*
X48280D01*
Y306481D01*
X50732D01*
X51918Y306637D01*
X53023Y307094D01*
X53973Y307823D01*
X54701Y308772D01*
X55159Y309877D01*
X55249Y310563D01*
D02*
G37*
G36*
X47280D02*
X40310D01*
X40400Y309877D01*
X40858Y308772D01*
X41587Y307823D01*
X42535Y307094D01*
X43641Y306637D01*
X44827Y306481D01*
X47280D01*
Y310563D01*
D02*
G37*
G36*
X157059Y312748D02*
X155941D01*
X154860Y312458D01*
X153892Y311899D01*
X153101Y311108D01*
X152541Y310140D01*
X152252Y309059D01*
Y307941D01*
X152541Y306860D01*
X153101Y305892D01*
X153892Y305101D01*
X154860Y304541D01*
X155941Y304252D01*
X157059D01*
X158140Y304541D01*
X159108Y305101D01*
X159899Y305892D01*
X160459Y306860D01*
X160748Y307941D01*
Y309059D01*
X160459Y310140D01*
X159899Y311108D01*
X159108Y311899D01*
X158140Y312458D01*
X157059Y312748D01*
D02*
G37*
G36*
X340392Y307400D02*
X340300D01*
Y303400D01*
X344300D01*
Y303492D01*
X343993Y304637D01*
X343401Y305663D01*
X342563Y306501D01*
X341537Y307093D01*
X340392Y307400D01*
D02*
G37*
G36*
X339300D02*
X339208D01*
X338063Y307093D01*
X337037Y306501D01*
X336199Y305663D01*
X335607Y304637D01*
X335300Y303492D01*
Y303400D01*
X339300D01*
Y307400D01*
D02*
G37*
G36*
X330392D02*
X330300D01*
Y303400D01*
X334300D01*
Y303492D01*
X333993Y304637D01*
X333401Y305663D01*
X332563Y306501D01*
X331537Y307093D01*
X330392Y307400D01*
D02*
G37*
G36*
X329300D02*
X329208D01*
X328063Y307093D01*
X327037Y306501D01*
X326199Y305663D01*
X325607Y304637D01*
X325300Y303492D01*
Y303400D01*
X329300D01*
Y307400D01*
D02*
G37*
G36*
X320392D02*
X320300D01*
Y303400D01*
X324300D01*
Y303492D01*
X323993Y304637D01*
X323401Y305663D01*
X322563Y306501D01*
X321537Y307093D01*
X320392Y307400D01*
D02*
G37*
G36*
X319300D02*
X319208D01*
X318063Y307093D01*
X317037Y306501D01*
X316199Y305663D01*
X315607Y304637D01*
X315300Y303492D01*
Y303400D01*
X319300D01*
Y307400D01*
D02*
G37*
G36*
X344300Y302400D02*
X340300D01*
Y298400D01*
X340392D01*
X341537Y298707D01*
X342563Y299299D01*
X343401Y300137D01*
X343993Y301163D01*
X344300Y302308D01*
Y302400D01*
D02*
G37*
G36*
X339300D02*
X335300D01*
Y302308D01*
X335607Y301163D01*
X336199Y300137D01*
X337037Y299299D01*
X338063Y298707D01*
X339208Y298400D01*
X339300D01*
Y302400D01*
D02*
G37*
G36*
X334300D02*
X330300D01*
Y298400D01*
X330392D01*
X331537Y298707D01*
X332563Y299299D01*
X333401Y300137D01*
X333993Y301163D01*
X334300Y302308D01*
Y302400D01*
D02*
G37*
G36*
X329300D02*
X325300D01*
Y302308D01*
X325607Y301163D01*
X326199Y300137D01*
X327037Y299299D01*
X328063Y298707D01*
X329208Y298400D01*
X329300D01*
Y302400D01*
D02*
G37*
G36*
X324300D02*
X320300D01*
Y298400D01*
X320392D01*
X321537Y298707D01*
X322563Y299299D01*
X323401Y300137D01*
X323993Y301163D01*
X324300Y302308D01*
Y302400D01*
D02*
G37*
G36*
X319300D02*
X315300D01*
Y302308D01*
X315607Y301163D01*
X316199Y300137D01*
X317037Y299299D01*
X318063Y298707D01*
X319208Y298400D01*
X319300D01*
Y302400D01*
D02*
G37*
G36*
X310392Y307400D02*
X309208D01*
X308063Y307093D01*
X307037Y306501D01*
X306199Y305663D01*
X305607Y304637D01*
X305300Y303492D01*
Y302308D01*
X305607Y301163D01*
X306199Y300137D01*
X307037Y299299D01*
X308063Y298707D01*
X309208Y298400D01*
X310392D01*
X311537Y298707D01*
X312563Y299299D01*
X313401Y300137D01*
X313993Y301163D01*
X314300Y302308D01*
Y303492D01*
X313993Y304637D01*
X313401Y305663D01*
X312563Y306501D01*
X311537Y307093D01*
X310392Y307400D01*
D02*
G37*
G36*
X244548Y304950D02*
X243652D01*
X242826Y304608D01*
X242193Y303975D01*
X241850Y303148D01*
Y302252D01*
X242193Y301426D01*
X242826Y300793D01*
X243652Y300450D01*
X244476D01*
X244845Y300081D01*
X244845Y300081D01*
X247063Y297863D01*
X247493Y297575D01*
X248000Y297475D01*
X250243D01*
X250826Y296892D01*
X251652Y296550D01*
X252548D01*
X253375Y296892D01*
X254008Y297526D01*
X254350Y298352D01*
Y299248D01*
X254008Y300075D01*
X253375Y300708D01*
X252548Y301050D01*
X251652D01*
X250826Y300708D01*
X250243Y300126D01*
X248549D01*
X246719Y301956D01*
X246719Y301956D01*
X246350Y302325D01*
Y303148D01*
X246007Y303975D01*
X245374Y304608D01*
X244548Y304950D01*
D02*
G37*
G36*
X22592Y300500D02*
X22500D01*
Y296500D01*
X26500D01*
Y296592D01*
X26193Y297737D01*
X25601Y298763D01*
X24763Y299601D01*
X23737Y300193D01*
X22592Y300500D01*
D02*
G37*
G36*
X12592D02*
X12500D01*
Y296500D01*
X16500D01*
Y296592D01*
X16193Y297737D01*
X15601Y298763D01*
X14763Y299601D01*
X13737Y300193D01*
X12592Y300500D01*
D02*
G37*
G36*
X32592D02*
X32500D01*
Y296500D01*
X36500D01*
Y296592D01*
X36193Y297737D01*
X35601Y298763D01*
X34763Y299601D01*
X33737Y300193D01*
X32592Y300500D01*
D02*
G37*
G36*
X21500D02*
X21408D01*
X20263Y300193D01*
X19237Y299601D01*
X18399Y298763D01*
X17807Y297737D01*
X17500Y296592D01*
Y296500D01*
X21500D01*
Y300500D01*
D02*
G37*
G36*
X11500D02*
X11408D01*
X10263Y300193D01*
X9237Y299601D01*
X8399Y298763D01*
X7807Y297737D01*
X7500Y296592D01*
Y296500D01*
X11500D01*
Y300500D01*
D02*
G37*
G36*
X31500D02*
X31408D01*
X30263Y300193D01*
X29237Y299601D01*
X28399Y298763D01*
X27807Y297737D01*
X27500Y296592D01*
Y296500D01*
X31500D01*
Y300500D01*
D02*
G37*
G36*
X42592D02*
X41408D01*
X40263Y300193D01*
X39237Y299601D01*
X38399Y298763D01*
X37807Y297737D01*
X37500Y296592D01*
Y295408D01*
X37807Y294263D01*
X38399Y293237D01*
X39237Y292399D01*
X40263Y291807D01*
X41408Y291500D01*
X42592D01*
X43737Y291807D01*
X44763Y292399D01*
X45601Y293237D01*
X46193Y294263D01*
X46500Y295408D01*
Y296592D01*
X46193Y297737D01*
X45601Y298763D01*
X44763Y299601D01*
X43737Y300193D01*
X42592Y300500D01*
D02*
G37*
G36*
X36500Y295500D02*
X32500D01*
Y291500D01*
X32592D01*
X33737Y291807D01*
X34763Y292399D01*
X35601Y293237D01*
X36193Y294263D01*
X36500Y295408D01*
Y295500D01*
D02*
G37*
G36*
X31500D02*
X27500D01*
Y295408D01*
X27807Y294263D01*
X28399Y293237D01*
X29237Y292399D01*
X30263Y291807D01*
X31408Y291500D01*
X31500D01*
Y295500D01*
D02*
G37*
G36*
X26500D02*
X22500D01*
Y291500D01*
X22592D01*
X23737Y291807D01*
X24763Y292399D01*
X25601Y293237D01*
X26193Y294263D01*
X26500Y295408D01*
Y295500D01*
D02*
G37*
G36*
X21500D02*
X17500D01*
Y295408D01*
X17807Y294263D01*
X18399Y293237D01*
X19237Y292399D01*
X20263Y291807D01*
X21408Y291500D01*
X21500D01*
Y295500D01*
D02*
G37*
G36*
X16500D02*
X12500D01*
Y291500D01*
X12592D01*
X13737Y291807D01*
X14763Y292399D01*
X15601Y293237D01*
X16193Y294263D01*
X16500Y295408D01*
Y295500D01*
D02*
G37*
G36*
X11500D02*
X7500D01*
Y295408D01*
X7807Y294263D01*
X8399Y293237D01*
X9237Y292399D01*
X10263Y291807D01*
X11408Y291500D01*
X11500D01*
Y295500D01*
D02*
G37*
G36*
X139551Y296189D02*
X138449D01*
X137383Y295903D01*
X136428Y295352D01*
X135648Y294572D01*
X135097Y293617D01*
X134811Y292551D01*
Y291448D01*
X135097Y290383D01*
X135648Y289428D01*
X136428Y288648D01*
X137383Y288096D01*
X138449Y287811D01*
X139551D01*
X140617Y288096D01*
X141572Y288648D01*
X142352Y289428D01*
X142903Y290383D01*
X143189Y291448D01*
Y292551D01*
X142903Y293617D01*
X142352Y294572D01*
X141572Y295352D01*
X140617Y295903D01*
X139551Y296189D01*
D02*
G37*
G36*
X129551D02*
X128448D01*
X127383Y295903D01*
X126428Y295352D01*
X125648Y294572D01*
X125096Y293617D01*
X124811Y292551D01*
Y291448D01*
X125096Y290383D01*
X125648Y289428D01*
X126428Y288648D01*
X127383Y288096D01*
X128448Y287811D01*
X129551D01*
X130617Y288096D01*
X131572Y288648D01*
X132352Y289428D01*
X132904Y290383D01*
X133189Y291448D01*
Y292551D01*
X132904Y293617D01*
X132352Y294572D01*
X131572Y295352D01*
X130617Y295903D01*
X129551Y296189D01*
D02*
G37*
G36*
X22592Y274500D02*
X22500D01*
Y270500D01*
X26500D01*
Y270592D01*
X26193Y271737D01*
X25601Y272763D01*
X24763Y273601D01*
X23737Y274193D01*
X22592Y274500D01*
D02*
G37*
G36*
X12592D02*
X12500D01*
Y270500D01*
X16500D01*
Y270592D01*
X16193Y271737D01*
X15601Y272763D01*
X14763Y273601D01*
X13737Y274193D01*
X12592Y274500D01*
D02*
G37*
G36*
X32592D02*
X32500D01*
Y270500D01*
X36500D01*
Y270592D01*
X36193Y271737D01*
X35601Y272763D01*
X34763Y273601D01*
X33737Y274193D01*
X32592Y274500D01*
D02*
G37*
G36*
X21500D02*
X21408D01*
X20263Y274193D01*
X19237Y273601D01*
X18399Y272763D01*
X17807Y271737D01*
X17500Y270592D01*
Y270500D01*
X21500D01*
Y274500D01*
D02*
G37*
G36*
X11500D02*
X11408D01*
X10263Y274193D01*
X9237Y273601D01*
X8399Y272763D01*
X7807Y271737D01*
X7500Y270592D01*
Y270500D01*
X11500D01*
Y274500D01*
D02*
G37*
G36*
X31500D02*
X31408D01*
X30263Y274193D01*
X29237Y273601D01*
X28399Y272763D01*
X27807Y271737D01*
X27500Y270592D01*
Y270500D01*
X31500D01*
Y274500D01*
D02*
G37*
G36*
X42592D02*
X41408D01*
X40263Y274193D01*
X39237Y273601D01*
X38399Y272763D01*
X37807Y271737D01*
X37500Y270592D01*
Y269408D01*
X37807Y268263D01*
X38399Y267237D01*
X39237Y266399D01*
X40263Y265807D01*
X41408Y265500D01*
X42592D01*
X43737Y265807D01*
X44763Y266399D01*
X45601Y267237D01*
X46193Y268263D01*
X46500Y269408D01*
Y270592D01*
X46193Y271737D01*
X45601Y272763D01*
X44763Y273601D01*
X43737Y274193D01*
X42592Y274500D01*
D02*
G37*
G36*
X36500Y269500D02*
X32500D01*
Y265500D01*
X32592D01*
X33737Y265807D01*
X34763Y266399D01*
X35601Y267237D01*
X36193Y268263D01*
X36500Y269408D01*
Y269500D01*
D02*
G37*
G36*
X31500D02*
X27500D01*
Y269408D01*
X27807Y268263D01*
X28399Y267237D01*
X29237Y266399D01*
X30263Y265807D01*
X31408Y265500D01*
X31500D01*
Y269500D01*
D02*
G37*
G36*
X26500D02*
X22500D01*
Y265500D01*
X22592D01*
X23737Y265807D01*
X24763Y266399D01*
X25601Y267237D01*
X26193Y268263D01*
X26500Y269408D01*
Y269500D01*
D02*
G37*
G36*
X21500D02*
X17500D01*
Y269408D01*
X17807Y268263D01*
X18399Y267237D01*
X19237Y266399D01*
X20263Y265807D01*
X21408Y265500D01*
X21500D01*
Y269500D01*
D02*
G37*
G36*
X16500D02*
X12500D01*
Y265500D01*
X12592D01*
X13737Y265807D01*
X14763Y266399D01*
X15601Y267237D01*
X16193Y268263D01*
X16500Y269408D01*
Y269500D01*
D02*
G37*
G36*
X11500D02*
X7500D01*
Y269408D01*
X7807Y268263D01*
X8399Y267237D01*
X9237Y266399D01*
X10263Y265807D01*
X11408Y265500D01*
X11500D01*
Y269500D01*
D02*
G37*
G36*
X198148Y243150D02*
X197252D01*
X196425Y242808D01*
X195792Y242175D01*
X195450Y241348D01*
Y240452D01*
X195792Y239626D01*
X196425Y238993D01*
X196764Y238852D01*
X201258Y234358D01*
X201264Y234354D01*
X201726Y233892D01*
X202552Y233550D01*
X203448D01*
X204275Y233892D01*
X204907Y234525D01*
X205250Y235352D01*
Y236248D01*
X204907Y237074D01*
X204275Y237707D01*
X203448Y238050D01*
X203334D01*
X199889Y241495D01*
X199608Y242175D01*
X198975Y242808D01*
X198148Y243150D01*
D02*
G37*
G36*
X289251Y221789D02*
X288148D01*
X287083Y221503D01*
X286128Y220952D01*
X285348Y220172D01*
X284797Y219217D01*
X284511Y218151D01*
Y217049D01*
X284797Y215983D01*
X285348Y215028D01*
X286128Y214248D01*
X287083Y213697D01*
X288148Y213411D01*
X289251D01*
X290317Y213697D01*
X291272Y214248D01*
X292052Y215028D01*
X292603Y215983D01*
X292889Y217049D01*
Y218151D01*
X292603Y219217D01*
X292052Y220172D01*
X291272Y220952D01*
X290317Y221503D01*
X289251Y221789D01*
D02*
G37*
G36*
X279252D02*
X278149D01*
X277083Y221503D01*
X276128Y220952D01*
X275348Y220172D01*
X274797Y219217D01*
X274511Y218151D01*
Y217049D01*
X274797Y215983D01*
X275348Y215028D01*
X276128Y214248D01*
X277083Y213697D01*
X278149Y213411D01*
X279252D01*
X280317Y213697D01*
X281272Y214248D01*
X282052Y215028D01*
X282604Y215983D01*
X282889Y217049D01*
Y218151D01*
X282604Y219217D01*
X282052Y220172D01*
X281272Y220952D01*
X280317Y221503D01*
X279252Y221789D01*
D02*
G37*
G36*
X79952Y121089D02*
X78848D01*
X77783Y120803D01*
X76828Y120252D01*
X76048Y119472D01*
X75497Y118517D01*
X75211Y117452D01*
Y116349D01*
X75497Y115283D01*
X76048Y114328D01*
X76828Y113548D01*
X77783Y112996D01*
X78848Y112711D01*
X79952D01*
X81017Y112996D01*
X81972Y113548D01*
X82752Y114328D01*
X83303Y115283D01*
X83589Y116349D01*
Y117452D01*
X83303Y118517D01*
X82752Y119472D01*
X81972Y120252D01*
X81017Y120803D01*
X79952Y121089D01*
D02*
G37*
G36*
X69951D02*
X68849D01*
X67783Y120803D01*
X66828Y120252D01*
X66048Y119472D01*
X65496Y118517D01*
X65211Y117452D01*
Y116349D01*
X65496Y115283D01*
X66048Y114328D01*
X66828Y113548D01*
X67783Y112996D01*
X68849Y112711D01*
X69951D01*
X71017Y112996D01*
X71972Y113548D01*
X72752Y114328D01*
X73304Y115283D01*
X73589Y116349D01*
Y117452D01*
X73304Y118517D01*
X72752Y119472D01*
X71972Y120252D01*
X71017Y120803D01*
X69951Y121089D01*
D02*
G37*
G36*
X149992Y102500D02*
X149900D01*
Y98500D01*
X153900D01*
Y98592D01*
X153593Y99737D01*
X153001Y100763D01*
X152163Y101601D01*
X151137Y102193D01*
X149992Y102500D01*
D02*
G37*
G36*
X148900D02*
X148808D01*
X147663Y102193D01*
X146637Y101601D01*
X145799Y100763D01*
X145207Y99737D01*
X144900Y98592D01*
Y98500D01*
X148900D01*
Y102500D01*
D02*
G37*
G36*
X139992D02*
X139900D01*
Y98500D01*
X143900D01*
Y98592D01*
X143593Y99737D01*
X143001Y100763D01*
X142163Y101601D01*
X141137Y102193D01*
X139992Y102500D01*
D02*
G37*
G36*
X138900D02*
X138808D01*
X137663Y102193D01*
X136637Y101601D01*
X135799Y100763D01*
X135207Y99737D01*
X134900Y98592D01*
Y98500D01*
X138900D01*
Y102500D01*
D02*
G37*
G36*
X129992D02*
X129900D01*
Y98500D01*
X133900D01*
Y98592D01*
X133593Y99737D01*
X133001Y100763D01*
X132163Y101601D01*
X131137Y102193D01*
X129992Y102500D01*
D02*
G37*
G36*
X128900D02*
X128808D01*
X127663Y102193D01*
X126637Y101601D01*
X125799Y100763D01*
X125207Y99737D01*
X124900Y98592D01*
Y98500D01*
X128900D01*
Y102500D01*
D02*
G37*
G36*
X153900Y97500D02*
X149900D01*
Y93500D01*
X149992D01*
X151137Y93807D01*
X152163Y94399D01*
X153001Y95237D01*
X153593Y96263D01*
X153900Y97408D01*
Y97500D01*
D02*
G37*
G36*
X148900D02*
X144900D01*
Y97408D01*
X145207Y96263D01*
X145799Y95237D01*
X146637Y94399D01*
X147663Y93807D01*
X148808Y93500D01*
X148900D01*
Y97500D01*
D02*
G37*
G36*
X143900D02*
X139900D01*
Y93500D01*
X139992D01*
X141137Y93807D01*
X142163Y94399D01*
X143001Y95237D01*
X143593Y96263D01*
X143900Y97408D01*
Y97500D01*
D02*
G37*
G36*
X138900D02*
X134900D01*
Y97408D01*
X135207Y96263D01*
X135799Y95237D01*
X136637Y94399D01*
X137663Y93807D01*
X138808Y93500D01*
X138900D01*
Y97500D01*
D02*
G37*
G36*
X133900D02*
X129900D01*
Y93500D01*
X129992D01*
X131137Y93807D01*
X132163Y94399D01*
X133001Y95237D01*
X133593Y96263D01*
X133900Y97408D01*
Y97500D01*
D02*
G37*
G36*
X128900D02*
X124900D01*
Y97408D01*
X125207Y96263D01*
X125799Y95237D01*
X126637Y94399D01*
X127663Y93807D01*
X128808Y93500D01*
X128900D01*
Y97500D01*
D02*
G37*
G36*
X119992Y102500D02*
X118808D01*
X117663Y102193D01*
X116637Y101601D01*
X115799Y100763D01*
X115207Y99737D01*
X114900Y98592D01*
Y97408D01*
X115207Y96263D01*
X115799Y95237D01*
X116637Y94399D01*
X117663Y93807D01*
X118808Y93500D01*
X119992D01*
X121137Y93807D01*
X122163Y94399D01*
X123001Y95237D01*
X123593Y96263D01*
X123900Y97408D01*
Y98592D01*
X123593Y99737D01*
X123001Y100763D01*
X122163Y101601D01*
X121137Y102193D01*
X119992Y102500D01*
D02*
G37*
G36*
X35192Y93928D02*
X35100D01*
Y89928D01*
X39100D01*
Y90021D01*
X38793Y91165D01*
X38201Y92191D01*
X37363Y93029D01*
X36337Y93622D01*
X35192Y93928D01*
D02*
G37*
G36*
X25192D02*
X25100D01*
Y89928D01*
X29100D01*
Y90021D01*
X28793Y91165D01*
X28201Y92191D01*
X27363Y93029D01*
X26337Y93622D01*
X25192Y93928D01*
D02*
G37*
G36*
X15192D02*
X15100D01*
Y89928D01*
X19100D01*
Y90021D01*
X18793Y91165D01*
X18201Y92191D01*
X17363Y93029D01*
X16337Y93622D01*
X15192Y93928D01*
D02*
G37*
G36*
X34100D02*
X34008D01*
X32863Y93622D01*
X31837Y93029D01*
X30999Y92191D01*
X30407Y91165D01*
X30100Y90021D01*
Y89928D01*
X34100D01*
Y93928D01*
D02*
G37*
G36*
X24100D02*
X24008D01*
X22863Y93622D01*
X21837Y93029D01*
X20999Y92191D01*
X20407Y91165D01*
X20100Y90021D01*
Y89928D01*
X24100D01*
Y93928D01*
D02*
G37*
G36*
X14100D02*
X14008D01*
X12863Y93622D01*
X11837Y93029D01*
X10999Y92191D01*
X10407Y91165D01*
X10100Y90021D01*
Y89928D01*
X14100D01*
Y93928D01*
D02*
G37*
G36*
X45192D02*
X44008D01*
X42863Y93622D01*
X41837Y93029D01*
X40999Y92191D01*
X40407Y91165D01*
X40100Y90021D01*
Y88836D01*
X40407Y87691D01*
X40999Y86665D01*
X41837Y85827D01*
X42863Y85235D01*
X44008Y84928D01*
X45192D01*
X46337Y85235D01*
X47363Y85827D01*
X48201Y86665D01*
X48793Y87691D01*
X49100Y88836D01*
Y90021D01*
X48793Y91165D01*
X48201Y92191D01*
X47363Y93029D01*
X46337Y93622D01*
X45192Y93928D01*
D02*
G37*
G36*
X39100Y88928D02*
X35100D01*
Y84928D01*
X35192D01*
X36337Y85235D01*
X37363Y85827D01*
X38201Y86665D01*
X38793Y87691D01*
X39100Y88836D01*
Y88928D01*
D02*
G37*
G36*
X34100D02*
X30100D01*
Y88836D01*
X30407Y87691D01*
X30999Y86665D01*
X31837Y85827D01*
X32863Y85235D01*
X34008Y84928D01*
X34100D01*
Y88928D01*
D02*
G37*
G36*
X29100D02*
X25100D01*
Y84928D01*
X25192D01*
X26337Y85235D01*
X27363Y85827D01*
X28201Y86665D01*
X28793Y87691D01*
X29100Y88836D01*
Y88928D01*
D02*
G37*
G36*
X24100D02*
X20100D01*
Y88836D01*
X20407Y87691D01*
X20999Y86665D01*
X21837Y85827D01*
X22863Y85235D01*
X24008Y84928D01*
X24100D01*
Y88928D01*
D02*
G37*
G36*
X19100D02*
X15100D01*
Y84928D01*
X15192D01*
X16337Y85235D01*
X17363Y85827D01*
X18201Y86665D01*
X18793Y87691D01*
X19100Y88836D01*
Y88928D01*
D02*
G37*
G36*
X14100D02*
X10100D01*
Y88836D01*
X10407Y87691D01*
X10999Y86665D01*
X11837Y85827D01*
X12863Y85235D01*
X14008Y84928D01*
X14100D01*
Y88928D01*
D02*
G37*
G36*
X73900Y86797D02*
X73005D01*
X72178Y86455D01*
X71545Y85822D01*
X71203Y84995D01*
Y84100D01*
X71545Y83273D01*
X72178Y82640D01*
X73005Y82297D01*
X73900D01*
X74727Y82640D01*
X75309Y83222D01*
X77404D01*
X79850Y80775D01*
Y79952D01*
X80193Y79125D01*
X80826Y78492D01*
X81652Y78150D01*
X82548D01*
X83375Y78492D01*
X84008Y79125D01*
X84350Y79952D01*
Y80848D01*
X84008Y81674D01*
X83375Y82307D01*
X82548Y82650D01*
X81725D01*
X78890Y85485D01*
X78460Y85772D01*
X77953Y85873D01*
X75309D01*
X74727Y86455D01*
X73900Y86797D01*
D02*
G37*
G36*
X34192Y65328D02*
X34100D01*
Y61328D01*
X38100D01*
Y61421D01*
X37793Y62565D01*
X37201Y63591D01*
X36363Y64429D01*
X35337Y65022D01*
X34192Y65328D01*
D02*
G37*
G36*
X24192D02*
X24100D01*
Y61328D01*
X28100D01*
Y61421D01*
X27793Y62565D01*
X27201Y63591D01*
X26363Y64429D01*
X25337Y65022D01*
X24192Y65328D01*
D02*
G37*
G36*
X14192D02*
X14100D01*
Y61328D01*
X18100D01*
Y61421D01*
X17793Y62565D01*
X17201Y63591D01*
X16363Y64429D01*
X15337Y65022D01*
X14192Y65328D01*
D02*
G37*
G36*
X33100D02*
X33008D01*
X31863Y65022D01*
X30837Y64429D01*
X29999Y63591D01*
X29407Y62565D01*
X29100Y61421D01*
Y61328D01*
X33100D01*
Y65328D01*
D02*
G37*
G36*
X23100D02*
X23008D01*
X21863Y65022D01*
X20837Y64429D01*
X19999Y63591D01*
X19407Y62565D01*
X19100Y61421D01*
Y61328D01*
X23100D01*
Y65328D01*
D02*
G37*
G36*
X13100D02*
X13008D01*
X11863Y65022D01*
X10837Y64429D01*
X9999Y63591D01*
X9407Y62565D01*
X9100Y61421D01*
Y61328D01*
X13100D01*
Y65328D01*
D02*
G37*
G36*
X44192D02*
X43008D01*
X41863Y65022D01*
X40837Y64429D01*
X39999Y63591D01*
X39407Y62565D01*
X39100Y61421D01*
Y60236D01*
X39407Y59092D01*
X39999Y58065D01*
X40837Y57227D01*
X41863Y56635D01*
X43008Y56328D01*
X44192D01*
X45337Y56635D01*
X46363Y57227D01*
X47201Y58065D01*
X47793Y59092D01*
X48100Y60236D01*
Y61421D01*
X47793Y62565D01*
X47201Y63591D01*
X46363Y64429D01*
X45337Y65022D01*
X44192Y65328D01*
D02*
G37*
G36*
X38100Y60328D02*
X34100D01*
Y56328D01*
X34192D01*
X35337Y56635D01*
X36363Y57227D01*
X37201Y58065D01*
X37793Y59092D01*
X38100Y60236D01*
Y60328D01*
D02*
G37*
G36*
X33100D02*
X29100D01*
Y60236D01*
X29407Y59092D01*
X29999Y58065D01*
X30837Y57227D01*
X31863Y56635D01*
X33008Y56328D01*
X33100D01*
Y60328D01*
D02*
G37*
G36*
X28100D02*
X24100D01*
Y56328D01*
X24192D01*
X25337Y56635D01*
X26363Y57227D01*
X27201Y58065D01*
X27793Y59092D01*
X28100Y60236D01*
Y60328D01*
D02*
G37*
G36*
X23100D02*
X19100D01*
Y60236D01*
X19407Y59092D01*
X19999Y58065D01*
X20837Y57227D01*
X21863Y56635D01*
X23008Y56328D01*
X23100D01*
Y60328D01*
D02*
G37*
G36*
X18100D02*
X14100D01*
Y56328D01*
X14192D01*
X15337Y56635D01*
X16363Y57227D01*
X17201Y58065D01*
X17793Y59092D01*
X18100Y60236D01*
Y60328D01*
D02*
G37*
G36*
X13100D02*
X9100D01*
Y60236D01*
X9407Y59092D01*
X9999Y58065D01*
X10837Y57227D01*
X11863Y56635D01*
X13008Y56328D01*
X13100D01*
Y60328D01*
D02*
G37*
G36*
X74092Y45828D02*
X72908D01*
X71763Y45522D01*
X70737Y44929D01*
X69899Y44091D01*
X69307Y43065D01*
X69000Y41921D01*
Y40736D01*
X69307Y39592D01*
X69899Y38565D01*
X70737Y37727D01*
X71763Y37135D01*
X72908Y36828D01*
X74092D01*
X75237Y37135D01*
X76263Y37727D01*
X77101Y38565D01*
X77693Y39592D01*
X78000Y40736D01*
Y41921D01*
X77693Y43065D01*
X77101Y44091D01*
X76263Y44929D01*
X75237Y45522D01*
X74092Y45828D01*
D02*
G37*
G36*
Y35828D02*
X74000D01*
Y31828D01*
X78000D01*
Y31921D01*
X77693Y33065D01*
X77101Y34091D01*
X76263Y34929D01*
X75237Y35522D01*
X74092Y35828D01*
D02*
G37*
G36*
X73000D02*
X72908D01*
X71763Y35522D01*
X70737Y34929D01*
X69899Y34091D01*
X69307Y33065D01*
X69000Y31921D01*
Y31828D01*
X73000D01*
Y35828D01*
D02*
G37*
G36*
X78000Y30828D02*
X74000D01*
Y26828D01*
X74092D01*
X75237Y27135D01*
X76263Y27727D01*
X77101Y28565D01*
X77693Y29592D01*
X78000Y30736D01*
Y30828D01*
D02*
G37*
G36*
X73000D02*
X69000D01*
Y30736D01*
X69307Y29592D01*
X69899Y28565D01*
X70737Y27727D01*
X71763Y27135D01*
X72908Y26828D01*
X73000D01*
Y30828D01*
D02*
G37*
G36*
X34092Y28100D02*
X34000D01*
Y24100D01*
X38000D01*
Y24192D01*
X37693Y25337D01*
X37101Y26363D01*
X36263Y27201D01*
X35237Y27793D01*
X34092Y28100D01*
D02*
G37*
G36*
X24092D02*
X24000D01*
Y24100D01*
X28000D01*
Y24192D01*
X27693Y25337D01*
X27101Y26363D01*
X26263Y27201D01*
X25237Y27793D01*
X24092Y28100D01*
D02*
G37*
G36*
X14092D02*
X14000D01*
Y24100D01*
X18000D01*
Y24192D01*
X17693Y25337D01*
X17101Y26363D01*
X16263Y27201D01*
X15237Y27793D01*
X14092Y28100D01*
D02*
G37*
G36*
X33000D02*
X32908D01*
X31763Y27793D01*
X30737Y27201D01*
X29899Y26363D01*
X29307Y25337D01*
X29000Y24192D01*
Y24100D01*
X33000D01*
Y28100D01*
D02*
G37*
G36*
X23000D02*
X22908D01*
X21763Y27793D01*
X20737Y27201D01*
X19899Y26363D01*
X19307Y25337D01*
X19000Y24192D01*
Y24100D01*
X23000D01*
Y28100D01*
D02*
G37*
G36*
X13000D02*
X12908D01*
X11763Y27793D01*
X10737Y27201D01*
X9899Y26363D01*
X9307Y25337D01*
X9000Y24192D01*
Y24100D01*
X13000D01*
Y28100D01*
D02*
G37*
G36*
X74092Y25828D02*
X74000D01*
Y21828D01*
X78000D01*
Y21921D01*
X77693Y23065D01*
X77101Y24092D01*
X76263Y24929D01*
X75237Y25522D01*
X74092Y25828D01*
D02*
G37*
G36*
X73000D02*
X72908D01*
X71763Y25522D01*
X70737Y24929D01*
X69899Y24092D01*
X69307Y23065D01*
X69000Y21921D01*
Y21828D01*
X73000D01*
Y25828D01*
D02*
G37*
G36*
X44092Y28100D02*
X42908D01*
X41763Y27793D01*
X40737Y27201D01*
X39899Y26363D01*
X39307Y25337D01*
X39000Y24192D01*
Y23008D01*
X39307Y21863D01*
X39899Y20837D01*
X40737Y19999D01*
X41763Y19407D01*
X42908Y19100D01*
X44092D01*
X45237Y19407D01*
X46263Y19999D01*
X47101Y20837D01*
X47693Y21863D01*
X48000Y23008D01*
Y24192D01*
X47693Y25337D01*
X47101Y26363D01*
X46263Y27201D01*
X45237Y27793D01*
X44092Y28100D01*
D02*
G37*
G36*
X38000Y23100D02*
X34000D01*
Y19100D01*
X34092D01*
X35237Y19407D01*
X36263Y19999D01*
X37101Y20837D01*
X37693Y21863D01*
X38000Y23008D01*
Y23100D01*
D02*
G37*
G36*
X33000D02*
X29000D01*
Y23008D01*
X29307Y21863D01*
X29899Y20837D01*
X30737Y19999D01*
X31763Y19407D01*
X32908Y19100D01*
X33000D01*
Y23100D01*
D02*
G37*
G36*
X28000D02*
X24000D01*
Y19100D01*
X24092D01*
X25237Y19407D01*
X26263Y19999D01*
X27101Y20837D01*
X27693Y21863D01*
X28000Y23008D01*
Y23100D01*
D02*
G37*
G36*
X23000D02*
X19000D01*
Y23008D01*
X19307Y21863D01*
X19899Y20837D01*
X20737Y19999D01*
X21763Y19407D01*
X22908Y19100D01*
X23000D01*
Y23100D01*
D02*
G37*
G36*
X18000D02*
X14000D01*
Y19100D01*
X14092D01*
X15237Y19407D01*
X16263Y19999D01*
X17101Y20837D01*
X17693Y21863D01*
X18000Y23008D01*
Y23100D01*
D02*
G37*
G36*
X13000D02*
X9000D01*
Y23008D01*
X9307Y21863D01*
X9899Y20837D01*
X10737Y19999D01*
X11763Y19407D01*
X12908Y19100D01*
X13000D01*
Y23100D01*
D02*
G37*
G36*
X78000Y20828D02*
X74000D01*
Y16828D01*
X74092D01*
X75237Y17135D01*
X76263Y17728D01*
X77101Y18565D01*
X77693Y19591D01*
X78000Y20736D01*
Y20828D01*
D02*
G37*
G36*
X73000D02*
X69000D01*
Y20736D01*
X69307Y19591D01*
X69899Y18565D01*
X70737Y17728D01*
X71763Y17135D01*
X72908Y16828D01*
X73000D01*
Y20828D01*
D02*
G37*
G36*
X74092Y15828D02*
X74000D01*
Y11828D01*
X78000D01*
Y11921D01*
X77693Y13065D01*
X77101Y14092D01*
X76263Y14929D01*
X75237Y15522D01*
X74092Y15828D01*
D02*
G37*
G36*
X73000D02*
X72908D01*
X71763Y15522D01*
X70737Y14929D01*
X69899Y14092D01*
X69307Y13065D01*
X69000Y11921D01*
Y11828D01*
X73000D01*
Y15828D01*
D02*
G37*
G36*
X78000Y10828D02*
X74000D01*
Y6828D01*
X74092D01*
X75237Y7135D01*
X76263Y7728D01*
X77101Y8565D01*
X77693Y9591D01*
X78000Y10736D01*
Y10828D01*
D02*
G37*
G36*
X73000D02*
X69000D01*
Y10736D01*
X69307Y9591D01*
X69899Y8565D01*
X70737Y7728D01*
X71763Y7135D01*
X72908Y6828D01*
X73000D01*
Y10828D01*
D02*
G37*
%LPD*%
D11*
X292000Y49400D02*
Y50200D01*
X343400Y32700D02*
Y38000D01*
X324128Y71228D02*
X326400Y73500D01*
X335700D01*
X292000Y50200D02*
Y54600D01*
X343400Y31900D02*
Y32700D01*
X345100Y67200D02*
Y73200D01*
X335700D02*
X345100D01*
X336101Y27500D02*
X337272Y26328D01*
Y24672D02*
Y26328D01*
X336643Y24043D02*
X337272Y24672D01*
X335472Y22800D02*
X336643Y23972D01*
Y24043D01*
X290700Y22800D02*
X335472D01*
X291400Y27500D02*
X336101D01*
X290600Y17900D02*
Y22800D01*
Y17900D02*
X320800D01*
X291000Y32700D02*
X342600D01*
X290800Y28100D02*
Y32500D01*
X291000Y32700D01*
X290800Y28100D02*
X291400Y27500D01*
X342600Y32700D02*
X343400Y31900D01*
X268100Y171600D02*
Y171735D01*
X268400Y172035D02*
Y184000D01*
X268100Y171735D02*
X268400Y172035D01*
X335700Y99100D02*
X343400D01*
X307372Y71228D02*
Y81600D01*
X328400Y99100D02*
X335700D01*
Y73200D02*
Y99100D01*
X307500Y81600D02*
Y86343D01*
X307372Y86472D02*
X307500Y86343D01*
X291800Y71100D02*
Y86472D01*
X290900Y87372D02*
Y142528D01*
Y87372D02*
X291800Y86472D01*
X290900Y142528D02*
X292072Y143700D01*
X343300Y38100D02*
X343400Y38000D01*
X291500Y38100D02*
X343300D01*
X291000Y38600D02*
X291500Y38100D01*
X291000Y38600D02*
Y44400D01*
X291100Y44500D01*
X343900D01*
Y49900D01*
X343600Y50200D02*
X343900Y49900D01*
X292800Y50200D02*
X343600D01*
X292000Y49400D02*
X292800Y50200D01*
X291800Y54800D02*
X292000Y54600D01*
X291800Y54800D02*
X343800D01*
X344100Y54500D01*
Y61100D01*
X292200D02*
X344100D01*
X291800Y60700D02*
X292200Y61100D01*
X291800Y60700D02*
Y66200D01*
X291700Y66300D02*
X291800Y66200D01*
X291700Y66300D02*
X344200D01*
X345100Y67200D01*
X307372Y71228D02*
X324128D01*
X307372Y86472D02*
Y94172D01*
X291800Y86472D02*
X307372D01*
X292072Y143700D02*
X336100D01*
X337500Y145100D01*
Y152828D01*
X336328Y154000D02*
X337500Y152828D01*
X268100Y154000D02*
X336328D01*
X197700Y240800D02*
X202700Y235800D01*
X203000D01*
X268000Y127700D02*
Y135700D01*
X268100Y135800D01*
Y154000D01*
D15*
X245782Y301018D02*
X248000Y298800D01*
X252100D01*
X245782Y301018D02*
Y301018D01*
X244100Y302700D02*
X245782Y301018D01*
X301504Y98904D02*
X325004D01*
X301500Y98900D02*
X301504Y98904D01*
X325004D02*
X325009Y98909D01*
X73453Y84547D02*
X77953D01*
X82100Y80400D01*
X279700Y80200D02*
X279701Y80199D01*
X280199D02*
X283100Y83100D01*
X279701Y80199D02*
X280199D01*
X283100Y83100D02*
Y92400D01*
X271700Y82000D02*
X274000D01*
X275900Y83900D01*
Y100200D01*
X266500Y124400D02*
X268900Y122000D01*
X255800Y124400D02*
X266500D01*
D42*
X47780Y311063D02*
D03*
D43*
X34000Y329370D02*
D03*
X57622D02*
D03*
D44*
X22000Y270000D02*
D03*
X12000D02*
D03*
X42000D02*
D03*
X32000D02*
D03*
X264100Y33100D02*
D03*
Y23100D02*
D03*
Y53100D02*
D03*
Y43100D02*
D03*
X238600Y32400D02*
D03*
Y22400D02*
D03*
Y52400D02*
D03*
Y42400D02*
D03*
X181800Y55600D02*
D03*
X171800D02*
D03*
X201800D02*
D03*
X191800D02*
D03*
X33500Y23600D02*
D03*
X43500D02*
D03*
X13500D02*
D03*
X23500D02*
D03*
X183200Y112500D02*
D03*
X173200D02*
D03*
X203200D02*
D03*
X193200D02*
D03*
X182300Y82900D02*
D03*
X172300D02*
D03*
X202300D02*
D03*
X192300D02*
D03*
X73500Y21328D02*
D03*
Y11328D02*
D03*
Y41328D02*
D03*
Y31328D02*
D03*
X23600Y60828D02*
D03*
X13600D02*
D03*
X43600D02*
D03*
X33600D02*
D03*
X319800Y302900D02*
D03*
X309800D02*
D03*
X339800D02*
D03*
X329800D02*
D03*
X190000Y340000D02*
D03*
X180000D02*
D03*
X210000D02*
D03*
X200000D02*
D03*
X32000Y296000D02*
D03*
X42000D02*
D03*
X12000D02*
D03*
X22000D02*
D03*
X129400Y98000D02*
D03*
X119400D02*
D03*
X149400D02*
D03*
X139400D02*
D03*
X34600Y89428D02*
D03*
X44600D02*
D03*
X14600D02*
D03*
X24600D02*
D03*
D45*
X69400Y116900D02*
D03*
X79400D02*
D03*
X278700Y217600D02*
D03*
X288700D02*
D03*
X129000Y292000D02*
D03*
X139000D02*
D03*
X250000Y320000D02*
D03*
X260000D02*
D03*
D46*
X156500Y328500D02*
D03*
Y318500D02*
D03*
Y308500D02*
D03*
D47*
X265100Y287900D02*
D03*
X244100Y302700D02*
D03*
X252100Y298800D02*
D03*
X301500Y98900D02*
D03*
X325009Y98909D02*
D03*
X82100Y80400D02*
D03*
X73453Y84547D02*
D03*
X180200Y272800D02*
D03*
X274300Y338400D02*
D03*
X320800Y17900D02*
D03*
X268400Y184000D02*
D03*
X197700Y240900D02*
D03*
X75300Y65300D02*
D03*
X75700Y54900D02*
D03*
X108300Y93300D02*
D03*
X195400Y185100D02*
D03*
X110500Y23400D02*
D03*
X127800Y17400D02*
D03*
X146300Y10600D02*
D03*
X263800Y279000D02*
D03*
X143600Y330700D02*
D03*
X151300Y274700D02*
D03*
X88100Y296200D02*
D03*
X76000Y312200D02*
D03*
X279700Y80200D02*
D03*
X283100Y92400D02*
D03*
X271700Y82000D02*
D03*
X275900Y100200D02*
D03*
X255800Y124400D02*
D03*
X268900Y122000D02*
D03*
X203000Y235800D02*
D03*
X268000Y127700D02*
D03*
X268100Y154000D02*
D03*
Y171600D02*
D03*
M02*
