G04*
G04 #@! TF.GenerationSoftware,Altium Limited,Altium Designer,21.1.1 (26)*
G04*
G04 Layer_Physical_Order=1*
G04 Layer_Color=255*
%FSLAX25Y25*%
%MOIN*%
G70*
G04*
G04 #@! TF.SameCoordinates,FBF54A61-61D9-4F17-B791-177234694A3B*
G04*
G04*
G04 #@! TF.FilePolarity,Positive*
G04*
G01*
G75*
%ADD11C,0.02000*%
%ADD14C,0.01000*%
%ADD15C,0.00600*%
%ADD19R,0.13386X0.02362*%
%ADD20R,0.07100X0.04400*%
%ADD21R,0.04400X0.07100*%
%ADD22R,0.10433X0.02362*%
G04:AMPARAMS|DCode=23|XSize=44mil|YSize=71mil|CornerRadius=0mil|HoleSize=0mil|Usage=FLASHONLY|Rotation=45.000|XOffset=0mil|YOffset=0mil|HoleType=Round|Shape=Rectangle|*
%AMROTATEDRECTD23*
4,1,4,0.00955,-0.04066,-0.04066,0.00955,-0.00955,0.04066,0.04066,-0.00955,0.00955,-0.04066,0.0*
%
%ADD23ROTATEDRECTD23*%

G04:AMPARAMS|DCode=24|XSize=44mil|YSize=71mil|CornerRadius=0mil|HoleSize=0mil|Usage=FLASHONLY|Rotation=135.000|XOffset=0mil|YOffset=0mil|HoleType=Round|Shape=Rectangle|*
%AMROTATEDRECTD24*
4,1,4,0.04066,0.00955,-0.00955,-0.04066,-0.04066,-0.00955,0.00955,0.04066,0.04066,0.00955,0.0*
%
%ADD24ROTATEDRECTD24*%

%ADD25R,0.12200X0.06300*%
%ADD26R,0.03300X0.06300*%
%ADD42O,0.12992X0.07087*%
%ADD43O,0.07874X0.14961*%
%ADD44C,0.07000*%
%ADD45C,0.06378*%
%ADD46C,0.06496*%
%ADD47C,0.02500*%
D11*
X250372Y308000D02*
X260000D01*
X247078Y293000D02*
X248250Y294172D01*
Y305878D02*
X250372Y308000D01*
X248250Y294172D02*
Y305878D01*
X233228Y293000D02*
X247078D01*
X225928Y285700D02*
X233228Y293000D01*
X196900Y241835D02*
Y312400D01*
Y241835D02*
X197700Y241035D01*
Y240900D02*
Y241035D01*
X180000Y312400D02*
X196900D01*
X242400D01*
X126622Y335500D02*
X149500D01*
X120000Y330876D02*
X120650Y331526D01*
X124278D01*
X120000Y330000D02*
Y330876D01*
X125450Y332698D02*
Y334328D01*
X124278Y331526D02*
X125450Y332698D01*
Y334328D02*
X126622Y335500D01*
X96200Y330000D02*
X120000D01*
X321035Y18000D02*
X341900D01*
X320800Y17900D02*
X320935D01*
X341900Y18000D02*
X342000Y17900D01*
X320935D02*
X321035Y18000D01*
X88200Y97278D02*
Y140600D01*
Y97278D02*
X90700Y94778D01*
Y93428D02*
Y94778D01*
X268400Y184000D02*
Y184135D01*
X268600Y184335D02*
Y200000D01*
X268400Y184135D02*
X268600Y184335D01*
Y200000D02*
Y208400D01*
X88200Y141950D02*
X95486Y149236D01*
Y195814D01*
X88200Y140600D02*
Y141950D01*
X149500Y335500D02*
X156500Y328500D01*
X57622Y304122D02*
Y329370D01*
X42000Y296000D02*
X49500D01*
X57622Y304122D01*
X250532Y112571D02*
Y112848D01*
X240716Y106981D02*
X244942D01*
X254484Y116800D02*
X262700D01*
X250532Y112848D02*
X254484Y116800D01*
X244942Y106981D02*
X250532Y112571D01*
X240535Y106800D02*
X240716Y106981D01*
X99072Y199400D02*
X194000D01*
X95486Y195814D02*
X99072Y199400D01*
X216700Y222100D02*
X230400Y208400D01*
X203000Y235800D02*
X216700Y222100D01*
X194000Y199400D02*
X216700Y222100D01*
X230400Y208400D02*
X268600D01*
X262700Y122400D02*
X268000Y127700D01*
X262700Y116800D02*
Y122400D01*
X268100Y154000D02*
Y171600D01*
X217500Y285700D02*
X225928D01*
X260000Y308000D02*
Y320000D01*
X260050Y320050D01*
X273950D02*
X274000Y320100D01*
X260050Y320050D02*
X273950D01*
X79072Y85428D02*
X88435D01*
X77900Y84257D02*
X79072Y85428D01*
X66269Y75428D02*
X76728D01*
X77900Y76600D02*
Y84257D01*
X76728Y75428D02*
X77900Y76600D01*
X90519Y85428D02*
X90700Y85610D01*
X88435Y85428D02*
X90519D01*
X90700Y85610D02*
Y93428D01*
X63900Y291900D02*
X128900D01*
X42000Y270000D02*
X63900Y291900D01*
X128900D02*
X129000Y292000D01*
X242400Y312400D02*
X250000Y320000D01*
X180000Y312400D02*
Y340000D01*
X172550Y318500D02*
X178650Y312400D01*
X156500Y318500D02*
X172550D01*
X178650Y312400D02*
X180000D01*
X131750Y307450D02*
X143806D01*
X144856Y308500D01*
X129100Y304800D02*
X131750Y307450D01*
X144856Y308500D02*
X156500D01*
X129000Y304700D02*
X129100Y304800D01*
X129000Y292000D02*
Y304700D01*
X129100Y304800D02*
Y330000D01*
X96000Y329800D02*
X96200Y330000D01*
X95900Y329900D02*
X96000Y329800D01*
X76000Y329900D02*
X95900D01*
X75470Y329370D02*
X76000Y329900D01*
X57622Y329370D02*
X75470D01*
D14*
X202700Y132100D02*
X287400D01*
X202700Y179200D02*
X287400D01*
Y132100D02*
Y179200D01*
X202700Y132100D02*
Y179200D01*
X273000Y178100D02*
X276300D01*
X283500Y170900D01*
Y153200D02*
Y170900D01*
X273000Y142700D02*
X283500Y153200D01*
X273000Y142700D02*
Y178100D01*
X224800Y166900D02*
X264200D01*
X242900Y177400D02*
X264700Y155600D01*
X242300Y177400D02*
X242900D01*
X220500Y155500D02*
X242300Y177300D01*
Y177400D01*
X208200Y168500D02*
X209100Y169400D01*
Y179300D01*
X219500Y168900D01*
X219600D01*
X209400Y158700D02*
X219600Y168900D01*
X208600Y158700D02*
X209400D01*
X208600D02*
X220900Y146400D01*
X208200Y133700D02*
X220900Y146400D01*
X208200Y133700D02*
Y168500D01*
X180000Y291300D02*
Y300600D01*
X151400Y292000D02*
X151500Y291900D01*
X139000Y292000D02*
X151400D01*
X96000Y307900D02*
Y318000D01*
D15*
X254488Y298000D02*
X260000D01*
X253688Y298800D02*
X254488Y298000D01*
X264219Y293000D02*
X265100Y292119D01*
X238740Y303000D02*
X243800D01*
X244100Y302700D01*
X260000Y303000D02*
X260100Y302900D01*
X265612D01*
X265100Y287900D02*
Y292119D01*
X252100Y298800D02*
X253688D01*
X260000Y293000D02*
X264219D01*
X305050Y94800D02*
Y109654D01*
X306926Y111530D02*
Y114217D01*
X301800Y92900D02*
X303150D01*
X284200D02*
X301800D01*
X303150D02*
X305050Y94800D01*
Y109654D02*
X306926Y111530D01*
X299760Y96800D02*
X301500Y98541D01*
Y98900D01*
X325009Y98909D02*
X325017Y98917D01*
Y105874D01*
X325972Y106828D01*
X88572Y80400D02*
X88600Y80428D01*
X82100Y80400D02*
X88572D01*
X66269Y85428D02*
X67150Y84547D01*
X73453D01*
X262865Y96800D02*
X299760D01*
X180000Y279500D02*
X180200Y279300D01*
Y272800D02*
Y279300D01*
X192050Y67200D02*
Y82650D01*
Y55850D02*
Y67200D01*
X199034D01*
X228634Y96800D02*
X240535D01*
X199034Y67200D02*
X228634Y96800D01*
X274000Y331900D02*
X274300Y332200D01*
Y338400D01*
X43500Y23600D02*
Y40895D01*
X88600Y75428D02*
X96272D01*
X107150D01*
X88600Y70428D02*
Y72509D01*
X88231Y72878D02*
X88600Y72509D01*
X82914Y72878D02*
X88231D01*
X81850Y73942D02*
X82914Y72878D01*
X280400Y188746D02*
X289200Y179946D01*
X280400Y188746D02*
Y200000D01*
X278700Y201700D02*
X280400Y200000D01*
X278700Y201700D02*
Y217600D01*
X273400Y332500D02*
X274000Y331900D01*
X69400Y132250D02*
X76400Y139250D01*
Y140600D01*
X69400Y116900D02*
Y132250D01*
X81603Y203551D02*
X81852Y203800D01*
X79400Y118277D02*
X81603Y120480D01*
Y203551D01*
X79400Y116900D02*
Y118277D01*
X66798Y54900D02*
X75700D01*
X66269Y55428D02*
X66798Y54900D01*
X66269Y65428D02*
X66398Y65300D01*
X75300D01*
X259000Y279000D02*
X263800D01*
X258500Y278500D02*
X259000Y279000D01*
X257400Y278500D02*
X258500D01*
X151300Y279900D02*
X151500Y280100D01*
X151300Y274700D02*
Y279900D01*
X138200Y330000D02*
X138900Y330700D01*
X143600D01*
X88100Y296200D02*
X95900D01*
X96000Y296100D01*
X76000Y312200D02*
Y318100D01*
X146300Y10600D02*
Y17228D01*
X146600Y17528D01*
X127800Y17914D02*
X128600Y18714D01*
Y23528D01*
X127800Y17400D02*
Y17914D01*
X110500Y23400D02*
Y29428D01*
X110600Y29528D01*
X102500Y93428D02*
X102628Y93300D01*
X108300D01*
X193200Y114232D02*
X195400Y116432D01*
Y185100D01*
X193200Y112500D02*
Y114232D01*
X301800Y81100D02*
X325800D01*
X300450D02*
X301800D01*
X264100Y44750D02*
X300450Y81100D01*
X264100Y43100D02*
Y44750D01*
X183200Y112500D02*
X193200D01*
X173200D02*
X183200D01*
X172750Y112050D02*
X173200Y112500D01*
X172300Y82900D02*
X172750Y83350D01*
Y112050D01*
X172300Y82900D02*
X182300D01*
X192050D02*
X192175Y82775D01*
X192050Y82650D02*
X192175Y82775D01*
X182300Y82900D02*
X192050D01*
X192175Y82775D02*
X192300Y82900D01*
X191800Y55600D02*
X192050Y55850D01*
X181800Y55600D02*
X191800D01*
X171800D02*
X181800D01*
X171800D02*
X205000Y22400D01*
X238600D01*
X235618Y85919D02*
X236499Y86800D01*
X235618Y69074D02*
Y85919D01*
X236499Y86800D02*
X240535D01*
X233800Y67256D02*
X235618Y69074D01*
X233800Y27200D02*
Y67256D01*
Y27200D02*
X238600Y22400D01*
Y32400D01*
Y42400D02*
X238950Y42750D01*
X238600Y32400D02*
Y42400D01*
X238950Y42750D02*
X263750D01*
X264100Y43100D01*
Y33100D02*
Y43100D01*
Y23100D02*
Y33100D01*
X281100Y6100D02*
X342000D01*
X264100Y23100D02*
X281100Y6100D01*
X264100Y64600D02*
X279700Y80200D01*
X264100Y53100D02*
Y64600D01*
X283100Y92400D02*
X283400Y92700D01*
X284000D01*
X284200Y92900D01*
X262865Y86800D02*
X331900D01*
X345100Y100000D01*
X278816Y107681D02*
X293885D01*
X263747D02*
X278816D01*
X243000Y53300D02*
X271700Y82000D01*
X238600Y52400D02*
X239500Y53300D01*
X243000D01*
X275800Y100300D02*
X275900Y100200D01*
X275800Y100300D02*
Y104665D01*
X278816Y107681D01*
X201800Y57101D02*
X236499Y91800D01*
X201800Y55600D02*
Y57101D01*
X236499Y91800D02*
X240535D01*
X221200Y101800D02*
X240535D01*
X202300Y82900D02*
X221200Y101800D01*
X203200Y112500D02*
X239835D01*
X240535Y111800D01*
X255400Y92000D02*
X262665D01*
X262865Y91800D01*
X252249Y93451D02*
Y93949D01*
Y93451D02*
X252600Y93100D01*
X254300D01*
X255400Y92000D01*
X254751Y96451D02*
Y96948D01*
X253200Y98500D02*
X254751Y96948D01*
X252249Y93949D02*
X254751Y96451D01*
X249500Y99200D02*
X250200Y98500D01*
X253200D01*
X249500Y99200D02*
Y102400D01*
X249346Y102553D02*
Y104853D01*
Y102553D02*
X249500Y102400D01*
X251700Y102500D02*
X252500Y103300D01*
X248400Y106600D02*
X248800Y107000D01*
X250000Y107900D02*
X251048D01*
X249100Y105100D02*
X249346Y104853D01*
X251048Y107900D02*
X251400Y107548D01*
X249100Y107000D02*
X250000Y107900D01*
X248800Y107000D02*
X249100D01*
X251400Y106800D02*
X252500Y105700D01*
X248751Y105100D02*
X249100D01*
X251400Y106800D02*
Y107548D01*
X248400Y105452D02*
X248751Y105100D01*
X252500Y103300D02*
Y105700D01*
X248400Y105452D02*
Y106600D01*
X251700Y101300D02*
Y102500D01*
Y101300D02*
X252600Y100400D01*
X253400D01*
Y100648D01*
X253751Y101000D02*
X262065D01*
X253400Y100648D02*
X253751Y101000D01*
X262065D02*
X262865Y101800D01*
X254600D02*
X262865D01*
X254000Y102400D02*
X254600Y101800D01*
X254351Y103400D02*
X255948D01*
X254000Y103049D02*
X254351Y103400D01*
X254000Y102400D02*
Y103049D01*
X253552Y111800D02*
X262865D01*
X253952Y106300D02*
X255997D01*
X256349Y106651D01*
X253552Y110500D02*
X256149D01*
X253751Y107900D02*
X255997D01*
X256500Y109552D02*
Y110149D01*
X253400Y108252D02*
X253751Y107900D01*
X256149Y109200D02*
X256500Y109552D01*
X253751Y109200D02*
X256149D01*
X253200Y110852D02*
X253552Y110500D01*
X253400Y108252D02*
Y108849D01*
X254200Y104700D02*
X255948D01*
X256149Y110500D02*
X256500Y110149D01*
X253200Y110852D02*
Y111449D01*
X253600Y105948D02*
X253952Y106300D01*
X253200Y111449D02*
X253552Y111800D01*
X255997Y107900D02*
X256349Y107548D01*
X253600Y105300D02*
Y105948D01*
X255948Y104700D02*
X256300Y104349D01*
X255948Y103400D02*
X256300Y103752D01*
X253400Y108849D02*
X253751Y109200D01*
X256349Y106651D02*
Y107548D01*
X253600Y105300D02*
X254200Y104700D01*
X256300Y103752D02*
Y104349D01*
X267782Y112681D02*
X270527D01*
X267782D02*
X269217Y114116D01*
X266901Y111800D02*
X267782Y112681D01*
X252170Y124400D02*
X255800D01*
X240535Y116800D02*
X244570D01*
X252170Y124400D01*
X268900Y122000D02*
X269217Y121683D01*
Y114116D02*
Y121683D01*
X262865Y111800D02*
X266901D01*
X345100Y100000D02*
Y135949D01*
X305972Y115172D02*
X306926Y114217D01*
X311800Y94800D02*
Y125100D01*
X313700Y92900D02*
X313800D01*
X311800Y94800D02*
X313700Y92900D01*
X316673Y111530D02*
Y114217D01*
X319612Y97738D02*
Y108592D01*
Y97738D02*
X324450Y92900D01*
X316673Y114217D02*
X317628Y115172D01*
X316673Y111530D02*
X319612Y108592D01*
X324450Y92900D02*
X325800D01*
X312400Y136300D02*
X344748D01*
X311800Y136900D02*
X312400Y136300D01*
X344748D02*
X345100Y135949D01*
X293987Y107783D02*
X296673D01*
X262865Y106800D02*
X263747Y107681D01*
X293885D02*
X293987Y107783D01*
X296673D02*
X297628Y106828D01*
X81852Y203800D02*
X166300D01*
X205400Y242900D01*
X111950Y73328D02*
X119400Y80778D01*
X110600Y73328D02*
X111950D01*
X119400Y80778D02*
Y98000D01*
X73500Y41328D02*
X110600D01*
X53200Y70428D02*
X66269D01*
X43600Y60828D02*
X53200Y70428D01*
X53600Y80428D02*
X66269D01*
X44600Y89428D02*
X53600Y80428D01*
X66269Y85428D02*
X68519D01*
X69400Y86309D02*
Y116900D01*
X68519Y85428D02*
X69400Y86309D01*
X205400Y242900D02*
Y251500D01*
X270527Y112681D02*
X289200Y131354D01*
Y179946D01*
X282000Y224300D02*
Y266000D01*
Y224300D02*
X288700Y217600D01*
X205400Y251500D02*
X267500D01*
X282000Y266000D01*
X213861Y281750D02*
X223600D01*
X225500Y279850D01*
X212650Y282962D02*
X213861Y281750D01*
X212650Y288439D02*
X217500Y293288D01*
X225500Y278500D02*
Y279850D01*
X212650Y282962D02*
Y288439D01*
X265612Y302900D02*
X309800D01*
X82083Y63709D02*
X82845Y62947D01*
X88162D01*
X82914Y77978D02*
X88231D01*
X88600Y60428D02*
Y62510D01*
Y78347D02*
Y80428D01*
X82083Y63709D02*
Y67148D01*
X88231Y77978D02*
X88600Y78347D01*
X81850Y73942D02*
Y76915D01*
X82914Y77978D01*
X82083Y67148D02*
X82845Y67909D01*
X88162Y62947D02*
X88600Y62510D01*
Y68347D02*
Y70428D01*
X82845Y67909D02*
X88162D01*
X88600Y68347D01*
X65832Y57910D02*
X66269Y58347D01*
Y60428D01*
X60514Y57910D02*
X65832D01*
X43500Y40895D02*
X60514Y57910D01*
X146600Y29328D02*
Y47528D01*
X128600Y35328D02*
Y55528D01*
X110600Y41328D02*
Y61528D01*
X125000Y59328D02*
X146600D01*
X119300Y65028D02*
X125000Y59328D01*
X101619Y67328D02*
X128600D01*
X102235Y65028D02*
X119300D01*
X92635Y55428D02*
X102235Y65028D01*
X88600Y55428D02*
X92635D01*
X99719Y65428D02*
X101619Y67328D01*
X88600Y65428D02*
X99719D01*
X107150Y75428D02*
X109250Y73328D01*
X110600D01*
X265612Y302900D02*
X282000Y286512D01*
Y266000D02*
Y286512D01*
X245600Y278500D02*
Y285431D01*
X251500Y295012D02*
X254488Y298000D01*
X251500Y291331D02*
Y295012D01*
X245600Y285431D02*
X251500Y291331D01*
X237300Y278500D02*
X245600D01*
X217500Y293288D02*
Y297500D01*
X238240D01*
X238740Y298000D01*
D19*
X260000Y293000D02*
D03*
Y298000D02*
D03*
Y303000D02*
D03*
Y308000D02*
D03*
X238740D02*
D03*
Y303000D02*
D03*
Y298000D02*
D03*
Y293000D02*
D03*
D20*
X110600Y73328D02*
D03*
Y61528D02*
D03*
X180000Y312400D02*
D03*
Y300600D02*
D03*
X342000Y6100D02*
D03*
Y17900D02*
D03*
X146600Y17528D02*
D03*
Y29328D02*
D03*
X128600Y23528D02*
D03*
Y35328D02*
D03*
X110600Y29528D02*
D03*
Y41328D02*
D03*
X325800Y92900D02*
D03*
Y81100D02*
D03*
X313600Y92700D02*
D03*
Y80900D02*
D03*
X301800Y92900D02*
D03*
Y81100D02*
D03*
X311800Y125100D02*
D03*
Y136900D02*
D03*
X217500Y285700D02*
D03*
Y297500D02*
D03*
X274000Y331900D02*
D03*
Y320100D02*
D03*
X180000Y291300D02*
D03*
Y279500D02*
D03*
X151500Y280100D02*
D03*
Y291900D02*
D03*
X96000Y307900D02*
D03*
Y296100D02*
D03*
X146600Y47528D02*
D03*
Y59328D02*
D03*
X128600Y55528D02*
D03*
Y67328D02*
D03*
X96000Y318000D02*
D03*
Y329800D02*
D03*
X76000Y318100D02*
D03*
Y329900D02*
D03*
D21*
X88200Y140600D02*
D03*
X76400D02*
D03*
X280400Y200000D02*
D03*
X268600D02*
D03*
X257400Y278500D02*
D03*
X245600D02*
D03*
X225500D02*
D03*
X237300D02*
D03*
X90700Y93428D02*
D03*
X102500D02*
D03*
D22*
X66269Y85428D02*
D03*
Y80428D02*
D03*
Y75428D02*
D03*
Y70428D02*
D03*
Y65428D02*
D03*
Y60428D02*
D03*
Y55428D02*
D03*
X88600D02*
D03*
Y60428D02*
D03*
Y65428D02*
D03*
Y70428D02*
D03*
Y75428D02*
D03*
Y80428D02*
D03*
X88435Y85428D02*
D03*
X262700Y116800D02*
D03*
X262865Y111800D02*
D03*
Y106800D02*
D03*
Y101800D02*
D03*
Y96800D02*
D03*
Y91800D02*
D03*
Y86800D02*
D03*
X240535D02*
D03*
Y91800D02*
D03*
Y96800D02*
D03*
Y101800D02*
D03*
Y106800D02*
D03*
Y111800D02*
D03*
Y116800D02*
D03*
D23*
X305972Y115172D02*
D03*
X297628Y106828D02*
D03*
D24*
X317628Y115172D02*
D03*
X325972Y106828D02*
D03*
D25*
X129100Y304800D02*
D03*
D26*
X138200Y330000D02*
D03*
X129100D02*
D03*
X120000D02*
D03*
D42*
X47780Y311063D02*
D03*
D43*
X34000Y329370D02*
D03*
X57622D02*
D03*
D44*
X22000Y270000D02*
D03*
X12000D02*
D03*
X42000D02*
D03*
X32000D02*
D03*
X264100Y33100D02*
D03*
Y23100D02*
D03*
Y53100D02*
D03*
Y43100D02*
D03*
X238600Y32400D02*
D03*
Y22400D02*
D03*
Y52400D02*
D03*
Y42400D02*
D03*
X181800Y55600D02*
D03*
X171800D02*
D03*
X201800D02*
D03*
X191800D02*
D03*
X33500Y23600D02*
D03*
X43500D02*
D03*
X13500D02*
D03*
X23500D02*
D03*
X183200Y112500D02*
D03*
X173200D02*
D03*
X203200D02*
D03*
X193200D02*
D03*
X182300Y82900D02*
D03*
X172300D02*
D03*
X202300D02*
D03*
X192300D02*
D03*
X73500Y21328D02*
D03*
Y11328D02*
D03*
Y41328D02*
D03*
Y31328D02*
D03*
X23600Y60828D02*
D03*
X13600D02*
D03*
X43600D02*
D03*
X33600D02*
D03*
X319800Y302900D02*
D03*
X309800D02*
D03*
X339800D02*
D03*
X329800D02*
D03*
X190000Y340000D02*
D03*
X180000D02*
D03*
X210000D02*
D03*
X200000D02*
D03*
X32000Y296000D02*
D03*
X42000D02*
D03*
X12000D02*
D03*
X22000D02*
D03*
X129400Y98000D02*
D03*
X119400D02*
D03*
X149400D02*
D03*
X139400D02*
D03*
X34600Y89428D02*
D03*
X44600D02*
D03*
X14600D02*
D03*
X24600D02*
D03*
D45*
X69400Y116900D02*
D03*
X79400D02*
D03*
X278700Y217600D02*
D03*
X288700D02*
D03*
X129000Y292000D02*
D03*
X139000D02*
D03*
X250000Y320000D02*
D03*
X260000D02*
D03*
D46*
X156500Y328500D02*
D03*
Y318500D02*
D03*
Y308500D02*
D03*
D47*
X265100Y287900D02*
D03*
X244100Y302700D02*
D03*
X252100Y298800D02*
D03*
X301500Y98900D02*
D03*
X325009Y98909D02*
D03*
X82100Y80400D02*
D03*
X73453Y84547D02*
D03*
X180200Y272800D02*
D03*
X274300Y338400D02*
D03*
X320800Y17900D02*
D03*
X268400Y184000D02*
D03*
X197700Y240900D02*
D03*
X75300Y65300D02*
D03*
X75700Y54900D02*
D03*
X108300Y93300D02*
D03*
X195400Y185100D02*
D03*
X110500Y23400D02*
D03*
X127800Y17400D02*
D03*
X146300Y10600D02*
D03*
X263800Y279000D02*
D03*
X143600Y330700D02*
D03*
X151300Y274700D02*
D03*
X88100Y296200D02*
D03*
X76000Y312200D02*
D03*
X279700Y80200D02*
D03*
X283100Y92400D02*
D03*
X271700Y82000D02*
D03*
X275900Y100200D02*
D03*
X255800Y124400D02*
D03*
X268900Y122000D02*
D03*
X203000Y235800D02*
D03*
X268000Y127700D02*
D03*
X268100Y154000D02*
D03*
Y171600D02*
D03*
M02*
