M48
;Layer_Color=9474304
;FILE_FORMAT=2:5
INCH,LZ
;TYPE=PLATED
T1F00S00C0.01300
T3F00S00C0.04000
T4F00S00C0.04016
T5F00S00C0.04331
%
T01
X00757Y00549
X01105Y00234
X01278Y00174
X01463Y00106
X03208Y00179
X0325009Y0098909
X03015Y00989
X02831Y00924
X02759Y01002
X02717Y0082
X02797Y00802
X02689Y0122
X0268Y01277
X02558Y01244
X02681Y0154
Y01716
X02684Y0184
X01954Y01851
X01083Y00933
X00821Y00804
X0073453Y0084547
X00753Y00653
X00881Y02962
X0076Y03122
X01436Y03307
X01513Y02747
X01802Y02728
X01977Y02409
X0203Y02358
X02638Y0279
X02651Y02879
X02521Y02988
X02441Y03027
X02743Y03384
T03
X00135Y00236
X00235
X00335
X00435
X00735Y0021328
Y0011328
Y0031328
Y0041328
X01718Y00556
X01818
X01918
X02018
X02386Y00524
Y00424
Y00324
Y00224
X02641Y00231
Y00331
Y00431
Y00531
X02023Y00829
X01923
X01823
X01723
X01732Y01125
X01832
X01932
X02032
X01494Y0098
X01394
X01294
X01194
X00446Y0089428
X00346
X00246
X00146
X00136Y0060828
X00236
X00336
X00436
X0042Y027
X0032
X0022
X0012
Y0296
X0022
X0032
X0042
X018Y034
X019
X02
X021
X03098Y03029
X03198
X03298
X03398
T04
X00694Y01169
X00794
X0129Y0292
X0139
X025Y032
X026
X02787Y02176
X02887
T05
X01565Y03085
Y03185
Y03285
M30
