G04*
G04 #@! TF.GenerationSoftware,Altium Limited,Altium Designer,21.1.1 (26)*
G04*
G04 Layer_Color=8388736*
%FSLAX25Y25*%
%MOIN*%
G70*
G04*
G04 #@! TF.SameCoordinates,FBF54A61-61D9-4F17-B791-177234694A3B*
G04*
G04*
G04 #@! TF.FilePolarity,Negative*
G04*
G01*
G75*
%ADD27C,0.00000*%
%ADD28R,0.14186X0.03162*%
%ADD29R,0.07900X0.05200*%
%ADD30R,0.05200X0.07900*%
%ADD31R,0.11233X0.03162*%
G04:AMPARAMS|DCode=32|XSize=52mil|YSize=79mil|CornerRadius=0mil|HoleSize=0mil|Usage=FLASHONLY|Rotation=45.000|XOffset=0mil|YOffset=0mil|HoleType=Round|Shape=Rectangle|*
%AMROTATEDRECTD32*
4,1,4,0.00955,-0.04632,-0.04632,0.00955,-0.00955,0.04632,0.04632,-0.00955,0.00955,-0.04632,0.0*
%
%ADD32ROTATEDRECTD32*%

G04:AMPARAMS|DCode=33|XSize=52mil|YSize=79mil|CornerRadius=0mil|HoleSize=0mil|Usage=FLASHONLY|Rotation=135.000|XOffset=0mil|YOffset=0mil|HoleType=Round|Shape=Rectangle|*
%AMROTATEDRECTD33*
4,1,4,0.04632,0.00955,-0.00955,-0.04632,-0.04632,-0.00955,0.00955,0.04632,0.04632,0.00955,0.0*
%
%ADD33ROTATEDRECTD33*%

%ADD34R,0.13000X0.07100*%
%ADD35R,0.04100X0.07100*%
%ADD36O,0.13792X0.07887*%
%ADD37O,0.08674X0.15761*%
%ADD38C,0.07800*%
%ADD39C,0.07178*%
%ADD40C,0.07296*%
%ADD41C,0.03300*%
D27*
X72790Y116900D02*
G03*
X72790Y116900I-3390J0D01*
G01*
X82790D02*
G03*
X82790Y116900I-3390J0D01*
G01*
X282090Y217600D02*
G03*
X282090Y217600I-3390J0D01*
G01*
X292090D02*
G03*
X292090Y217600I-3390J0D01*
G01*
X132390Y292000D02*
G03*
X132390Y292000I-3390J0D01*
G01*
X142390D02*
G03*
X142390Y292000I-3390J0D01*
G01*
X253390Y320000D02*
G03*
X253390Y320000I-3390J0D01*
G01*
X263390D02*
G03*
X263390Y320000I-3390J0D01*
G01*
D28*
X260000Y293000D02*
D03*
Y298000D02*
D03*
Y303000D02*
D03*
Y308000D02*
D03*
X238740D02*
D03*
Y303000D02*
D03*
Y298000D02*
D03*
Y293000D02*
D03*
D29*
X110600Y73328D02*
D03*
Y61528D02*
D03*
X180000Y312400D02*
D03*
Y300600D02*
D03*
X342000Y6100D02*
D03*
Y17900D02*
D03*
X146600Y17528D02*
D03*
Y29328D02*
D03*
X128600Y23528D02*
D03*
Y35328D02*
D03*
X110600Y29528D02*
D03*
Y41328D02*
D03*
X325800Y92900D02*
D03*
Y81100D02*
D03*
X313600Y92700D02*
D03*
Y80900D02*
D03*
X301800Y92900D02*
D03*
Y81100D02*
D03*
X311800Y125100D02*
D03*
Y136900D02*
D03*
X217500Y285700D02*
D03*
Y297500D02*
D03*
X274000Y331900D02*
D03*
Y320100D02*
D03*
X180000Y291300D02*
D03*
Y279500D02*
D03*
X151500Y280100D02*
D03*
Y291900D02*
D03*
X96000Y307900D02*
D03*
Y296100D02*
D03*
X146600Y47528D02*
D03*
Y59328D02*
D03*
X128600Y55528D02*
D03*
Y67328D02*
D03*
X96000Y318000D02*
D03*
Y329800D02*
D03*
X76000Y318100D02*
D03*
Y329900D02*
D03*
D30*
X88200Y140600D02*
D03*
X76400D02*
D03*
X280400Y200000D02*
D03*
X268600D02*
D03*
X257400Y278500D02*
D03*
X245600D02*
D03*
X225500D02*
D03*
X237300D02*
D03*
X90700Y93428D02*
D03*
X102500D02*
D03*
D31*
X66269Y85428D02*
D03*
Y80428D02*
D03*
Y75428D02*
D03*
Y70428D02*
D03*
Y65428D02*
D03*
Y60428D02*
D03*
Y55428D02*
D03*
X88600D02*
D03*
Y60428D02*
D03*
Y65428D02*
D03*
Y70428D02*
D03*
Y75428D02*
D03*
Y80428D02*
D03*
X88435Y85428D02*
D03*
X262700Y116800D02*
D03*
X262865Y111800D02*
D03*
Y106800D02*
D03*
Y101800D02*
D03*
Y96800D02*
D03*
Y91800D02*
D03*
Y86800D02*
D03*
X240535D02*
D03*
Y91800D02*
D03*
Y96800D02*
D03*
Y101800D02*
D03*
Y106800D02*
D03*
Y111800D02*
D03*
Y116800D02*
D03*
D32*
X305972Y115172D02*
D03*
X297628Y106828D02*
D03*
D33*
X317628Y115172D02*
D03*
X325972Y106828D02*
D03*
D34*
X129100Y304800D02*
D03*
D35*
X138200Y330000D02*
D03*
X129100D02*
D03*
X120000D02*
D03*
D36*
X47780Y311063D02*
D03*
D37*
X34000Y329370D02*
D03*
X57622D02*
D03*
D38*
X22000Y270000D02*
D03*
X12000D02*
D03*
X42000D02*
D03*
X32000D02*
D03*
X264100Y33100D02*
D03*
Y23100D02*
D03*
Y53100D02*
D03*
Y43100D02*
D03*
X238600Y32400D02*
D03*
Y22400D02*
D03*
Y52400D02*
D03*
Y42400D02*
D03*
X181800Y55600D02*
D03*
X171800D02*
D03*
X201800D02*
D03*
X191800D02*
D03*
X33500Y23600D02*
D03*
X43500D02*
D03*
X13500D02*
D03*
X23500D02*
D03*
X183200Y112500D02*
D03*
X173200D02*
D03*
X203200D02*
D03*
X193200D02*
D03*
X182300Y82900D02*
D03*
X172300D02*
D03*
X202300D02*
D03*
X192300D02*
D03*
X73500Y21328D02*
D03*
Y11328D02*
D03*
Y41328D02*
D03*
Y31328D02*
D03*
X23600Y60828D02*
D03*
X13600D02*
D03*
X43600D02*
D03*
X33600D02*
D03*
X319800Y302900D02*
D03*
X309800D02*
D03*
X339800D02*
D03*
X329800D02*
D03*
X190000Y340000D02*
D03*
X180000D02*
D03*
X210000D02*
D03*
X200000D02*
D03*
X32000Y296000D02*
D03*
X42000D02*
D03*
X12000D02*
D03*
X22000D02*
D03*
X129400Y98000D02*
D03*
X119400D02*
D03*
X149400D02*
D03*
X139400D02*
D03*
X34600Y89428D02*
D03*
X44600D02*
D03*
X14600D02*
D03*
X24600D02*
D03*
D39*
X69400Y116900D02*
D03*
X79400D02*
D03*
X278700Y217600D02*
D03*
X288700D02*
D03*
X129000Y292000D02*
D03*
X139000D02*
D03*
X250000Y320000D02*
D03*
X260000D02*
D03*
D40*
X156500Y328500D02*
D03*
Y318500D02*
D03*
Y308500D02*
D03*
D41*
X265100Y287900D02*
D03*
X244100Y302700D02*
D03*
X252100Y298800D02*
D03*
X301500Y98900D02*
D03*
X325009Y98909D02*
D03*
X82100Y80400D02*
D03*
X73453Y84547D02*
D03*
X180200Y272800D02*
D03*
X274300Y338400D02*
D03*
X320800Y17900D02*
D03*
X268400Y184000D02*
D03*
X197700Y240900D02*
D03*
X75300Y65300D02*
D03*
X75700Y54900D02*
D03*
X108300Y93300D02*
D03*
X195400Y185100D02*
D03*
X110500Y23400D02*
D03*
X127800Y17400D02*
D03*
X146300Y10600D02*
D03*
X263800Y279000D02*
D03*
X143600Y330700D02*
D03*
X151300Y274700D02*
D03*
X88100Y296200D02*
D03*
X76000Y312200D02*
D03*
X279700Y80200D02*
D03*
X283100Y92400D02*
D03*
X271700Y82000D02*
D03*
X275900Y100200D02*
D03*
X255800Y124400D02*
D03*
X268900Y122000D02*
D03*
X203000Y235800D02*
D03*
X268000Y127700D02*
D03*
X268100Y154000D02*
D03*
Y171600D02*
D03*
M02*
