G04*
G04 #@! TF.GenerationSoftware,Altium Limited,Altium Designer,21.1.1 (26)*
G04*
G04 Layer_Color=16711935*
%FSLAX25Y25*%
%MOIN*%
G70*
G04*
G04 #@! TF.SameCoordinates,7D5D5EFA-C770-4444-A878-D417F12E0F6E*
G04*
G04*
G04 #@! TF.FilePolarity,Negative*
G04*
G01*
G75*
%ADD35C,0.00000*%
%ADD48C,0.07800*%
%ADD49C,0.07178*%
%ADD50C,0.07296*%
%ADD51O,0.13792X0.07887*%
%ADD52O,0.08674X0.15761*%
%ADD53C,0.06800*%
%ADD54O,0.10249X0.05524*%
%ADD55C,0.05524*%
%ADD56C,0.03300*%
D35*
X55390Y142500D02*
G03*
X55390Y142500I-3390J0D01*
G01*
Y152500D02*
G03*
X55390Y152500I-3390J0D01*
G01*
X198890Y91500D02*
G03*
X198890Y91500I-3390J0D01*
G01*
X188890D02*
G03*
X188890Y91500I-3390J0D01*
G01*
D48*
X245571Y70429D02*
D03*
X252642Y63358D02*
D03*
X231429Y84571D02*
D03*
X238500Y77500D02*
D03*
X271000Y149000D02*
D03*
X263929Y141929D02*
D03*
X285142Y163142D02*
D03*
X278071Y156071D02*
D03*
X141000Y149500D02*
D03*
Y139500D02*
D03*
Y169500D02*
D03*
Y159500D02*
D03*
X131500Y219500D02*
D03*
Y229500D02*
D03*
Y199500D02*
D03*
Y209500D02*
D03*
X113000Y219500D02*
D03*
Y229500D02*
D03*
Y199500D02*
D03*
Y209500D02*
D03*
X183500Y125500D02*
D03*
X193500D02*
D03*
X183500Y115500D02*
D03*
X193500D02*
D03*
X183500Y105500D02*
D03*
X193500D02*
D03*
X89000Y123000D02*
D03*
X79000D02*
D03*
X109000D02*
D03*
X99000D02*
D03*
X89500Y90500D02*
D03*
X79500D02*
D03*
X109500D02*
D03*
X99500D02*
D03*
X185000Y149500D02*
D03*
Y139500D02*
D03*
Y169500D02*
D03*
Y159500D02*
D03*
X162500Y150500D02*
D03*
Y140500D02*
D03*
Y170500D02*
D03*
Y160500D02*
D03*
D49*
X52000Y142500D02*
D03*
Y152500D02*
D03*
X195500Y91500D02*
D03*
X185500D02*
D03*
D50*
X88500Y204000D02*
D03*
Y194000D02*
D03*
Y184000D02*
D03*
D51*
X46279Y211693D02*
D03*
D52*
X32500Y230000D02*
D03*
X56122D02*
D03*
D53*
X256500Y227500D02*
D03*
X246500D02*
D03*
X236500D02*
D03*
X226500D02*
D03*
X216500D02*
D03*
X206500D02*
D03*
X196500D02*
D03*
X186500D02*
D03*
X176500D02*
D03*
X166500D02*
D03*
X202500Y7500D02*
D03*
X212500D02*
D03*
X222500D02*
D03*
X232500D02*
D03*
X242500D02*
D03*
X252500D02*
D03*
X262500D02*
D03*
X272500D02*
D03*
X292500D02*
D03*
X302500D02*
D03*
X312500D02*
D03*
X322500D02*
D03*
X342500D02*
D03*
X332500D02*
D03*
X256500Y197500D02*
D03*
X246500D02*
D03*
X236500D02*
D03*
X226500D02*
D03*
X216500D02*
D03*
X206500D02*
D03*
X196500D02*
D03*
X186500D02*
D03*
X176500D02*
D03*
X166500D02*
D03*
X292500Y37500D02*
D03*
X302500D02*
D03*
X312500D02*
D03*
X322500D02*
D03*
X332500D02*
D03*
X342500D02*
D03*
Y197500D02*
D03*
X332500D02*
D03*
X322500D02*
D03*
X312500D02*
D03*
X302500D02*
D03*
X292500D02*
D03*
X282500D02*
D03*
X272500D02*
D03*
Y227500D02*
D03*
X282500D02*
D03*
X292500D02*
D03*
X302500D02*
D03*
X312500D02*
D03*
X322500D02*
D03*
X332500D02*
D03*
X342500D02*
D03*
X202500Y37500D02*
D03*
X212500D02*
D03*
X222500D02*
D03*
X232500D02*
D03*
X242500D02*
D03*
X252500D02*
D03*
X262500D02*
D03*
X272500D02*
D03*
D54*
X18875Y192146D02*
D03*
X37575D02*
D03*
Y162855D02*
D03*
X18875D02*
D03*
D55*
X41125Y171123D02*
D03*
Y177421D02*
D03*
X36386Y174273D02*
D03*
Y180571D02*
D03*
X41125Y183721D02*
D03*
D56*
X158000Y134000D02*
D03*
X70000Y125000D02*
D03*
X47000Y165000D02*
D03*
X154850Y136000D02*
D03*
X152000Y100000D02*
D03*
X139500Y119000D02*
D03*
X274000Y110000D02*
D03*
X270000Y114000D02*
D03*
X296000Y152000D02*
D03*
X299000Y161500D02*
D03*
X265500Y130000D02*
D03*
X291000Y129500D02*
D03*
X294500Y136500D02*
D03*
X7000Y159500D02*
D03*
X115500Y114000D02*
D03*
X103000Y115000D02*
D03*
X75500Y246000D02*
D03*
X99500Y224000D02*
D03*
X257500Y97500D02*
D03*
X251000Y79000D02*
D03*
X146500Y68500D02*
D03*
X50500Y86500D02*
D03*
X46000Y121500D02*
D03*
X27000Y142000D02*
D03*
X30500Y148500D02*
D03*
X11500Y159500D02*
D03*
X50500Y200500D02*
D03*
X80000Y205000D02*
D03*
X100000Y163500D02*
D03*
X123500Y137000D02*
D03*
X113500Y138500D02*
D03*
X67500Y147000D02*
D03*
X207500D02*
D03*
X204152Y139652D02*
D03*
X202500Y134000D02*
D03*
X196000Y140500D02*
D03*
X203500Y151500D02*
D03*
X174765Y106265D02*
D03*
X169000Y105500D02*
D03*
X219000Y153500D02*
D03*
X213000Y142000D02*
D03*
X207500Y130000D02*
D03*
X238500Y106000D02*
D03*
X149500Y128000D02*
D03*
X147000Y130500D02*
D03*
X228000Y28500D02*
D03*
X233000Y31000D02*
D03*
X251500Y109500D02*
D03*
X250000Y106500D02*
D03*
X222000Y110000D02*
D03*
M02*
