G04*
G04 #@! TF.GenerationSoftware,Altium Limited,Altium Designer,21.1.1 (26)*
G04*
G04 Layer_Physical_Order=1*
G04 Layer_Color=255*
%FSLAX25Y25*%
%MOIN*%
G70*
G04*
G04 #@! TF.SameCoordinates,7D5D5EFA-C770-4444-A878-D417F12E0F6E*
G04*
G04*
G04 #@! TF.FilePolarity,Positive*
G04*
G01*
G75*
%ADD10C,0.00600*%
%ADD11C,0.02000*%
%ADD22R,0.07100X0.04400*%
%ADD23R,0.04724X0.05906*%
%ADD24R,0.04400X0.07100*%
G04:AMPARAMS|DCode=25|XSize=54mil|YSize=73mil|CornerRadius=0mil|HoleSize=0mil|Usage=FLASHONLY|Rotation=135.000|XOffset=0mil|YOffset=0mil|HoleType=Round|Shape=Rectangle|*
%AMROTATEDRECTD25*
4,1,4,0.04490,0.00672,-0.00672,-0.04490,-0.04490,-0.00672,0.00672,0.04490,0.04490,0.00672,0.0*
%
%ADD25ROTATEDRECTD25*%

G04:AMPARAMS|DCode=26|XSize=44mil|YSize=71mil|CornerRadius=0mil|HoleSize=0mil|Usage=FLASHONLY|Rotation=135.000|XOffset=0mil|YOffset=0mil|HoleType=Round|Shape=Rectangle|*
%AMROTATEDRECTD26*
4,1,4,0.04066,0.00955,-0.00955,-0.04066,-0.04066,-0.00955,0.00955,0.04066,0.04066,0.00955,0.0*
%
%ADD26ROTATEDRECTD26*%

G04:AMPARAMS|DCode=27|XSize=47.24mil|YSize=55.11mil|CornerRadius=0mil|HoleSize=0mil|Usage=FLASHONLY|Rotation=225.000|XOffset=0mil|YOffset=0mil|HoleType=Round|Shape=Rectangle|*
%AMROTATEDRECTD27*
4,1,4,-0.00278,0.03619,0.03619,-0.00278,0.00278,-0.03619,-0.03619,0.00278,-0.00278,0.03619,0.0*
%
%ADD27ROTATEDRECTD27*%

%ADD28R,0.03937X0.02756*%
%ADD29R,0.03300X0.06300*%
%ADD30R,0.12200X0.06300*%
%ADD31O,0.02400X0.08661*%
%ADD32R,0.05511X0.04724*%
G04:AMPARAMS|DCode=33|XSize=20mil|YSize=61.02mil|CornerRadius=0mil|HoleSize=0mil|Usage=FLASHONLY|Rotation=135.000|XOffset=0mil|YOffset=0mil|HoleType=Round|Shape=Rectangle|*
%AMROTATEDRECTD33*
4,1,4,0.02865,0.01450,-0.01450,-0.02865,-0.02865,-0.01450,0.01450,0.02865,0.02865,0.01450,0.0*
%
%ADD33ROTATEDRECTD33*%

G04:AMPARAMS|DCode=34|XSize=20mil|YSize=61.02mil|CornerRadius=0mil|HoleSize=0mil|Usage=FLASHONLY|Rotation=45.000|XOffset=0mil|YOffset=0mil|HoleType=Round|Shape=Rectangle|*
%AMROTATEDRECTD34*
4,1,4,0.01450,-0.02865,-0.02865,0.01450,-0.01450,0.02865,0.02865,-0.01450,0.01450,-0.02865,0.0*
%
%ADD34ROTATEDRECTD34*%

%ADD57C,0.07000*%
%ADD58C,0.06378*%
%ADD59C,0.06496*%
%ADD60O,0.12992X0.07087*%
%ADD61O,0.07874X0.14961*%
%ADD62C,0.06000*%
%ADD63O,0.09449X0.04724*%
%ADD64C,0.04724*%
%ADD65C,0.02500*%
D10*
X65800Y125000D02*
X70000D01*
X64800Y126000D02*
X65800Y125000D01*
X278283Y142627D02*
X281992Y146336D01*
X277328Y141672D02*
X278283Y142627D01*
X281992Y146336D02*
X283710D01*
X92400Y108500D02*
X101600D01*
X80600Y107150D02*
X82500Y105250D01*
X88627D01*
X80600Y107150D02*
Y108500D01*
X88627Y105250D02*
X89827Y104050D01*
X46582Y171538D02*
X46870D01*
X46055Y171011D02*
X46582Y171538D01*
X46055Y166459D02*
Y171011D01*
X48333Y173000D02*
X48923D01*
X46870Y171538D02*
X48333Y173000D01*
X46055Y166459D02*
X47000Y165514D01*
Y165000D02*
Y165514D01*
X45588Y151870D02*
X50000Y156283D01*
X48923Y169260D02*
X50000Y168183D01*
Y156283D02*
Y168183D01*
X248015Y81985D02*
Y84672D01*
Y81985D02*
X251000Y79000D01*
X248015Y84672D02*
X248172Y84828D01*
X158000Y134000D02*
Y172507D01*
X157000Y212000D02*
X161500Y216500D01*
X157000Y173507D02*
X158000Y172507D01*
X157000Y173507D02*
Y212000D01*
X154850Y212850D02*
X160000Y218000D01*
X154850Y136000D02*
Y212850D01*
X75500Y241900D02*
Y246000D01*
X45486Y121500D02*
X46000D01*
X43000Y123056D02*
Y125700D01*
Y123056D02*
X43832Y122225D01*
X44761D01*
X45486Y121500D01*
X109000Y138500D02*
X113500D01*
X123500Y137000D02*
Y141100D01*
X96100Y163600D02*
X96200Y163500D01*
X100000D01*
X75300Y205000D02*
X80000D01*
X24000Y148500D02*
X30500D01*
X27000Y142000D02*
X31900D01*
X33000Y143100D01*
X67500Y147000D02*
Y151700D01*
X146602Y100000D02*
X152000D01*
X146595Y99992D02*
X146602Y100000D01*
X139500Y119000D02*
X141400Y120900D01*
X146500D01*
X253176Y93176D02*
X257500Y97500D01*
X252939Y93176D02*
X253176D01*
X274000Y110000D02*
X278369Y114369D01*
X278516D01*
X274000Y110000D02*
X274000D01*
X274061Y118061D02*
Y118824D01*
X270000Y114000D02*
X274061Y118061D01*
X267020Y130364D02*
X270828Y134172D01*
X270828D01*
X265863Y130364D02*
X267020D01*
X265500Y130000D02*
X265863Y130364D01*
X285672Y133328D02*
X287172D01*
X291000Y129500D01*
X289835Y140211D02*
X293182Y136864D01*
X294137D01*
X294500Y136500D01*
X289835Y140211D02*
X289835D01*
X294672Y157172D02*
X299000Y161500D01*
X292828Y157172D02*
X294672D01*
X288721Y150789D02*
X294275D01*
X288443Y151068D02*
X288721Y150789D01*
X294275D02*
X295486Y152000D01*
X296000D01*
X146500Y68500D02*
Y73913D01*
X146595Y74008D01*
X50500Y86500D02*
Y90200D01*
X51000Y90700D01*
X7000Y154900D02*
Y159500D01*
X11500D02*
X11863Y159136D01*
X14945Y155193D02*
X15339D01*
X11863Y158274D02*
X14945Y155193D01*
X11863Y158274D02*
Y159136D01*
X50000Y195900D02*
X50500Y196400D01*
Y200500D01*
X99500Y224000D02*
Y229600D01*
X99000Y230100D02*
X99500Y229600D01*
X108300Y108177D02*
Y122300D01*
X89827Y104050D02*
X104173D01*
X108300Y108177D01*
Y122300D02*
X109000Y123000D01*
X119677Y121800D02*
X139997D01*
X109500Y111623D02*
X119677Y121800D01*
X109500Y90500D02*
Y111623D01*
X54100Y108500D02*
X80600D01*
X40100Y122500D02*
X54100Y108500D01*
X47726Y107843D02*
X52680D01*
X67061Y93461D01*
Y90889D02*
Y93461D01*
X204152Y139652D02*
X213668Y130135D01*
X198848Y144954D02*
X204152Y139652D01*
X206500Y197500D02*
X207137Y196863D01*
Y147363D02*
Y196863D01*
X186500Y197500D02*
X203500Y180500D01*
Y151500D02*
Y180500D01*
X207137Y147363D02*
X207500Y147000D01*
X192944Y153900D02*
X214868Y131975D01*
Y129632D02*
Y131975D01*
X184378Y153900D02*
X192944D01*
X202648Y134000D02*
X203000Y133649D01*
X202500Y134000D02*
X202648D01*
X203000Y125000D02*
Y133649D01*
X207390Y132150D02*
X208612D01*
X196000Y140500D02*
X196363Y140864D01*
X197623D01*
X197850Y141091D01*
X224500Y96000D02*
X233752Y105252D01*
X197850Y141091D02*
X198450D01*
X207390Y132150D01*
X208612D02*
X233752Y107011D01*
Y105252D02*
Y107011D01*
X193500Y115500D02*
X203000Y125000D01*
X186225Y165235D02*
Y168275D01*
X248353Y103350D02*
X259776D01*
X245853Y105851D02*
X248353Y103350D01*
X245609Y105851D02*
X245853D01*
X186225Y165235D02*
X245609Y105851D01*
X185000Y169500D02*
X186225Y168275D01*
X193850Y135559D02*
X197900Y131509D01*
X193850Y141391D02*
X197414Y144954D01*
X193850Y135559D02*
Y141391D01*
X197414Y144954D02*
X198848D01*
X197900Y123678D02*
Y131509D01*
X194424Y120201D02*
X197900Y123678D01*
X183098Y105902D02*
X183500Y105500D01*
X175129Y105902D02*
X183098D01*
X174765Y106265D02*
X175129Y105902D01*
X163450Y105500D02*
X169000D01*
X226500Y155000D02*
Y197500D01*
Y133090D02*
Y155000D01*
X219000Y153500D02*
X219040D01*
X220540Y155000D01*
X226500D01*
X216500Y142000D02*
Y197500D01*
X224500Y81000D02*
Y96000D01*
X213000Y142000D02*
X216500D01*
X213668Y129135D02*
Y130135D01*
X214868Y129632D02*
X238500Y106000D01*
X213668Y129135D02*
X234951Y107852D01*
X185000Y169500D02*
Y189000D01*
X272005Y91121D02*
X272005D01*
X259776Y103350D02*
X272005Y91121D01*
X272005D02*
X272005D01*
X204500Y112000D02*
Y127000D01*
X207500Y130000D01*
X203600Y111100D02*
X204500Y112000D01*
X216500Y137716D02*
Y142000D01*
X226500Y133090D02*
X246358Y113233D01*
X181677Y111100D02*
X203600D01*
X179100Y113678D02*
X181677Y111100D01*
X179100Y113678D02*
Y117323D01*
X182878Y121100D02*
Y124878D01*
X179100Y117323D02*
X182878Y121100D01*
Y124878D02*
X183500Y125500D01*
X188201Y120201D02*
X194424D01*
X183500Y115500D02*
X188201Y120201D01*
X234951Y106508D02*
Y107852D01*
Y106508D02*
X237614Y103845D01*
X242270D01*
X244029Y102086D02*
X244029D01*
X242270Y103845D02*
X244029Y102086D01*
X139997Y121800D02*
X146197Y128000D01*
X149500D01*
X139500Y123000D02*
X147000Y130500D01*
X109000Y123000D02*
X139500D01*
X161500Y216500D02*
X309015D01*
X328015Y197500D01*
X332500D01*
X317515Y218000D02*
X338015Y197500D01*
X160000Y218000D02*
X317515D01*
X97500Y62500D02*
X97750Y62750D01*
X112750D01*
X30100Y99099D02*
X66699Y62500D01*
X97500D01*
X139450Y89450D02*
Y112750D01*
X112750Y62750D02*
X139450Y89450D01*
X144800Y114800D02*
X145336Y115336D01*
X141500Y114800D02*
X144800D01*
X139450Y112750D02*
X141500Y114800D01*
X145336Y115336D02*
X147959D01*
X151623Y119000D02*
X156600D01*
X147959Y115336D02*
X151623Y119000D01*
X338015Y197500D02*
X342500D01*
X159850Y109100D02*
X163450Y105500D01*
X158500Y109100D02*
X159850D01*
X281993Y96266D02*
X284435D01*
X342500Y154331D02*
Y197500D01*
X284930Y98458D02*
X332500Y146028D01*
X284185Y98458D02*
X284930D01*
X284062Y98580D02*
X284185Y98458D01*
X282365Y98580D02*
X284062D01*
X332500Y146028D02*
Y197500D01*
X280915Y100030D02*
X282365Y98580D01*
X284435Y96266D02*
X342500Y154331D01*
X281657Y104663D02*
X322500Y145506D01*
Y197500D01*
X282970Y109914D02*
X312500Y139444D01*
Y197500D01*
X282970Y109914D02*
Y109914D01*
X280779Y112106D02*
Y112106D01*
X306138Y137466D02*
Y193862D01*
X280779Y112106D02*
X306138Y137466D01*
X281941Y96317D02*
X281993Y96266D01*
X280102Y96317D02*
X281941D01*
X278652Y97768D02*
X280102Y96317D01*
X231150Y28850D02*
X339365D01*
X222500Y37500D02*
X231150Y28850D01*
X339365D02*
X346400Y35885D01*
X38000Y123331D02*
X38831Y122500D01*
X38000Y123331D02*
Y125700D01*
X38831Y122500D02*
X40100D01*
X33000Y122569D02*
X47726Y107843D01*
X85877Y75500D02*
X92765Y82388D01*
X81100Y75500D02*
X85877D01*
X92765Y82388D02*
X101388D01*
X109500Y90500D01*
X92900Y75500D02*
X102100D01*
X33000Y122569D02*
Y125700D01*
X81100Y75500D02*
Y76850D01*
X67061Y90889D02*
X81100Y76850D01*
X158405Y74008D02*
X166592D01*
Y72658D02*
Y74008D01*
Y72658D02*
X184867Y54383D01*
X191133D01*
X207500Y38015D01*
Y36985D02*
Y38015D01*
Y36985D02*
X210885Y33600D01*
X214115D01*
X218015Y37500D01*
X222500D01*
X146500Y109100D02*
X158500D01*
X156600Y119000D02*
X158500Y120900D01*
X225815Y106513D02*
X226151Y106849D01*
X250000Y106500D02*
X260020D01*
X273207Y93313D01*
X346400Y35885D02*
Y39115D01*
X319143Y66373D02*
X346400Y39115D01*
X305663Y66373D02*
X319143D01*
X276460Y95575D02*
X305663Y66373D01*
X276460Y95575D02*
X276460D01*
X255821Y74179D02*
X292500Y37500D01*
X306250Y63750D02*
X332500Y37500D01*
X299376Y63750D02*
X306250D01*
X302560Y64950D02*
X315050D01*
X342500Y37500D01*
X272005Y91121D02*
X299376Y63750D01*
X274197Y93313D02*
X302560Y64950D01*
X225329Y80171D02*
X233252D01*
X224500Y81000D02*
X225329Y80171D01*
X234980Y81900D02*
X237137D01*
X250676Y95439D01*
X250676D01*
X233252Y80171D02*
X234980Y81900D01*
X273207Y93313D02*
X274197D01*
X216500Y137716D02*
X244166Y110051D01*
Y110051D02*
Y110051D01*
X162500Y170500D02*
X167778D01*
X184378Y153900D01*
X162500Y193500D02*
X166500Y197500D01*
X162500Y170500D02*
Y193500D01*
X176500Y197500D02*
X185000Y189000D01*
X28831Y99099D02*
X30100D01*
X28000Y99931D02*
X28831Y99099D01*
X28000Y99931D02*
Y102300D01*
X158405Y99992D02*
Y109005D01*
Y74008D02*
Y99992D01*
Y109005D02*
X158500Y109100D01*
X236500Y127616D02*
X248621Y115495D01*
X246500Y122000D02*
Y197500D01*
X246358Y112243D02*
Y113233D01*
X248621Y114505D02*
Y115495D01*
X236500Y127616D02*
Y197500D01*
X246500Y122000D02*
X250813Y117687D01*
Y116697D02*
Y117687D01*
X251503Y121523D02*
Y192503D01*
X256500Y197500D01*
X253076Y118960D02*
Y119950D01*
X251503Y121523D02*
X253076Y119950D01*
X253766Y123644D02*
Y178766D01*
X272500Y197500D01*
X255268Y121152D02*
Y122142D01*
X253766Y123644D02*
X255268Y122142D01*
X255958Y170958D02*
X282500Y197500D01*
X255958Y125977D02*
Y170958D01*
X257530Y123415D02*
Y124405D01*
X255958Y125977D02*
X257530Y124405D01*
X292500Y179157D02*
Y197500D01*
X259529Y146186D02*
X292500Y179157D01*
X259529Y129304D02*
Y146186D01*
X258272Y128047D02*
X259529Y129304D01*
X258272Y127057D02*
Y128047D01*
Y127057D02*
X259722Y125607D01*
X281657Y103673D02*
X283107Y102222D01*
X281657Y103673D02*
Y104663D01*
X302500Y197500D02*
X306138Y193862D01*
X255821Y85452D02*
X255943Y85574D01*
X255821Y74179D02*
Y85452D01*
X255943Y87271D02*
X257394Y88722D01*
X255943Y85574D02*
Y87271D01*
X259586Y86529D02*
X302500Y43615D01*
Y37500D02*
Y43615D01*
X259586Y86529D02*
Y86529D01*
X312500Y37500D02*
Y41717D01*
X267551Y86666D02*
Y86666D01*
Y86666D02*
X312500Y41717D01*
X270732Y88858D02*
X322091Y37500D01*
X322500D01*
X269743Y88858D02*
X270732D01*
X29490Y135320D02*
X33940D01*
X44388Y147465D02*
Y169771D01*
X18832Y128901D02*
X20100D01*
X18000Y125700D02*
Y128069D01*
X18832Y128901D01*
X45588Y146968D02*
Y151870D01*
X27720Y136520D02*
X33443D01*
X44388Y147465D01*
X33940Y135320D02*
X45588Y146968D01*
X20100Y128901D02*
X27720Y136520D01*
X23000Y128831D02*
X29490Y135320D01*
X23000Y125700D02*
Y128831D01*
X8900Y145000D02*
X11445D01*
X7000Y143100D02*
X8900Y145000D01*
X14944Y148500D02*
X15338D01*
X11445Y145000D02*
X14944Y148500D01*
X8000Y125700D02*
Y142100D01*
X7000Y143100D02*
X8000Y142100D01*
X32707Y155193D02*
X33000Y154900D01*
X24000Y155193D02*
X32707D01*
X18993Y145765D02*
Y150580D01*
X23607Y155193D01*
X24000D01*
X13000Y125700D02*
Y139772D01*
X18993Y145765D01*
X41125Y177421D02*
X44985D01*
X44388Y175073D02*
X46055Y176740D01*
X33124Y172921D02*
Y177309D01*
X42477Y167860D02*
X44388Y169771D01*
X33124Y177309D02*
X36386Y180571D01*
X44388Y169771D02*
Y175073D01*
X46055Y176740D02*
X48923D01*
X44985Y177421D02*
X46582Y179018D01*
X51265D02*
X51792Y178491D01*
X50001Y170338D02*
X50880D01*
X46582Y179018D02*
X51265D01*
X33124Y172921D02*
X38185Y167860D01*
X42477D01*
X51792Y171249D02*
Y178491D01*
X50880Y170338D02*
X51792Y171249D01*
X48923Y169260D02*
X50001Y170338D01*
X278283Y142627D02*
Y149932D01*
X285142Y156792D01*
Y163142D01*
X294567Y144943D02*
X297287D01*
X301172Y148828D01*
X280368Y134040D02*
Y135913D01*
X289676Y145221D01*
X269606Y123278D02*
Y123278D01*
X280368Y134040D01*
X289676Y145221D02*
X294289D01*
X294567Y144943D01*
X267414Y125470D02*
Y125470D01*
X276374Y134430D01*
Y140717D01*
X277328Y141672D01*
D11*
X63500Y184000D02*
X88500D01*
X152000Y134000D02*
X155400Y130600D01*
X131500Y199500D02*
X152000Y179000D01*
Y134000D02*
Y179000D01*
X114600Y109700D02*
Y112965D01*
X115500Y113865D02*
Y114000D01*
X113400Y108500D02*
X114600Y109700D01*
Y112965D02*
X115500Y113865D01*
X64500Y115000D02*
X103000D01*
X58669Y120831D02*
X64500Y115000D01*
X58669Y120831D02*
Y145831D01*
X52000Y152500D02*
X58669Y145831D01*
X52000Y142500D02*
X52500Y142000D01*
Y126500D02*
Y142000D01*
Y126500D02*
X53000Y126000D01*
X47800D02*
X53000D01*
X45980Y127820D02*
X47800Y126000D01*
X171900Y105100D02*
Y130600D01*
Y105100D02*
X185500Y91500D01*
X171900Y130600D02*
X188400D01*
X155400D02*
X171900D01*
X188400D02*
X193500Y125500D01*
X114600Y88388D02*
Y107300D01*
X113400Y108500D02*
X114600Y107300D01*
X113900Y87687D02*
X114600Y88388D01*
X113900Y75500D02*
Y87687D01*
X163900Y112900D02*
X166000Y115000D01*
X142287Y112900D02*
X163900D01*
X141350Y108663D02*
Y111963D01*
X142287Y112900D01*
X141350Y42150D02*
Y108663D01*
X149400Y132923D02*
Y161100D01*
Y132923D02*
X154323Y128000D01*
X159413D01*
X166000Y121413D01*
X141000Y169500D02*
X149400Y161100D01*
X178400Y72650D02*
X212500Y38550D01*
X178400Y72650D02*
Y74000D01*
X212500Y37500D02*
Y38550D01*
X155000Y28500D02*
X228000D01*
X233000Y31000D02*
Y31135D01*
X232500Y31635D02*
Y37500D01*
Y31635D02*
X233000Y31135D01*
X267900Y42100D02*
X272500Y37500D01*
X247100Y42100D02*
X267900D01*
X242500Y37500D02*
X247100Y42100D01*
X237900D02*
X242500Y37500D01*
X217100Y42100D02*
X237900D01*
X212500Y37500D02*
X217100Y42100D01*
X141350Y42150D02*
X155000Y28500D01*
X166000Y115000D02*
Y121413D01*
X225151Y106849D02*
X226151D01*
X210803Y91500D02*
X225815Y106513D01*
X195500Y91500D02*
X210803D01*
X251500Y109500D02*
X260353D01*
X271869Y121016D01*
X275727Y124873D01*
X222000Y110000D02*
X225151Y106849D01*
X278217Y124873D02*
X278217Y124873D01*
Y123176D02*
Y124873D01*
X279172Y125828D01*
X276324Y116561D02*
X278526Y118763D01*
Y122868D01*
X278217Y123176D02*
X278526Y122868D01*
X275727Y124873D02*
X278217D01*
X185500Y82450D02*
Y91500D01*
X178400Y75350D02*
X185500Y82450D01*
X178400Y74000D02*
Y75350D01*
X239828Y93071D02*
Y93172D01*
X231429Y84571D02*
Y84672D01*
X239828Y93071D01*
X139647Y169500D02*
X141000D01*
X93787Y168350D02*
X138497D01*
X139647Y169500D01*
X92850Y164800D02*
Y167413D01*
X93787Y168350D01*
X123500Y152900D02*
Y161100D01*
Y172900D02*
Y183500D01*
X85700Y172900D02*
X123500D01*
Y183500D02*
Y191500D01*
X91650Y163600D02*
X92850Y164800D01*
X87000Y163600D02*
X91650D01*
X123500Y191500D02*
X131500Y199500D01*
X239828Y93500D02*
X246221Y99894D01*
X239828Y93172D02*
Y93500D01*
X234849Y98151D02*
X239828Y93172D01*
X77900Y163600D02*
Y165100D01*
X85700Y172900D01*
X28000Y118369D02*
Y128723D01*
X30908Y131631D02*
X44160D01*
X28000Y128723D02*
X30908Y131631D01*
X44160D02*
X45980Y129811D01*
Y127820D02*
Y129811D01*
X43000Y102315D02*
Y105431D01*
Y102300D02*
Y102315D01*
X28000Y118369D02*
X34431Y111938D01*
X36492D02*
X43000Y105431D01*
X34431Y111938D02*
X36492D01*
X43000Y102315D02*
X43185Y102500D01*
X51000D01*
X52000Y152500D02*
X52838Y153338D01*
X66150Y163500D02*
X67500D01*
X55988Y153338D02*
X66150Y163500D01*
X52838Y153338D02*
X55988D01*
X58224Y173000D02*
X65828D01*
X67500Y171328D01*
Y163500D02*
Y171328D01*
X41315Y183910D02*
X49810D01*
X50000Y184100D01*
X41125Y183721D02*
X41315Y183910D01*
X50050Y184050D02*
X63450D01*
X63500Y184000D01*
X50000Y184100D02*
X50050Y184050D01*
X87000Y138400D02*
Y163600D01*
X77800Y163500D02*
X77900Y163600D01*
X67500Y163500D02*
X77800D01*
X97100Y138400D02*
X97200Y138500D01*
X87000Y138400D02*
X97100D01*
X111700Y183500D02*
X112350Y184150D01*
Y198850D01*
X113000Y199500D01*
X111500Y183500D02*
X111700D01*
X98500Y184000D02*
X109600D01*
X88500Y194000D02*
X98500Y184000D01*
X87000Y206717D02*
Y230100D01*
Y206717D02*
X88500Y205217D01*
Y204000D02*
Y205217D01*
X63500Y195800D02*
Y205000D01*
X87000Y241900D02*
X99000D01*
X75500Y230100D02*
X87000D01*
X56122Y230000D02*
X56222Y230100D01*
X75500D01*
D22*
X87000D02*
D03*
Y241900D02*
D03*
X63500Y184000D02*
D03*
Y195800D02*
D03*
X158500Y120900D02*
D03*
Y109100D02*
D03*
X146500D02*
D03*
Y120900D02*
D03*
X33000Y154900D02*
D03*
Y143100D02*
D03*
X7000Y154900D02*
D03*
Y143100D02*
D03*
X99000Y230100D02*
D03*
Y241900D02*
D03*
X123500Y141100D02*
D03*
Y152900D02*
D03*
Y172900D02*
D03*
Y161100D02*
D03*
X51000Y102500D02*
D03*
Y90700D02*
D03*
X67500Y163500D02*
D03*
Y151700D02*
D03*
X75500Y230100D02*
D03*
Y241900D02*
D03*
X50000Y195900D02*
D03*
Y184100D02*
D03*
D23*
X158405Y99992D02*
D03*
X146595Y74008D02*
D03*
X158405D02*
D03*
X146595Y99992D02*
D03*
D24*
X113900Y75500D02*
D03*
X102100D02*
D03*
X113400Y108500D02*
D03*
X101600D02*
D03*
X166600Y74000D02*
D03*
X178400D02*
D03*
X92400Y108500D02*
D03*
X80600D02*
D03*
X92900Y75500D02*
D03*
X81100D02*
D03*
X111700Y183500D02*
D03*
X123500D02*
D03*
X75300Y205000D02*
D03*
X63500D02*
D03*
X53000Y126000D02*
D03*
X64800D02*
D03*
X97200Y138500D02*
D03*
X109000D02*
D03*
D25*
X234849Y98151D02*
D03*
X226151Y106849D02*
D03*
D26*
X239828Y93172D02*
D03*
X248172Y84828D02*
D03*
X292828Y157172D02*
D03*
X301172Y148828D02*
D03*
X285672Y133328D02*
D03*
X277328Y141672D02*
D03*
X279172Y125828D02*
D03*
X270828Y134172D02*
D03*
D27*
X294567Y144943D02*
D03*
X288443Y151068D02*
D03*
X289835Y140211D02*
D03*
X283710Y146336D02*
D03*
D28*
X58224Y176740D02*
D03*
Y173000D02*
D03*
Y169260D02*
D03*
X48923D02*
D03*
Y173000D02*
D03*
Y176740D02*
D03*
D29*
X77900Y163600D02*
D03*
X87000D02*
D03*
X96100D02*
D03*
D30*
X87000Y138400D02*
D03*
D31*
X43000Y125700D02*
D03*
X38000D02*
D03*
X33000D02*
D03*
X28000D02*
D03*
X23000D02*
D03*
X18000D02*
D03*
X13000D02*
D03*
X8000D02*
D03*
Y102300D02*
D03*
X13000D02*
D03*
X18000D02*
D03*
X23000D02*
D03*
X28000D02*
D03*
X33000D02*
D03*
X38000D02*
D03*
X43000D02*
D03*
D32*
X24000Y155193D02*
D03*
X15339D02*
D03*
X24000Y148500D02*
D03*
X15338D02*
D03*
D33*
X282970Y109914D02*
D03*
X280779Y112106D02*
D03*
X278516Y114369D02*
D03*
X276324Y116561D02*
D03*
X274061Y118824D02*
D03*
X271869Y121016D02*
D03*
X269606Y123278D02*
D03*
X267414Y125470D02*
D03*
X244029Y102086D02*
D03*
X246221Y99894D02*
D03*
X248484Y97631D02*
D03*
X250676Y95439D02*
D03*
X252939Y93176D02*
D03*
X255131Y90984D02*
D03*
X257394Y88722D02*
D03*
X259586Y86529D02*
D03*
D34*
X259722Y125607D02*
D03*
X257530Y123415D02*
D03*
X255268Y121152D02*
D03*
X253076Y118960D02*
D03*
X250813Y116697D02*
D03*
X248621Y114505D02*
D03*
X246358Y112243D02*
D03*
X244166Y110051D02*
D03*
X267551Y86666D02*
D03*
X269743Y88858D02*
D03*
X272005Y91121D02*
D03*
X274197Y93313D02*
D03*
X276460Y95575D02*
D03*
X278652Y97768D02*
D03*
X280915Y100030D02*
D03*
X283107Y102222D02*
D03*
D57*
X245571Y70429D02*
D03*
X252642Y63358D02*
D03*
X231429Y84571D02*
D03*
X238500Y77500D02*
D03*
X271000Y149000D02*
D03*
X263929Y141929D02*
D03*
X285142Y163142D02*
D03*
X278071Y156071D02*
D03*
X141000Y149500D02*
D03*
Y139500D02*
D03*
Y169500D02*
D03*
Y159500D02*
D03*
X131500Y219500D02*
D03*
Y229500D02*
D03*
Y199500D02*
D03*
Y209500D02*
D03*
X113000Y219500D02*
D03*
Y229500D02*
D03*
Y199500D02*
D03*
Y209500D02*
D03*
X183500Y125500D02*
D03*
X193500D02*
D03*
X183500Y115500D02*
D03*
X193500D02*
D03*
X183500Y105500D02*
D03*
X193500D02*
D03*
X89000Y123000D02*
D03*
X79000D02*
D03*
X109000D02*
D03*
X99000D02*
D03*
X89500Y90500D02*
D03*
X79500D02*
D03*
X109500D02*
D03*
X99500D02*
D03*
X185000Y149500D02*
D03*
Y139500D02*
D03*
Y169500D02*
D03*
Y159500D02*
D03*
X162500Y150500D02*
D03*
Y140500D02*
D03*
Y170500D02*
D03*
Y160500D02*
D03*
D58*
X52000Y142500D02*
D03*
Y152500D02*
D03*
X195500Y91500D02*
D03*
X185500D02*
D03*
D59*
X88500Y204000D02*
D03*
Y194000D02*
D03*
Y184000D02*
D03*
D60*
X46279Y211693D02*
D03*
D61*
X32500Y230000D02*
D03*
X56122D02*
D03*
D62*
X256500Y227500D02*
D03*
X246500D02*
D03*
X236500D02*
D03*
X226500D02*
D03*
X216500D02*
D03*
X206500D02*
D03*
X196500D02*
D03*
X186500D02*
D03*
X176500D02*
D03*
X166500D02*
D03*
X202500Y7500D02*
D03*
X212500D02*
D03*
X222500D02*
D03*
X232500D02*
D03*
X242500D02*
D03*
X252500D02*
D03*
X262500D02*
D03*
X272500D02*
D03*
X292500D02*
D03*
X302500D02*
D03*
X312500D02*
D03*
X322500D02*
D03*
X342500D02*
D03*
X332500D02*
D03*
X256500Y197500D02*
D03*
X246500D02*
D03*
X236500D02*
D03*
X226500D02*
D03*
X216500D02*
D03*
X206500D02*
D03*
X196500D02*
D03*
X186500D02*
D03*
X176500D02*
D03*
X166500D02*
D03*
X292500Y37500D02*
D03*
X302500D02*
D03*
X312500D02*
D03*
X322500D02*
D03*
X332500D02*
D03*
X342500D02*
D03*
Y197500D02*
D03*
X332500D02*
D03*
X322500D02*
D03*
X312500D02*
D03*
X302500D02*
D03*
X292500D02*
D03*
X282500D02*
D03*
X272500D02*
D03*
Y227500D02*
D03*
X282500D02*
D03*
X292500D02*
D03*
X302500D02*
D03*
X312500D02*
D03*
X322500D02*
D03*
X332500D02*
D03*
X342500D02*
D03*
X202500Y37500D02*
D03*
X212500D02*
D03*
X222500D02*
D03*
X232500D02*
D03*
X242500D02*
D03*
X252500D02*
D03*
X262500D02*
D03*
X272500D02*
D03*
D63*
X18875Y192146D02*
D03*
X37575D02*
D03*
Y162855D02*
D03*
X18875D02*
D03*
D64*
X41125Y171123D02*
D03*
Y177421D02*
D03*
X36386Y174273D02*
D03*
Y180571D02*
D03*
X41125Y183721D02*
D03*
D65*
X158000Y134000D02*
D03*
X70000Y125000D02*
D03*
X47000Y165000D02*
D03*
X154850Y136000D02*
D03*
X152000Y100000D02*
D03*
X139500Y119000D02*
D03*
X274000Y110000D02*
D03*
X270000Y114000D02*
D03*
X296000Y152000D02*
D03*
X299000Y161500D02*
D03*
X265500Y130000D02*
D03*
X291000Y129500D02*
D03*
X294500Y136500D02*
D03*
X7000Y159500D02*
D03*
X115500Y114000D02*
D03*
X103000Y115000D02*
D03*
X75500Y246000D02*
D03*
X99500Y224000D02*
D03*
X257500Y97500D02*
D03*
X251000Y79000D02*
D03*
X146500Y68500D02*
D03*
X50500Y86500D02*
D03*
X46000Y121500D02*
D03*
X27000Y142000D02*
D03*
X30500Y148500D02*
D03*
X11500Y159500D02*
D03*
X50500Y200500D02*
D03*
X80000Y205000D02*
D03*
X100000Y163500D02*
D03*
X123500Y137000D02*
D03*
X113500Y138500D02*
D03*
X67500Y147000D02*
D03*
X207500D02*
D03*
X204152Y139652D02*
D03*
X202500Y134000D02*
D03*
X196000Y140500D02*
D03*
X203500Y151500D02*
D03*
X174765Y106265D02*
D03*
X169000Y105500D02*
D03*
X219000Y153500D02*
D03*
X213000Y142000D02*
D03*
X207500Y130000D02*
D03*
X238500Y106000D02*
D03*
X149500Y128000D02*
D03*
X147000Y130500D02*
D03*
X228000Y28500D02*
D03*
X233000Y31000D02*
D03*
X251500Y109500D02*
D03*
X250000Y106500D02*
D03*
X222000Y110000D02*
D03*
M02*
