G04*
G04 #@! TF.GenerationSoftware,Altium Limited,Altium Designer,21.1.1 (26)*
G04*
G04 Layer_Color=8421504*
%FSLAX25Y25*%
%MOIN*%
G70*
G04*
G04 #@! TF.SameCoordinates,7D5D5EFA-C770-4444-A878-D417F12E0F6E*
G04*
G04*
G04 #@! TF.FilePolarity,Positive*
G04*
G01*
G75*
%ADD22R,0.07100X0.04400*%
%ADD23R,0.04724X0.05906*%
%ADD24R,0.04400X0.07100*%
G04:AMPARAMS|DCode=25|XSize=54mil|YSize=73mil|CornerRadius=0mil|HoleSize=0mil|Usage=FLASHONLY|Rotation=135.000|XOffset=0mil|YOffset=0mil|HoleType=Round|Shape=Rectangle|*
%AMROTATEDRECTD25*
4,1,4,0.04490,0.00672,-0.00672,-0.04490,-0.04490,-0.00672,0.00672,0.04490,0.04490,0.00672,0.0*
%
%ADD25ROTATEDRECTD25*%

G04:AMPARAMS|DCode=26|XSize=44mil|YSize=71mil|CornerRadius=0mil|HoleSize=0mil|Usage=FLASHONLY|Rotation=135.000|XOffset=0mil|YOffset=0mil|HoleType=Round|Shape=Rectangle|*
%AMROTATEDRECTD26*
4,1,4,0.04066,0.00955,-0.00955,-0.04066,-0.04066,-0.00955,0.00955,0.04066,0.04066,0.00955,0.0*
%
%ADD26ROTATEDRECTD26*%

G04:AMPARAMS|DCode=27|XSize=47.24mil|YSize=55.11mil|CornerRadius=0mil|HoleSize=0mil|Usage=FLASHONLY|Rotation=225.000|XOffset=0mil|YOffset=0mil|HoleType=Round|Shape=Rectangle|*
%AMROTATEDRECTD27*
4,1,4,-0.00278,0.03619,0.03619,-0.00278,0.00278,-0.03619,-0.03619,0.00278,-0.00278,0.03619,0.0*
%
%ADD27ROTATEDRECTD27*%

%ADD28R,0.03937X0.02756*%
%ADD29R,0.03300X0.06300*%
%ADD30R,0.12200X0.06300*%
%ADD31O,0.02400X0.08661*%
%ADD32R,0.05511X0.04724*%
G04:AMPARAMS|DCode=33|XSize=20mil|YSize=61.02mil|CornerRadius=0mil|HoleSize=0mil|Usage=FLASHONLY|Rotation=135.000|XOffset=0mil|YOffset=0mil|HoleType=Round|Shape=Rectangle|*
%AMROTATEDRECTD33*
4,1,4,0.02865,0.01450,-0.01450,-0.02865,-0.02865,-0.01450,0.01450,0.02865,0.02865,0.01450,0.0*
%
%ADD33ROTATEDRECTD33*%

G04:AMPARAMS|DCode=34|XSize=20mil|YSize=61.02mil|CornerRadius=0mil|HoleSize=0mil|Usage=FLASHONLY|Rotation=45.000|XOffset=0mil|YOffset=0mil|HoleType=Round|Shape=Rectangle|*
%AMROTATEDRECTD34*
4,1,4,0.01450,-0.02865,-0.02865,0.01450,-0.01450,0.02865,0.02865,-0.01450,0.01450,-0.02865,0.0*
%
%ADD34ROTATEDRECTD34*%

D22*
X87000Y230100D02*
D03*
Y241900D02*
D03*
X63500Y184000D02*
D03*
Y195800D02*
D03*
X158500Y120900D02*
D03*
Y109100D02*
D03*
X146500D02*
D03*
Y120900D02*
D03*
X33000Y154900D02*
D03*
Y143100D02*
D03*
X7000Y154900D02*
D03*
Y143100D02*
D03*
X99000Y230100D02*
D03*
Y241900D02*
D03*
X123500Y141100D02*
D03*
Y152900D02*
D03*
Y172900D02*
D03*
Y161100D02*
D03*
X51000Y102500D02*
D03*
Y90700D02*
D03*
X67500Y163500D02*
D03*
Y151700D02*
D03*
X75500Y230100D02*
D03*
Y241900D02*
D03*
X50000Y195900D02*
D03*
Y184100D02*
D03*
D23*
X158405Y99992D02*
D03*
X146595Y74008D02*
D03*
X158405D02*
D03*
X146595Y99992D02*
D03*
D24*
X113900Y75500D02*
D03*
X102100D02*
D03*
X113400Y108500D02*
D03*
X101600D02*
D03*
X166600Y74000D02*
D03*
X178400D02*
D03*
X92400Y108500D02*
D03*
X80600D02*
D03*
X92900Y75500D02*
D03*
X81100D02*
D03*
X111700Y183500D02*
D03*
X123500D02*
D03*
X75300Y205000D02*
D03*
X63500D02*
D03*
X53000Y126000D02*
D03*
X64800D02*
D03*
X97200Y138500D02*
D03*
X109000D02*
D03*
D25*
X234849Y98151D02*
D03*
X226151Y106849D02*
D03*
D26*
X239828Y93172D02*
D03*
X248172Y84828D02*
D03*
X292828Y157172D02*
D03*
X301172Y148828D02*
D03*
X285672Y133328D02*
D03*
X277328Y141672D02*
D03*
X279172Y125828D02*
D03*
X270828Y134172D02*
D03*
D27*
X294567Y144943D02*
D03*
X288443Y151068D02*
D03*
X289835Y140211D02*
D03*
X283710Y146336D02*
D03*
D28*
X58224Y176740D02*
D03*
Y173000D02*
D03*
Y169260D02*
D03*
X48923D02*
D03*
Y173000D02*
D03*
Y176740D02*
D03*
D29*
X77900Y163600D02*
D03*
X87000D02*
D03*
X96100D02*
D03*
D30*
X87000Y138400D02*
D03*
D31*
X43000Y125700D02*
D03*
X38000D02*
D03*
X33000D02*
D03*
X28000D02*
D03*
X23000D02*
D03*
X18000D02*
D03*
X13000D02*
D03*
X8000D02*
D03*
Y102300D02*
D03*
X13000D02*
D03*
X18000D02*
D03*
X23000D02*
D03*
X28000D02*
D03*
X33000D02*
D03*
X38000D02*
D03*
X43000D02*
D03*
D32*
X24000Y155193D02*
D03*
X15339D02*
D03*
X24000Y148500D02*
D03*
X15338D02*
D03*
D33*
X282970Y109914D02*
D03*
X280779Y112106D02*
D03*
X278516Y114369D02*
D03*
X276324Y116561D02*
D03*
X274061Y118824D02*
D03*
X271869Y121016D02*
D03*
X269606Y123278D02*
D03*
X267414Y125470D02*
D03*
X244029Y102086D02*
D03*
X246221Y99894D02*
D03*
X248484Y97631D02*
D03*
X250676Y95439D02*
D03*
X252939Y93176D02*
D03*
X255131Y90984D02*
D03*
X257394Y88722D02*
D03*
X259586Y86529D02*
D03*
D34*
X259722Y125607D02*
D03*
X257530Y123415D02*
D03*
X255268Y121152D02*
D03*
X253076Y118960D02*
D03*
X250813Y116697D02*
D03*
X248621Y114505D02*
D03*
X246358Y112243D02*
D03*
X244166Y110051D02*
D03*
X267551Y86666D02*
D03*
X269743Y88858D02*
D03*
X272005Y91121D02*
D03*
X274197Y93313D02*
D03*
X276460Y95575D02*
D03*
X278652Y97768D02*
D03*
X280915Y100030D02*
D03*
X283107Y102222D02*
D03*
M02*
