G04*
G04 #@! TF.GenerationSoftware,Altium Limited,Altium Designer,21.1.1 (26)*
G04*
G04 Layer_Color=8388736*
%FSLAX25Y25*%
%MOIN*%
G70*
G04*
G04 #@! TF.SameCoordinates,7D5D5EFA-C770-4444-A878-D417F12E0F6E*
G04*
G04*
G04 #@! TF.FilePolarity,Negative*
G04*
G01*
G75*
G04:AMPARAMS|DCode=25|XSize=54mil|YSize=73mil|CornerRadius=0mil|HoleSize=0mil|Usage=FLASHONLY|Rotation=135.000|XOffset=0mil|YOffset=0mil|HoleType=Round|Shape=Rectangle|*
%AMROTATEDRECTD25*
4,1,4,0.04490,0.00672,-0.00672,-0.04490,-0.04490,-0.00672,0.00672,0.04490,0.04490,0.00672,0.0*
%
%ADD25ROTATEDRECTD25*%

%ADD35C,0.00000*%
%ADD36R,0.07900X0.05200*%
%ADD37R,0.05524X0.06706*%
%ADD38R,0.05200X0.07900*%
G04:AMPARAMS|DCode=39|XSize=52mil|YSize=79mil|CornerRadius=0mil|HoleSize=0mil|Usage=FLASHONLY|Rotation=135.000|XOffset=0mil|YOffset=0mil|HoleType=Round|Shape=Rectangle|*
%AMROTATEDRECTD39*
4,1,4,0.04632,0.00955,-0.00955,-0.04632,-0.04632,-0.00955,0.00955,0.04632,0.04632,0.00955,0.0*
%
%ADD39ROTATEDRECTD39*%

G04:AMPARAMS|DCode=40|XSize=55.24mil|YSize=63.11mil|CornerRadius=0mil|HoleSize=0mil|Usage=FLASHONLY|Rotation=225.000|XOffset=0mil|YOffset=0mil|HoleType=Round|Shape=Rectangle|*
%AMROTATEDRECTD40*
4,1,4,-0.00278,0.04184,0.04184,-0.00278,0.00278,-0.04184,-0.04184,0.00278,-0.00278,0.04184,0.0*
%
%ADD40ROTATEDRECTD40*%

%ADD41R,0.04137X0.02956*%
%ADD42R,0.04100X0.07100*%
%ADD43R,0.13000X0.07100*%
%ADD44O,0.03200X0.09461*%
%ADD45R,0.06311X0.05524*%
G04:AMPARAMS|DCode=46|XSize=22mil|YSize=63.02mil|CornerRadius=0mil|HoleSize=0mil|Usage=FLASHONLY|Rotation=135.000|XOffset=0mil|YOffset=0mil|HoleType=Round|Shape=Rectangle|*
%AMROTATEDRECTD46*
4,1,4,0.03006,0.01450,-0.01450,-0.03006,-0.03006,-0.01450,0.01450,0.03006,0.03006,0.01450,0.0*
%
%ADD46ROTATEDRECTD46*%

G04:AMPARAMS|DCode=47|XSize=22mil|YSize=63.02mil|CornerRadius=0mil|HoleSize=0mil|Usage=FLASHONLY|Rotation=45.000|XOffset=0mil|YOffset=0mil|HoleType=Round|Shape=Rectangle|*
%AMROTATEDRECTD47*
4,1,4,0.01450,-0.03006,-0.03006,0.01450,-0.01450,0.03006,0.03006,-0.01450,0.01450,-0.03006,0.0*
%
%ADD47ROTATEDRECTD47*%

%ADD48C,0.07800*%
%ADD49C,0.07178*%
%ADD50C,0.07296*%
%ADD51O,0.13792X0.07887*%
%ADD52O,0.08674X0.15761*%
%ADD53C,0.06800*%
%ADD54O,0.10249X0.05524*%
%ADD55C,0.05524*%
%ADD56C,0.03300*%
D25*
X234849Y98151D02*
D03*
X226151Y106849D02*
D03*
D35*
X55390Y142500D02*
G03*
X55390Y142500I-3390J0D01*
G01*
Y152500D02*
G03*
X55390Y152500I-3390J0D01*
G01*
X198890Y91500D02*
G03*
X198890Y91500I-3390J0D01*
G01*
X188890D02*
G03*
X188890Y91500I-3390J0D01*
G01*
D36*
X87000Y230100D02*
D03*
Y241900D02*
D03*
X63500Y184000D02*
D03*
Y195800D02*
D03*
X158500Y120900D02*
D03*
Y109100D02*
D03*
X146500D02*
D03*
Y120900D02*
D03*
X33000Y154900D02*
D03*
Y143100D02*
D03*
X7000Y154900D02*
D03*
Y143100D02*
D03*
X99000Y230100D02*
D03*
Y241900D02*
D03*
X123500Y141100D02*
D03*
Y152900D02*
D03*
Y172900D02*
D03*
Y161100D02*
D03*
X51000Y102500D02*
D03*
Y90700D02*
D03*
X67500Y163500D02*
D03*
Y151700D02*
D03*
X75500Y230100D02*
D03*
Y241900D02*
D03*
X50000Y195900D02*
D03*
Y184100D02*
D03*
D37*
X158405Y99992D02*
D03*
X146595Y74008D02*
D03*
X158405D02*
D03*
X146595Y99992D02*
D03*
D38*
X113900Y75500D02*
D03*
X102100D02*
D03*
X113400Y108500D02*
D03*
X101600D02*
D03*
X166600Y74000D02*
D03*
X178400D02*
D03*
X92400Y108500D02*
D03*
X80600D02*
D03*
X92900Y75500D02*
D03*
X81100D02*
D03*
X111700Y183500D02*
D03*
X123500D02*
D03*
X75300Y205000D02*
D03*
X63500D02*
D03*
X53000Y126000D02*
D03*
X64800D02*
D03*
X97200Y138500D02*
D03*
X109000D02*
D03*
D39*
X239828Y93172D02*
D03*
X248172Y84828D02*
D03*
X292828Y157172D02*
D03*
X301172Y148828D02*
D03*
X285672Y133328D02*
D03*
X277328Y141672D02*
D03*
X279172Y125828D02*
D03*
X270828Y134172D02*
D03*
D40*
X294567Y144943D02*
D03*
X288443Y151068D02*
D03*
X289835Y140211D02*
D03*
X283710Y146336D02*
D03*
D41*
X58224Y176740D02*
D03*
Y173000D02*
D03*
Y169260D02*
D03*
X48923D02*
D03*
Y173000D02*
D03*
Y176740D02*
D03*
D42*
X77900Y163600D02*
D03*
X87000D02*
D03*
X96100D02*
D03*
D43*
X87000Y138400D02*
D03*
D44*
X43000Y125700D02*
D03*
X38000D02*
D03*
X33000D02*
D03*
X28000D02*
D03*
X23000D02*
D03*
X18000D02*
D03*
X13000D02*
D03*
X8000D02*
D03*
Y102300D02*
D03*
X13000D02*
D03*
X18000D02*
D03*
X23000D02*
D03*
X28000D02*
D03*
X33000D02*
D03*
X38000D02*
D03*
X43000D02*
D03*
D45*
X24000Y155193D02*
D03*
X15339D02*
D03*
X24000Y148500D02*
D03*
X15338D02*
D03*
D46*
X282970Y109914D02*
D03*
X280779Y112106D02*
D03*
X278516Y114369D02*
D03*
X276324Y116561D02*
D03*
X274061Y118824D02*
D03*
X271869Y121016D02*
D03*
X269606Y123278D02*
D03*
X267414Y125470D02*
D03*
X244029Y102086D02*
D03*
X246221Y99894D02*
D03*
X248484Y97631D02*
D03*
X250676Y95439D02*
D03*
X252939Y93176D02*
D03*
X255131Y90984D02*
D03*
X257394Y88722D02*
D03*
X259586Y86529D02*
D03*
D47*
X259722Y125607D02*
D03*
X257530Y123415D02*
D03*
X255268Y121152D02*
D03*
X253076Y118960D02*
D03*
X250813Y116697D02*
D03*
X248621Y114505D02*
D03*
X246358Y112243D02*
D03*
X244166Y110051D02*
D03*
X267551Y86666D02*
D03*
X269743Y88858D02*
D03*
X272005Y91121D02*
D03*
X274197Y93313D02*
D03*
X276460Y95575D02*
D03*
X278652Y97768D02*
D03*
X280915Y100030D02*
D03*
X283107Y102222D02*
D03*
D48*
X245571Y70429D02*
D03*
X252642Y63358D02*
D03*
X231429Y84571D02*
D03*
X238500Y77500D02*
D03*
X271000Y149000D02*
D03*
X263929Y141929D02*
D03*
X285142Y163142D02*
D03*
X278071Y156071D02*
D03*
X141000Y149500D02*
D03*
Y139500D02*
D03*
Y169500D02*
D03*
Y159500D02*
D03*
X131500Y219500D02*
D03*
Y229500D02*
D03*
Y199500D02*
D03*
Y209500D02*
D03*
X113000Y219500D02*
D03*
Y229500D02*
D03*
Y199500D02*
D03*
Y209500D02*
D03*
X183500Y125500D02*
D03*
X193500D02*
D03*
X183500Y115500D02*
D03*
X193500D02*
D03*
X183500Y105500D02*
D03*
X193500D02*
D03*
X89000Y123000D02*
D03*
X79000D02*
D03*
X109000D02*
D03*
X99000D02*
D03*
X89500Y90500D02*
D03*
X79500D02*
D03*
X109500D02*
D03*
X99500D02*
D03*
X185000Y149500D02*
D03*
Y139500D02*
D03*
Y169500D02*
D03*
Y159500D02*
D03*
X162500Y150500D02*
D03*
Y140500D02*
D03*
Y170500D02*
D03*
Y160500D02*
D03*
D49*
X52000Y142500D02*
D03*
Y152500D02*
D03*
X195500Y91500D02*
D03*
X185500D02*
D03*
D50*
X88500Y204000D02*
D03*
Y194000D02*
D03*
Y184000D02*
D03*
D51*
X46279Y211693D02*
D03*
D52*
X32500Y230000D02*
D03*
X56122D02*
D03*
D53*
X256500Y227500D02*
D03*
X246500D02*
D03*
X236500D02*
D03*
X226500D02*
D03*
X216500D02*
D03*
X206500D02*
D03*
X196500D02*
D03*
X186500D02*
D03*
X176500D02*
D03*
X166500D02*
D03*
X202500Y7500D02*
D03*
X212500D02*
D03*
X222500D02*
D03*
X232500D02*
D03*
X242500D02*
D03*
X252500D02*
D03*
X262500D02*
D03*
X272500D02*
D03*
X292500D02*
D03*
X302500D02*
D03*
X312500D02*
D03*
X322500D02*
D03*
X342500D02*
D03*
X332500D02*
D03*
X256500Y197500D02*
D03*
X246500D02*
D03*
X236500D02*
D03*
X226500D02*
D03*
X216500D02*
D03*
X206500D02*
D03*
X196500D02*
D03*
X186500D02*
D03*
X176500D02*
D03*
X166500D02*
D03*
X292500Y37500D02*
D03*
X302500D02*
D03*
X312500D02*
D03*
X322500D02*
D03*
X332500D02*
D03*
X342500D02*
D03*
Y197500D02*
D03*
X332500D02*
D03*
X322500D02*
D03*
X312500D02*
D03*
X302500D02*
D03*
X292500D02*
D03*
X282500D02*
D03*
X272500D02*
D03*
Y227500D02*
D03*
X282500D02*
D03*
X292500D02*
D03*
X302500D02*
D03*
X312500D02*
D03*
X322500D02*
D03*
X332500D02*
D03*
X342500D02*
D03*
X202500Y37500D02*
D03*
X212500D02*
D03*
X222500D02*
D03*
X232500D02*
D03*
X242500D02*
D03*
X252500D02*
D03*
X262500D02*
D03*
X272500D02*
D03*
D54*
X18875Y192146D02*
D03*
X37575D02*
D03*
Y162855D02*
D03*
X18875D02*
D03*
D55*
X41125Y171123D02*
D03*
Y177421D02*
D03*
X36386Y174273D02*
D03*
Y180571D02*
D03*
X41125Y183721D02*
D03*
D56*
X158000Y134000D02*
D03*
X70000Y125000D02*
D03*
X47000Y165000D02*
D03*
X154850Y136000D02*
D03*
X152000Y100000D02*
D03*
X139500Y119000D02*
D03*
X274000Y110000D02*
D03*
X270000Y114000D02*
D03*
X296000Y152000D02*
D03*
X299000Y161500D02*
D03*
X265500Y130000D02*
D03*
X291000Y129500D02*
D03*
X294500Y136500D02*
D03*
X7000Y159500D02*
D03*
X115500Y114000D02*
D03*
X103000Y115000D02*
D03*
X75500Y246000D02*
D03*
X99500Y224000D02*
D03*
X257500Y97500D02*
D03*
X251000Y79000D02*
D03*
X146500Y68500D02*
D03*
X50500Y86500D02*
D03*
X46000Y121500D02*
D03*
X27000Y142000D02*
D03*
X30500Y148500D02*
D03*
X11500Y159500D02*
D03*
X50500Y200500D02*
D03*
X80000Y205000D02*
D03*
X100000Y163500D02*
D03*
X123500Y137000D02*
D03*
X113500Y138500D02*
D03*
X67500Y147000D02*
D03*
X207500D02*
D03*
X204152Y139652D02*
D03*
X202500Y134000D02*
D03*
X196000Y140500D02*
D03*
X203500Y151500D02*
D03*
X174765Y106265D02*
D03*
X169000Y105500D02*
D03*
X219000Y153500D02*
D03*
X213000Y142000D02*
D03*
X207500Y130000D02*
D03*
X238500Y106000D02*
D03*
X149500Y128000D02*
D03*
X147000Y130500D02*
D03*
X228000Y28500D02*
D03*
X233000Y31000D02*
D03*
X251500Y109500D02*
D03*
X250000Y106500D02*
D03*
X222000Y110000D02*
D03*
M02*
