M48
;Layer_Color=9474304
;FILE_FORMAT=2:5
INCH,LZ
;TYPE=PLATED
T1F00S00C0.01300
T2F00S00C0.03150
T5F00S00C0.04000
T6F00S00C0.04016
T7F00S00C0.04331
%
T01
X0228Y00285
X0233Y0031
X0251Y0079
X02575Y00975
X025Y01065
X02515Y01095
X02385Y0106
X0222Y011
X0213Y0142
X0219Y01535
X02655Y013
X027Y0114
X0274Y011
X0291Y01295
X02945Y01365
X0296Y0152
X0299Y01615
X02035Y01515
X02075Y0147
X0204152Y0139652
X02025Y0134
X02075Y013
X0196Y01405
X0158Y0134
X015485Y0136
X01495Y0128
X0147Y01305
X01395Y0119
X01155Y0114
X0103Y0115
X01135Y01385
X01235Y0137
X01Y01635
X00675Y0147
X007Y0125
X008Y0205
X0152Y01
X0169Y01055
X0174765Y0106265
X01465Y00685
X00505Y00865
X0046Y01215
X0027Y0142
X00305Y01485
X00115Y01595
X0007
X0047Y0165
X00505Y02005
X00755Y0246
X00995Y0224
T02
X0036386Y0174273
Y0180571
X0041125Y0183721
Y0177421
Y0171123
T05
X0245571Y0070429
X02385Y00775
X0231429Y0084571
X0252642Y0063358
X0263929Y0141929
X0271Y0149
X0278071Y0156071
X0285142Y0163142
X0185Y01595
Y01495
Y01395
X01625Y01405
Y01505
Y01605
Y01705
X0141Y01695
Y01595
Y01495
Y01395
X0109Y0123
X0099
X0089
X0079
X00795Y00905
X00895
X00995
X01095
X0113Y01995
Y02095
X01315
Y01995
X0185Y01695
X01315Y02195
Y02295
X0113
Y02195
T06
X01855Y00915
X01955
X0052Y01425
Y01525
T07
X02025Y00075
Y00375
X02125
X02225
X02325
X02425
X02525
X02625
X02725
X02925
X03025
X03125
X03225
X03325
X03425
Y00075
X03325
X03225
X03125
X03025
X02925
X02725
X02625
X02525
X02425
X02325
X02225
X02125
X02165Y01975
X02265
X02365
X02465
X02565
X02725
X02825
X02925
X03025
X03125
X03225
X03325
X03425
X02065
X01965
X01865
X01765
X01665
X00885Y0194
Y0204
Y0184
X01835Y01255
X01935
Y01155
X01835
Y01055
X01935
X01965Y02275
X02065
X01865
X01765
X01665
X02165
X02265
X02365
X02465
X02565
X02725
X02825
X02925
X03025
X03125
X03225
X03325
X03425
M30
