G04*
G04 #@! TF.GenerationSoftware,Altium Limited,Altium Designer,24.0.1 (36)*
G04*
G04 Layer_Physical_Order=1*
G04 Layer_Color=255*
%FSLAX44Y44*%
%MOMM*%
G71*
G04*
G04 #@! TF.SameCoordinates,679F6686-0656-46BC-BDB5-5FE1FF963507*
G04*
G04*
G04 #@! TF.FilePolarity,Positive*
G04*
G01*
G75*
%ADD11C,0.2540*%
%ADD13C,1.5000*%
%ADD14R,0.7000X0.7000*%
%ADD15R,1.5000X0.9000*%
%ADD16R,1.8034X1.1176*%
%ADD17R,1.1176X1.8034*%
%ADD18R,1.7000X0.8382*%
%ADD19R,1.7000X3.0988*%
%ADD28C,0.5080*%
%ADD29C,1.5240*%
%ADD30C,0.6350*%
D11*
X93956Y-22860D02*
X94210Y-23114D01*
X73660Y-22860D02*
X93956D01*
X117094Y0D02*
Y3429D01*
X121412Y7747D01*
X121974D01*
X126492Y12265D01*
Y57008D01*
X26800Y153700D02*
X29800D01*
X126492Y57008D01*
X0Y25400D02*
X94424D01*
X11500Y151000D02*
Y166300D01*
X0Y177800D02*
X11500Y166300D01*
X26800Y153700D02*
Y168700D01*
X27240Y48260D02*
X43180D01*
X26800Y48700D02*
X27240Y48260D01*
X94424Y25400D02*
X96710Y23114D01*
X29210Y0D02*
X94210D01*
X117094Y-22860D02*
Y0D01*
X94210D02*
X117094D01*
X96964Y22860D02*
X117094D01*
X96710Y23114D02*
X96964Y22860D01*
X134620D02*
X147066D01*
X134620Y0D02*
X147066D01*
X200660Y-5080D02*
Y7366D01*
X147066Y-22860D02*
X200406D01*
X200660Y-22606D01*
X208030Y29806D02*
X226406Y11430D01*
X208030Y29806D02*
Y45470D01*
X204800Y48700D02*
X208030Y45470D01*
X226406Y2194D02*
X228600Y0D01*
X226406Y2194D02*
Y11430D01*
X201800Y48700D02*
X204800D01*
X201800Y63700D02*
X204800D01*
X217100Y51400D01*
Y46136D02*
Y51400D01*
Y46136D02*
X226406Y36830D01*
Y27594D02*
Y36830D01*
Y27594D02*
X228600Y25400D01*
X201800Y78700D02*
X204800D01*
X216241Y63159D02*
X228600Y50800D01*
X216241Y63159D02*
Y67259D01*
X204800Y78700D02*
X216241Y67259D01*
X201800Y93700D02*
X205030Y90470D01*
X214330D02*
X228600Y76200D01*
X205030Y90470D02*
X214330D01*
X201800Y108700D02*
X204800D01*
X211900Y101600D02*
X228600D01*
X204800Y108700D02*
X211900Y101600D01*
X204800Y123700D02*
X208100Y127000D01*
X201800Y123700D02*
X204800D01*
X208100Y127000D02*
X228600D01*
X204800Y138700D02*
X217170Y151070D01*
X227270D02*
X228600Y152400D01*
X217170Y151070D02*
X227270D01*
X201800Y138700D02*
X204800D01*
Y153700D02*
X228600Y177500D01*
Y177800D01*
X201800Y153700D02*
X204800D01*
X226170Y192253D02*
Y200770D01*
X201800Y168700D02*
X204800D01*
X226170Y200770D02*
X228600Y203200D01*
X208030Y174113D02*
X226170Y192253D01*
X208030Y171930D02*
Y174113D01*
X204800Y168700D02*
X208030Y171930D01*
X530Y51330D02*
X11430D01*
X23800Y63700D02*
X26800D01*
X0Y50800D02*
X530Y51330D01*
X11430D02*
X23800Y63700D01*
X24300Y76200D02*
X26800Y78700D01*
X0Y76200D02*
X24300D01*
X23800Y93700D02*
X26800D01*
X0Y101600D02*
X15900D01*
X23800Y93700D01*
X23570Y111930D02*
X26800Y108700D01*
X0Y127000D02*
X15070Y111930D01*
X23570D01*
X11500Y136000D02*
X23800Y123700D01*
X26800D01*
X0Y152400D02*
X11500Y140900D01*
Y136000D02*
Y140900D01*
Y151000D02*
X23800Y138700D01*
X26800D01*
X0Y203200D02*
X26800Y176400D01*
Y168700D02*
Y176400D01*
D13*
X-6350Y-31750D02*
D03*
X234950D02*
D03*
X-6350Y260350D02*
D03*
X234950D02*
D03*
D14*
X112900Y95700D02*
D03*
X123900D02*
D03*
X134900D02*
D03*
Y117700D02*
D03*
X123900D02*
D03*
X112900D02*
D03*
Y106700D02*
D03*
X134900D02*
D03*
X123900D02*
D03*
D15*
X201800Y168700D02*
D03*
Y153700D02*
D03*
Y138700D02*
D03*
Y123700D02*
D03*
Y108700D02*
D03*
Y93700D02*
D03*
Y78700D02*
D03*
Y63700D02*
D03*
Y48700D02*
D03*
X26800D02*
D03*
Y63700D02*
D03*
Y78700D02*
D03*
Y93700D02*
D03*
Y108700D02*
D03*
Y123700D02*
D03*
Y138700D02*
D03*
Y153700D02*
D03*
Y168700D02*
D03*
D16*
X200660Y7366D02*
D03*
Y-22606D02*
D03*
D17*
X117094Y-22860D02*
D03*
X147066D02*
D03*
X117094Y0D02*
D03*
X147066D02*
D03*
X117094Y22860D02*
D03*
X147066D02*
D03*
D18*
X96710Y23114D02*
D03*
X94210Y0D02*
D03*
Y-23114D02*
D03*
D19*
X29210Y0D02*
D03*
D28*
X112900Y101200D02*
D03*
X123900D02*
D03*
X118400Y95700D02*
D03*
X129400D02*
D03*
X118400Y106700D02*
D03*
X112900Y112200D02*
D03*
X123900D02*
D03*
X129400Y106700D02*
D03*
X118400Y117700D02*
D03*
X134900Y101200D02*
D03*
Y112200D02*
D03*
X129400Y117700D02*
D03*
D29*
X228600Y228600D02*
D03*
Y203200D02*
D03*
Y177800D02*
D03*
Y152400D02*
D03*
Y127000D02*
D03*
Y101600D02*
D03*
Y76200D02*
D03*
Y50800D02*
D03*
Y25400D02*
D03*
Y0D02*
D03*
X0Y228600D02*
D03*
Y203200D02*
D03*
Y177800D02*
D03*
Y152400D02*
D03*
Y127000D02*
D03*
Y101600D02*
D03*
Y76200D02*
D03*
Y50800D02*
D03*
Y25400D02*
D03*
Y0D02*
D03*
D30*
X43180Y48260D02*
D03*
X73660Y-22860D02*
D03*
X200660Y-5080D02*
D03*
X134620Y0D02*
D03*
Y22860D02*
D03*
M02*
