G04*
G04 #@! TF.GenerationSoftware,Altium Limited,Altium Designer,24.0.1 (36)*
G04*
G04 Layer_Color=128*
%FSLAX44Y44*%
%MOMM*%
G71*
G04*
G04 #@! TF.SameCoordinates,679F6686-0656-46BC-BDB5-5FE1FF963507*
G04*
G04*
G04 #@! TF.FilePolarity,Positive*
G04*
G01*
G75*
%ADD12C,0.1270*%
D12*
X111249Y101200D02*
X114551D01*
X112900Y99549D02*
Y102851D01*
X122249Y101200D02*
X125551D01*
X123900Y99549D02*
Y102851D01*
X116749Y95700D02*
X120051D01*
X118400Y94049D02*
Y97351D01*
X127749Y95700D02*
X131051D01*
X129400Y94049D02*
Y97351D01*
X116749Y106700D02*
X120051D01*
X118400Y105049D02*
Y108351D01*
X111249Y112200D02*
X114551D01*
X112900Y110549D02*
Y113851D01*
X122249Y112200D02*
X125551D01*
X123900Y110549D02*
Y113851D01*
X127749Y106700D02*
X131051D01*
X129400Y105049D02*
Y108351D01*
X116749Y117700D02*
X120051D01*
X118400Y116049D02*
Y119351D01*
X133249Y101200D02*
X136551D01*
X134900Y99549D02*
Y102851D01*
X133249Y112200D02*
X136551D01*
X134900Y110549D02*
Y113851D01*
X127749Y117700D02*
X131051D01*
X129400Y116049D02*
Y119351D01*
X223100Y228600D02*
X234100D01*
X228600Y223100D02*
Y234100D01*
X223100Y203200D02*
X234100D01*
X228600Y197700D02*
Y208700D01*
X223100Y177800D02*
X234100D01*
X228600Y172300D02*
Y183300D01*
X223100Y152400D02*
X234100D01*
X228600Y146900D02*
Y157900D01*
X223100Y127000D02*
X234100D01*
X228600Y121500D02*
Y132500D01*
X223100Y101600D02*
X234100D01*
X228600Y96100D02*
Y107100D01*
X223100Y76200D02*
X234100D01*
X228600Y70700D02*
Y81700D01*
X223100Y50800D02*
X234100D01*
X228600Y45300D02*
Y56300D01*
X223100Y25400D02*
X234100D01*
X228600Y19900D02*
Y30900D01*
X223100Y0D02*
X234100D01*
X228600Y-5500D02*
Y5500D01*
X-5500Y228600D02*
X5500D01*
X0Y223100D02*
Y234100D01*
X-5500Y203200D02*
X5500D01*
X0Y197700D02*
Y208700D01*
X-5500Y177800D02*
X5500D01*
X0Y172300D02*
Y183300D01*
X-5500Y152400D02*
X5500D01*
X0Y146900D02*
Y157900D01*
X-5500Y127000D02*
X5500D01*
X0Y121500D02*
Y132500D01*
X-5500Y101600D02*
X5500D01*
X0Y96100D02*
Y107100D01*
X-5500Y76200D02*
X5500D01*
X0Y70700D02*
Y81700D01*
X-5500Y50800D02*
X5500D01*
X0Y45300D02*
Y56300D01*
X-5500Y25400D02*
X5500D01*
X0Y19900D02*
Y30900D01*
X-5500Y0D02*
X5500D01*
X0Y-5500D02*
Y5500D01*
X-13850Y-31750D02*
X1150D01*
X-6350Y-39250D02*
Y-24250D01*
X227450Y-31750D02*
X242450D01*
X234950Y-39250D02*
Y-24250D01*
X-13850Y260350D02*
X1150D01*
X-6350Y252850D02*
Y267850D01*
X227450Y260350D02*
X242450D01*
X234950Y252850D02*
Y267850D01*
X41529Y48260D02*
X44831D01*
X43180Y46609D02*
Y49911D01*
X72009Y-22860D02*
X75311D01*
X73660Y-24511D02*
Y-21209D01*
X199009Y-5080D02*
X202311D01*
X200660Y-6731D02*
Y-3429D01*
X132969Y0D02*
X136271D01*
X134620Y-1651D02*
Y1651D01*
X132969Y22860D02*
X136271D01*
X134620Y21209D02*
Y24511D01*
M02*
