M48
;Layer_Color=9474304
;FILE_FORMAT=4:4
METRIC,LZ
;TYPE=PLATED
T01F00S00C0.3302
T02F00S00C1.1000
T03F00S00C1.5000
%
T01
X0007366Y-0002286
X0013462Y0
Y0002286
X001294Y000957
X001239Y001012
X001294Y001067
X001184
X001129Y001012
X001184Y000957
X001129Y001122
X001184Y001177
X001239Y001122
X001294Y001177
X001349Y001122
Y001012
X0004318Y0004826
X0020066Y-0000508
T02
X0Y0
Y000254
Y000508
Y000762
Y001016
Y00127
Y001524
X002286
Y00127
Y001016
Y000762
Y000508
Y000254
Y0
Y001778
Y002032
Y002286
X0
Y002032
Y001778
T03
X-0000635Y-0003175
X0023495
Y0026035
X-0000635
M30
