G04*
G04 #@! TF.GenerationSoftware,Altium Limited,Altium Designer,24.0.1 (36)*
G04*
G04 Layer_Color=65535*
%FSLAX44Y44*%
%MOMM*%
G71*
G04*
G04 #@! TF.SameCoordinates,679F6686-0656-46BC-BDB5-5FE1FF963507*
G04*
G04*
G04 #@! TF.FilePolarity,Positive*
G04*
G01*
G75*
%ADD10C,0.1524*%
%ADD11C,0.2540*%
%ADD12C,0.1270*%
D10*
X-16510Y-31750D02*
G03*
X3810Y-31750I10160J0D01*
G01*
X224790D02*
G03*
X245110Y-31750I10160J0D01*
G01*
X-16510Y260350D02*
G03*
X3810Y260350I10160J0D01*
G01*
X224790D02*
G03*
X245110Y260350I10160J0D01*
G01*
X87906Y-36830D02*
G03*
X87906Y-36830I-1796J0D01*
G01*
X187660Y-21336D02*
Y6604D01*
X213660Y-21082D02*
Y6858D01*
X127254Y-34260D02*
X136906D01*
X127254Y-11460D02*
X136906D01*
X127254Y-8890D02*
X136906D01*
X127254Y8890D02*
X136906D01*
X127254Y13970D02*
X136906D01*
X127254Y31750D02*
X136906D01*
X80252Y-33528D02*
Y33528D01*
X43168Y-33528D02*
X80252D01*
X43168D02*
Y33528D01*
X80252D01*
X24894Y251459D02*
Y245111D01*
X26163Y243841D01*
X28702D01*
X29972Y245111D01*
Y251459D01*
X32511Y243841D02*
X35050D01*
X33781D01*
Y251459D01*
X32511Y250189D01*
X62026Y262380D02*
X67105D01*
X64565D01*
Y254763D01*
X69644Y259841D02*
Y256032D01*
X70913Y254763D01*
X74722D01*
Y253493D01*
X73452Y252224D01*
X72183D01*
X74722Y254763D02*
Y259841D01*
X77261Y254763D02*
X79800D01*
X78531D01*
Y262380D01*
X77261D01*
X87418Y254763D02*
X84879D01*
X83609Y256032D01*
Y258572D01*
X84879Y259841D01*
X87418D01*
X88687Y258572D01*
Y257302D01*
X83609D01*
X91227Y259841D02*
Y254763D01*
Y257302D01*
X92496Y258572D01*
X93766Y259841D01*
X95035D01*
X106462Y262380D02*
Y254763D01*
X110271D01*
X111540Y256032D01*
Y261111D01*
X110271Y262380D01*
X106462D01*
X115349Y259841D02*
X117888D01*
X119158Y258572D01*
Y254763D01*
X115349D01*
X114079Y256032D01*
X115349Y257302D01*
X119158D01*
X121697Y259841D02*
X124236Y254763D01*
X126775Y259841D01*
X129314Y254763D02*
X131854D01*
X130584D01*
Y259841D01*
X129314D01*
X140741Y262380D02*
Y254763D01*
X136932D01*
X135662Y256032D01*
Y258572D01*
X136932Y259841D01*
X140741D01*
X143280Y254763D02*
X147089D01*
X148358Y256032D01*
X147089Y257302D01*
X144549D01*
X143280Y258572D01*
X144549Y259841D01*
X148358D01*
X152167Y254763D02*
X154706D01*
X155976Y256032D01*
Y258572D01*
X154706Y259841D01*
X152167D01*
X150897Y258572D01*
Y256032D01*
X152167Y254763D01*
X158515D02*
Y259841D01*
X162324D01*
X163593Y258572D01*
Y254763D01*
X173750Y258572D02*
X178828D01*
X194063Y254763D02*
X188985D01*
X194063Y259841D01*
Y261111D01*
X192794Y262380D01*
X190255D01*
X188985Y261111D01*
X196603D02*
X197872Y262380D01*
X200411D01*
X201681Y261111D01*
Y256032D01*
X200411Y254763D01*
X197872D01*
X196603Y256032D01*
Y261111D01*
X209298Y254763D02*
X204220D01*
X209298Y259841D01*
Y261111D01*
X208029Y262380D01*
X205490D01*
X204220Y261111D01*
X215646Y254763D02*
Y262380D01*
X211838Y258572D01*
X216916D01*
X29017Y276097D02*
X23938D01*
Y268479D01*
X29017D01*
X23938Y272288D02*
X26478D01*
X36634Y274827D02*
X35365Y276097D01*
X32826D01*
X31556Y274827D01*
Y273558D01*
X32826Y272288D01*
X35365D01*
X36634Y271018D01*
Y269749D01*
X35365Y268479D01*
X32826D01*
X31556Y269749D01*
X39174Y268479D02*
Y276097D01*
X42982D01*
X44252Y274827D01*
Y272288D01*
X42982Y271018D01*
X39174D01*
X46791Y274827D02*
X48061Y276097D01*
X50600D01*
X51869Y274827D01*
Y273558D01*
X50600Y272288D01*
X49330D01*
X50600D01*
X51869Y271018D01*
Y269749D01*
X50600Y268479D01*
X48061D01*
X46791Y269749D01*
X59487Y268479D02*
X54409D01*
X59487Y273558D01*
Y274827D01*
X58217Y276097D01*
X55678D01*
X54409Y274827D01*
X62026Y272288D02*
X67104D01*
X74722Y274827D02*
X73452Y276097D01*
X70913D01*
X69644Y274827D01*
Y269749D01*
X70913Y268479D01*
X73452D01*
X74722Y269749D01*
X77261Y274827D02*
X78531Y276097D01*
X81070D01*
X82339Y274827D01*
Y273558D01*
X81070Y272288D01*
X79800D01*
X81070D01*
X82339Y271018D01*
Y269749D01*
X81070Y268479D01*
X78531D01*
X77261Y269749D01*
X84879Y272288D02*
X89957D01*
X92496Y276097D02*
Y268479D01*
X95035Y271018D01*
X97575Y268479D01*
Y276097D01*
X100114Y268479D02*
Y276097D01*
X103923D01*
X105192Y274827D01*
Y272288D01*
X103923Y271018D01*
X100114D01*
X102653D02*
X105192Y268479D01*
X111540Y276097D02*
X109001D01*
X107731Y274827D01*
Y269749D01*
X109001Y268479D01*
X111540D01*
X112810Y269749D01*
Y274827D01*
X111540Y276097D01*
X119158D02*
X116618D01*
X115349Y274827D01*
Y269749D01*
X116618Y268479D01*
X119158D01*
X120427Y269749D01*
Y274827D01*
X119158Y276097D01*
X122966Y268479D02*
Y276097D01*
X125506Y273558D01*
X128045Y276097D01*
Y268479D01*
X130584Y272288D02*
X135662D01*
X138202Y274827D02*
X139471Y276097D01*
X142010D01*
X143280Y274827D01*
Y269749D01*
X142010Y268479D01*
X139471D01*
X138202Y269749D01*
Y274827D01*
X150897Y268479D02*
X145819D01*
X150897Y273558D01*
Y274827D01*
X149628Y276097D01*
X147089D01*
X145819Y274827D01*
X161054Y276097D02*
Y268479D01*
X164863D01*
X166132Y269749D01*
Y271018D01*
X164863Y272288D01*
X161054D01*
X164863D01*
X166132Y273558D01*
Y274827D01*
X164863Y276097D01*
X161054D01*
X168672Y273558D02*
Y268479D01*
Y271018D01*
X169941Y272288D01*
X171211Y273558D01*
X172480D01*
X180098Y268479D02*
X177559D01*
X176289Y269749D01*
Y272288D01*
X177559Y273558D01*
X180098D01*
X181367Y272288D01*
Y271018D01*
X176289D01*
X185176Y273558D02*
X187715D01*
X188985Y272288D01*
Y268479D01*
X185176D01*
X183907Y269749D01*
X185176Y271018D01*
X188985D01*
X191524Y268479D02*
Y276097D01*
Y271018D02*
X195333Y273558D01*
X191524Y271018D02*
X195333Y268479D01*
X200411D02*
X202950D01*
X204220Y269749D01*
Y272288D01*
X202950Y273558D01*
X200411D01*
X199142Y272288D01*
Y269749D01*
X200411Y268479D01*
X206759Y273558D02*
Y269749D01*
X208029Y268479D01*
X211838D01*
Y273558D01*
X215646Y274827D02*
Y273558D01*
X214377D01*
X216916D01*
X215646D01*
Y269749D01*
X216916Y268479D01*
X236063Y17345D02*
X237559Y15849D01*
X236811Y16597D01*
X232323Y12109D01*
X231574Y12857D01*
X233071Y11361D01*
X242048Y11361D02*
X240552Y12857D01*
X239056D01*
X236063Y9864D01*
Y8368D01*
X237559Y6872D01*
X239056D01*
X242048Y9864D01*
Y11361D01*
X239804Y4627D02*
X241300Y3131D01*
X240552Y3879D01*
X245041Y8368D01*
X243544D01*
X247285Y4627D02*
X248781D01*
X250277Y3131D01*
Y1635D01*
X247285Y-1357D01*
X245789D01*
X244293Y139D01*
Y1635D01*
X247285Y4627D01*
X231425Y37509D02*
X236811Y42895D01*
X239505Y40202D01*
X239505Y38406D01*
X237709Y36611D01*
X235914Y36611D01*
X233220Y39304D01*
X235016Y37509D02*
X235016Y33918D01*
X242198Y37509D02*
X240402Y28531D01*
X245789Y33918D02*
X236811Y32122D01*
X247584D02*
X242198Y26736D01*
X244891Y24043D01*
X246686Y24043D01*
X250277Y27634D01*
Y29429D01*
X247584Y32122D01*
X236811Y68295D02*
X240402Y64704D01*
X238607Y66500D01*
X233220Y61113D01*
X242198Y62909D02*
X240402Y53931D01*
X245789Y59318D02*
X236811Y57522D01*
X247584D02*
X242198Y52136D01*
X244891Y49443D01*
X246686Y49443D01*
X250277Y53034D01*
Y54829D01*
X247584Y57522D01*
X236063Y93546D02*
X237559Y92049D01*
X236811Y92797D01*
X232323Y88309D01*
X231574Y89057D01*
X233071Y87561D01*
X242048Y87561D02*
X240552Y89057D01*
X239056D01*
X236063Y86064D01*
Y84568D01*
X237559Y83072D01*
X239056D01*
X242048Y86064D01*
Y87561D01*
X239804Y80828D02*
X241300Y79331D01*
X240552Y80079D01*
X245041Y84568D01*
X243544D01*
X247285Y80828D02*
X248781D01*
X250277Y79331D01*
Y77835D01*
X249529Y77087D01*
X248033D01*
X248033Y75591D01*
X247285Y74843D01*
X245789D01*
X244293Y76339D01*
Y77835D01*
X245041Y78583D01*
X246537Y78583D01*
Y80079D01*
X247285Y80828D01*
X246537Y78583D02*
X248033Y77087D01*
X236063Y118946D02*
X237559Y117449D01*
X236811Y118197D01*
X232323Y113709D01*
X231574Y114457D01*
X233071Y112961D01*
X242048Y112961D02*
X240552Y114457D01*
X239056D01*
X236063Y111464D01*
Y109968D01*
X237559Y108472D01*
X239056D01*
X242048Y111464D01*
Y112961D01*
X239804Y106228D02*
X241300Y104731D01*
X240552Y105479D01*
X245041Y109968D01*
X243544D01*
X244293Y103235D02*
Y101739D01*
X245789Y100243D01*
X247285D01*
X250277Y103235D01*
Y104731D01*
X248781Y106228D01*
X247285D01*
X246537Y105479D01*
Y103983D01*
X248781Y101739D01*
X237260Y144046D02*
X239056Y142251D01*
X238158Y143148D01*
X232771Y137762D01*
X231874Y138660D01*
X233669Y136864D01*
X244442D02*
X242647Y138660D01*
X240851D01*
X237260Y135069D01*
Y133273D01*
X239056Y131478D01*
X240851D01*
X244442Y135069D01*
X244442Y136864D01*
X246238Y133273D02*
X248033D01*
X249828Y131478D01*
Y129682D01*
X248931Y128785D01*
X247135D01*
X246238Y129682D01*
X247135Y128785D01*
X247135Y126989D01*
X246238Y126091D01*
X244442Y126091D01*
X242647Y127887D01*
Y129682D01*
X237260Y169446D02*
X239056Y167651D01*
X238158Y168549D01*
X232771Y163162D01*
X231874Y164060D01*
X233669Y162264D01*
X244442D02*
X242647Y164060D01*
X240851D01*
X237260Y160469D01*
Y158673D01*
X239056Y156878D01*
X240851D01*
X244442Y160469D01*
X244442Y162264D01*
X245340Y150594D02*
X241749Y154185D01*
X248931D01*
X249828Y155082D01*
Y156878D01*
X248033Y158673D01*
X246238D01*
X238158Y193948D02*
X239953Y192153D01*
X239056Y193051D01*
X233669Y187664D01*
X232771Y188562D01*
X234567Y186767D01*
X245340D02*
X243544Y188562D01*
X241749D01*
X238158Y184971D01*
Y183176D01*
X239953Y181380D01*
X241749D01*
X245340Y184971D01*
X245340Y186767D01*
X242647Y178687D02*
X244442Y176891D01*
X243544Y177789D01*
X248931Y183176D01*
X247135D01*
X237260Y220246D02*
X239056Y218451D01*
X238158Y219349D01*
X232771Y213962D01*
X231874Y214860D01*
X233669Y213064D01*
X244442D02*
X242647Y214860D01*
X240851D01*
X237260Y211269D01*
Y209473D01*
X239056Y207678D01*
X240851D01*
X244442Y211269D01*
X244442Y213064D01*
X246238Y209473D02*
X248033D01*
X249828Y207678D01*
Y205882D01*
X246238Y202292D01*
X244442Y202292D01*
X242647Y204087D01*
Y205882D01*
X246238Y209473D01*
X239505Y241606D02*
X239505Y243402D01*
X237709Y245197D01*
X235914D01*
X232323Y241606D01*
Y239811D01*
X234118Y238015D01*
X235914Y238015D01*
X237709Y239811D01*
X235914Y241606D01*
X236811Y235322D02*
X242198Y240709D01*
X240402Y231731D01*
X245789Y237118D01*
X247584Y235322D02*
X242198Y229936D01*
X244891Y227243D01*
X246686Y227243D01*
X250277Y230834D01*
Y232629D01*
X247584Y235322D01*
X-18086Y3285D02*
X-19882Y3285D01*
X-21677Y1489D01*
Y-306D01*
X-18086Y-3897D01*
X-16291D01*
X-14495Y-2102D01*
X-14496Y-306D01*
X-16291Y1489D01*
X-18086Y-306D01*
X-11802Y591D02*
X-17189Y5978D01*
X-8211Y4182D01*
X-13598Y9569D01*
X-11802Y11364D02*
X-6416Y5978D01*
X-3723Y8671D01*
X-3723Y10466D01*
X-7314Y14057D01*
X-9109D01*
X-11802Y11364D01*
X-16291Y32276D02*
X-19882Y28684D01*
X-17189Y25991D01*
X-16291Y28684D01*
X-15393Y29582D01*
X-13598D01*
X-11802Y27787D01*
X-11802Y25991D01*
X-13598Y24196D01*
X-15393D01*
X-14496Y34071D02*
X-10905Y30480D01*
X-7314D01*
Y34071D01*
X-10905Y37662D01*
X-22126Y51840D02*
X-20331Y53636D01*
X-21228Y52738D01*
X-15842Y47351D01*
X-16740Y46454D01*
X-14944Y48249D01*
Y59022D02*
X-16740Y57227D01*
Y55431D01*
X-13149Y51840D01*
X-11353D01*
X-9558Y53636D01*
Y55431D01*
X-13149Y59022D01*
X-14944Y59022D01*
X-7762Y57227D02*
X-5967D01*
X-4171Y59022D01*
X-4171Y60818D01*
X-7762Y64408D01*
X-9558D01*
X-11353Y62613D01*
Y60818D01*
X-10456Y59920D01*
X-8660Y59920D01*
X-5967Y62613D01*
X-22126Y77240D02*
X-20331Y79036D01*
X-21228Y78138D01*
X-15842Y72751D01*
X-16740Y71854D01*
X-14944Y73649D01*
Y84422D02*
X-16740Y82627D01*
Y80831D01*
X-13149Y77240D01*
X-11353D01*
X-9558Y79036D01*
Y80831D01*
X-13149Y84422D01*
X-14944Y84422D01*
X-11353Y86218D02*
Y88013D01*
X-9558Y89809D01*
X-7762D01*
X-6865Y88911D01*
Y87115D01*
X-5069Y87115D01*
X-4171Y86218D01*
X-4171Y84422D01*
X-5967Y82627D01*
X-7762D01*
X-8660Y83524D01*
Y85320D01*
X-10456Y85320D01*
X-11353Y86218D01*
X-8660Y85320D02*
X-6865Y87115D01*
X-22126Y102640D02*
X-20331Y104436D01*
X-21228Y103538D01*
X-15842Y98152D01*
X-16740Y97254D01*
X-14944Y99049D01*
Y109822D02*
X-16740Y108027D01*
Y106231D01*
X-13149Y102640D01*
X-11353D01*
X-9558Y104436D01*
Y106231D01*
X-13149Y109822D01*
X-14944Y109822D01*
X-12251Y112515D02*
X-8660Y116106D01*
X-7762Y115209D01*
Y108027D01*
X-6865Y107129D01*
X-22126Y128040D02*
X-20331Y129836D01*
X-21228Y128938D01*
X-15842Y123552D01*
X-16740Y122654D01*
X-14944Y124449D01*
Y135222D02*
X-16740Y133427D01*
Y131631D01*
X-13149Y128040D01*
X-11353D01*
X-9558Y129836D01*
Y131631D01*
X-13149Y135222D01*
X-14944Y135222D01*
X-8660Y141506D02*
X-9558Y138813D01*
Y135222D01*
X-7762Y133427D01*
X-5967D01*
X-4171Y135222D01*
X-4171Y137018D01*
X-5069Y137915D01*
X-6865Y137915D01*
X-9558Y135222D01*
X-22126Y153440D02*
X-20331Y155236D01*
X-21228Y154338D01*
X-15842Y148952D01*
X-16740Y148054D01*
X-14944Y149849D01*
Y160622D02*
X-16740Y158827D01*
Y157031D01*
X-13149Y153440D01*
X-11353D01*
X-9558Y155236D01*
Y157031D01*
X-13149Y160622D01*
X-14944Y160622D01*
X-8660Y166906D02*
X-12251Y163315D01*
X-9558Y160622D01*
X-8660Y163315D01*
X-7762Y164213D01*
X-5967D01*
X-4171Y162418D01*
X-4171Y160622D01*
X-5967Y158827D01*
X-7762D01*
X-22126Y178840D02*
X-20331Y180636D01*
X-21228Y179738D01*
X-15842Y174352D01*
X-16740Y173454D01*
X-14944Y175249D01*
Y186022D02*
X-16740Y184227D01*
Y182431D01*
X-13149Y178840D01*
X-11353D01*
X-9558Y180636D01*
Y182431D01*
X-13149Y186022D01*
X-14944Y186022D01*
X-4171D02*
X-9558Y191409D01*
Y186022D01*
X-5967Y189613D01*
X-21677Y202894D02*
Y204689D01*
X-19882Y206485D01*
X-18086Y206485D01*
X-17189Y205587D01*
Y203791D01*
X-18086Y202894D01*
X-17189Y203791D01*
X-15393Y203791D01*
X-14496Y202894D01*
X-14495Y201098D01*
X-16291Y199303D01*
X-18086D01*
X-17189Y209178D02*
X-13598Y205587D01*
X-10007D01*
Y209178D01*
X-13598Y212769D01*
X-10905Y213666D02*
Y215462D01*
X-9109Y217257D01*
X-7314D01*
X-6416Y216360D01*
Y214564D01*
X-7314Y213666D01*
X-6416Y214564D01*
X-4620Y214564D01*
X-3723Y213666D01*
X-3723Y211871D01*
X-5518Y210075D01*
X-7314D01*
X-18086Y231885D02*
X-19882Y231885D01*
X-21677Y230089D01*
Y228294D01*
X-18086Y224703D01*
X-16291D01*
X-14495Y226498D01*
X-14496Y228294D01*
X-16291Y230089D01*
X-18086Y228294D01*
X-11802Y229191D02*
X-17189Y234578D01*
X-8211Y232782D01*
X-13598Y238169D01*
X-11802Y239964D02*
X-6416Y234578D01*
X-3723Y237271D01*
X-3723Y239066D01*
X-7314Y242657D01*
X-9109D01*
X-11802Y239964D01*
X165108Y-34926D02*
X166378Y-33656D01*
X168917D01*
X170187Y-34926D01*
Y-36196D01*
X168917Y-37465D01*
X167647D01*
X168917D01*
X170187Y-38735D01*
Y-40004D01*
X168917Y-41274D01*
X166378D01*
X165108Y-40004D01*
X172726Y-33656D02*
Y-38735D01*
X175265Y-41274D01*
X177804Y-38735D01*
Y-33656D01*
X180343Y-34926D02*
X181613Y-33656D01*
X184152D01*
X185422Y-34926D01*
Y-36196D01*
X184152Y-37465D01*
X182882D01*
X184152D01*
X185422Y-38735D01*
Y-40004D01*
X184152Y-41274D01*
X181613D01*
X180343Y-40004D01*
X187961Y-42544D02*
X193039D01*
X195578Y-33656D02*
Y-41274D01*
X200657D01*
X208274Y-33656D02*
X203196D01*
Y-41274D01*
X208274D01*
X203196Y-37465D02*
X205735D01*
X210813Y-33656D02*
Y-41274D01*
X214622D01*
X215892Y-40004D01*
Y-34926D01*
X214622Y-33656D01*
X210813D01*
X157990Y-26923D02*
X160529D01*
X159259D01*
Y-19305D01*
X157990Y-20575D01*
X164338Y-26923D02*
Y-19305D01*
Y-24384D02*
X168146Y-21844D01*
X164338Y-24384D02*
X168146Y-26923D01*
X162562Y-3809D02*
X157483D01*
X162562Y1270D01*
Y2539D01*
X161292Y3809D01*
X158753D01*
X157483Y2539D01*
X170179Y-3809D02*
X165101D01*
X170179Y1270D01*
Y2539D01*
X168910Y3809D01*
X166370D01*
X165101Y2539D01*
X172718Y1270D02*
Y-2539D01*
X173988Y-3809D01*
X177797D01*
Y1270D01*
X162562Y19051D02*
X157483D01*
X162562Y24130D01*
Y25399D01*
X161292Y26669D01*
X158753D01*
X157483Y25399D01*
X170179Y19051D02*
X165101D01*
X170179Y24130D01*
Y25399D01*
X168910Y26669D01*
X166370D01*
X165101Y25399D01*
X172718Y24130D02*
Y20321D01*
X173988Y19051D01*
X177797D01*
Y24130D01*
X62741Y-45719D02*
Y-38101D01*
X66550D01*
X67819Y-39371D01*
Y-41910D01*
X66550Y-43180D01*
X62741D01*
X75437Y-39371D02*
X74167Y-38101D01*
X71628D01*
X70358Y-39371D01*
Y-40640D01*
X71628Y-41910D01*
X74167D01*
X75437Y-43180D01*
Y-44449D01*
X74167Y-45719D01*
X71628D01*
X70358Y-44449D01*
X77976Y-45719D02*
X80515D01*
X79246D01*
Y-38101D01*
X77976Y-39371D01*
D11*
X-1270Y-22951D02*
G03*
X-11430Y-22951I-5080J-8799D01*
G01*
X240030D02*
G03*
X229870Y-22951I-5080J-8799D01*
G01*
X-1270Y269149D02*
G03*
X-11430Y269149I-5080J-8799D01*
G01*
X240030D02*
G03*
X229870Y269149I-5080J-8799D01*
G01*
X193040Y17526D02*
X207264D01*
D12*
X24300Y239700D02*
X204300D01*
Y176400D02*
Y239700D01*
X24300Y39700D02*
X204300D01*
X24300Y176400D02*
Y239700D01*
X204300Y39700D02*
Y41000D01*
X24300Y39700D02*
Y41000D01*
M02*
