G04*
G04 #@! TF.GenerationSoftware,Altium Limited,Altium Designer,24.0.1 (36)*
G04*
G04 Layer_Color=8421504*
%FSLAX44Y44*%
%MOMM*%
G71*
G04*
G04 #@! TF.SameCoordinates,679F6686-0656-46BC-BDB5-5FE1FF963507*
G04*
G04*
G04 #@! TF.FilePolarity,Positive*
G04*
G01*
G75*
%ADD13C,1.5000*%
%ADD14R,0.7000X0.7000*%
%ADD15R,1.5000X0.9000*%
%ADD16R,1.8034X1.1176*%
%ADD17R,1.1176X1.8034*%
%ADD18R,1.7000X0.8382*%
%ADD19R,1.7000X3.0988*%
D13*
X-6350Y-31750D02*
D03*
X234950D02*
D03*
X-6350Y260350D02*
D03*
X234950D02*
D03*
D14*
X112900Y95700D02*
D03*
X123900D02*
D03*
X134900D02*
D03*
Y117700D02*
D03*
X123900D02*
D03*
X112900D02*
D03*
Y106700D02*
D03*
X134900D02*
D03*
X123900D02*
D03*
D15*
X201800Y168700D02*
D03*
Y153700D02*
D03*
Y138700D02*
D03*
Y123700D02*
D03*
Y108700D02*
D03*
Y93700D02*
D03*
Y78700D02*
D03*
Y63700D02*
D03*
Y48700D02*
D03*
X26800D02*
D03*
Y63700D02*
D03*
Y78700D02*
D03*
Y93700D02*
D03*
Y108700D02*
D03*
Y123700D02*
D03*
Y138700D02*
D03*
Y153700D02*
D03*
Y168700D02*
D03*
D16*
X200660Y7366D02*
D03*
Y-22606D02*
D03*
D17*
X117094Y-22860D02*
D03*
X147066D02*
D03*
X117094Y0D02*
D03*
X147066D02*
D03*
X117094Y22860D02*
D03*
X147066D02*
D03*
D18*
X96710Y23114D02*
D03*
X94210Y0D02*
D03*
Y-23114D02*
D03*
D19*
X29210Y0D02*
D03*
M02*
