G04*
G04 #@! TF.GenerationSoftware,Altium Limited,Altium Designer,24.2.2 (26)*
G04*
G04 Layer_Physical_Order=2*
G04 Layer_Color=16711680*
%FSLAX44Y44*%
%MOMM*%
G71*
G04*
G04 #@! TF.SameCoordinates,46537A69-6C61-4849-90A4-6659EB9BC9F3*
G04*
G04*
G04 #@! TF.FilePolarity,Positive*
G04*
G01*
G75*
%ADD12C,0.2540*%
%ADD42C,0.4000*%
%ADD48C,2.5400*%
%ADD49C,1.5000*%
%ADD50C,0.3810*%
%ADD52C,1.5240*%
%ADD53C,1.1000*%
%ADD54R,1.1000X1.1000*%
%ADD55C,0.6500*%
%ADD56O,1.0000X2.0000*%
%ADD57O,0.9000X1.8000*%
%ADD58C,0.8890*%
G36*
X881314Y261686D02*
X7686D01*
Y749234D01*
X881314D01*
Y261686D01*
D02*
G37*
%LPC*%
G36*
X829310Y746031D02*
Y740410D01*
X834931D01*
X834549Y741836D01*
X833629Y743429D01*
X832329Y744729D01*
X830736Y745649D01*
X829310Y746031D01*
D02*
G37*
G36*
X826770D02*
X825344Y745649D01*
X823751Y744729D01*
X822451Y743429D01*
X821531Y741836D01*
X821149Y740410D01*
X826770D01*
Y746031D01*
D02*
G37*
G36*
X500450Y746204D02*
Y736040D01*
X506281D01*
Y739270D01*
X506039Y741108D01*
X505329Y742820D01*
X504201Y744291D01*
X502730Y745419D01*
X501018Y746129D01*
X500450Y746204D01*
D02*
G37*
G36*
X413950D02*
Y736040D01*
X419781D01*
Y739270D01*
X419539Y741108D01*
X418829Y742820D01*
X417701Y744291D01*
X416230Y745419D01*
X414518Y746129D01*
X413950Y746204D01*
D02*
G37*
G36*
X497910D02*
X497342Y746129D01*
X495630Y745419D01*
X494159Y744291D01*
X493031Y742820D01*
X492321Y741108D01*
X492079Y739270D01*
Y736040D01*
X497910D01*
Y746204D01*
D02*
G37*
G36*
X411410D02*
X410842Y746129D01*
X409130Y745419D01*
X407659Y744291D01*
X406531Y742820D01*
X405821Y741108D01*
X405579Y739270D01*
Y736040D01*
X411410D01*
Y746204D01*
D02*
G37*
G36*
X834931Y737870D02*
X829310D01*
Y732249D01*
X830736Y732631D01*
X832329Y733551D01*
X833629Y734851D01*
X834549Y736444D01*
X834931Y737870D01*
D02*
G37*
G36*
X826770D02*
X821149D01*
X821531Y736444D01*
X822451Y734851D01*
X823751Y733551D01*
X825344Y732631D01*
X826770Y732249D01*
Y737870D01*
D02*
G37*
G36*
X506281Y733500D02*
X500450D01*
Y723336D01*
X501018Y723411D01*
X502730Y724121D01*
X504201Y725249D01*
X505329Y726720D01*
X506039Y728432D01*
X506281Y730270D01*
Y733500D01*
D02*
G37*
G36*
X419781D02*
X413950D01*
Y723336D01*
X414518Y723411D01*
X416230Y724121D01*
X417701Y725249D01*
X418829Y726720D01*
X419539Y728432D01*
X419781Y730270D01*
Y733500D01*
D02*
G37*
G36*
X497910D02*
X492079D01*
Y730270D01*
X492321Y728432D01*
X493031Y726720D01*
X494159Y725249D01*
X495630Y724121D01*
X497342Y723411D01*
X497910Y723336D01*
Y733500D01*
D02*
G37*
G36*
X411410D02*
X405579D01*
Y730270D01*
X405821Y728432D01*
X406531Y726720D01*
X407659Y725249D01*
X409130Y724121D01*
X410842Y723411D01*
X411410Y723336D01*
Y733500D01*
D02*
G37*
G36*
X542290Y719361D02*
Y713740D01*
X547911D01*
X547529Y715166D01*
X546609Y716759D01*
X545309Y718059D01*
X543716Y718979D01*
X542290Y719361D01*
D02*
G37*
G36*
X539750D02*
X538324Y718979D01*
X536731Y718059D01*
X535431Y716759D01*
X534511Y715166D01*
X534129Y713740D01*
X539750D01*
Y719361D01*
D02*
G37*
G36*
X310449Y736600D02*
X306771D01*
X303218Y735648D01*
X300032Y733809D01*
X297431Y731208D01*
X295592Y728022D01*
X294640Y724469D01*
Y720791D01*
X295592Y717238D01*
X297431Y714052D01*
X300032Y711451D01*
X303218Y709612D01*
X306771Y708660D01*
X310449D01*
X314002Y709612D01*
X317188Y711451D01*
X319789Y714052D01*
X321628Y717238D01*
X322580Y720791D01*
Y724469D01*
X321628Y728022D01*
X319789Y731208D01*
X317188Y733809D01*
X314002Y735648D01*
X310449Y736600D01*
D02*
G37*
G36*
X547911Y711200D02*
X542290D01*
Y705579D01*
X543716Y705961D01*
X545309Y706881D01*
X546609Y708181D01*
X547529Y709774D01*
X547911Y711200D01*
D02*
G37*
G36*
X539750D02*
X534129D01*
X534511Y709774D01*
X535431Y708181D01*
X536731Y706881D01*
X538324Y705961D01*
X539750Y705579D01*
Y711200D01*
D02*
G37*
G36*
X45605Y721240D02*
X43295D01*
X41065Y720642D01*
X39065Y719488D01*
X37432Y717855D01*
X36278Y715855D01*
X35680Y713625D01*
Y711315D01*
X36278Y709085D01*
X37432Y707085D01*
X39065Y705452D01*
X41065Y704298D01*
X43295Y703700D01*
X45605D01*
X47835Y704298D01*
X49835Y705452D01*
X51468Y707085D01*
X52622Y709085D01*
X53220Y711315D01*
Y713625D01*
X52622Y715855D01*
X51468Y717855D01*
X49835Y719488D01*
X47835Y720642D01*
X45605Y721240D01*
D02*
G37*
G36*
X610870Y705391D02*
Y699770D01*
X616491D01*
X616109Y701196D01*
X615189Y702789D01*
X613889Y704089D01*
X612296Y705009D01*
X610870Y705391D01*
D02*
G37*
G36*
X608330D02*
X606904Y705009D01*
X605311Y704089D01*
X604011Y702789D01*
X603091Y701196D01*
X602709Y699770D01*
X608330D01*
Y705391D01*
D02*
G37*
G36*
X873760Y701581D02*
Y695960D01*
X879381D01*
X878999Y697386D01*
X878079Y698979D01*
X876779Y700279D01*
X875186Y701199D01*
X873760Y701581D01*
D02*
G37*
G36*
X871220D02*
X869794Y701199D01*
X868201Y700279D01*
X866901Y698979D01*
X865981Y697386D01*
X865599Y695960D01*
X871220D01*
Y701581D01*
D02*
G37*
G36*
X500450Y705408D02*
Y694240D01*
X506785D01*
Y697970D01*
X506526Y699938D01*
X505766Y701773D01*
X504558Y703348D01*
X502982Y704556D01*
X501148Y705316D01*
X500450Y705408D01*
D02*
G37*
G36*
X413950Y704404D02*
Y694240D01*
X419781D01*
Y697470D01*
X419539Y699308D01*
X418829Y701020D01*
X417701Y702491D01*
X416230Y703619D01*
X414518Y704329D01*
X413950Y704404D01*
D02*
G37*
G36*
X411410D02*
X410842Y704329D01*
X409130Y703619D01*
X407659Y702491D01*
X406531Y701020D01*
X405821Y699308D01*
X405579Y697470D01*
Y694240D01*
X411410D01*
Y704404D01*
D02*
G37*
G36*
X497910Y705408D02*
X497212Y705316D01*
X495378Y704556D01*
X493802Y703348D01*
X492594Y701773D01*
X491834Y699938D01*
X491575Y697970D01*
Y694240D01*
X497910D01*
Y705408D01*
D02*
G37*
G36*
X485729Y702290D02*
X483931D01*
X482270Y701602D01*
X480998Y700330D01*
X480310Y698669D01*
Y696871D01*
X480998Y695210D01*
X482270Y693938D01*
X483931Y693250D01*
X485729D01*
X487390Y693938D01*
X488662Y695210D01*
X489350Y696871D01*
Y698669D01*
X488662Y700330D01*
X487390Y701602D01*
X485729Y702290D01*
D02*
G37*
G36*
X427929D02*
X426131D01*
X424470Y701602D01*
X423198Y700330D01*
X422510Y698669D01*
Y696871D01*
X423198Y695210D01*
X424470Y693938D01*
X426131Y693250D01*
X427929D01*
X429590Y693938D01*
X430862Y695210D01*
X431550Y696871D01*
Y698669D01*
X430862Y700330D01*
X429590Y701602D01*
X427929Y702290D01*
D02*
G37*
G36*
X616491Y697230D02*
X610870D01*
Y691609D01*
X612296Y691991D01*
X613889Y692911D01*
X615189Y694211D01*
X616109Y695804D01*
X616491Y697230D01*
D02*
G37*
G36*
X608330D02*
X602709D01*
X603091Y695804D01*
X604011Y694211D01*
X605311Y692911D01*
X606904Y691991D01*
X608330Y691609D01*
Y697230D01*
D02*
G37*
G36*
X680582Y716910D02*
X678308D01*
X676208Y716040D01*
X674600Y714432D01*
X673730Y712332D01*
Y710058D01*
X674600Y707958D01*
X676208Y706350D01*
X678308Y705480D01*
X680582D01*
X681229Y705748D01*
X684955Y702023D01*
X685795Y701462D01*
X686786Y701264D01*
X706347D01*
X707484Y700127D01*
X706755Y698367D01*
Y696093D01*
X707625Y693993D01*
X709233Y692385D01*
X711333Y691515D01*
X713607D01*
X715707Y692385D01*
X717315Y693993D01*
X718185Y696093D01*
Y698367D01*
X717315Y700467D01*
X715707Y702075D01*
X713607Y702945D01*
X711992D01*
X709251Y705686D01*
X708411Y706247D01*
X707420Y706444D01*
X687858D01*
X684892Y709411D01*
X685160Y710058D01*
Y712332D01*
X684290Y714432D01*
X682682Y716040D01*
X680582Y716910D01*
D02*
G37*
G36*
X879381Y693420D02*
X873760D01*
Y687799D01*
X875186Y688181D01*
X876779Y689101D01*
X878079Y690401D01*
X878999Y691994D01*
X879381Y693420D01*
D02*
G37*
G36*
X871220D02*
X865599D01*
X865981Y691994D01*
X866901Y690401D01*
X868201Y689101D01*
X869794Y688181D01*
X871220Y687799D01*
Y693420D01*
D02*
G37*
G36*
X411410Y691700D02*
X405579D01*
Y688470D01*
X405821Y686632D01*
X406531Y684920D01*
X407659Y683449D01*
X409130Y682321D01*
X410842Y681611D01*
X411410Y681536D01*
Y691700D01*
D02*
G37*
G36*
X419781D02*
X413950D01*
Y681536D01*
X414518Y681611D01*
X416230Y682321D01*
X417701Y683449D01*
X418829Y684920D01*
X419539Y686632D01*
X419781Y688470D01*
Y691700D01*
D02*
G37*
G36*
X497910D02*
X491575D01*
Y687970D01*
X491834Y686002D01*
X492594Y684167D01*
X493802Y682592D01*
X495378Y681384D01*
X497212Y680624D01*
X497910Y680532D01*
Y691700D01*
D02*
G37*
G36*
X506785D02*
X500450D01*
Y680532D01*
X501148Y680624D01*
X502982Y681384D01*
X504558Y682592D01*
X505766Y684167D01*
X506526Y686002D01*
X506785Y687970D01*
Y691700D01*
D02*
G37*
G36*
X836797Y704215D02*
X834523D01*
X832423Y703345D01*
X830815Y701737D01*
X829945Y699637D01*
Y697363D01*
X830815Y695263D01*
X832423Y693655D01*
X834523Y692785D01*
X836797D01*
X838897Y693655D01*
X840505Y695263D01*
X840773Y695910D01*
X846017D01*
X865505Y676423D01*
Y675773D01*
X866375Y673673D01*
X867983Y672065D01*
X870083Y671195D01*
X872357D01*
X874457Y672065D01*
X876065Y673673D01*
X876935Y675773D01*
Y678047D01*
X876065Y680147D01*
X874457Y681755D01*
X872357Y682625D01*
X870083D01*
X867983Y681755D01*
X867740Y681512D01*
X848921Y700331D01*
X848081Y700893D01*
X847090Y701090D01*
X840773D01*
X840505Y701737D01*
X838897Y703345D01*
X836797Y704215D01*
D02*
G37*
G36*
X797560Y673641D02*
Y668020D01*
X803181D01*
X802799Y669446D01*
X801879Y671039D01*
X800579Y672339D01*
X798986Y673259D01*
X797560Y673641D01*
D02*
G37*
G36*
X795020D02*
X793594Y673259D01*
X792001Y672339D01*
X790701Y671039D01*
X789781Y669446D01*
X789399Y668020D01*
X795020D01*
Y673641D01*
D02*
G37*
G36*
X803181Y665480D02*
X797560D01*
Y659859D01*
X798986Y660241D01*
X800579Y661161D01*
X801879Y662461D01*
X802799Y664054D01*
X803181Y665480D01*
D02*
G37*
G36*
X795020D02*
X789399D01*
X789781Y664054D01*
X790701Y662461D01*
X792001Y661161D01*
X793594Y660241D01*
X795020Y659859D01*
Y665480D01*
D02*
G37*
G36*
X804090Y659762D02*
Y656645D01*
X807208D01*
X806669Y657946D01*
X805392Y659223D01*
X804090Y659762D01*
D02*
G37*
G36*
X801550Y659762D02*
X800248Y659223D01*
X798971Y657946D01*
X798432Y656645D01*
X801550D01*
Y659762D01*
D02*
G37*
G36*
X790090Y659762D02*
Y656645D01*
X793208D01*
X792669Y657946D01*
X791392Y659223D01*
X790090Y659762D01*
D02*
G37*
G36*
X787550D02*
X786248Y659223D01*
X784971Y657946D01*
X784432Y656645D01*
X787550D01*
Y659762D01*
D02*
G37*
G36*
X807208Y654105D02*
X802820D01*
X798432D01*
X798694Y653473D01*
X797722Y652501D01*
X797090Y652763D01*
Y648374D01*
X794550D01*
Y652763D01*
X793919Y652501D01*
X792946Y653473D01*
X793208Y654105D01*
X788820D01*
X784432D01*
X784694Y653473D01*
X783722Y652501D01*
X783090Y652763D01*
Y648374D01*
Y643987D01*
X783722Y644248D01*
X784694Y643276D01*
X784432Y642645D01*
X788820D01*
Y640105D01*
X784432D01*
X784694Y639473D01*
X783722Y638501D01*
X783090Y638763D01*
Y634375D01*
Y629986D01*
X783722Y630248D01*
X784694Y629276D01*
X784432Y628644D01*
X788820D01*
X793208D01*
X792946Y629276D01*
X793919Y630248D01*
X794550Y629986D01*
Y634374D01*
X797090D01*
Y629986D01*
X797722Y630248D01*
X798694Y629276D01*
X798432Y628644D01*
X802820D01*
X807208D01*
X806946Y629276D01*
X807918Y630248D01*
X808550Y629986D01*
Y634374D01*
Y638763D01*
X807918Y638501D01*
X806946Y639473D01*
X807208Y640105D01*
X802820D01*
Y642645D01*
X807208D01*
X806946Y643276D01*
X807918Y644248D01*
X808550Y643987D01*
Y648374D01*
Y652763D01*
X807918Y652501D01*
X806946Y653473D01*
X807208Y654105D01*
D02*
G37*
G36*
X780550Y652763D02*
X779248Y652223D01*
X777971Y650946D01*
X777432Y649644D01*
X780550D01*
Y652763D01*
D02*
G37*
G36*
X811090D02*
Y649644D01*
X814208D01*
X813669Y650946D01*
X812392Y652223D01*
X811090Y652763D01*
D02*
G37*
G36*
X537210Y653321D02*
Y647700D01*
X542831D01*
X542449Y649126D01*
X541529Y650719D01*
X540229Y652019D01*
X538636Y652939D01*
X537210Y653321D01*
D02*
G37*
G36*
X534670D02*
X533244Y652939D01*
X531651Y652019D01*
X530351Y650719D01*
X529431Y649126D01*
X529049Y647700D01*
X534670D01*
Y653321D01*
D02*
G37*
G36*
X814208Y647104D02*
X811090D01*
Y643986D01*
X812392Y644526D01*
X813669Y645803D01*
X814208Y647104D01*
D02*
G37*
G36*
X780550Y647104D02*
X777432D01*
X777971Y645803D01*
X779248Y644526D01*
X780550Y643986D01*
Y647104D01*
D02*
G37*
G36*
X388874Y649257D02*
Y643636D01*
X394495D01*
X394113Y645062D01*
X393193Y646655D01*
X391893Y647955D01*
X390300Y648875D01*
X388874Y649257D01*
D02*
G37*
G36*
X386334D02*
X384908Y648875D01*
X383315Y647955D01*
X382015Y646655D01*
X381095Y645062D01*
X380713Y643636D01*
X386334D01*
Y649257D01*
D02*
G37*
G36*
X542831Y645160D02*
X537210D01*
Y639539D01*
X538636Y639921D01*
X540229Y640841D01*
X541529Y642141D01*
X542449Y643734D01*
X542831Y645160D01*
D02*
G37*
G36*
X534670D02*
X529049D01*
X529431Y643734D01*
X530351Y642141D01*
X531651Y640841D01*
X533244Y639921D01*
X534670Y639539D01*
Y645160D01*
D02*
G37*
G36*
X780550Y638763D02*
X779248Y638223D01*
X777971Y636946D01*
X777432Y635644D01*
X780550D01*
Y638763D01*
D02*
G37*
G36*
X811090Y638763D02*
Y635644D01*
X814208D01*
X813669Y636946D01*
X812392Y638223D01*
X811090Y638763D01*
D02*
G37*
G36*
X394495Y641096D02*
X388874D01*
Y635475D01*
X390300Y635857D01*
X391893Y636777D01*
X393193Y638077D01*
X394113Y639670D01*
X394495Y641096D01*
D02*
G37*
G36*
X386334D02*
X380713D01*
X381095Y639670D01*
X382015Y638077D01*
X383315Y636777D01*
X384908Y635857D01*
X386334Y635475D01*
Y641096D01*
D02*
G37*
G36*
X814208Y633104D02*
X811090D01*
Y629986D01*
X812392Y630526D01*
X813669Y631803D01*
X814208Y633104D01*
D02*
G37*
G36*
X780550Y633105D02*
X777432D01*
X777971Y631803D01*
X779248Y630526D01*
X780550Y629986D01*
Y633105D01*
D02*
G37*
G36*
X719957Y635635D02*
X717683D01*
X715583Y634765D01*
X713975Y633157D01*
X713105Y631057D01*
Y628783D01*
X713847Y626991D01*
X712771Y626272D01*
X711897Y627145D01*
X709797Y628015D01*
X707523D01*
X705423Y627145D01*
X703815Y625537D01*
X702945Y623437D01*
Y621163D01*
X703815Y619063D01*
X705423Y617455D01*
X707499Y616595D01*
X707523Y616584D01*
X707403Y615365D01*
X672235D01*
X672230Y615377D01*
X670622Y616985D01*
X668522Y617855D01*
X666248D01*
X664148Y616985D01*
X662540Y615377D01*
X661670Y613277D01*
Y611003D01*
X662540Y608903D01*
X664148Y607295D01*
X666248Y606425D01*
X668522D01*
X669230Y606718D01*
X669949Y605642D01*
X669525Y605217D01*
X668655Y603117D01*
Y600843D01*
X669525Y598743D01*
X671133Y597135D01*
X673233Y596265D01*
X675507D01*
X677607Y597135D01*
X679215Y598743D01*
X679220Y598755D01*
X711312D01*
X711410Y598519D01*
X713018Y596911D01*
X715118Y596041D01*
X717392D01*
X719492Y596911D01*
X721100Y598519D01*
X721970Y600619D01*
Y602893D01*
X721100Y604993D01*
X719492Y606601D01*
X717498Y607427D01*
X717332Y607791D01*
X717153Y608741D01*
X718585Y610173D01*
X719409Y612161D01*
X720628Y612738D01*
X723850Y609515D01*
Y598203D01*
X723203Y597935D01*
X721595Y596327D01*
X720725Y594227D01*
Y591953D01*
X721595Y589853D01*
X723203Y588245D01*
X725303Y587375D01*
X727577D01*
X729677Y588245D01*
X731285Y589853D01*
X731520Y590420D01*
X732790D01*
X733025Y589853D01*
X734633Y588245D01*
X736733Y587375D01*
X739007D01*
X741107Y588245D01*
X742715Y589853D01*
X743585Y591953D01*
Y594227D01*
X742715Y596327D01*
X741107Y597935D01*
X740460Y598203D01*
Y610870D01*
X740263Y611861D01*
X739701Y612701D01*
X724267Y628136D01*
X724535Y628783D01*
Y631057D01*
X723665Y633157D01*
X722057Y634765D01*
X719957Y635635D01*
D02*
G37*
G36*
X807208Y626105D02*
X804090D01*
Y622986D01*
X805392Y623526D01*
X806669Y624803D01*
X807208Y626105D01*
D02*
G37*
G36*
X793208Y626105D02*
X790090D01*
Y622986D01*
X791392Y623526D01*
X792669Y624803D01*
X793208Y626105D01*
D02*
G37*
G36*
X787550D02*
X784432D01*
X784971Y624803D01*
X786248Y623526D01*
X787550Y622986D01*
Y626105D01*
D02*
G37*
G36*
X801550Y626105D02*
X798432D01*
X798971Y624803D01*
X800248Y623526D01*
X801550Y622986D01*
Y626105D01*
D02*
G37*
G36*
X511810Y617761D02*
Y612140D01*
X517431D01*
X517049Y613566D01*
X516129Y615159D01*
X514829Y616459D01*
X513236Y617379D01*
X511810Y617761D01*
D02*
G37*
G36*
X509270D02*
X507844Y617379D01*
X506251Y616459D01*
X504951Y615159D01*
X504031Y613566D01*
X503649Y612140D01*
X509270D01*
Y617761D01*
D02*
G37*
G36*
X640080Y610141D02*
Y604520D01*
X645701D01*
X645319Y605946D01*
X644399Y607539D01*
X643099Y608839D01*
X641506Y609759D01*
X640080Y610141D01*
D02*
G37*
G36*
X637540D02*
X636114Y609759D01*
X634521Y608839D01*
X633221Y607539D01*
X632301Y605946D01*
X631919Y604520D01*
X637540D01*
Y610141D01*
D02*
G37*
G36*
X517431Y609600D02*
X511810D01*
Y603979D01*
X513236Y604361D01*
X514829Y605281D01*
X516129Y606581D01*
X517049Y608174D01*
X517431Y609600D01*
D02*
G37*
G36*
X509270D02*
X503649D01*
X504031Y608174D01*
X504951Y606581D01*
X506251Y605281D01*
X507844Y604361D01*
X509270Y603979D01*
Y609600D01*
D02*
G37*
G36*
X645701Y601980D02*
X640080D01*
Y596359D01*
X641506Y596741D01*
X643099Y597661D01*
X644399Y598961D01*
X645319Y600554D01*
X645701Y601980D01*
D02*
G37*
G36*
X637540D02*
X631919D01*
X632301Y600554D01*
X633221Y598961D01*
X634521Y597661D01*
X636114Y596741D01*
X637540Y596359D01*
Y601980D01*
D02*
G37*
G36*
X473577Y633095D02*
X471303D01*
X469203Y632225D01*
X467595Y630617D01*
X466725Y628517D01*
Y626243D01*
X467595Y624143D01*
X469203Y622535D01*
X470485Y622004D01*
Y605560D01*
X470473Y605555D01*
X468865Y603947D01*
X467995Y601847D01*
Y599573D01*
X468865Y597473D01*
X470473Y595865D01*
X472573Y594995D01*
X474847D01*
X476947Y595865D01*
X478555Y597473D01*
X479425Y599573D01*
Y601847D01*
X478555Y603947D01*
X476947Y605555D01*
X475665Y606086D01*
Y622530D01*
X475677Y622535D01*
X477285Y624143D01*
X478155Y626243D01*
Y628517D01*
X477285Y630617D01*
X475677Y632225D01*
X473577Y633095D01*
D02*
G37*
G36*
X541040Y599961D02*
Y594340D01*
X546661D01*
X546279Y595766D01*
X545359Y597359D01*
X544059Y598659D01*
X542466Y599579D01*
X541040Y599961D01*
D02*
G37*
G36*
X538500D02*
X537074Y599579D01*
X535481Y598659D01*
X534181Y597359D01*
X533261Y595766D01*
X532879Y594340D01*
X538500D01*
Y599961D01*
D02*
G37*
G36*
X546661Y591800D02*
X541040D01*
Y586179D01*
X542466Y586561D01*
X544059Y587481D01*
X545359Y588781D01*
X546279Y590374D01*
X546661Y591800D01*
D02*
G37*
G36*
X538500D02*
X532879D01*
X533261Y590374D01*
X534181Y588781D01*
X535481Y587481D01*
X537074Y586561D01*
X538500Y586179D01*
Y591800D01*
D02*
G37*
G36*
X874025Y571776D02*
Y566155D01*
X879646D01*
X879264Y567581D01*
X878344Y569174D01*
X877044Y570474D01*
X875451Y571394D01*
X874025Y571776D01*
D02*
G37*
G36*
X871485D02*
X870059Y571394D01*
X868466Y570474D01*
X867166Y569174D01*
X866246Y567581D01*
X865864Y566155D01*
X871485D01*
Y571776D01*
D02*
G37*
G36*
X879646Y563615D02*
X874025D01*
Y557994D01*
X875451Y558376D01*
X877044Y559296D01*
X878344Y560596D01*
X879264Y562189D01*
X879646Y563615D01*
D02*
G37*
G36*
X871485D02*
X865864D01*
X866246Y562189D01*
X867166Y560596D01*
X868466Y559296D01*
X870059Y558376D01*
X871485Y557994D01*
Y563615D01*
D02*
G37*
G36*
X433070Y547911D02*
Y542290D01*
X438691D01*
X438309Y543716D01*
X437389Y545309D01*
X436089Y546609D01*
X434496Y547529D01*
X433070Y547911D01*
D02*
G37*
G36*
X430530D02*
X429104Y547529D01*
X427511Y546609D01*
X426211Y545309D01*
X425291Y543716D01*
X424909Y542290D01*
X430530D01*
Y547911D01*
D02*
G37*
G36*
X438691Y539750D02*
X433070D01*
Y534129D01*
X434496Y534511D01*
X436089Y535431D01*
X437389Y536731D01*
X438309Y538324D01*
X438691Y539750D01*
D02*
G37*
G36*
X430530D02*
X424909D01*
X425291Y538324D01*
X426211Y536731D01*
X427511Y535431D01*
X429104Y534511D01*
X430530Y534129D01*
Y539750D01*
D02*
G37*
G36*
X543560Y523781D02*
Y518160D01*
X549181D01*
X548799Y519586D01*
X547879Y521179D01*
X546579Y522479D01*
X544986Y523399D01*
X543560Y523781D01*
D02*
G37*
G36*
X541020D02*
X539594Y523399D01*
X538001Y522479D01*
X536701Y521179D01*
X535781Y519586D01*
X535399Y518160D01*
X541020D01*
Y523781D01*
D02*
G37*
G36*
X822827Y560705D02*
X820553D01*
X818453Y559835D01*
X816845Y558227D01*
X815975Y556127D01*
Y553853D01*
X816845Y551753D01*
X818453Y550145D01*
X819100Y549877D01*
Y543560D01*
X819297Y542569D01*
X819859Y541729D01*
X840373Y521214D01*
X840105Y520567D01*
Y518293D01*
X840975Y516193D01*
X842583Y514585D01*
X844683Y513715D01*
X846957D01*
X849057Y514585D01*
X850665Y516193D01*
X851535Y518293D01*
Y520567D01*
X850665Y522667D01*
X849057Y524275D01*
X846957Y525145D01*
X844683D01*
X844036Y524877D01*
X824280Y544633D01*
Y549877D01*
X824927Y550145D01*
X826535Y551753D01*
X827405Y553853D01*
Y556127D01*
X826535Y558227D01*
X824927Y559835D01*
X822827Y560705D01*
D02*
G37*
G36*
X787267Y564515D02*
X784993D01*
X782893Y563645D01*
X781285Y562037D01*
X780415Y559937D01*
Y557663D01*
X781285Y555563D01*
X782893Y553955D01*
X783540Y553687D01*
Y523240D01*
X783737Y522249D01*
X784299Y521409D01*
X785763Y519944D01*
X785495Y519297D01*
Y517023D01*
X786365Y514923D01*
X787973Y513315D01*
X790073Y512445D01*
X792347D01*
X794447Y513315D01*
X796055Y514923D01*
X796290Y515490D01*
X797560D01*
X797795Y514923D01*
X799403Y513315D01*
X801503Y512445D01*
X803777D01*
X805877Y513315D01*
X807485Y514923D01*
X808355Y517023D01*
Y519297D01*
X807485Y521397D01*
X805877Y523005D01*
X803960Y523799D01*
Y549877D01*
X804607Y550145D01*
X806215Y551753D01*
X807085Y553853D01*
Y556127D01*
X806215Y558227D01*
X804607Y559835D01*
X802507Y560705D01*
X800233D01*
X798133Y559835D01*
X796525Y558227D01*
X795655Y556127D01*
Y553853D01*
X796525Y551753D01*
X798133Y550145D01*
X798780Y549877D01*
Y522383D01*
X797795Y521397D01*
X797560Y520830D01*
X796290D01*
X796055Y521397D01*
X794447Y523005D01*
X792347Y523875D01*
X790073D01*
X789754Y523743D01*
X788720Y524560D01*
Y553687D01*
X789367Y553955D01*
X790975Y555563D01*
X791845Y557663D01*
Y559937D01*
X790975Y562037D01*
X789367Y563645D01*
X787267Y564515D01*
D02*
G37*
G36*
X549181Y515620D02*
X543560D01*
Y509999D01*
X544986Y510381D01*
X546579Y511301D01*
X547879Y512601D01*
X548799Y514194D01*
X549181Y515620D01*
D02*
G37*
G36*
X541020D02*
X535399D01*
X535781Y514194D01*
X536701Y512601D01*
X538001Y511301D01*
X539594Y510381D01*
X541020Y509999D01*
Y515620D01*
D02*
G37*
G36*
X773297Y563245D02*
X771023D01*
X768923Y562375D01*
X767315Y560767D01*
X766445Y558667D01*
Y556393D01*
X767315Y554293D01*
X768923Y552685D01*
X769570Y552417D01*
Y519430D01*
X769767Y518439D01*
X770329Y517599D01*
X771793Y516134D01*
X771525Y515487D01*
Y513213D01*
X772395Y511113D01*
X774003Y509505D01*
X776103Y508635D01*
X778377D01*
X780477Y509505D01*
X782085Y511113D01*
X782955Y513213D01*
Y515487D01*
X782085Y517587D01*
X780477Y519195D01*
X778377Y520065D01*
X776103D01*
X775784Y519933D01*
X774750Y520750D01*
Y552417D01*
X775397Y552685D01*
X777005Y554293D01*
X777875Y556393D01*
Y558667D01*
X777005Y560767D01*
X775397Y562375D01*
X773297Y563245D01*
D02*
G37*
G36*
X826073Y513080D02*
X826005D01*
Y504190D01*
X834895D01*
Y504258D01*
X834203Y506842D01*
X832866Y509158D01*
X830974Y511050D01*
X828657Y512388D01*
X826073Y513080D01*
D02*
G37*
G36*
X823465D02*
X823398D01*
X820814Y512388D01*
X818497Y511050D01*
X816605Y509158D01*
X815268Y506842D01*
X814576Y504258D01*
Y504190D01*
X823465D01*
Y513080D01*
D02*
G37*
G36*
X468630Y506001D02*
Y500380D01*
X474251D01*
X473869Y501806D01*
X472949Y503399D01*
X471649Y504699D01*
X470056Y505619D01*
X468630Y506001D01*
D02*
G37*
G36*
X466090D02*
X464664Y505619D01*
X463071Y504699D01*
X461771Y503399D01*
X460851Y501806D01*
X460469Y500380D01*
X466090D01*
Y506001D01*
D02*
G37*
G36*
X386080D02*
Y500380D01*
X391701D01*
X391319Y501806D01*
X390399Y503399D01*
X389099Y504699D01*
X387506Y505619D01*
X386080Y506001D01*
D02*
G37*
G36*
X383540D02*
X382114Y505619D01*
X380521Y504699D01*
X379221Y503399D01*
X378301Y501806D01*
X377919Y500380D01*
X383540D01*
Y506001D01*
D02*
G37*
G36*
X834895Y501650D02*
X826005D01*
Y492760D01*
X826073D01*
X828657Y493452D01*
X830974Y494790D01*
X832866Y496682D01*
X834203Y498998D01*
X834895Y501582D01*
Y501650D01*
D02*
G37*
G36*
X823465D02*
X814576D01*
Y501582D01*
X815268Y498998D01*
X816605Y496682D01*
X818497Y494790D01*
X820814Y493452D01*
X823398Y492760D01*
X823465D01*
Y501650D01*
D02*
G37*
G36*
X474251Y497840D02*
X468630D01*
Y492219D01*
X470056Y492601D01*
X471649Y493521D01*
X472949Y494821D01*
X473869Y496414D01*
X474251Y497840D01*
D02*
G37*
G36*
X466090D02*
X460469D01*
X460851Y496414D01*
X461771Y494821D01*
X463071Y493521D01*
X464664Y492601D01*
X466090Y492219D01*
Y497840D01*
D02*
G37*
G36*
X391701D02*
X386080D01*
Y492219D01*
X387506Y492601D01*
X389099Y493521D01*
X390399Y494821D01*
X391319Y496414D01*
X391701Y497840D01*
D02*
G37*
G36*
X383540D02*
X377919D01*
X378301Y496414D01*
X379221Y494821D01*
X380521Y493521D01*
X382114Y492601D01*
X383540Y492219D01*
Y497840D01*
D02*
G37*
G36*
X859675Y497720D02*
X857365D01*
X855135Y497122D01*
X853135Y495968D01*
X851502Y494335D01*
X850348Y492335D01*
X849750Y490105D01*
Y487795D01*
X850348Y485565D01*
X851502Y483565D01*
X853135Y481932D01*
X855135Y480778D01*
X857365Y480180D01*
X859675D01*
X861905Y480778D01*
X863905Y481932D01*
X865538Y483565D01*
X866692Y485565D01*
X867290Y487795D01*
Y490105D01*
X866692Y492335D01*
X865538Y494335D01*
X863905Y495968D01*
X861905Y497122D01*
X859675Y497720D01*
D02*
G37*
G36*
X754247Y479425D02*
X751973D01*
X749873Y478555D01*
X748265Y476947D01*
X747997Y476300D01*
X735363D01*
X735095Y476947D01*
X733487Y478555D01*
X731387Y479425D01*
X729113D01*
X727013Y478555D01*
X725405Y476947D01*
X724535Y474847D01*
Y472573D01*
X725405Y470473D01*
X727013Y468865D01*
X729113Y467995D01*
X731387D01*
X733487Y468865D01*
X735095Y470473D01*
X735363Y471120D01*
X747997D01*
X748265Y470473D01*
X749873Y468865D01*
X751973Y467995D01*
X754247D01*
X756347Y468865D01*
X757955Y470473D01*
X758825Y472573D01*
Y474847D01*
X757955Y476947D01*
X756347Y478555D01*
X754247Y479425D01*
D02*
G37*
G36*
X825906Y486410D02*
X823565D01*
X821304Y485804D01*
X819277Y484634D01*
X817622Y482979D01*
X816451Y480951D01*
X815845Y478690D01*
Y476350D01*
X816451Y474089D01*
X817622Y472061D01*
X819277Y470406D01*
X821304Y469236D01*
X823565Y468630D01*
X825906D01*
X828167Y469236D01*
X830194Y470406D01*
X831849Y472061D01*
X833020Y474089D01*
X833625Y476350D01*
Y478690D01*
X833020Y480951D01*
X831849Y482979D01*
X830194Y484634D01*
X828167Y485804D01*
X825906Y486410D01*
D02*
G37*
G36*
X499110Y462821D02*
Y457200D01*
X504731D01*
X504349Y458626D01*
X503429Y460219D01*
X502129Y461519D01*
X500536Y462439D01*
X499110Y462821D01*
D02*
G37*
G36*
X496570D02*
X495144Y462439D01*
X493551Y461519D01*
X492251Y460219D01*
X491331Y458626D01*
X490949Y457200D01*
X496570D01*
Y462821D01*
D02*
G37*
G36*
X704717Y465455D02*
X702443D01*
X700343Y464585D01*
X698735Y462977D01*
X697865Y460877D01*
Y458603D01*
X698133Y457956D01*
X694887Y454710D01*
X680753D01*
X680485Y455357D01*
X678877Y456965D01*
X676777Y457835D01*
X674503D01*
X672403Y456965D01*
X670795Y455357D01*
X669925Y453257D01*
Y450983D01*
X670193Y450336D01*
X662584Y442727D01*
X662023Y441886D01*
X661826Y440895D01*
Y438158D01*
X655834Y432167D01*
X655187Y432435D01*
X652913D01*
X650813Y431565D01*
X649205Y429957D01*
X648335Y427857D01*
Y425583D01*
X649205Y423483D01*
X650813Y421875D01*
X652913Y421005D01*
X655187D01*
X657287Y421875D01*
X658895Y423483D01*
X659765Y425583D01*
Y427857D01*
X659497Y428504D01*
X666247Y435254D01*
X666808Y436094D01*
X667005Y437085D01*
Y439823D01*
X673856Y446673D01*
X674503Y446405D01*
X676777D01*
X678877Y447275D01*
X680485Y448883D01*
X680753Y449530D01*
X695960D01*
X696951Y449727D01*
X697791Y450289D01*
X701796Y454293D01*
X702443Y454025D01*
X704717D01*
X706817Y454895D01*
X708425Y456503D01*
X709295Y458603D01*
Y460877D01*
X708425Y462977D01*
X706817Y464585D01*
X704717Y465455D01*
D02*
G37*
G36*
X636270Y460281D02*
Y454660D01*
X641891D01*
X641509Y456086D01*
X640589Y457679D01*
X639289Y458979D01*
X637696Y459899D01*
X636270Y460281D01*
D02*
G37*
G36*
X633730D02*
X632304Y459899D01*
X630711Y458979D01*
X629411Y457679D01*
X628491Y456086D01*
X628109Y454660D01*
X633730D01*
Y460281D01*
D02*
G37*
G36*
X504731Y454660D02*
X499110D01*
Y449039D01*
X500536Y449421D01*
X502129Y450341D01*
X503429Y451641D01*
X504349Y453234D01*
X504731Y454660D01*
D02*
G37*
G36*
X496570D02*
X490949D01*
X491331Y453234D01*
X492251Y451641D01*
X493551Y450341D01*
X495144Y449421D01*
X496570Y449039D01*
Y454660D01*
D02*
G37*
G36*
X641891Y452120D02*
X636270D01*
Y446499D01*
X637696Y446881D01*
X639289Y447801D01*
X640589Y449101D01*
X641509Y450694D01*
X641891Y452120D01*
D02*
G37*
G36*
X633730D02*
X628109D01*
X628491Y450694D01*
X629411Y449101D01*
X630711Y447801D01*
X632304Y446881D01*
X633730Y446499D01*
Y452120D01*
D02*
G37*
G36*
X825906Y461010D02*
X823565D01*
X821304Y460404D01*
X819277Y459234D01*
X817622Y457579D01*
X816451Y455551D01*
X815845Y453290D01*
Y450950D01*
X816451Y448689D01*
X817622Y446661D01*
X819277Y445006D01*
X821304Y443836D01*
X823565Y443230D01*
X825906D01*
X828167Y443836D01*
X830194Y445006D01*
X831849Y446661D01*
X833020Y448689D01*
X833625Y450950D01*
Y453290D01*
X833020Y455551D01*
X831849Y457579D01*
X830194Y459234D01*
X828167Y460404D01*
X825906Y461010D01*
D02*
G37*
G36*
X40525Y455810D02*
X38215D01*
X35985Y455212D01*
X33985Y454058D01*
X32352Y452425D01*
X31198Y450425D01*
X30600Y448195D01*
Y445885D01*
X31198Y443655D01*
X32352Y441655D01*
X33985Y440022D01*
X35985Y438868D01*
X38215Y438270D01*
X40525D01*
X42755Y438868D01*
X44755Y440022D01*
X46388Y441655D01*
X47542Y443655D01*
X48140Y445885D01*
Y448195D01*
X47542Y450425D01*
X46388Y452425D01*
X44755Y454058D01*
X42755Y455212D01*
X40525Y455810D01*
D02*
G37*
G36*
X805180Y434881D02*
Y429260D01*
X810801D01*
X810419Y430686D01*
X809499Y432279D01*
X808199Y433579D01*
X806606Y434499D01*
X805180Y434881D01*
D02*
G37*
G36*
X802640D02*
X801214Y434499D01*
X799621Y433579D01*
X798321Y432279D01*
X797401Y430686D01*
X797019Y429260D01*
X802640D01*
Y434881D01*
D02*
G37*
G36*
X810801Y426720D02*
X805180D01*
Y421099D01*
X806606Y421481D01*
X808199Y422401D01*
X809499Y423701D01*
X810419Y425294D01*
X810801Y426720D01*
D02*
G37*
G36*
X802640D02*
X797019D01*
X797401Y425294D01*
X798321Y423701D01*
X799621Y422401D01*
X801214Y421481D01*
X802640Y421099D01*
Y426720D01*
D02*
G37*
G36*
X80139Y423330D02*
X78357D01*
X76635Y422869D01*
X75091Y421977D01*
X73831Y420717D01*
X73631Y420372D01*
X72165D01*
X71965Y420717D01*
X70705Y421977D01*
X69161Y422869D01*
X67439Y423330D01*
X65657D01*
X63935Y422869D01*
X62391Y421977D01*
X61131Y420717D01*
X60239Y419173D01*
X59778Y417451D01*
Y415669D01*
X60239Y413947D01*
X61131Y412403D01*
X62391Y411143D01*
X62737Y410943D01*
Y409477D01*
X62391Y409277D01*
X61131Y408017D01*
X60239Y406473D01*
X59778Y404751D01*
Y402969D01*
X60239Y401247D01*
X61131Y399703D01*
X62391Y398443D01*
X62737Y398243D01*
Y396777D01*
X62391Y396577D01*
X61131Y395317D01*
X60239Y393773D01*
X60233Y393750D01*
X32032D01*
X31041Y393553D01*
X30201Y392991D01*
X15949Y378740D01*
X15387Y377899D01*
X15190Y376908D01*
Y344203D01*
X14543Y343935D01*
X12935Y342327D01*
X12065Y340227D01*
Y337953D01*
X12935Y335853D01*
X14543Y334245D01*
X16643Y333375D01*
X18917D01*
X21017Y334245D01*
X22625Y335853D01*
X23495Y337953D01*
Y340227D01*
X22625Y342327D01*
X21017Y343935D01*
X20370Y344203D01*
Y352557D01*
X21640Y352810D01*
X21825Y352363D01*
X23433Y350755D01*
X25533Y349885D01*
X27807D01*
X29907Y350755D01*
X31515Y352363D01*
X32385Y354463D01*
Y356737D01*
X31515Y358837D01*
X29907Y360445D01*
X29260Y360713D01*
Y370807D01*
X29907Y371075D01*
X31515Y372683D01*
X32385Y374783D01*
Y377057D01*
X31515Y379157D01*
X29907Y380765D01*
X27919Y381589D01*
X27343Y382808D01*
X33105Y388570D01*
X60233D01*
X60239Y388547D01*
X61131Y387003D01*
X61714Y386419D01*
X61611Y384896D01*
X61584Y384867D01*
X60114Y383397D01*
X59056Y381563D01*
X58565Y379730D01*
X66548D01*
Y377190D01*
X58565D01*
X59056Y375357D01*
X59955Y373800D01*
X59778Y372530D01*
X59778D01*
X59778Y372530D01*
Y358990D01*
X73318D01*
Y360320D01*
X74588Y360846D01*
X75091Y360343D01*
X76635Y359451D01*
X78357Y358990D01*
X80139D01*
X81861Y359451D01*
X83405Y360343D01*
X84665Y361603D01*
X85557Y363147D01*
X86018Y364869D01*
Y366651D01*
X85557Y368373D01*
X84665Y369917D01*
X84082Y370500D01*
X84185Y372024D01*
X84212Y372053D01*
X85682Y373523D01*
X86740Y375357D01*
X87231Y377190D01*
X79248D01*
Y379730D01*
X87231D01*
X86740Y381563D01*
X85682Y383397D01*
X84212Y384867D01*
X84185Y384896D01*
X84082Y386419D01*
X84665Y387003D01*
X85557Y388547D01*
X86018Y390269D01*
Y392051D01*
X85557Y393773D01*
X84665Y395317D01*
X83405Y396577D01*
X83060Y396777D01*
Y398243D01*
X83405Y398443D01*
X84665Y399703D01*
X85557Y401247D01*
X86018Y402969D01*
Y404751D01*
X85557Y406473D01*
X84665Y408017D01*
X83405Y409277D01*
X83060Y409477D01*
Y410943D01*
X83405Y411143D01*
X84665Y412403D01*
X85557Y413947D01*
X86018Y415669D01*
Y417451D01*
X85557Y419173D01*
X84665Y420717D01*
X83405Y421977D01*
X81861Y422869D01*
X80139Y423330D01*
D02*
G37*
G36*
X825906Y435610D02*
X823565D01*
X821304Y435004D01*
X819277Y433834D01*
X817622Y432179D01*
X816451Y430151D01*
X815845Y427890D01*
Y425550D01*
X816451Y423289D01*
X817622Y421261D01*
X819277Y419606D01*
X821304Y418436D01*
X823565Y417830D01*
X825906D01*
X828167Y418436D01*
X830194Y419606D01*
X831849Y421261D01*
X833020Y423289D01*
X833625Y425550D01*
Y427890D01*
X833020Y430151D01*
X831849Y432179D01*
X830194Y433834D01*
X828167Y435004D01*
X825906Y435610D01*
D02*
G37*
G36*
X671830Y417101D02*
Y411480D01*
X677451D01*
X677069Y412906D01*
X676149Y414499D01*
X674849Y415799D01*
X673256Y416719D01*
X671830Y417101D01*
D02*
G37*
G36*
X669290D02*
X667864Y416719D01*
X666271Y415799D01*
X664971Y414499D01*
X664051Y412906D01*
X663669Y411480D01*
X669290D01*
Y417101D01*
D02*
G37*
G36*
X677451Y408940D02*
X671830D01*
Y403319D01*
X673256Y403701D01*
X674849Y404621D01*
X676149Y405921D01*
X677069Y407514D01*
X677451Y408940D01*
D02*
G37*
G36*
X669290D02*
X663669D01*
X664051Y407514D01*
X664971Y405921D01*
X666271Y404621D01*
X667864Y403701D01*
X669290Y403319D01*
Y408940D01*
D02*
G37*
G36*
X670427Y400685D02*
X668153D01*
X666053Y399815D01*
X664445Y398207D01*
X664177Y397560D01*
X651543D01*
X651275Y398207D01*
X649667Y399815D01*
X647567Y400685D01*
X645293D01*
X643193Y399815D01*
X641585Y398207D01*
X640715Y396107D01*
Y393833D01*
X641585Y391733D01*
X643193Y390125D01*
X645293Y389255D01*
X647567D01*
X649667Y390125D01*
X651275Y391733D01*
X651543Y392380D01*
X664177D01*
X664445Y391733D01*
X666053Y390125D01*
X668153Y389255D01*
X670427D01*
X672527Y390125D01*
X674135Y391733D01*
X675005Y393833D01*
Y396107D01*
X674135Y398207D01*
X672527Y399815D01*
X670427Y400685D01*
D02*
G37*
G36*
X825906Y410210D02*
X823565D01*
X821304Y409604D01*
X819277Y408434D01*
X817622Y406779D01*
X816451Y404751D01*
X815845Y402490D01*
Y400150D01*
X816451Y397889D01*
X817622Y395861D01*
X819277Y394206D01*
X821304Y393036D01*
X823565Y392430D01*
X825906D01*
X828167Y393036D01*
X830194Y394206D01*
X831849Y395861D01*
X833020Y397889D01*
X833625Y400150D01*
Y402490D01*
X833020Y404751D01*
X831849Y406779D01*
X830194Y408434D01*
X828167Y409604D01*
X825906Y410210D01*
D02*
G37*
G36*
X121787Y415925D02*
X119513D01*
X117413Y415055D01*
X115805Y413447D01*
X114935Y411347D01*
Y409073D01*
X115805Y406973D01*
X117413Y405365D01*
X119513Y404495D01*
X121787D01*
X122434Y404763D01*
X132983Y394214D01*
X132715Y393567D01*
Y391293D01*
X133585Y389193D01*
X135193Y387585D01*
X137293Y386715D01*
X139567D01*
X141667Y387585D01*
X143275Y389193D01*
X144145Y391293D01*
Y393567D01*
X143275Y395667D01*
X141667Y397275D01*
X139567Y398145D01*
X137293D01*
X136646Y397877D01*
X126097Y408426D01*
X126365Y409073D01*
Y411347D01*
X125495Y413447D01*
X123887Y415055D01*
X121787Y415925D01*
D02*
G37*
G36*
X825906Y384810D02*
X823565D01*
X821304Y384204D01*
X819277Y383034D01*
X817622Y381379D01*
X816451Y379351D01*
X815845Y377090D01*
Y374750D01*
X816451Y372489D01*
X817622Y370461D01*
X819277Y368806D01*
X821304Y367636D01*
X823565Y367030D01*
X825906D01*
X828167Y367636D01*
X830194Y368806D01*
X831849Y370461D01*
X833020Y372489D01*
X833625Y374750D01*
Y377090D01*
X833020Y379351D01*
X831849Y381379D01*
X830194Y383034D01*
X828167Y384204D01*
X825906Y384810D01*
D02*
G37*
G36*
X797560Y357411D02*
Y351790D01*
X803181D01*
X802799Y353216D01*
X801879Y354809D01*
X800579Y356109D01*
X798986Y357029D01*
X797560Y357411D01*
D02*
G37*
G36*
X795020D02*
X793594Y357029D01*
X792001Y356109D01*
X790701Y354809D01*
X789781Y353216D01*
X789399Y351790D01*
X795020D01*
Y357411D01*
D02*
G37*
G36*
X40507Y381635D02*
X38233D01*
X36133Y380765D01*
X34525Y379157D01*
X33655Y377057D01*
Y374783D01*
X34525Y372683D01*
X36133Y371075D01*
X36780Y370807D01*
Y360713D01*
X36133Y360445D01*
X34525Y358837D01*
X33655Y356737D01*
Y354463D01*
X34525Y352363D01*
X36133Y350755D01*
X38233Y349885D01*
X40507D01*
X42607Y350755D01*
X44215Y352363D01*
X45085Y354463D01*
Y356737D01*
X44215Y358837D01*
X42607Y360445D01*
X41960Y360713D01*
Y370807D01*
X42607Y371075D01*
X44215Y372683D01*
X45085Y374783D01*
Y377057D01*
X44215Y379157D01*
X42607Y380765D01*
X40507Y381635D01*
D02*
G37*
G36*
X676777Y349885D02*
X674503D01*
X672403Y349015D01*
X670795Y347407D01*
X670795Y347407D01*
X647465D01*
X647465Y347407D01*
X645857Y349015D01*
X643757Y349885D01*
X641483D01*
X639383Y349015D01*
X637775Y347407D01*
X636905Y345307D01*
Y343033D01*
X637775Y340933D01*
X639383Y339325D01*
X641483Y338455D01*
X643757D01*
X645857Y339325D01*
X647465Y340933D01*
X647465Y340933D01*
X670795D01*
X670795Y340933D01*
X672403Y339325D01*
X674503Y338455D01*
X676777D01*
X678877Y339325D01*
X680485Y340933D01*
X681355Y343033D01*
Y345307D01*
X680485Y347407D01*
X678877Y349015D01*
X676777Y349885D01*
D02*
G37*
G36*
X803181Y349250D02*
X797560D01*
Y343629D01*
X798986Y344011D01*
X800579Y344931D01*
X801879Y346231D01*
X802799Y347824D01*
X803181Y349250D01*
D02*
G37*
G36*
X795020D02*
X789399D01*
X789781Y347824D01*
X790701Y346231D01*
X792001Y344931D01*
X793594Y344011D01*
X795020Y343629D01*
Y349250D01*
D02*
G37*
G36*
X825906Y359410D02*
X823565D01*
X821304Y358804D01*
X819277Y357634D01*
X817622Y355979D01*
X816451Y353951D01*
X815845Y351690D01*
Y349350D01*
X816451Y347089D01*
X817622Y345061D01*
X819277Y343406D01*
X821304Y342236D01*
X823565Y341630D01*
X825906D01*
X828167Y342236D01*
X830194Y343406D01*
X831849Y345061D01*
X833020Y347089D01*
X833625Y349350D01*
Y351690D01*
X833020Y353951D01*
X831849Y355979D01*
X830194Y357634D01*
X828167Y358804D01*
X825906Y359410D01*
D02*
G37*
G36*
X524377Y368935D02*
X522103D01*
X520003Y368065D01*
X518395Y366457D01*
X517525Y364357D01*
Y362083D01*
X518395Y359983D01*
X520003Y358375D01*
X522103Y357505D01*
X524377D01*
X524377Y357505D01*
X537210Y344672D01*
Y343033D01*
X538080Y340933D01*
X539688Y339325D01*
X541788Y338455D01*
X544062D01*
X546162Y339325D01*
X547770Y340933D01*
X548640Y343033D01*
Y345307D01*
X547770Y347407D01*
X546162Y349015D01*
X544062Y349885D01*
X541788D01*
X541339Y349699D01*
X528955Y362083D01*
X528955Y362083D01*
Y364357D01*
X528085Y366457D01*
X526477Y368065D01*
X524377Y368935D01*
D02*
G37*
G36*
X826073Y335280D02*
X826005D01*
Y326390D01*
X834895D01*
Y326458D01*
X834203Y329042D01*
X832866Y331358D01*
X830974Y333250D01*
X828657Y334588D01*
X826073Y335280D01*
D02*
G37*
G36*
X823465D02*
X823398D01*
X820814Y334588D01*
X818497Y333250D01*
X816605Y331358D01*
X815268Y329042D01*
X814576Y326458D01*
Y326390D01*
X823465D01*
Y335280D01*
D02*
G37*
G36*
X834895Y323850D02*
X826005D01*
Y314960D01*
X826073D01*
X828657Y315652D01*
X830974Y316990D01*
X832866Y318882D01*
X834203Y321198D01*
X834895Y323782D01*
Y323850D01*
D02*
G37*
G36*
X823465D02*
X814576D01*
Y323782D01*
X815268Y321198D01*
X816605Y318882D01*
X818497Y316990D01*
X820814Y315652D01*
X823398Y314960D01*
X823465D01*
Y323850D01*
D02*
G37*
G36*
X800100Y318041D02*
Y312420D01*
X805721D01*
X805339Y313846D01*
X804419Y315439D01*
X803119Y316739D01*
X801526Y317659D01*
X800100Y318041D01*
D02*
G37*
G36*
X797560D02*
X796134Y317659D01*
X794541Y316739D01*
X793241Y315439D01*
X792321Y313846D01*
X791939Y312420D01*
X797560D01*
Y318041D01*
D02*
G37*
G36*
X805721Y309880D02*
X800100D01*
Y304259D01*
X801526Y304641D01*
X803119Y305561D01*
X804419Y306861D01*
X805339Y308454D01*
X805721Y309880D01*
D02*
G37*
G36*
X797560D02*
X791939D01*
X792321Y308454D01*
X793241Y306861D01*
X794541Y305561D01*
X796134Y304641D01*
X797560Y304259D01*
Y309880D01*
D02*
G37*
G36*
X720090Y302801D02*
Y297180D01*
X725711D01*
X725329Y298606D01*
X724409Y300199D01*
X723109Y301499D01*
X721516Y302419D01*
X720090Y302801D01*
D02*
G37*
G36*
X717550D02*
X716124Y302419D01*
X714531Y301499D01*
X713231Y300199D01*
X712311Y298606D01*
X711929Y297180D01*
X717550D01*
Y302801D01*
D02*
G37*
G36*
X725711Y294640D02*
X720090D01*
Y289019D01*
X721516Y289401D01*
X723109Y290321D01*
X724409Y291621D01*
X725329Y293214D01*
X725711Y294640D01*
D02*
G37*
G36*
X717550D02*
X711929D01*
X712311Y293214D01*
X713231Y291621D01*
X714531Y290321D01*
X716124Y289401D01*
X717550Y289019D01*
Y294640D01*
D02*
G37*
G36*
X157347Y330835D02*
X155073D01*
X152973Y329965D01*
X151365Y328357D01*
X150495Y326257D01*
Y323983D01*
X151365Y321883D01*
X152973Y320275D01*
X155073Y319405D01*
X155723D01*
X167590Y307537D01*
Y297213D01*
X166943Y296945D01*
X165335Y295337D01*
X164465Y293237D01*
Y290963D01*
X165335Y288863D01*
X166943Y287255D01*
X169043Y286385D01*
X171317D01*
X173417Y287255D01*
X175025Y288863D01*
X175895Y290963D01*
Y293237D01*
X175025Y295337D01*
X173417Y296945D01*
X172770Y297213D01*
Y308610D01*
X172573Y309601D01*
X172011Y310441D01*
X160812Y321640D01*
X161055Y321883D01*
X161925Y323983D01*
Y326257D01*
X161055Y328357D01*
X159447Y329965D01*
X157347Y330835D01*
D02*
G37*
G36*
X853325Y300870D02*
X851015D01*
X848785Y300272D01*
X846785Y299118D01*
X845152Y297485D01*
X843998Y295485D01*
X843400Y293255D01*
Y290945D01*
X843998Y288715D01*
X845152Y286715D01*
X846785Y285082D01*
X848785Y283928D01*
X851015Y283330D01*
X853325D01*
X855555Y283928D01*
X857555Y285082D01*
X859188Y286715D01*
X860342Y288715D01*
X860940Y290945D01*
Y293255D01*
X860342Y295485D01*
X859188Y297485D01*
X857555Y299118D01*
X855555Y300272D01*
X853325Y300870D01*
D02*
G37*
G36*
X655187Y282575D02*
X652913D01*
X650813Y281705D01*
X649205Y280097D01*
X648937Y279450D01*
X627413D01*
X627145Y280097D01*
X625537Y281705D01*
X623437Y282575D01*
X621163D01*
X619063Y281705D01*
X617455Y280097D01*
X616585Y277997D01*
Y275723D01*
X617455Y273623D01*
X619063Y272015D01*
X621163Y271145D01*
X623437D01*
X625537Y272015D01*
X627145Y273623D01*
X627413Y274270D01*
X648937D01*
X649205Y273623D01*
X650813Y272015D01*
X652913Y271145D01*
X655187D01*
X657287Y272015D01*
X658895Y273623D01*
X659765Y275723D01*
Y277997D01*
X658895Y280097D01*
X657287Y281705D01*
X655187Y282575D01*
D02*
G37*
G36*
X36830Y278671D02*
Y273050D01*
X42451D01*
X42069Y274476D01*
X41149Y276069D01*
X39849Y277369D01*
X38256Y278289D01*
X36830Y278671D01*
D02*
G37*
G36*
X34290D02*
X32864Y278289D01*
X31271Y277369D01*
X29971Y276069D01*
X29051Y274476D01*
X28669Y273050D01*
X34290D01*
Y278671D01*
D02*
G37*
G36*
X801939Y297180D02*
X798261D01*
X794708Y296228D01*
X791522Y294389D01*
X788921Y291788D01*
X787082Y288602D01*
X786130Y285049D01*
Y281371D01*
X787082Y277818D01*
X788921Y274632D01*
X791522Y272031D01*
X794708Y270192D01*
X798261Y269240D01*
X801939D01*
X805492Y270192D01*
X808678Y272031D01*
X811279Y274632D01*
X813118Y277818D01*
X814070Y281371D01*
Y285049D01*
X813118Y288602D01*
X811279Y291788D01*
X808678Y294389D01*
X805492Y296228D01*
X801939Y297180D01*
D02*
G37*
G36*
X310449D02*
X306771D01*
X303218Y296228D01*
X300032Y294389D01*
X297431Y291788D01*
X295592Y288602D01*
X294640Y285049D01*
Y281371D01*
X295592Y277818D01*
X297431Y274632D01*
X300032Y272031D01*
X303218Y270192D01*
X306771Y269240D01*
X310449D01*
X314002Y270192D01*
X317188Y272031D01*
X319789Y274632D01*
X321628Y277818D01*
X322580Y281371D01*
Y285049D01*
X321628Y288602D01*
X319789Y291788D01*
X317188Y294389D01*
X314002Y296228D01*
X310449Y297180D01*
D02*
G37*
G36*
X42451Y270510D02*
X36830D01*
Y264889D01*
X38256Y265271D01*
X39849Y266191D01*
X41149Y267491D01*
X42069Y269084D01*
X42451Y270510D01*
D02*
G37*
G36*
X34290D02*
X28669D01*
X29051Y269084D01*
X29971Y267491D01*
X31271Y266191D01*
X32864Y265271D01*
X34290Y264889D01*
Y270510D01*
D02*
G37*
%LPD*%
G36*
X708895Y610173D02*
X710503Y608565D01*
X712497Y607739D01*
X712663Y607375D01*
X712842Y606425D01*
X711410Y604993D01*
X710972Y603935D01*
X679746D01*
X679215Y605217D01*
X677607Y606825D01*
X675507Y607695D01*
X673233D01*
X672525Y607402D01*
X671805Y608478D01*
X672230Y608903D01*
X672761Y610185D01*
X708890D01*
X708895Y610173D01*
D02*
G37*
D12*
X542925Y344170D02*
X543560D01*
X542290D02*
X542925D01*
X646430Y394970D02*
X669290D01*
X772160Y519430D02*
Y557530D01*
Y519430D02*
X775970Y515620D01*
X786130Y523240D02*
Y558800D01*
Y523240D02*
X789940Y519430D01*
X801370Y520700D02*
Y554990D01*
Y520700D02*
X802640Y519430D01*
X821690Y543560D02*
Y554990D01*
Y543560D02*
X845820Y519430D01*
X847090Y698500D02*
X867410Y678180D01*
X835660Y698500D02*
X847090D01*
X715943Y621085D02*
X726440Y610588D01*
Y593090D02*
Y610588D01*
X737870Y593090D02*
Y610870D01*
X718820Y629920D02*
X737870Y610870D01*
X708660Y622300D02*
X709875Y621085D01*
X715943D01*
X715844Y601345D02*
X716255Y601756D01*
X675005Y601345D02*
X715844D01*
X121920Y408940D02*
X138430Y392430D01*
X156210Y322580D02*
X170180Y308610D01*
Y292100D02*
Y308610D01*
X17780Y339090D02*
Y376908D01*
X32032Y391160D01*
X64770D01*
X26670Y355600D02*
Y375920D01*
X39370Y355600D02*
Y375920D01*
X679445Y711195D02*
X686786Y703854D01*
X707420D01*
X712470Y697230D02*
Y698804D01*
X707420Y703854D02*
X712470Y698804D01*
X674370Y601980D02*
X675005Y601345D01*
X667385Y612140D02*
X668020Y612775D01*
X713105D01*
X730250Y473710D02*
X753110D01*
X622300Y276860D02*
X654050D01*
X664415Y437085D02*
Y440895D01*
X654050Y426720D02*
X664415Y437085D01*
Y440895D02*
X675640Y452120D01*
X713105Y612775D02*
X713740Y613410D01*
X695960Y452120D02*
X703580Y459740D01*
X675640Y452120D02*
X695960D01*
X473075Y601345D02*
X473710Y600710D01*
X473075Y601345D02*
Y626745D01*
X472440Y627380D02*
X473075Y626745D01*
D42*
X802820Y641375D02*
D03*
Y655375D02*
D03*
Y627374D02*
D03*
X788820Y655375D02*
D03*
Y641375D02*
D03*
Y627374D02*
D03*
X809820Y648374D02*
D03*
Y634375D02*
D03*
X795820Y648374D02*
D03*
Y634375D02*
D03*
X781820Y648374D02*
D03*
Y634375D02*
D03*
D48*
X308610Y283210D02*
D03*
Y722630D02*
D03*
X800100Y283210D02*
D03*
D49*
X858520Y488950D02*
D03*
X44450Y712470D02*
D03*
X39370Y447040D02*
D03*
X852170Y292100D02*
D03*
D50*
X642620Y344170D02*
X675640D01*
X523240Y363220D02*
X542290Y344170D01*
D52*
X824735Y325120D02*
D03*
Y350520D02*
D03*
Y375920D02*
D03*
Y401320D02*
D03*
Y426720D02*
D03*
Y452120D02*
D03*
Y477520D02*
D03*
Y502920D02*
D03*
D53*
X66548Y416560D02*
D03*
X79248D02*
D03*
X66548Y403860D02*
D03*
X79248D02*
D03*
X66548Y391160D02*
D03*
X79248D02*
D03*
X66548Y378460D02*
D03*
X79248D02*
D03*
Y365760D02*
D03*
D54*
X66548D02*
D03*
D55*
X484830Y697770D02*
D03*
X427030D02*
D03*
D56*
X499180Y692970D02*
D03*
D57*
Y734770D02*
D03*
X412680D02*
D03*
Y692970D02*
D03*
D58*
X796290Y666750D02*
D03*
X675640Y344170D02*
D03*
X642620D02*
D03*
X542925D02*
D03*
X796290Y350520D02*
D03*
X669290Y394970D02*
D03*
X646430D02*
D03*
X523240Y363220D02*
D03*
X803910Y427990D02*
D03*
X777240Y514350D02*
D03*
X791210Y518160D02*
D03*
X802640D02*
D03*
X845820Y519430D02*
D03*
X772160Y557530D02*
D03*
X786130Y558800D02*
D03*
X801370Y554990D02*
D03*
X821690D02*
D03*
X871220Y676910D02*
D03*
X835660Y698500D02*
D03*
X726440Y593090D02*
D03*
X737870D02*
D03*
X716255Y601756D02*
D03*
X718820Y629920D02*
D03*
X708660Y622300D02*
D03*
X635000Y453390D02*
D03*
X120650Y410210D02*
D03*
X138430Y392430D02*
D03*
X156210Y325120D02*
D03*
X170180Y292100D02*
D03*
X17780Y339090D02*
D03*
X39370Y375920D02*
D03*
Y355600D02*
D03*
X26670D02*
D03*
Y375920D02*
D03*
X828040Y739140D02*
D03*
X872490Y694690D02*
D03*
X712470Y697230D02*
D03*
X674370Y601980D02*
D03*
X667385Y612140D02*
D03*
X679445Y711195D02*
D03*
X609600Y698500D02*
D03*
X638810Y603250D02*
D03*
X872755Y564885D02*
D03*
X730250Y473710D02*
D03*
X753110D02*
D03*
X622300Y276860D02*
D03*
X654050D02*
D03*
X670560Y410210D02*
D03*
X654050Y426720D02*
D03*
X718820Y295910D02*
D03*
X798830Y311150D02*
D03*
X675640Y452120D02*
D03*
X703580Y459740D02*
D03*
X35560Y271780D02*
D03*
X713740Y613410D02*
D03*
X542290Y516890D02*
D03*
X541020Y712470D02*
D03*
X539770Y593070D02*
D03*
X535940Y646430D02*
D03*
X497840Y455930D02*
D03*
X384810Y499110D02*
D03*
X467360D02*
D03*
X431800Y541020D02*
D03*
X387604Y642366D02*
D03*
X510540Y610870D02*
D03*
X472440Y627380D02*
D03*
X473710Y600710D02*
D03*
M02*
