M48
;Layer_Color=9474304
;FILE_FORMAT=4:4
METRIC,LZ
;TYPE=PLATED
T01F00S00C0.2000
T02F00S00C0.5080
T04F00S00C0.7000
T05F00S00C1.1000
T06F00S00C1.5000
T07F00S00C2.5400
;TYPE=NON_PLATED
T08F00S00C0.6500
%
T01
X0080282Y00627374
Y00641375
X0080982Y00634375
Y00648374
X0080282Y00655375
X0079582Y00648374
Y00634375
X0078882Y00641375
Y00655375
X0078182Y00648374
Y00634375
X0078882Y00627374
T02
X0003556Y0027178
X0001778Y0033909
X0002667Y003556
X0003937
Y0037592
X0002667
X0013843Y0039243
X0015621Y0032512
X0017018Y002921
X0052324Y0036322
X00542925Y0034417
X0064262
X0067564
X0066929Y0039497
X0064643
X0065405Y0027686
X006223
X0071882Y0029591
X0079883Y0031115
X0079629Y0035052
X0080391Y0042799
X0080264Y0051816
X0080137Y0055499
X0082169
X0084582Y0051943
X00872755Y00564885
X0087122Y0067691
X0087249Y0069469
X0083566Y006985
X0082804Y0073914
X0079629Y0066675
X0071882Y0062992
X0070866Y006223
X0071374Y0061341
X00716255Y00601756
X0072644Y0059309
X0073787
X0077216Y0055753
X0078613Y005588
X0079121Y0051816
X0077724Y0051435
X0075311Y0047371
X0073025
X0070358Y0045974
X0067564Y0045212
X00635Y0045339
X0065405Y0042672
X0067056Y0041021
X0067437Y0060198
X00667385Y0061214
X0063881Y0060325
X0053977Y0059307
X0051054Y0061087
X0047371Y0060071
X0047244Y0062738
X0053594Y0064643
X0054102Y0071247
X006096Y006985
X00679445Y00711195
X0071247Y0069723
X0054229Y0051689
X0046736Y0049911
X0049784Y0045593
X004318Y0054102
X0038481Y0049911
X00387604Y00642366
X0012065Y0041021
T04
X00066548Y0036576
Y0037846
Y0039116
X00079248
Y0037846
Y0036576
Y0040386
Y0041656
X00066548
Y0040386
T05
X00824735Y0032512
Y0035052
Y0037592
Y0040132
Y0042672
Y0045212
Y0047752
Y0050292
T06
X0085217Y002921
X0085852Y0048895
X0003937Y0044704
X0004445Y0071247
T07
X0030861Y0028321
X008001
X0030861Y0072263
T08
X0042703Y0069777
X0048483
M30
