G04*
G04 #@! TF.GenerationSoftware,Altium Limited,Altium Designer,24.2.2 (26)*
G04*
G04 Layer_Color=8421504*
%FSLAX44Y44*%
%MOMM*%
G71*
G04*
G04 #@! TF.SameCoordinates,46537A69-6C61-4849-90A4-6659EB9BC9F3*
G04*
G04*
G04 #@! TF.FilePolarity,Positive*
G04*
G01*
G75*
%ADD16C,1.5500*%
%ADD17R,1.1176X1.8034*%
%ADD18R,0.9000X0.9000*%
%ADD19R,0.9000X1.5000*%
%ADD20R,1.5000X0.9000*%
G04:AMPARAMS|DCode=21|XSize=0.6mm|YSize=1.35mm|CornerRadius=0.045mm|HoleSize=0mm|Usage=FLASHONLY|Rotation=270.000|XOffset=0mm|YOffset=0mm|HoleType=Round|Shape=RoundedRectangle|*
%AMROUNDEDRECTD21*
21,1,0.6000,1.2600,0,0,270.0*
21,1,0.5100,1.3500,0,0,270.0*
1,1,0.0900,-0.6300,-0.2550*
1,1,0.0900,-0.6300,0.2550*
1,1,0.0900,0.6300,0.2550*
1,1,0.0900,0.6300,-0.2550*
%
%ADD21ROUNDEDRECTD21*%
%ADD22R,0.3000X1.1400*%
%ADD23R,1.2000X1.5000*%
%ADD24R,1.5000X1.2000*%
%ADD25R,1.8034X1.1176*%
%ADD26R,1.6000X0.7000*%
G04:AMPARAMS|DCode=27|XSize=0.71mm|YSize=0.53mm|CornerRadius=0.0663mm|HoleSize=0mm|Usage=FLASHONLY|Rotation=0.000|XOffset=0mm|YOffset=0mm|HoleType=Round|Shape=RoundedRectangle|*
%AMROUNDEDRECTD27*
21,1,0.7100,0.3975,0,0,0.0*
21,1,0.5775,0.5300,0,0,0.0*
1,1,0.1325,0.2888,-0.1988*
1,1,0.1325,-0.2888,-0.1988*
1,1,0.1325,-0.2888,0.1988*
1,1,0.1325,0.2888,0.1988*
%
%ADD27ROUNDEDRECTD27*%
D16*
X858520Y488950D02*
D03*
X44450Y712470D02*
D03*
X39370Y447040D02*
D03*
X852170Y292100D02*
D03*
D17*
X253746Y275179D02*
D03*
X223774D02*
D03*
X148336D02*
D03*
X118364D02*
D03*
X813054Y739140D02*
D03*
X843026D02*
D03*
X620014Y453390D02*
D03*
X649986D02*
D03*
X637286Y276860D02*
D03*
X607314D02*
D03*
X21844Y273050D02*
D03*
X51816D02*
D03*
X653796Y562610D02*
D03*
X623824D02*
D03*
Y603250D02*
D03*
X653796D02*
D03*
X655066Y662940D02*
D03*
X625094D02*
D03*
Y703580D02*
D03*
X655066D02*
D03*
X790956Y439420D02*
D03*
X760984D02*
D03*
X400304Y499110D02*
D03*
X430276D02*
D03*
X770636Y492760D02*
D03*
X740664D02*
D03*
X481584Y499110D02*
D03*
X511556D02*
D03*
X719836Y492760D02*
D03*
X689864D02*
D03*
X749300Y311150D02*
D03*
X779272D02*
D03*
X749554Y349250D02*
D03*
X779526D02*
D03*
D18*
X795820Y641375D02*
D03*
Y655375D02*
D03*
Y627374D02*
D03*
X781820Y655375D02*
D03*
Y641375D02*
D03*
Y627374D02*
D03*
X809820Y655375D02*
D03*
Y641375D02*
D03*
Y627374D02*
D03*
D19*
X873020Y713875D02*
D03*
X860320D02*
D03*
X847620D02*
D03*
X834920D02*
D03*
X822220D02*
D03*
X809520D02*
D03*
X796820D02*
D03*
X784120D02*
D03*
X771420D02*
D03*
X758720D02*
D03*
X746020D02*
D03*
X733320D02*
D03*
X720620D02*
D03*
X707920D02*
D03*
Y538875D02*
D03*
X720620D02*
D03*
X733320D02*
D03*
X746020D02*
D03*
X758720D02*
D03*
X771420D02*
D03*
X784120D02*
D03*
X796820D02*
D03*
X809520D02*
D03*
X822220D02*
D03*
X834920D02*
D03*
X847620D02*
D03*
X860320D02*
D03*
X873020D02*
D03*
D20*
X695420Y696225D02*
D03*
Y683524D02*
D03*
Y670825D02*
D03*
Y658124D02*
D03*
Y645424D02*
D03*
Y632724D02*
D03*
Y620024D02*
D03*
Y607324D02*
D03*
Y594624D02*
D03*
Y581925D02*
D03*
Y569225D02*
D03*
Y556525D02*
D03*
D21*
X446620Y550520D02*
D03*
Y541020D02*
D03*
Y531520D02*
D03*
X470320D02*
D03*
Y550520D02*
D03*
D22*
X458430Y687070D02*
D03*
X463430D02*
D03*
X468430D02*
D03*
X473430D02*
D03*
X478430D02*
D03*
X481430D02*
D03*
X486430D02*
D03*
X489430D02*
D03*
X453430D02*
D03*
X448430D02*
D03*
X443430D02*
D03*
X438430D02*
D03*
X433430D02*
D03*
X430430D02*
D03*
X425430D02*
D03*
X422430D02*
D03*
D23*
X587770Y527070D02*
D03*
X557770Y593070D02*
D03*
X587770D02*
D03*
X557770Y527070D02*
D03*
X587770Y646450D02*
D03*
X557770Y712450D02*
D03*
X587770D02*
D03*
X557770Y646450D02*
D03*
D24*
X443230Y453440D02*
D03*
Y427940D02*
D03*
D25*
X453390Y641096D02*
D03*
Y611124D02*
D03*
X476250Y455676D02*
D03*
Y425704D02*
D03*
X494030Y641096D02*
D03*
Y611124D02*
D03*
X410210Y642366D02*
D03*
Y612394D02*
D03*
D26*
X689610Y438150D02*
D03*
Y425450D02*
D03*
Y412750D02*
D03*
Y400050D02*
D03*
D27*
X684840Y310990D02*
D03*
Y300990D02*
D03*
Y290990D02*
D03*
X704540D02*
D03*
Y300990D02*
D03*
Y310990D02*
D03*
M02*
