G04*
G04 #@! TF.GenerationSoftware,Altium Limited,Altium Designer,24.2.2 (26)*
G04*
G04 Layer_Physical_Order=1*
G04 Layer_Color=255*
%FSLAX44Y44*%
%MOMM*%
G71*
G04*
G04 #@! TF.SameCoordinates,46537A69-6C61-4849-90A4-6659EB9BC9F3*
G04*
G04*
G04 #@! TF.FilePolarity,Positive*
G04*
G01*
G75*
%ADD12C,0.2540*%
%ADD17R,1.1176X1.8034*%
%ADD18R,0.9000X0.9000*%
%ADD19R,0.9000X1.5000*%
%ADD20R,1.5000X0.9000*%
G04:AMPARAMS|DCode=21|XSize=0.6mm|YSize=1.35mm|CornerRadius=0.045mm|HoleSize=0mm|Usage=FLASHONLY|Rotation=270.000|XOffset=0mm|YOffset=0mm|HoleType=Round|Shape=RoundedRectangle|*
%AMROUNDEDRECTD21*
21,1,0.6000,1.2600,0,0,270.0*
21,1,0.5100,1.3500,0,0,270.0*
1,1,0.0900,-0.6300,-0.2550*
1,1,0.0900,-0.6300,0.2550*
1,1,0.0900,0.6300,0.2550*
1,1,0.0900,0.6300,-0.2550*
%
%ADD21ROUNDEDRECTD21*%
%ADD22R,0.3000X1.1400*%
%ADD23R,1.2000X1.5000*%
%ADD24R,1.5000X1.2000*%
%ADD25R,1.8034X1.1176*%
%ADD26R,1.6000X0.7000*%
G04:AMPARAMS|DCode=27|XSize=0.71mm|YSize=0.53mm|CornerRadius=0.0663mm|HoleSize=0mm|Usage=FLASHONLY|Rotation=0.000|XOffset=0mm|YOffset=0mm|HoleType=Round|Shape=RoundedRectangle|*
%AMROUNDEDRECTD27*
21,1,0.7100,0.3975,0,0,0.0*
21,1,0.5775,0.5300,0,0,0.0*
1,1,0.1325,0.2888,-0.1988*
1,1,0.1325,-0.2888,-0.1988*
1,1,0.1325,-0.2888,0.1988*
1,1,0.1325,0.2888,0.1988*
%
%ADD27ROUNDEDRECTD27*%
%ADD42C,0.4000*%
%ADD48C,2.5400*%
%ADD49C,1.5000*%
%ADD50C,0.3810*%
%ADD51C,0.2032*%
%ADD52C,1.5240*%
%ADD53C,1.1000*%
%ADD54R,1.1000X1.1000*%
%ADD55C,0.6500*%
%ADD56O,1.0000X2.0000*%
%ADD57O,0.9000X1.8000*%
%ADD58C,0.8890*%
D12*
X795820Y661460D02*
X809820D01*
X795820D02*
Y666280D01*
X796290Y666750D01*
X809820Y648374D02*
Y655375D01*
Y641375D02*
Y648374D01*
X802820Y655375D02*
X809820D01*
X788820D02*
X795820D01*
X781820Y634375D02*
Y640460D01*
Y627374D02*
X788820D01*
X809820Y634375D02*
Y641375D01*
Y627374D02*
Y634375D01*
X802820Y627374D02*
X809820D01*
X795820Y641375D02*
X802820D01*
X795820Y634375D02*
Y640460D01*
Y648374D02*
Y655375D01*
Y641375D02*
Y648374D01*
X788820Y641375D02*
X795820D01*
X760984Y435991D02*
X765302Y431673D01*
X664210Y342900D02*
X695935Y311175D01*
X664210Y374650D02*
X689610Y400050D01*
X664210Y342900D02*
Y374650D01*
X778510Y351246D02*
X779236Y350520D01*
X796290D01*
X750824Y312674D02*
Y350520D01*
X670804Y394970D02*
X675884Y400050D01*
X689610D01*
X669290Y394970D02*
X670804D01*
X577850D02*
X646430D01*
X486410Y303530D02*
X577850Y394970D01*
X654050Y293624D02*
Y426720D01*
X637286Y276860D02*
X654050Y293624D01*
X659130Y412170D02*
X685110Y438150D01*
X659130Y305018D02*
X673158Y290990D01*
X659130Y305018D02*
Y412170D01*
X637286Y273431D02*
Y276860D01*
X443230Y427940D02*
X444730D01*
X803910Y427990D02*
Y429708D01*
X800354Y433264D02*
Y435102D01*
X796036Y439420D02*
X800354Y435102D01*
Y433264D02*
X803910Y429708D01*
X793760Y416550D02*
X809505D01*
X777240Y433070D02*
Y481167D01*
Y433070D02*
X793760Y416550D01*
X777240Y504353D02*
Y514350D01*
Y481167D02*
X778764Y482691D01*
Y502829D01*
X777240Y504353D02*
X778764Y502829D01*
X809505Y416550D02*
X824735Y401320D01*
X791210Y462443D02*
Y518160D01*
Y462443D02*
X824735Y428918D01*
Y426720D02*
Y428918D01*
X802640Y474216D02*
Y518160D01*
Y474216D02*
X824735Y452120D01*
X845820Y498605D02*
Y519430D01*
X824735Y477520D02*
X845820Y498605D01*
X705460Y595020D02*
X742950Y557530D01*
X772160D01*
X709270Y598863D02*
X740739Y567393D01*
X777537D01*
X786130Y558800D01*
X782320Y574040D02*
X801370Y554990D01*
X745490Y574040D02*
X782320D01*
X726440Y593090D02*
X745490Y574040D01*
X705460Y595020D02*
Y600177D01*
X737870Y593090D02*
X783590D01*
X821690Y554990D01*
X871220Y676910D02*
X880060Y668070D01*
Y431245D02*
Y668070D01*
X824735Y375920D02*
X880060Y431245D01*
X797765Y697230D02*
X838200D01*
X784120Y710874D02*
Y713875D01*
Y710874D02*
X797765Y697230D01*
X702438Y603198D02*
X705460Y600177D01*
X702438Y603198D02*
Y603306D01*
X698420Y607324D02*
X702438Y603306D01*
X695420Y607324D02*
X698420D01*
X706248Y604776D02*
Y612196D01*
X709270Y598863D02*
Y601755D01*
X706248Y604776D02*
X709270Y601755D01*
X698420Y620024D02*
X706248Y612196D01*
X695420Y620024D02*
X698420D01*
Y645424D02*
X709637Y634207D01*
X717102Y629920D02*
X718820D01*
X709637Y634207D02*
X712814D01*
X717102Y629920D01*
X698420Y632724D02*
X708660Y622485D01*
Y622300D02*
Y622485D01*
X695420Y632724D02*
X698420D01*
X695420Y645424D02*
X698420D01*
X620014Y453390D02*
X635000D01*
X651256Y452120D02*
X675640D01*
X649986Y453390D02*
X651256Y452120D01*
X574040Y416560D02*
X595630Y438150D01*
X685110D01*
X114300Y416560D02*
X120650Y410210D01*
X77470Y416560D02*
X114300D01*
X156210Y325120D02*
Y374650D01*
X138430Y392430D02*
X156210Y374650D01*
X249428Y282926D02*
X253746Y278608D01*
X234224Y282926D02*
X249428D01*
X225050Y292100D02*
X234224Y282926D01*
X253746Y275179D02*
Y278608D01*
X170180Y292100D02*
X225050D01*
X55861Y311785D02*
X485775D01*
X33020Y334626D02*
Y349250D01*
X81691Y275179D02*
X118364D01*
X26670Y335588D02*
Y355600D01*
X58728Y303530D02*
X486410D01*
X26670Y335588D02*
X58728Y303530D01*
X33020Y334626D02*
X55861Y311785D01*
X17780Y339090D02*
X81691Y275179D01*
X8890Y302451D02*
Y341630D01*
X12280Y345020D01*
Y361996D01*
X34290Y382514D02*
X39370Y377434D01*
Y375920D02*
Y377434D01*
X34290Y382514D02*
Y397510D01*
X33020Y349250D02*
X39370Y355600D01*
X40640Y403860D02*
X64770D01*
X34290Y397510D02*
X40640Y403860D01*
X26670Y375920D02*
Y407670D01*
X35560Y416560D01*
X64770D01*
X12280Y361996D02*
X16044Y365760D01*
X77470D01*
X809820Y655375D02*
Y661460D01*
X788820Y627374D02*
X795820D01*
X802820D01*
X795820Y655375D02*
Y661460D01*
X781820Y655375D02*
Y661460D01*
Y641375D02*
Y655375D01*
X813054Y739140D02*
X828040D01*
X843026D02*
X847344Y734822D01*
X860320Y713875D02*
Y716874D01*
X847344Y729850D02*
X860320Y716874D01*
X847344Y729850D02*
Y734822D01*
X822960Y674370D02*
X847620Y699030D01*
Y716960D01*
X774700Y674370D02*
X822960D01*
X683895Y546735D02*
X685670Y544960D01*
X707920D01*
X683895Y546735D02*
Y621284D01*
X872490Y694690D02*
Y719430D01*
X873020Y719960D01*
X717390Y703868D02*
Y716730D01*
X712470Y697230D02*
Y698948D01*
X717390Y703868D01*
Y716730D02*
X720620Y719960D01*
Y716960D02*
Y719960D01*
X8890Y302451D02*
X21940Y289402D01*
X223774Y269621D02*
X230505Y262890D01*
X626745D02*
X637286Y273431D01*
X230505Y262890D02*
X626745D01*
X459740Y589280D02*
X465493Y595033D01*
X459740Y540890D02*
Y589280D01*
X457180Y538330D02*
X459740Y540890D01*
X454685Y534210D02*
X457180Y536706D01*
Y538330D01*
X450370Y531520D02*
X453060Y534210D01*
X454685D01*
X21940Y289402D02*
X25558D01*
X34163Y280797D02*
X47498D01*
X25558Y289402D02*
X34163Y280797D01*
X485775Y311785D02*
X557511Y383521D01*
Y400031D01*
X695935Y298279D02*
X697280Y296934D01*
Y295860D02*
Y296934D01*
X703160Y292370D02*
X704540Y290990D01*
X689580Y297450D02*
X692200Y294830D01*
X685740Y300990D02*
X689280Y297450D01*
X695935Y298279D02*
Y311175D01*
X697280Y295860D02*
X700770Y292370D01*
X692200Y292130D02*
X699800Y284530D01*
X692200Y292130D02*
Y294830D01*
X689280Y297450D02*
X689580D01*
X700770Y292370D02*
X703160D01*
X704186Y281940D02*
X716524D01*
X701596Y284530D02*
X704186Y281940D01*
X659130D02*
X704186D01*
X699800Y284530D02*
X701596D01*
X716524Y281940D02*
X737987Y303403D01*
X654050Y276860D02*
X659130Y281940D01*
X673158Y290990D02*
X684840D01*
X666805Y611560D02*
X667385Y612140D01*
X655066Y650113D02*
X683895Y621284D01*
X629412Y655193D02*
X641477D01*
X666805Y606615D02*
Y611560D01*
X655066Y650113D02*
Y662940D01*
X679445Y711195D02*
X680720Y712470D01*
X678170Y709920D02*
X679445Y711195D01*
X666923Y709920D02*
X678170D01*
X614680Y703580D02*
X625094D01*
X609600Y698500D02*
X614680Y703580D01*
X587770Y712450D02*
X614208D01*
X632260Y716407D02*
X634492Y714175D01*
Y712379D02*
X636814Y710057D01*
X615696Y714175D02*
X617928Y716407D01*
X632260D01*
X614208Y712450D02*
X615696Y713938D01*
Y714175D01*
X634492Y712379D02*
Y714175D01*
X664464Y712379D02*
X666923Y709920D01*
X662232Y716407D02*
X664464Y714175D01*
X660436Y716407D02*
X662232D01*
X523656Y706780D02*
X542046Y725170D01*
X651673D01*
X539941Y730250D02*
X655573D01*
X651673Y725170D02*
X660436Y716407D01*
X664464Y712379D02*
Y714175D01*
X521552Y711860D02*
X539941Y730250D01*
X655573D02*
X665863Y719960D01*
X707920D01*
X623824Y603250D02*
X638810D01*
X873020Y544960D02*
Y564620D01*
X872490Y565150D02*
X873020Y564620D01*
X781820Y661460D02*
X795820D01*
X713740Y613410D02*
X774700Y674370D01*
X770636Y489331D02*
Y492760D01*
X755015Y473710D02*
X770636Y489331D01*
X753110Y473710D02*
X755015D01*
X719836D02*
Y492760D01*
Y451176D02*
Y473710D01*
X730250D01*
X607314Y276860D02*
X622300D01*
X148336Y273050D02*
X223774D01*
Y269621D02*
Y273050D01*
X684840Y300990D02*
X685740D01*
X737987Y303403D02*
X744982D01*
X749300Y307721D01*
Y311150D01*
X750824Y312674D01*
X673100Y412750D02*
X689610D01*
X670560Y410210D02*
X673100Y412750D01*
X704540Y300990D02*
X713740D01*
X718820Y295910D01*
X779272Y311150D02*
X798830D01*
X625094Y659511D02*
Y662940D01*
Y659511D02*
X629412Y655193D01*
X653796Y603250D02*
X663440D01*
X666805Y606615D01*
X587770Y646450D02*
X618230Y676910D01*
X641096D02*
X655066Y662940D01*
X618230Y676910D02*
X641096D01*
X712144Y451176D02*
X719836D01*
X703580Y459740D02*
X712144Y451176D01*
X694110Y425450D02*
X719836Y451176D01*
X689610Y425450D02*
X694110D01*
X51816Y273050D02*
Y276479D01*
X47498Y280797D02*
X51816Y276479D01*
X23114Y271780D02*
X35560D01*
X21844Y273050D02*
X23114Y271780D01*
X557511Y400031D02*
X574040Y416560D01*
X685110Y438150D02*
X689610D01*
Y400050D02*
X694110D01*
X740664Y446604D02*
Y492760D01*
X694110Y400050D02*
X740664Y446604D01*
X689864Y438404D02*
Y492760D01*
X689610Y438150D02*
X689864Y438404D01*
X511556Y495681D02*
Y499110D01*
X689864Y496189D02*
X720620Y526945D01*
Y544960D01*
X689864Y492760D02*
Y496189D01*
X733320Y503533D02*
Y544960D01*
Y503533D02*
X740664Y496189D01*
Y492760D02*
Y496189D01*
X655066Y703580D02*
Y705739D01*
Y662940D02*
Y703580D01*
X481752Y711860D02*
X521552D01*
X463550Y699770D02*
X476846D01*
X453390Y704850D02*
X458430Y699810D01*
X476846Y699770D02*
X483856Y706780D01*
X523656D01*
X636814Y710057D02*
X650748D01*
X655066Y705739D01*
X453390Y704850D02*
X474742D01*
X481752Y711860D01*
X587770Y528570D02*
X592500Y533300D01*
X594514D01*
X616077Y554863D01*
X619506D02*
X623824Y559181D01*
Y562610D01*
X587770Y527070D02*
Y528570D01*
X616077Y554863D02*
X619506D01*
X649478Y591693D02*
Y598932D01*
X653796Y603250D01*
X623824Y562610D02*
Y566039D01*
X649478Y591693D01*
X603023Y586840D02*
X623824Y566039D01*
X587770Y591570D02*
Y593070D01*
Y591570D02*
X592500Y586840D01*
X603023D01*
X448430Y699890D02*
X453390Y704850D01*
X422430Y682870D02*
X424580Y680720D01*
X422430Y682870D02*
Y687070D01*
X424580Y680720D02*
X424715D01*
X412680Y690218D02*
Y692970D01*
X415828Y687070D02*
X422430D01*
X412680Y690218D02*
X415828Y687070D01*
X487280Y680720D02*
X489430Y682870D01*
Y687070D01*
X486510Y680720D02*
X487280D01*
X489430Y687070D02*
X495734D01*
X499180Y690516D01*
Y692970D01*
X546240Y520840D02*
X553040D01*
X557770Y525570D02*
Y527070D01*
X553040Y520840D02*
X557770Y525570D01*
X542290Y516890D02*
X546240Y520840D01*
X539770Y593070D02*
X557770D01*
X539750Y593090D02*
X539770Y593070D01*
X538480Y646430D02*
X538500Y646450D01*
X557770D01*
X541020Y712470D02*
X541040Y712450D01*
X557770D01*
X430276Y495681D02*
Y499110D01*
X444730Y453440D02*
X468148Y430022D01*
X471932D01*
X476250Y425704D01*
X443230Y453440D02*
X444730D01*
X476250Y455676D02*
X497586D01*
X497840Y455930D01*
X384810Y499110D02*
X400304D01*
X467360D02*
X481584D01*
X431800Y541020D02*
X446620D01*
X430276Y499110D02*
Y502539D01*
X387350Y642620D02*
X387604Y642366D01*
X410210D01*
X494030Y611124D02*
X510286D01*
X510540Y610870D01*
X470535Y627380D02*
X472440D01*
X453390Y641096D02*
X456819D01*
X470535Y627380D01*
X467713Y595033D02*
X473391Y600710D01*
X473710D01*
X465493Y595033D02*
X467713D01*
X446620Y531520D02*
X450370D01*
X511556Y499110D02*
X511810Y499364D01*
X450370Y550520D02*
X453390Y553540D01*
X446620Y550520D02*
X450370D01*
X481430Y676810D02*
Y687070D01*
X430430Y679232D02*
Y687070D01*
X431918Y680720D02*
X433070D01*
X430430Y679232D02*
X431918Y680720D01*
X449072Y606806D02*
X453390Y611124D01*
X478430Y687070D02*
X481430D01*
X438430Y637185D02*
Y687070D01*
X413639Y612394D02*
X438430Y637185D01*
X410210Y612394D02*
X413639D01*
X468430Y663267D02*
Y687070D01*
Y663267D02*
X490601Y641096D01*
X494030D01*
D17*
X253746Y275179D02*
D03*
X223774D02*
D03*
X148336D02*
D03*
X118364D02*
D03*
X813054Y739140D02*
D03*
X843026D02*
D03*
X620014Y453390D02*
D03*
X649986D02*
D03*
X637286Y276860D02*
D03*
X607314D02*
D03*
X21844Y273050D02*
D03*
X51816D02*
D03*
X653796Y562610D02*
D03*
X623824D02*
D03*
Y603250D02*
D03*
X653796D02*
D03*
X655066Y662940D02*
D03*
X625094D02*
D03*
Y703580D02*
D03*
X655066D02*
D03*
X790956Y439420D02*
D03*
X760984D02*
D03*
X400304Y499110D02*
D03*
X430276D02*
D03*
X770636Y492760D02*
D03*
X740664D02*
D03*
X481584Y499110D02*
D03*
X511556D02*
D03*
X719836Y492760D02*
D03*
X689864D02*
D03*
X749300Y311150D02*
D03*
X779272D02*
D03*
X749554Y349250D02*
D03*
X779526D02*
D03*
D18*
X795820Y641375D02*
D03*
Y655375D02*
D03*
Y627374D02*
D03*
X781820Y655375D02*
D03*
Y641375D02*
D03*
Y627374D02*
D03*
X809820Y655375D02*
D03*
Y641375D02*
D03*
Y627374D02*
D03*
D19*
X873020Y713875D02*
D03*
X860320D02*
D03*
X847620D02*
D03*
X834920D02*
D03*
X822220D02*
D03*
X809520D02*
D03*
X796820D02*
D03*
X784120D02*
D03*
X771420D02*
D03*
X758720D02*
D03*
X746020D02*
D03*
X733320D02*
D03*
X720620D02*
D03*
X707920D02*
D03*
Y538875D02*
D03*
X720620D02*
D03*
X733320D02*
D03*
X746020D02*
D03*
X758720D02*
D03*
X771420D02*
D03*
X784120D02*
D03*
X796820D02*
D03*
X809520D02*
D03*
X822220D02*
D03*
X834920D02*
D03*
X847620D02*
D03*
X860320D02*
D03*
X873020D02*
D03*
D20*
X695420Y696225D02*
D03*
Y683524D02*
D03*
Y670825D02*
D03*
Y658124D02*
D03*
Y645424D02*
D03*
Y632724D02*
D03*
Y620024D02*
D03*
Y607324D02*
D03*
Y594624D02*
D03*
Y581925D02*
D03*
Y569225D02*
D03*
Y556525D02*
D03*
D21*
X446620Y550520D02*
D03*
Y541020D02*
D03*
Y531520D02*
D03*
X470320D02*
D03*
Y550520D02*
D03*
D22*
X458430Y687070D02*
D03*
X463430D02*
D03*
X468430D02*
D03*
X473430D02*
D03*
X478430D02*
D03*
X481430D02*
D03*
X486430D02*
D03*
X489430D02*
D03*
X453430D02*
D03*
X448430D02*
D03*
X443430D02*
D03*
X438430D02*
D03*
X433430D02*
D03*
X430430D02*
D03*
X425430D02*
D03*
X422430D02*
D03*
D23*
X587770Y527070D02*
D03*
X557770Y593070D02*
D03*
X587770D02*
D03*
X557770Y527070D02*
D03*
X587770Y646450D02*
D03*
X557770Y712450D02*
D03*
X587770D02*
D03*
X557770Y646450D02*
D03*
D24*
X443230Y453440D02*
D03*
Y427940D02*
D03*
D25*
X453390Y641096D02*
D03*
Y611124D02*
D03*
X476250Y455676D02*
D03*
Y425704D02*
D03*
X494030Y641096D02*
D03*
Y611124D02*
D03*
X410210Y642366D02*
D03*
Y612394D02*
D03*
D26*
X689610Y438150D02*
D03*
Y425450D02*
D03*
Y412750D02*
D03*
Y400050D02*
D03*
D27*
X684840Y310990D02*
D03*
Y300990D02*
D03*
Y290990D02*
D03*
X704540D02*
D03*
Y300990D02*
D03*
Y310990D02*
D03*
D42*
X802820Y641375D02*
D03*
Y655375D02*
D03*
Y627374D02*
D03*
X788820Y655375D02*
D03*
Y641375D02*
D03*
Y627374D02*
D03*
X809820Y648374D02*
D03*
Y634375D02*
D03*
X795820Y648374D02*
D03*
Y634375D02*
D03*
X781820Y648374D02*
D03*
Y634375D02*
D03*
D48*
X308610Y283210D02*
D03*
Y722630D02*
D03*
X800100Y283210D02*
D03*
D49*
X858520Y488950D02*
D03*
X44450Y712470D02*
D03*
X39370Y447040D02*
D03*
X852170Y292100D02*
D03*
D50*
X765302Y431673D02*
X805815Y391160D01*
Y369440D02*
Y391160D01*
X758403Y426933D02*
Y433410D01*
X760984Y435991D01*
X675640Y344170D02*
X758403Y426933D01*
X760984Y435991D02*
Y439420D01*
X542925Y344170D02*
X642620D01*
X805815Y369440D02*
X824735Y350520D01*
X497840Y388620D02*
X523240Y363220D01*
X484050Y388620D02*
X497840D01*
X444730Y427940D02*
X484050Y388620D01*
X716255Y601756D02*
X758193D01*
X759239Y600710D01*
X798830D01*
X77470Y365760D02*
X93980D01*
X166370Y438150D02*
X420370D01*
X93980Y365760D02*
X166370Y438150D01*
X860320Y662200D02*
Y713875D01*
X798830Y600710D02*
X860320Y662200D01*
X653796Y581719D02*
X676275Y604198D01*
Y620395D01*
X641477Y655193D02*
X676275Y620395D01*
X653796Y562610D02*
Y581719D01*
X631190Y496570D02*
Y499110D01*
Y496570D02*
X675640Y452120D01*
X631190Y499110D02*
X653796Y521716D01*
Y562610D01*
X511556Y499110D02*
X631190D01*
X420370Y485775D02*
X430276Y495681D01*
X420370Y438150D02*
Y485775D01*
X430580Y427940D02*
X443230D01*
X420370Y438150D02*
X430580Y427940D01*
X422910Y509905D02*
X430276Y502539D01*
X422910Y509905D02*
Y546100D01*
X427330Y550520D02*
X446620D01*
X422910Y546100D02*
X427330Y550520D01*
X471696Y611124D02*
X484142Y623570D01*
X453390Y611124D02*
X471696D01*
X484142Y623570D02*
X497840D01*
X511810Y499364D02*
Y529590D01*
X470320Y550520D02*
X490880D01*
X511810Y529590D01*
X453390Y553540D02*
Y611124D01*
X396240Y606679D02*
Y617519D01*
Y606679D02*
X404342Y598577D01*
X396240Y617519D02*
X399878Y621157D01*
X404342Y598577D02*
X415933D01*
X424162Y606806D01*
X399878Y621157D02*
X410337D01*
X430430Y641250D02*
Y679232D01*
X410337Y621157D02*
X430430Y641250D01*
X497840Y623570D02*
X509270Y635000D01*
Y648970D01*
X481430Y676810D02*
X509270Y648970D01*
X424162Y606806D02*
X449072D01*
D51*
X455930Y675640D02*
X461010D01*
X463550Y678180D02*
Y699770D01*
X461010Y675640D02*
X463550Y678180D01*
X453390D02*
Y687030D01*
X453430Y687070D01*
X453390Y678180D02*
X455930Y675640D01*
X458430Y687070D02*
Y699810D01*
X448430Y687070D02*
Y699890D01*
D52*
X824735Y325120D02*
D03*
Y350520D02*
D03*
Y375920D02*
D03*
Y401320D02*
D03*
Y426720D02*
D03*
Y452120D02*
D03*
Y477520D02*
D03*
Y502920D02*
D03*
D53*
X66548Y416560D02*
D03*
X79248D02*
D03*
X66548Y403860D02*
D03*
X79248D02*
D03*
X66548Y391160D02*
D03*
X79248D02*
D03*
X66548Y378460D02*
D03*
X79248D02*
D03*
Y365760D02*
D03*
D54*
X66548D02*
D03*
D55*
X484830Y697770D02*
D03*
X427030D02*
D03*
D56*
X499180Y692970D02*
D03*
D57*
Y734770D02*
D03*
X412680D02*
D03*
Y692970D02*
D03*
D58*
X796290Y666750D02*
D03*
X675640Y344170D02*
D03*
X642620D02*
D03*
X542925D02*
D03*
X796290Y350520D02*
D03*
X669290Y394970D02*
D03*
X646430D02*
D03*
X523240Y363220D02*
D03*
X803910Y427990D02*
D03*
X777240Y514350D02*
D03*
X791210Y518160D02*
D03*
X802640D02*
D03*
X845820Y519430D02*
D03*
X772160Y557530D02*
D03*
X786130Y558800D02*
D03*
X801370Y554990D02*
D03*
X821690D02*
D03*
X871220Y676910D02*
D03*
X835660Y698500D02*
D03*
X726440Y593090D02*
D03*
X737870D02*
D03*
X716255Y601756D02*
D03*
X718820Y629920D02*
D03*
X708660Y622300D02*
D03*
X635000Y453390D02*
D03*
X120650Y410210D02*
D03*
X138430Y392430D02*
D03*
X156210Y325120D02*
D03*
X170180Y292100D02*
D03*
X17780Y339090D02*
D03*
X39370Y375920D02*
D03*
Y355600D02*
D03*
X26670D02*
D03*
Y375920D02*
D03*
X828040Y739140D02*
D03*
X872490Y694690D02*
D03*
X712470Y697230D02*
D03*
X674370Y601980D02*
D03*
X667385Y612140D02*
D03*
X679445Y711195D02*
D03*
X609600Y698500D02*
D03*
X638810Y603250D02*
D03*
X872755Y564885D02*
D03*
X730250Y473710D02*
D03*
X753110D02*
D03*
X622300Y276860D02*
D03*
X654050D02*
D03*
X670560Y410210D02*
D03*
X654050Y426720D02*
D03*
X718820Y295910D02*
D03*
X798830Y311150D02*
D03*
X675640Y452120D02*
D03*
X703580Y459740D02*
D03*
X35560Y271780D02*
D03*
X713740Y613410D02*
D03*
X542290Y516890D02*
D03*
X541020Y712470D02*
D03*
X539770Y593070D02*
D03*
X535940Y646430D02*
D03*
X497840Y455930D02*
D03*
X384810Y499110D02*
D03*
X467360D02*
D03*
X431800Y541020D02*
D03*
X387604Y642366D02*
D03*
X510540Y610870D02*
D03*
X472440Y627380D02*
D03*
X473710Y600710D02*
D03*
M02*
