G04*
G04 #@! TF.GenerationSoftware,Altium Limited,Altium Designer,24.2.2 (26)*
G04*
G04 Layer_Color=16711935*
%FSLAX44Y44*%
%MOMM*%
G71*
G04*
G04 #@! TF.SameCoordinates,46537A69-6C61-4849-90A4-6659EB9BC9F3*
G04*
G04*
G04 #@! TF.FilePolarity,Negative*
G04*
G01*
G75*
%ADD39C,1.7272*%
%ADD40C,1.3032*%
%ADD41R,1.3032X1.3032*%
%ADD42C,0.4000*%
%ADD43C,0.8532*%
%ADD44O,1.2032X2.2032*%
%ADD45O,1.1032X2.0032*%
%ADD46C,1.0922*%
%ADD47C,2.7432*%
%ADD48C,2.5400*%
%ADD49C,1.5000*%
D39*
X824735Y325120D02*
D03*
Y350520D02*
D03*
Y375920D02*
D03*
Y401320D02*
D03*
Y426720D02*
D03*
Y452120D02*
D03*
Y477520D02*
D03*
Y502920D02*
D03*
D40*
X66548Y416560D02*
D03*
X79248D02*
D03*
X66548Y403860D02*
D03*
X79248D02*
D03*
X66548Y391160D02*
D03*
X79248D02*
D03*
X66548Y378460D02*
D03*
X79248D02*
D03*
Y365760D02*
D03*
D41*
X66548D02*
D03*
D42*
X802820Y641375D02*
D03*
Y655375D02*
D03*
Y627374D02*
D03*
X788820Y655375D02*
D03*
Y641375D02*
D03*
Y627374D02*
D03*
X809820Y648374D02*
D03*
Y634375D02*
D03*
X795820Y648374D02*
D03*
Y634375D02*
D03*
X781820Y648374D02*
D03*
Y634375D02*
D03*
D43*
X484830Y697770D02*
D03*
X427030D02*
D03*
D44*
X499180Y692970D02*
D03*
D45*
Y734770D02*
D03*
X412680D02*
D03*
Y692970D02*
D03*
D46*
X796290Y666750D02*
D03*
X675640Y344170D02*
D03*
X642620D02*
D03*
X542925D02*
D03*
X796290Y350520D02*
D03*
X669290Y394970D02*
D03*
X646430D02*
D03*
X523240Y363220D02*
D03*
X803910Y427990D02*
D03*
X777240Y514350D02*
D03*
X791210Y518160D02*
D03*
X802640D02*
D03*
X845820Y519430D02*
D03*
X772160Y557530D02*
D03*
X786130Y558800D02*
D03*
X801370Y554990D02*
D03*
X821690D02*
D03*
X871220Y676910D02*
D03*
X835660Y698500D02*
D03*
X726440Y593090D02*
D03*
X737870D02*
D03*
X716255Y601756D02*
D03*
X718820Y629920D02*
D03*
X708660Y622300D02*
D03*
X635000Y453390D02*
D03*
X120650Y410210D02*
D03*
X138430Y392430D02*
D03*
X156210Y325120D02*
D03*
X170180Y292100D02*
D03*
X17780Y339090D02*
D03*
X39370Y375920D02*
D03*
Y355600D02*
D03*
X26670D02*
D03*
Y375920D02*
D03*
X828040Y739140D02*
D03*
X872490Y694690D02*
D03*
X712470Y697230D02*
D03*
X674370Y601980D02*
D03*
X667385Y612140D02*
D03*
X679445Y711195D02*
D03*
X609600Y698500D02*
D03*
X638810Y603250D02*
D03*
X872755Y564885D02*
D03*
X730250Y473710D02*
D03*
X753110D02*
D03*
X622300Y276860D02*
D03*
X654050D02*
D03*
X670560Y410210D02*
D03*
X654050Y426720D02*
D03*
X718820Y295910D02*
D03*
X798830Y311150D02*
D03*
X675640Y452120D02*
D03*
X703580Y459740D02*
D03*
X35560Y271780D02*
D03*
X713740Y613410D02*
D03*
X542290Y516890D02*
D03*
X541020Y712470D02*
D03*
X539770Y593070D02*
D03*
X535940Y646430D02*
D03*
X497840Y455930D02*
D03*
X384810Y499110D02*
D03*
X467360D02*
D03*
X431800Y541020D02*
D03*
X387604Y642366D02*
D03*
X510540Y610870D02*
D03*
X472440Y627380D02*
D03*
X473710Y600710D02*
D03*
D47*
X308610Y283210D02*
D03*
D48*
Y722630D02*
D03*
X800100Y283210D02*
D03*
D49*
X858520Y488950D02*
D03*
X44450Y712470D02*
D03*
X39370Y447040D02*
D03*
X852170Y292100D02*
D03*
M02*
