M48
;Layer_Color=9474304
;FILE_FORMAT=2:5
INCH,LZ
;TYPE=PLATED
T3F00S00C0.03150
T6F00S00C0.03937
T10F00S00C0.04724
%
G90
G05
T03
G00X0247355Y002054
M15
G01Y0016209
M16
G00X0247355Y0039241
M15
G01Y003491
M16
G00X0276645Y0039241
M15
G01Y003491
M16
G00X0276645Y002054
M15
G01Y0016209
M16
G00X0039741Y0262855
M15
G01X003541
M16
G00X002104Y0262855
M15
G01X0016709
M16
G00X002104Y0292145
M15
G01X0016709
M16
G00X0039741Y0292145
M15
G01X003541
M16
T06
G00X0306673Y0038307
M15
G01X0300768
M16
G00X0043827Y0311193
M15
G01X0049732
M16
T10
G00X0293878Y0016457
M15
G01Y0023543
M16
G00X03175Y0016457
M15
G01Y0023543
M16
G00X0033Y0333043
M15
G01Y0325957
M16
G00X0056622Y0333043
M15
G01Y0325957
M16
M17
M30
