G04*
G04 #@! TF.GenerationSoftware,Altium Limited,Altium Designer,21.1.1 (26)*
G04*
G04 Layer_Physical_Order=3*
G04 Layer_Color=16440176*
%FSLAX25Y25*%
%MOIN*%
G70*
G04*
G04 #@! TF.SameCoordinates,EDDA1932-7B83-4B75-B1E8-7C0ED368C603*
G04*
G04*
G04 #@! TF.FilePolarity,Positive*
G04*
G01*
G75*
%ADD78C,0.07000*%
%ADD80O,0.07874X0.14961*%
%ADD81O,0.12992X0.07087*%
%ADD83C,0.07874*%
%ADD84C,0.06000*%
%ADD85O,0.04724X0.09449*%
%ADD86C,0.04724*%
%ADD87C,0.06299*%
%ADD88O,0.09449X0.04724*%
%ADD89C,0.02500*%
G36*
X348369Y1631D02*
X1631D01*
Y348369D01*
X348369D01*
Y1631D01*
D02*
G37*
%LPC*%
G36*
X338468Y344553D02*
X337532D01*
X336629Y344311D01*
X335819Y343843D01*
X335157Y343181D01*
X334689Y342371D01*
X334447Y341468D01*
Y340532D01*
X334689Y339629D01*
X335157Y338819D01*
X335819Y338157D01*
X336629Y337689D01*
X337532Y337447D01*
X338468D01*
X339371Y337689D01*
X340181Y338157D01*
X340843Y338819D01*
X341311Y339629D01*
X341553Y340532D01*
Y341468D01*
X341311Y342371D01*
X340843Y343181D01*
X340181Y343843D01*
X339371Y344311D01*
X338468Y344553D01*
D02*
G37*
G36*
X132092Y334000D02*
X132000D01*
Y330000D01*
X136000D01*
Y330092D01*
X135693Y331237D01*
X135101Y332263D01*
X134263Y333101D01*
X133237Y333693D01*
X132092Y334000D01*
D02*
G37*
G36*
X113592D02*
X113500D01*
Y330000D01*
X117500D01*
Y330092D01*
X117193Y331237D01*
X116601Y332263D01*
X115763Y333101D01*
X114737Y333693D01*
X113592Y334000D01*
D02*
G37*
G36*
X33500Y337957D02*
Y330000D01*
X37980D01*
Y333043D01*
X37810Y334332D01*
X37312Y335533D01*
X36521Y336564D01*
X35490Y337356D01*
X34289Y337853D01*
X33500Y337957D01*
D02*
G37*
G36*
X32500D02*
X31711Y337853D01*
X30510Y337356D01*
X29479Y336564D01*
X28688Y335533D01*
X28190Y334332D01*
X28020Y333043D01*
Y330000D01*
X32500D01*
Y337957D01*
D02*
G37*
G36*
X131000Y334000D02*
X130908D01*
X129763Y333693D01*
X128737Y333101D01*
X127899Y332263D01*
X127307Y331237D01*
X127000Y330092D01*
Y330000D01*
X131000D01*
Y334000D01*
D02*
G37*
G36*
X112500D02*
X112408D01*
X111263Y333693D01*
X110237Y333101D01*
X109399Y332263D01*
X108807Y331237D01*
X108500Y330092D01*
Y330000D01*
X112500D01*
Y334000D01*
D02*
G37*
G36*
X343027Y331500D02*
X343000D01*
Y328000D01*
X346500D01*
Y328027D01*
X346227Y329044D01*
X345701Y329956D01*
X344956Y330701D01*
X344044Y331227D01*
X343027Y331500D01*
D02*
G37*
G36*
X303027D02*
X303000D01*
Y328000D01*
X306500D01*
Y328027D01*
X306227Y329044D01*
X305701Y329956D01*
X304956Y330701D01*
X304044Y331227D01*
X303027Y331500D01*
D02*
G37*
G36*
X247027D02*
X247000D01*
Y328000D01*
X250500D01*
Y328027D01*
X250227Y329044D01*
X249701Y329956D01*
X248956Y330701D01*
X248044Y331227D01*
X247027Y331500D01*
D02*
G37*
G36*
X207027D02*
X207000D01*
Y328000D01*
X210500D01*
Y328027D01*
X210227Y329044D01*
X209701Y329956D01*
X208956Y330701D01*
X208044Y331227D01*
X207027Y331500D01*
D02*
G37*
G36*
X333027D02*
X333000D01*
Y328000D01*
X336500D01*
Y328027D01*
X336227Y329044D01*
X335701Y329956D01*
X334956Y330701D01*
X334044Y331227D01*
X333027Y331500D01*
D02*
G37*
G36*
X313027D02*
X313000D01*
Y328000D01*
X316500D01*
Y328027D01*
X316227Y329044D01*
X315701Y329956D01*
X314956Y330701D01*
X314044Y331227D01*
X313027Y331500D01*
D02*
G37*
G36*
X293027D02*
X293000D01*
Y328000D01*
X296500D01*
Y328027D01*
X296227Y329044D01*
X295701Y329956D01*
X294956Y330701D01*
X294044Y331227D01*
X293027Y331500D01*
D02*
G37*
G36*
X273027D02*
X273000D01*
Y328000D01*
X276500D01*
Y328027D01*
X276227Y329044D01*
X275701Y329956D01*
X274956Y330701D01*
X274044Y331227D01*
X273027Y331500D01*
D02*
G37*
G36*
X257027D02*
X257000D01*
Y328000D01*
X260500D01*
Y328027D01*
X260227Y329044D01*
X259701Y329956D01*
X258956Y330701D01*
X258044Y331227D01*
X257027Y331500D01*
D02*
G37*
G36*
X237027D02*
X237000D01*
Y328000D01*
X240500D01*
Y328027D01*
X240227Y329044D01*
X239701Y329956D01*
X238956Y330701D01*
X238044Y331227D01*
X237027Y331500D01*
D02*
G37*
G36*
X217027D02*
X217000D01*
Y328000D01*
X220500D01*
Y328027D01*
X220227Y329044D01*
X219701Y329956D01*
X218956Y330701D01*
X218044Y331227D01*
X217027Y331500D01*
D02*
G37*
G36*
X197027D02*
X197000D01*
Y328000D01*
X200500D01*
Y328027D01*
X200227Y329044D01*
X199701Y329956D01*
X198956Y330701D01*
X198044Y331227D01*
X197027Y331500D01*
D02*
G37*
G36*
X167027D02*
X167000D01*
Y328000D01*
X170500D01*
Y328027D01*
X170227Y329044D01*
X169701Y329956D01*
X168956Y330701D01*
X168044Y331227D01*
X167027Y331500D01*
D02*
G37*
G36*
X323027D02*
X323000D01*
Y328000D01*
X326500D01*
Y328027D01*
X326227Y329044D01*
X325701Y329956D01*
X324956Y330701D01*
X324044Y331227D01*
X323027Y331500D01*
D02*
G37*
G36*
X283027D02*
X283000D01*
Y328000D01*
X286500D01*
Y328027D01*
X286227Y329044D01*
X285701Y329956D01*
X284956Y330701D01*
X284044Y331227D01*
X283027Y331500D01*
D02*
G37*
G36*
X227027D02*
X227000D01*
Y328000D01*
X230500D01*
Y328027D01*
X230227Y329044D01*
X229701Y329956D01*
X228956Y330701D01*
X228044Y331227D01*
X227027Y331500D01*
D02*
G37*
G36*
X187027D02*
X187000D01*
Y328000D01*
X190500D01*
Y328027D01*
X190227Y329044D01*
X189701Y329956D01*
X188956Y330701D01*
X188044Y331227D01*
X187027Y331500D01*
D02*
G37*
G36*
X177027D02*
X177000D01*
Y328000D01*
X180500D01*
Y328027D01*
X180227Y329044D01*
X179701Y329956D01*
X178956Y330701D01*
X178044Y331227D01*
X177027Y331500D01*
D02*
G37*
G36*
X342000D02*
X341973D01*
X340956Y331227D01*
X340044Y330701D01*
X339299Y329956D01*
X338773Y329044D01*
X338500Y328027D01*
Y328000D01*
X342000D01*
Y331500D01*
D02*
G37*
G36*
X302000D02*
X301973D01*
X300956Y331227D01*
X300044Y330701D01*
X299299Y329956D01*
X298773Y329044D01*
X298500Y328027D01*
Y328000D01*
X302000D01*
Y331500D01*
D02*
G37*
G36*
X246000D02*
X245973D01*
X244956Y331227D01*
X244044Y330701D01*
X243299Y329956D01*
X242773Y329044D01*
X242500Y328027D01*
Y328000D01*
X246000D01*
Y331500D01*
D02*
G37*
G36*
X206000D02*
X205973D01*
X204956Y331227D01*
X204044Y330701D01*
X203299Y329956D01*
X202773Y329044D01*
X202500Y328027D01*
Y328000D01*
X206000D01*
Y331500D01*
D02*
G37*
G36*
X332000D02*
X331973D01*
X330956Y331227D01*
X330044Y330701D01*
X329299Y329956D01*
X328773Y329044D01*
X328500Y328027D01*
Y328000D01*
X332000D01*
Y331500D01*
D02*
G37*
G36*
X312000D02*
X311973D01*
X310956Y331227D01*
X310044Y330701D01*
X309299Y329956D01*
X308773Y329044D01*
X308500Y328027D01*
Y328000D01*
X312000D01*
Y331500D01*
D02*
G37*
G36*
X256000D02*
X255973D01*
X254956Y331227D01*
X254044Y330701D01*
X253299Y329956D01*
X252773Y329044D01*
X252500Y328027D01*
Y328000D01*
X256000D01*
Y331500D01*
D02*
G37*
G36*
X236000D02*
X235973D01*
X234956Y331227D01*
X234044Y330701D01*
X233299Y329956D01*
X232773Y329044D01*
X232500Y328027D01*
Y328000D01*
X236000D01*
Y331500D01*
D02*
G37*
G36*
X166000D02*
X165973D01*
X164956Y331227D01*
X164044Y330701D01*
X163299Y329956D01*
X162773Y329044D01*
X162500Y328027D01*
Y328000D01*
X166000D01*
Y331500D01*
D02*
G37*
G36*
X292000D02*
X291973D01*
X290956Y331227D01*
X290044Y330701D01*
X289299Y329956D01*
X288773Y329044D01*
X288500Y328027D01*
Y328000D01*
X292000D01*
Y331500D01*
D02*
G37*
G36*
X272000D02*
X271973D01*
X270956Y331227D01*
X270044Y330701D01*
X269299Y329956D01*
X268773Y329044D01*
X268500Y328027D01*
Y328000D01*
X272000D01*
Y331500D01*
D02*
G37*
G36*
X216000D02*
X215973D01*
X214956Y331227D01*
X214044Y330701D01*
X213299Y329956D01*
X212773Y329044D01*
X212500Y328027D01*
Y328000D01*
X216000D01*
Y331500D01*
D02*
G37*
G36*
X196000D02*
X195973D01*
X194956Y331227D01*
X194044Y330701D01*
X193299Y329956D01*
X192773Y329044D01*
X192500Y328027D01*
Y328000D01*
X196000D01*
Y331500D01*
D02*
G37*
G36*
X322000D02*
X321973D01*
X320956Y331227D01*
X320044Y330701D01*
X319299Y329956D01*
X318773Y329044D01*
X318500Y328027D01*
Y328000D01*
X322000D01*
Y331500D01*
D02*
G37*
G36*
X226000D02*
X225973D01*
X224956Y331227D01*
X224044Y330701D01*
X223299Y329956D01*
X222773Y329044D01*
X222500Y328027D01*
Y328000D01*
X226000D01*
Y331500D01*
D02*
G37*
G36*
X176000D02*
X175973D01*
X174956Y331227D01*
X174044Y330701D01*
X173299Y329956D01*
X172773Y329044D01*
X172500Y328027D01*
Y328000D01*
X176000D01*
Y331500D01*
D02*
G37*
G36*
X282000D02*
X281973D01*
X280956Y331227D01*
X280044Y330701D01*
X279299Y329956D01*
X278773Y329044D01*
X278500Y328027D01*
Y328000D01*
X282000D01*
Y331500D01*
D02*
G37*
G36*
X186000D02*
X185973D01*
X184956Y331227D01*
X184044Y330701D01*
X183299Y329956D01*
X182773Y329044D01*
X182500Y328027D01*
Y328000D01*
X186000D01*
Y331500D01*
D02*
G37*
G36*
X136000Y329000D02*
X132000D01*
Y325000D01*
X132092D01*
X133237Y325307D01*
X134263Y325899D01*
X135101Y326737D01*
X135693Y327763D01*
X136000Y328908D01*
Y329000D01*
D02*
G37*
G36*
X131000D02*
X127000D01*
Y328908D01*
X127307Y327763D01*
X127899Y326737D01*
X128737Y325899D01*
X129763Y325307D01*
X130908Y325000D01*
X131000D01*
Y329000D01*
D02*
G37*
G36*
X117500D02*
X113500D01*
Y325000D01*
X113592D01*
X114737Y325307D01*
X115763Y325899D01*
X116601Y326737D01*
X117193Y327763D01*
X117500Y328908D01*
Y329000D01*
D02*
G37*
G36*
X112500D02*
X108500D01*
Y328908D01*
X108807Y327763D01*
X109399Y326737D01*
X110237Y325899D01*
X111263Y325307D01*
X112408Y325000D01*
X112500D01*
Y329000D01*
D02*
G37*
G36*
X346500Y327000D02*
X343000D01*
Y323500D01*
X343027D01*
X344044Y323773D01*
X344956Y324299D01*
X345701Y325044D01*
X346227Y325956D01*
X346500Y326973D01*
Y327000D01*
D02*
G37*
G36*
X342000D02*
X338500D01*
Y326973D01*
X338773Y325956D01*
X339299Y325044D01*
X340044Y324299D01*
X340956Y323773D01*
X341973Y323500D01*
X342000D01*
Y327000D01*
D02*
G37*
G36*
X336500D02*
X333000D01*
Y323500D01*
X333027D01*
X334044Y323773D01*
X334956Y324299D01*
X335701Y325044D01*
X336227Y325956D01*
X336500Y326973D01*
Y327000D01*
D02*
G37*
G36*
X332000D02*
X328500D01*
Y326973D01*
X328773Y325956D01*
X329299Y325044D01*
X330044Y324299D01*
X330956Y323773D01*
X331973Y323500D01*
X332000D01*
Y327000D01*
D02*
G37*
G36*
X326500D02*
X323000D01*
Y323500D01*
X323027D01*
X324044Y323773D01*
X324956Y324299D01*
X325701Y325044D01*
X326227Y325956D01*
X326500Y326973D01*
Y327000D01*
D02*
G37*
G36*
X322000D02*
X318500D01*
Y326973D01*
X318773Y325956D01*
X319299Y325044D01*
X320044Y324299D01*
X320956Y323773D01*
X321973Y323500D01*
X322000D01*
Y327000D01*
D02*
G37*
G36*
X316500D02*
X313000D01*
Y323500D01*
X313027D01*
X314044Y323773D01*
X314956Y324299D01*
X315701Y325044D01*
X316227Y325956D01*
X316500Y326973D01*
Y327000D01*
D02*
G37*
G36*
X312000D02*
X308500D01*
Y326973D01*
X308773Y325956D01*
X309299Y325044D01*
X310044Y324299D01*
X310956Y323773D01*
X311973Y323500D01*
X312000D01*
Y327000D01*
D02*
G37*
G36*
X306500D02*
X303000D01*
Y323500D01*
X303027D01*
X304044Y323773D01*
X304956Y324299D01*
X305701Y325044D01*
X306227Y325956D01*
X306500Y326973D01*
Y327000D01*
D02*
G37*
G36*
X302000D02*
X298500D01*
Y326973D01*
X298773Y325956D01*
X299299Y325044D01*
X300044Y324299D01*
X300956Y323773D01*
X301973Y323500D01*
X302000D01*
Y327000D01*
D02*
G37*
G36*
X296500D02*
X293000D01*
Y323500D01*
X293027D01*
X294044Y323773D01*
X294956Y324299D01*
X295701Y325044D01*
X296227Y325956D01*
X296500Y326973D01*
Y327000D01*
D02*
G37*
G36*
X292000D02*
X288500D01*
Y326973D01*
X288773Y325956D01*
X289299Y325044D01*
X290044Y324299D01*
X290956Y323773D01*
X291973Y323500D01*
X292000D01*
Y327000D01*
D02*
G37*
G36*
X286500D02*
X283000D01*
Y323500D01*
X283027D01*
X284044Y323773D01*
X284956Y324299D01*
X285701Y325044D01*
X286227Y325956D01*
X286500Y326973D01*
Y327000D01*
D02*
G37*
G36*
X282000D02*
X278500D01*
Y326973D01*
X278773Y325956D01*
X279299Y325044D01*
X280044Y324299D01*
X280956Y323773D01*
X281973Y323500D01*
X282000D01*
Y327000D01*
D02*
G37*
G36*
X276500D02*
X273000D01*
Y323500D01*
X273027D01*
X274044Y323773D01*
X274956Y324299D01*
X275701Y325044D01*
X276227Y325956D01*
X276500Y326973D01*
Y327000D01*
D02*
G37*
G36*
X272000D02*
X268500D01*
Y326973D01*
X268773Y325956D01*
X269299Y325044D01*
X270044Y324299D01*
X270956Y323773D01*
X271973Y323500D01*
X272000D01*
Y327000D01*
D02*
G37*
G36*
X260500D02*
X257000D01*
Y323500D01*
X257027D01*
X258044Y323773D01*
X258956Y324299D01*
X259701Y325044D01*
X260227Y325956D01*
X260500Y326973D01*
Y327000D01*
D02*
G37*
G36*
X256000D02*
X252500D01*
Y326973D01*
X252773Y325956D01*
X253299Y325044D01*
X254044Y324299D01*
X254956Y323773D01*
X255973Y323500D01*
X256000D01*
Y327000D01*
D02*
G37*
G36*
X250500D02*
X247000D01*
Y323500D01*
X247027D01*
X248044Y323773D01*
X248956Y324299D01*
X249701Y325044D01*
X250227Y325956D01*
X250500Y326973D01*
Y327000D01*
D02*
G37*
G36*
X246000D02*
X242500D01*
Y326973D01*
X242773Y325956D01*
X243299Y325044D01*
X244044Y324299D01*
X244956Y323773D01*
X245973Y323500D01*
X246000D01*
Y327000D01*
D02*
G37*
G36*
X240500D02*
X237000D01*
Y323500D01*
X237027D01*
X238044Y323773D01*
X238956Y324299D01*
X239701Y325044D01*
X240227Y325956D01*
X240500Y326973D01*
Y327000D01*
D02*
G37*
G36*
X236000D02*
X232500D01*
Y326973D01*
X232773Y325956D01*
X233299Y325044D01*
X234044Y324299D01*
X234956Y323773D01*
X235973Y323500D01*
X236000D01*
Y327000D01*
D02*
G37*
G36*
X230500D02*
X227000D01*
Y323500D01*
X227027D01*
X228044Y323773D01*
X228956Y324299D01*
X229701Y325044D01*
X230227Y325956D01*
X230500Y326973D01*
Y327000D01*
D02*
G37*
G36*
X226000D02*
X222500D01*
Y326973D01*
X222773Y325956D01*
X223299Y325044D01*
X224044Y324299D01*
X224956Y323773D01*
X225973Y323500D01*
X226000D01*
Y327000D01*
D02*
G37*
G36*
X220500D02*
X217000D01*
Y323500D01*
X217027D01*
X218044Y323773D01*
X218956Y324299D01*
X219701Y325044D01*
X220227Y325956D01*
X220500Y326973D01*
Y327000D01*
D02*
G37*
G36*
X216000D02*
X212500D01*
Y326973D01*
X212773Y325956D01*
X213299Y325044D01*
X214044Y324299D01*
X214956Y323773D01*
X215973Y323500D01*
X216000D01*
Y327000D01*
D02*
G37*
G36*
X210500D02*
X207000D01*
Y323500D01*
X207027D01*
X208044Y323773D01*
X208956Y324299D01*
X209701Y325044D01*
X210227Y325956D01*
X210500Y326973D01*
Y327000D01*
D02*
G37*
G36*
X206000D02*
X202500D01*
Y326973D01*
X202773Y325956D01*
X203299Y325044D01*
X204044Y324299D01*
X204956Y323773D01*
X205973Y323500D01*
X206000D01*
Y327000D01*
D02*
G37*
G36*
X200500D02*
X197000D01*
Y323500D01*
X197027D01*
X198044Y323773D01*
X198956Y324299D01*
X199701Y325044D01*
X200227Y325956D01*
X200500Y326973D01*
Y327000D01*
D02*
G37*
G36*
X196000D02*
X192500D01*
Y326973D01*
X192773Y325956D01*
X193299Y325044D01*
X194044Y324299D01*
X194956Y323773D01*
X195973Y323500D01*
X196000D01*
Y327000D01*
D02*
G37*
G36*
X190500D02*
X187000D01*
Y323500D01*
X187027D01*
X188044Y323773D01*
X188956Y324299D01*
X189701Y325044D01*
X190227Y325956D01*
X190500Y326973D01*
Y327000D01*
D02*
G37*
G36*
X186000D02*
X182500D01*
Y326973D01*
X182773Y325956D01*
X183299Y325044D01*
X184044Y324299D01*
X184956Y323773D01*
X185973Y323500D01*
X186000D01*
Y327000D01*
D02*
G37*
G36*
X180500D02*
X177000D01*
Y323500D01*
X177027D01*
X178044Y323773D01*
X178956Y324299D01*
X179701Y325044D01*
X180227Y325956D01*
X180500Y326973D01*
Y327000D01*
D02*
G37*
G36*
X176000D02*
X172500D01*
Y326973D01*
X172773Y325956D01*
X173299Y325044D01*
X174044Y324299D01*
X174956Y323773D01*
X175973Y323500D01*
X176000D01*
Y327000D01*
D02*
G37*
G36*
X170500D02*
X167000D01*
Y323500D01*
X167027D01*
X168044Y323773D01*
X168956Y324299D01*
X169701Y325044D01*
X170227Y325956D01*
X170500Y326973D01*
Y327000D01*
D02*
G37*
G36*
X166000D02*
X162500D01*
Y326973D01*
X162773Y325956D01*
X163299Y325044D01*
X164044Y324299D01*
X164956Y323773D01*
X165973Y323500D01*
X166000D01*
Y327000D01*
D02*
G37*
G36*
X56622Y337619D02*
X55438Y337463D01*
X54334Y337006D01*
X53386Y336279D01*
X52659Y335331D01*
X52202Y334228D01*
X52046Y333043D01*
Y325957D01*
X52202Y324772D01*
X52659Y323669D01*
X53386Y322721D01*
X54334Y321994D01*
X55438Y321536D01*
X56622Y321380D01*
X57806Y321536D01*
X58910Y321994D01*
X59858Y322721D01*
X60585Y323669D01*
X61042Y324772D01*
X61198Y325957D01*
Y333043D01*
X61042Y334228D01*
X60585Y335331D01*
X59858Y336279D01*
X58910Y337006D01*
X57806Y337463D01*
X56622Y337619D01*
D02*
G37*
G36*
X37980Y329000D02*
X33500D01*
Y321043D01*
X34289Y321147D01*
X35490Y321644D01*
X36521Y322436D01*
X37312Y323467D01*
X37810Y324668D01*
X37980Y325957D01*
Y329000D01*
D02*
G37*
G36*
X32500D02*
X28020D01*
Y325957D01*
X28190Y324668D01*
X28688Y323467D01*
X29479Y322436D01*
X30510Y321644D01*
X31711Y321147D01*
X32500Y321043D01*
Y329000D01*
D02*
G37*
G36*
X132092Y324000D02*
X132000D01*
Y320000D01*
X136000D01*
Y320092D01*
X135693Y321237D01*
X135101Y322263D01*
X134263Y323101D01*
X133237Y323693D01*
X132092Y324000D01*
D02*
G37*
G36*
X113592D02*
X113500D01*
Y320000D01*
X117500D01*
Y320092D01*
X117193Y321237D01*
X116601Y322263D01*
X115763Y323101D01*
X114737Y323693D01*
X113592Y324000D01*
D02*
G37*
G36*
X131000D02*
X130908D01*
X129763Y323693D01*
X128737Y323101D01*
X127899Y322263D01*
X127307Y321237D01*
X127000Y320092D01*
Y320000D01*
X131000D01*
Y324000D01*
D02*
G37*
G36*
X112500D02*
X112408D01*
X111263Y323693D01*
X110237Y323101D01*
X109399Y322263D01*
X108807Y321237D01*
X108500Y320092D01*
Y320000D01*
X112500D01*
Y324000D01*
D02*
G37*
G36*
X136000Y319000D02*
X132000D01*
Y315000D01*
X132092D01*
X133237Y315307D01*
X134263Y315899D01*
X135101Y316737D01*
X135693Y317763D01*
X136000Y318908D01*
Y319000D01*
D02*
G37*
G36*
X131000D02*
X127000D01*
Y318908D01*
X127307Y317763D01*
X127899Y316737D01*
X128737Y315899D01*
X129763Y315307D01*
X130908Y315000D01*
X131000D01*
Y319000D01*
D02*
G37*
G36*
X117500D02*
X113500D01*
Y315000D01*
X113592D01*
X114737Y315307D01*
X115763Y315899D01*
X116601Y316737D01*
X117193Y317763D01*
X117500Y318908D01*
Y319000D01*
D02*
G37*
G36*
X112500D02*
X108500D01*
Y318908D01*
X108807Y317763D01*
X109399Y316737D01*
X110237Y315899D01*
X111263Y315307D01*
X112408Y315000D01*
X112500D01*
Y319000D01*
D02*
G37*
G36*
X49732Y315775D02*
X47280D01*
Y311693D01*
X54249D01*
X54159Y312379D01*
X53701Y313484D01*
X52973Y314433D01*
X52024Y315161D01*
X50918Y315619D01*
X49732Y315775D01*
D02*
G37*
G36*
X46279D02*
X43827D01*
X42641Y315619D01*
X41535Y315161D01*
X40587Y314433D01*
X39858Y313484D01*
X39400Y312379D01*
X39310Y311693D01*
X46279D01*
Y315775D01*
D02*
G37*
G36*
X132092Y314000D02*
X132000D01*
Y310000D01*
X136000D01*
Y310092D01*
X135693Y311237D01*
X135101Y312263D01*
X134263Y313101D01*
X133237Y313693D01*
X132092Y314000D01*
D02*
G37*
G36*
X113592D02*
X113500D01*
Y310000D01*
X117500D01*
Y310092D01*
X117193Y311237D01*
X116601Y312263D01*
X115763Y313101D01*
X114737Y313693D01*
X113592Y314000D01*
D02*
G37*
G36*
X131000D02*
X130908D01*
X129763Y313693D01*
X128737Y313101D01*
X127899Y312263D01*
X127307Y311237D01*
X127000Y310092D01*
Y310000D01*
X131000D01*
Y314000D01*
D02*
G37*
G36*
X112500D02*
X112408D01*
X111263Y313693D01*
X110237Y313101D01*
X109399Y312263D01*
X108807Y311237D01*
X108500Y310092D01*
Y310000D01*
X112500D01*
Y314000D01*
D02*
G37*
G36*
X54249Y310693D02*
X47280D01*
Y306610D01*
X49732D01*
X50918Y306767D01*
X52024Y307224D01*
X52973Y307953D01*
X53701Y308902D01*
X54159Y310007D01*
X54249Y310693D01*
D02*
G37*
G36*
X46279D02*
X39310D01*
X39400Y310007D01*
X39858Y308902D01*
X40587Y307953D01*
X41535Y307224D01*
X42641Y306767D01*
X43827Y306610D01*
X46279D01*
Y310693D01*
D02*
G37*
G36*
X136000Y309000D02*
X132000D01*
Y305000D01*
X132092D01*
X133237Y305307D01*
X134263Y305899D01*
X135101Y306737D01*
X135693Y307763D01*
X136000Y308908D01*
Y309000D01*
D02*
G37*
G36*
X131000D02*
X127000D01*
Y308908D01*
X127307Y307763D01*
X127899Y306737D01*
X128737Y305899D01*
X129763Y305307D01*
X130908Y305000D01*
X131000D01*
Y309000D01*
D02*
G37*
G36*
X117500D02*
X113500D01*
Y305000D01*
X113592D01*
X114737Y305307D01*
X115763Y305899D01*
X116601Y306737D01*
X117193Y307763D01*
X117500Y308908D01*
Y309000D01*
D02*
G37*
G36*
X112500D02*
X108500D01*
Y308908D01*
X108807Y307763D01*
X109399Y306737D01*
X110237Y305899D01*
X111263Y305307D01*
X112408Y305000D01*
X112500D01*
Y309000D01*
D02*
G37*
G36*
X89007Y307848D02*
X87993D01*
X87015Y307586D01*
X86137Y307079D01*
X85421Y306363D01*
X84914Y305485D01*
X84652Y304507D01*
Y303493D01*
X84914Y302515D01*
X85421Y301637D01*
X86137Y300921D01*
X87015Y300414D01*
X87993Y300152D01*
X89007D01*
X89985Y300414D01*
X90863Y300921D01*
X91579Y301637D01*
X92086Y302515D01*
X92348Y303493D01*
Y304507D01*
X92086Y305485D01*
X91579Y306363D01*
X90863Y307079D01*
X89985Y307586D01*
X89007Y307848D01*
D02*
G37*
G36*
X21468Y306053D02*
X20532D01*
X19629Y305811D01*
X18819Y305343D01*
X18157Y304681D01*
X17689Y303871D01*
X17447Y302968D01*
Y302032D01*
X17689Y301129D01*
X18157Y300319D01*
X18819Y299657D01*
X19629Y299189D01*
X20532Y298947D01*
X21468D01*
X22371Y299189D01*
X23181Y299657D01*
X23843Y300319D01*
X24311Y301129D01*
X24553Y302032D01*
Y302968D01*
X24311Y303871D01*
X23843Y304681D01*
X23181Y305343D01*
X22371Y305811D01*
X21468Y306053D01*
D02*
G37*
G36*
X197027Y301500D02*
X197000D01*
Y298000D01*
X200500D01*
Y298027D01*
X200227Y299044D01*
X199701Y299956D01*
X198956Y300701D01*
X198044Y301227D01*
X197027Y301500D01*
D02*
G37*
G36*
X196000D02*
X195973D01*
X194956Y301227D01*
X194044Y300701D01*
X193299Y299956D01*
X192773Y299044D01*
X192500Y298027D01*
Y298000D01*
X196000D01*
Y301500D01*
D02*
G37*
G36*
X132040Y303600D02*
X130960D01*
X129918Y303321D01*
X128982Y302781D01*
X128219Y302017D01*
X127679Y301082D01*
X127400Y300040D01*
Y298960D01*
X127679Y297918D01*
X128219Y296983D01*
X128982Y296219D01*
X129918Y295679D01*
X130960Y295400D01*
X132040D01*
X133082Y295679D01*
X134018Y296219D01*
X134781Y296983D01*
X135321Y297918D01*
X135600Y298960D01*
Y300040D01*
X135321Y301082D01*
X134781Y302017D01*
X134018Y302781D01*
X133082Y303321D01*
X132040Y303600D01*
D02*
G37*
G36*
X113540D02*
X112460D01*
X111417Y303321D01*
X110483Y302781D01*
X109719Y302017D01*
X109179Y301082D01*
X108900Y300040D01*
Y298960D01*
X109179Y297918D01*
X109719Y296983D01*
X110483Y296219D01*
X111417Y295679D01*
X112460Y295400D01*
X113540D01*
X114583Y295679D01*
X115517Y296219D01*
X116281Y296983D01*
X116821Y297918D01*
X117100Y298960D01*
Y300040D01*
X116821Y301082D01*
X116281Y302017D01*
X115517Y302781D01*
X114583Y303321D01*
X113540Y303600D01*
D02*
G37*
G36*
X342974Y301100D02*
X342026D01*
X341110Y300855D01*
X340290Y300381D01*
X339619Y299710D01*
X339145Y298890D01*
X338900Y297974D01*
Y297026D01*
X339145Y296110D01*
X339619Y295290D01*
X340290Y294619D01*
X341110Y294145D01*
X342026Y293900D01*
X342974D01*
X343890Y294145D01*
X344710Y294619D01*
X345381Y295290D01*
X345855Y296110D01*
X346100Y297026D01*
Y297974D01*
X345855Y298890D01*
X345381Y299710D01*
X344710Y300381D01*
X343890Y300855D01*
X342974Y301100D01*
D02*
G37*
G36*
X332974D02*
X332026D01*
X331110Y300855D01*
X330290Y300381D01*
X329619Y299710D01*
X329145Y298890D01*
X328900Y297974D01*
Y297026D01*
X329145Y296110D01*
X329619Y295290D01*
X330290Y294619D01*
X331110Y294145D01*
X332026Y293900D01*
X332974D01*
X333890Y294145D01*
X334710Y294619D01*
X335381Y295290D01*
X335855Y296110D01*
X336100Y297026D01*
Y297974D01*
X335855Y298890D01*
X335381Y299710D01*
X334710Y300381D01*
X333890Y300855D01*
X332974Y301100D01*
D02*
G37*
G36*
X322974D02*
X322026D01*
X321110Y300855D01*
X320290Y300381D01*
X319619Y299710D01*
X319145Y298890D01*
X318900Y297974D01*
Y297026D01*
X319145Y296110D01*
X319619Y295290D01*
X320290Y294619D01*
X321110Y294145D01*
X322026Y293900D01*
X322974D01*
X323890Y294145D01*
X324710Y294619D01*
X325381Y295290D01*
X325855Y296110D01*
X326100Y297026D01*
Y297974D01*
X325855Y298890D01*
X325381Y299710D01*
X324710Y300381D01*
X323890Y300855D01*
X322974Y301100D01*
D02*
G37*
G36*
X312974D02*
X312026D01*
X311110Y300855D01*
X310290Y300381D01*
X309619Y299710D01*
X309145Y298890D01*
X308900Y297974D01*
Y297026D01*
X309145Y296110D01*
X309619Y295290D01*
X310290Y294619D01*
X311110Y294145D01*
X312026Y293900D01*
X312974D01*
X313890Y294145D01*
X314710Y294619D01*
X315381Y295290D01*
X315855Y296110D01*
X316100Y297026D01*
Y297974D01*
X315855Y298890D01*
X315381Y299710D01*
X314710Y300381D01*
X313890Y300855D01*
X312974Y301100D01*
D02*
G37*
G36*
X302974D02*
X302026D01*
X301110Y300855D01*
X300290Y300381D01*
X299619Y299710D01*
X299145Y298890D01*
X298900Y297974D01*
Y297026D01*
X299145Y296110D01*
X299619Y295290D01*
X300290Y294619D01*
X301110Y294145D01*
X302026Y293900D01*
X302974D01*
X303890Y294145D01*
X304710Y294619D01*
X305381Y295290D01*
X305855Y296110D01*
X306100Y297026D01*
Y297974D01*
X305855Y298890D01*
X305381Y299710D01*
X304710Y300381D01*
X303890Y300855D01*
X302974Y301100D01*
D02*
G37*
G36*
X292974D02*
X292026D01*
X291110Y300855D01*
X290290Y300381D01*
X289619Y299710D01*
X289145Y298890D01*
X288900Y297974D01*
Y297026D01*
X289145Y296110D01*
X289619Y295290D01*
X290290Y294619D01*
X291110Y294145D01*
X292026Y293900D01*
X292974D01*
X293890Y294145D01*
X294710Y294619D01*
X295381Y295290D01*
X295855Y296110D01*
X296100Y297026D01*
Y297974D01*
X295855Y298890D01*
X295381Y299710D01*
X294710Y300381D01*
X293890Y300855D01*
X292974Y301100D01*
D02*
G37*
G36*
X282974D02*
X282026D01*
X281110Y300855D01*
X280290Y300381D01*
X279619Y299710D01*
X279145Y298890D01*
X278900Y297974D01*
Y297026D01*
X279145Y296110D01*
X279619Y295290D01*
X280290Y294619D01*
X281110Y294145D01*
X282026Y293900D01*
X282974D01*
X283890Y294145D01*
X284710Y294619D01*
X285381Y295290D01*
X285855Y296110D01*
X286100Y297026D01*
Y297974D01*
X285855Y298890D01*
X285381Y299710D01*
X284710Y300381D01*
X283890Y300855D01*
X282974Y301100D01*
D02*
G37*
G36*
X272974D02*
X272026D01*
X271110Y300855D01*
X270290Y300381D01*
X269619Y299710D01*
X269145Y298890D01*
X268900Y297974D01*
Y297026D01*
X269145Y296110D01*
X269619Y295290D01*
X270290Y294619D01*
X271110Y294145D01*
X272026Y293900D01*
X272974D01*
X273890Y294145D01*
X274710Y294619D01*
X275381Y295290D01*
X275855Y296110D01*
X276100Y297026D01*
Y297974D01*
X275855Y298890D01*
X275381Y299710D01*
X274710Y300381D01*
X273890Y300855D01*
X272974Y301100D01*
D02*
G37*
G36*
X256974D02*
X256026D01*
X255110Y300855D01*
X254290Y300381D01*
X253619Y299710D01*
X253145Y298890D01*
X252900Y297974D01*
Y297026D01*
X253145Y296110D01*
X253619Y295290D01*
X254290Y294619D01*
X255110Y294145D01*
X256026Y293900D01*
X256974D01*
X257890Y294145D01*
X258710Y294619D01*
X259381Y295290D01*
X259855Y296110D01*
X260100Y297026D01*
Y297974D01*
X259855Y298890D01*
X259381Y299710D01*
X258710Y300381D01*
X257890Y300855D01*
X256974Y301100D01*
D02*
G37*
G36*
X246974D02*
X246026D01*
X245110Y300855D01*
X244290Y300381D01*
X243619Y299710D01*
X243145Y298890D01*
X242900Y297974D01*
Y297026D01*
X243145Y296110D01*
X243619Y295290D01*
X244290Y294619D01*
X245110Y294145D01*
X246026Y293900D01*
X246974D01*
X247890Y294145D01*
X248710Y294619D01*
X249381Y295290D01*
X249855Y296110D01*
X250100Y297026D01*
Y297974D01*
X249855Y298890D01*
X249381Y299710D01*
X248710Y300381D01*
X247890Y300855D01*
X246974Y301100D01*
D02*
G37*
G36*
X236974D02*
X236026D01*
X235110Y300855D01*
X234290Y300381D01*
X233619Y299710D01*
X233145Y298890D01*
X232900Y297974D01*
Y297026D01*
X233145Y296110D01*
X233619Y295290D01*
X234290Y294619D01*
X235110Y294145D01*
X236026Y293900D01*
X236974D01*
X237890Y294145D01*
X238710Y294619D01*
X239381Y295290D01*
X239855Y296110D01*
X240100Y297026D01*
Y297974D01*
X239855Y298890D01*
X239381Y299710D01*
X238710Y300381D01*
X237890Y300855D01*
X236974Y301100D01*
D02*
G37*
G36*
X226974D02*
X226026D01*
X225110Y300855D01*
X224290Y300381D01*
X223619Y299710D01*
X223145Y298890D01*
X222900Y297974D01*
Y297026D01*
X223145Y296110D01*
X223619Y295290D01*
X224290Y294619D01*
X225110Y294145D01*
X226026Y293900D01*
X226974D01*
X227890Y294145D01*
X228710Y294619D01*
X229381Y295290D01*
X229855Y296110D01*
X230100Y297026D01*
Y297974D01*
X229855Y298890D01*
X229381Y299710D01*
X228710Y300381D01*
X227890Y300855D01*
X226974Y301100D01*
D02*
G37*
G36*
X216974D02*
X216026D01*
X215110Y300855D01*
X214290Y300381D01*
X213619Y299710D01*
X213145Y298890D01*
X212900Y297974D01*
Y297026D01*
X213145Y296110D01*
X213619Y295290D01*
X214290Y294619D01*
X215110Y294145D01*
X216026Y293900D01*
X216974D01*
X217890Y294145D01*
X218710Y294619D01*
X219381Y295290D01*
X219855Y296110D01*
X220100Y297026D01*
Y297974D01*
X219855Y298890D01*
X219381Y299710D01*
X218710Y300381D01*
X217890Y300855D01*
X216974Y301100D01*
D02*
G37*
G36*
X206974D02*
X206026D01*
X205110Y300855D01*
X204290Y300381D01*
X203619Y299710D01*
X203145Y298890D01*
X202900Y297974D01*
Y297026D01*
X203145Y296110D01*
X203619Y295290D01*
X204290Y294619D01*
X205110Y294145D01*
X206026Y293900D01*
X206974D01*
X207890Y294145D01*
X208710Y294619D01*
X209381Y295290D01*
X209855Y296110D01*
X210100Y297026D01*
Y297974D01*
X209855Y298890D01*
X209381Y299710D01*
X208710Y300381D01*
X207890Y300855D01*
X206974Y301100D01*
D02*
G37*
G36*
X186974D02*
X186026D01*
X185110Y300855D01*
X184290Y300381D01*
X183619Y299710D01*
X183145Y298890D01*
X182900Y297974D01*
Y297026D01*
X183145Y296110D01*
X183619Y295290D01*
X184290Y294619D01*
X185110Y294145D01*
X186026Y293900D01*
X186974D01*
X187890Y294145D01*
X188710Y294619D01*
X189381Y295290D01*
X189855Y296110D01*
X190100Y297026D01*
Y297974D01*
X189855Y298890D01*
X189381Y299710D01*
X188710Y300381D01*
X187890Y300855D01*
X186974Y301100D01*
D02*
G37*
G36*
X176974D02*
X176026D01*
X175110Y300855D01*
X174290Y300381D01*
X173619Y299710D01*
X173145Y298890D01*
X172900Y297974D01*
Y297026D01*
X173145Y296110D01*
X173619Y295290D01*
X174290Y294619D01*
X175110Y294145D01*
X176026Y293900D01*
X176974D01*
X177890Y294145D01*
X178710Y294619D01*
X179381Y295290D01*
X179855Y296110D01*
X180100Y297026D01*
Y297974D01*
X179855Y298890D01*
X179381Y299710D01*
X178710Y300381D01*
X177890Y300855D01*
X176974Y301100D01*
D02*
G37*
G36*
X166974D02*
X166026D01*
X165110Y300855D01*
X164290Y300381D01*
X163619Y299710D01*
X163145Y298890D01*
X162900Y297974D01*
Y297026D01*
X163145Y296110D01*
X163619Y295290D01*
X164290Y294619D01*
X165110Y294145D01*
X166026Y293900D01*
X166974D01*
X167890Y294145D01*
X168710Y294619D01*
X169381Y295290D01*
X169855Y296110D01*
X170100Y297026D01*
Y297974D01*
X169855Y298890D01*
X169381Y299710D01*
X168710Y300381D01*
X167890Y300855D01*
X166974Y301100D01*
D02*
G37*
G36*
X200500Y297000D02*
X197000D01*
Y293500D01*
X197027D01*
X198044Y293773D01*
X198956Y294299D01*
X199701Y295044D01*
X200227Y295956D01*
X200500Y296973D01*
Y297000D01*
D02*
G37*
G36*
X196000D02*
X192500D01*
Y296973D01*
X192773Y295956D01*
X193299Y295044D01*
X194044Y294299D01*
X194956Y293773D01*
X195973Y293500D01*
X196000D01*
Y297000D01*
D02*
G37*
G36*
X39938Y295537D02*
X38075D01*
Y292646D01*
X43263D01*
X43213Y293023D01*
X42875Y293841D01*
X42336Y294543D01*
X41633Y295082D01*
X40815Y295421D01*
X39938Y295537D01*
D02*
G37*
G36*
X21237D02*
X19375D01*
Y292646D01*
X24562D01*
X24512Y293023D01*
X24174Y293841D01*
X23635Y294543D01*
X22932Y295082D01*
X22115Y295421D01*
X21237Y295537D01*
D02*
G37*
G36*
X18375D02*
X16512D01*
X15635Y295421D01*
X14817Y295082D01*
X14114Y294543D01*
X13576Y293841D01*
X13237Y293023D01*
X13187Y292646D01*
X18375D01*
Y295537D01*
D02*
G37*
G36*
X37075D02*
X35213D01*
X34336Y295421D01*
X33518Y295082D01*
X32815Y294543D01*
X32276Y293841D01*
X31938Y293023D01*
X31888Y292646D01*
X37075D01*
Y295537D01*
D02*
G37*
G36*
X89007Y297848D02*
X87993D01*
X87015Y297586D01*
X86137Y297079D01*
X85421Y296363D01*
X84914Y295485D01*
X84652Y294507D01*
Y293493D01*
X84914Y292515D01*
X85421Y291637D01*
X86137Y290921D01*
X87015Y290414D01*
X87993Y290152D01*
X89007D01*
X89985Y290414D01*
X90863Y290921D01*
X91579Y291637D01*
X92086Y292515D01*
X92348Y293493D01*
Y294507D01*
X92086Y295485D01*
X91579Y296363D01*
X90863Y297079D01*
X89985Y297586D01*
X89007Y297848D01*
D02*
G37*
G36*
X43263Y291646D02*
X38075D01*
Y288754D01*
X39938D01*
X40815Y288870D01*
X41633Y289209D01*
X42336Y289748D01*
X42875Y290450D01*
X43213Y291268D01*
X43263Y291646D01*
D02*
G37*
G36*
X37075D02*
X31888D01*
X31938Y291268D01*
X32276Y290450D01*
X32815Y289748D01*
X33518Y289209D01*
X34336Y288870D01*
X35213Y288754D01*
X37075D01*
Y291646D01*
D02*
G37*
G36*
X24562D02*
X19375D01*
Y288754D01*
X21237D01*
X22115Y288870D01*
X22932Y289209D01*
X23635Y289748D01*
X24174Y290450D01*
X24512Y291268D01*
X24562Y291646D01*
D02*
G37*
G36*
X18375D02*
X13187D01*
X13237Y291268D01*
X13576Y290450D01*
X14114Y289748D01*
X14817Y289209D01*
X15635Y288870D01*
X16512Y288754D01*
X18375D01*
Y291646D01*
D02*
G37*
G36*
X41515Y286683D02*
X40735D01*
X39982Y286481D01*
X39307Y286091D01*
X38755Y285539D01*
X38365Y284864D01*
X38163Y284110D01*
Y283543D01*
X37733Y283251D01*
X37686Y283242D01*
X37530Y283332D01*
X36776Y283534D01*
X35996D01*
X35243Y283332D01*
X34568Y282942D01*
X34016Y282390D01*
X33626Y281715D01*
X33424Y280961D01*
Y280182D01*
X33626Y279428D01*
X34016Y278753D01*
X34568Y278201D01*
X35243Y277811D01*
X35730Y277681D01*
Y277163D01*
X35243Y277033D01*
X34568Y276643D01*
X34016Y276091D01*
X33626Y275416D01*
X33424Y274662D01*
Y273883D01*
X33626Y273129D01*
X34016Y272454D01*
X34568Y271902D01*
X35243Y271512D01*
X35996Y271310D01*
X36776D01*
X37263Y271441D01*
X37736Y271127D01*
X37763Y271077D01*
Y270680D01*
X37992Y269825D01*
X38435Y269058D01*
X39061Y268432D01*
X39828Y267989D01*
X40625Y267776D01*
Y271123D01*
X41125D01*
Y271622D01*
X44472D01*
X44258Y272420D01*
X43816Y273187D01*
X43190Y273813D01*
X42480Y274223D01*
X42434Y274460D01*
X42450Y274766D01*
X42944Y275051D01*
X43496Y275603D01*
X43886Y276278D01*
X44088Y277031D01*
Y277812D01*
X43886Y278565D01*
X43496Y279240D01*
X42944Y279792D01*
X42269Y280182D01*
X41782Y280312D01*
Y280830D01*
X42269Y280960D01*
X42944Y281350D01*
X43496Y281902D01*
X43886Y282577D01*
X44088Y283330D01*
Y284110D01*
X43886Y284864D01*
X43496Y285539D01*
X42944Y286091D01*
X42269Y286481D01*
X41515Y286683D01*
D02*
G37*
G36*
X89007Y287848D02*
X87993D01*
X87015Y287586D01*
X86137Y287079D01*
X85421Y286363D01*
X84914Y285485D01*
X84652Y284507D01*
Y283493D01*
X84914Y282515D01*
X85421Y281637D01*
X86137Y280921D01*
X87015Y280414D01*
X87993Y280152D01*
X89007D01*
X89985Y280414D01*
X90863Y280921D01*
X91579Y281637D01*
X92086Y282515D01*
X92348Y283493D01*
Y284507D01*
X92086Y285485D01*
X91579Y286363D01*
X90863Y287079D01*
X89985Y287586D01*
X89007Y287848D01*
D02*
G37*
G36*
X44472Y270622D02*
X41625D01*
Y267776D01*
X42423Y267989D01*
X43190Y268432D01*
X43816Y269058D01*
X44258Y269825D01*
X44472Y270622D01*
D02*
G37*
G36*
X165040Y274600D02*
X163960D01*
X162917Y274321D01*
X161983Y273781D01*
X161219Y273018D01*
X160679Y272082D01*
X160400Y271040D01*
Y269960D01*
X160679Y268917D01*
X161219Y267983D01*
X161983Y267219D01*
X162917Y266679D01*
X163960Y266400D01*
X165040D01*
X166083Y266679D01*
X167017Y267219D01*
X167781Y267983D01*
X168321Y268917D01*
X168600Y269960D01*
Y271040D01*
X168321Y272082D01*
X167781Y273018D01*
X167017Y273781D01*
X166083Y274321D01*
X165040Y274600D01*
D02*
G37*
G36*
X185540Y273600D02*
X184460D01*
X183417Y273321D01*
X182483Y272781D01*
X181719Y272018D01*
X181179Y271082D01*
X180900Y270040D01*
Y268960D01*
X181179Y267917D01*
X181719Y266983D01*
X182483Y266219D01*
X183417Y265679D01*
X184460Y265400D01*
X185540D01*
X186583Y265679D01*
X187517Y266219D01*
X188281Y266983D01*
X188821Y267917D01*
X189100Y268960D01*
Y270040D01*
X188821Y271082D01*
X188281Y272018D01*
X187517Y272781D01*
X186583Y273321D01*
X185540Y273600D01*
D02*
G37*
G36*
X141540D02*
X140460D01*
X139418Y273321D01*
X138482Y272781D01*
X137719Y272018D01*
X137179Y271082D01*
X136900Y270040D01*
Y268960D01*
X137179Y267917D01*
X137719Y266983D01*
X138482Y266219D01*
X139418Y265679D01*
X140460Y265400D01*
X141540D01*
X142582Y265679D01*
X143517Y266219D01*
X144281Y266983D01*
X144821Y267917D01*
X145100Y268960D01*
Y270040D01*
X144821Y271082D01*
X144281Y272018D01*
X143517Y272781D01*
X142582Y273321D01*
X141540Y273600D01*
D02*
G37*
G36*
X39938Y266246D02*
X38075D01*
Y263354D01*
X43263D01*
X43213Y263732D01*
X42875Y264550D01*
X42336Y265252D01*
X41633Y265791D01*
X40815Y266130D01*
X39938Y266246D01*
D02*
G37*
G36*
X21237D02*
X19375D01*
Y263354D01*
X24562D01*
X24512Y263732D01*
X24174Y264550D01*
X23635Y265252D01*
X22932Y265791D01*
X22115Y266130D01*
X21237Y266246D01*
D02*
G37*
G36*
X18375D02*
X16512D01*
X15635Y266130D01*
X14817Y265791D01*
X14114Y265252D01*
X13576Y264550D01*
X13237Y263732D01*
X13187Y263354D01*
X18375D01*
Y266246D01*
D02*
G37*
G36*
X37075D02*
X35213D01*
X34336Y266130D01*
X33518Y265791D01*
X32815Y265252D01*
X32276Y264550D01*
X31938Y263732D01*
X31888Y263354D01*
X37075D01*
Y266246D01*
D02*
G37*
G36*
X165092Y265000D02*
X165000D01*
Y261000D01*
X169000D01*
Y261092D01*
X168693Y262237D01*
X168101Y263263D01*
X167263Y264101D01*
X166237Y264693D01*
X165092Y265000D01*
D02*
G37*
G36*
X164000D02*
X163908D01*
X162763Y264693D01*
X161737Y264101D01*
X160899Y263263D01*
X160307Y262237D01*
X160000Y261092D01*
Y261000D01*
X164000D01*
Y265000D01*
D02*
G37*
G36*
X185592Y264000D02*
X185500D01*
Y260000D01*
X189500D01*
Y260092D01*
X189193Y261237D01*
X188601Y262263D01*
X187763Y263101D01*
X186737Y263693D01*
X185592Y264000D01*
D02*
G37*
G36*
X141592D02*
X141500D01*
Y260000D01*
X145500D01*
Y260092D01*
X145193Y261237D01*
X144601Y262263D01*
X143763Y263101D01*
X142737Y263693D01*
X141592Y264000D01*
D02*
G37*
G36*
X184500D02*
X184408D01*
X183263Y263693D01*
X182237Y263101D01*
X181399Y262263D01*
X180807Y261237D01*
X180500Y260092D01*
Y260000D01*
X184500D01*
Y264000D01*
D02*
G37*
G36*
X140500D02*
X140408D01*
X139263Y263693D01*
X138237Y263101D01*
X137399Y262263D01*
X136807Y261237D01*
X136500Y260092D01*
Y260000D01*
X140500D01*
Y264000D01*
D02*
G37*
G36*
X43263Y262354D02*
X38075D01*
Y259463D01*
X39938D01*
X40815Y259579D01*
X41633Y259918D01*
X42336Y260457D01*
X42875Y261159D01*
X43213Y261977D01*
X43263Y262354D01*
D02*
G37*
G36*
X37075D02*
X31888D01*
X31938Y261977D01*
X32276Y261159D01*
X32815Y260457D01*
X33518Y259918D01*
X34336Y259579D01*
X35213Y259463D01*
X37075D01*
Y262354D01*
D02*
G37*
G36*
X24562D02*
X19375D01*
Y259463D01*
X21237D01*
X22115Y259579D01*
X22932Y259918D01*
X23635Y260457D01*
X24174Y261159D01*
X24512Y261977D01*
X24562Y262354D01*
D02*
G37*
G36*
X18375D02*
X13187D01*
X13237Y261977D01*
X13576Y261159D01*
X14114Y260457D01*
X14817Y259918D01*
X15635Y259579D01*
X16512Y259463D01*
X18375D01*
Y262354D01*
D02*
G37*
G36*
X285682Y267242D02*
X284602D01*
X283560Y266963D01*
X282625Y266423D01*
X281861Y265660D01*
X281322Y264725D01*
X281042Y263682D01*
Y262602D01*
X281322Y261560D01*
X281861Y260625D01*
X282625Y259861D01*
X283560Y259321D01*
X284602Y259042D01*
X285682D01*
X286725Y259321D01*
X287660Y259861D01*
X288423Y260625D01*
X288963Y261560D01*
X289242Y262602D01*
Y263682D01*
X288963Y264725D01*
X288423Y265660D01*
X287660Y266423D01*
X286725Y266963D01*
X285682Y267242D01*
D02*
G37*
G36*
X278663Y260571D02*
X277479D01*
X276334Y260264D01*
X275308Y259672D01*
X275243Y259607D01*
X278071Y256778D01*
X280900Y259607D01*
X280834Y259672D01*
X279808Y260264D01*
X278663Y260571D01*
D02*
G37*
G36*
X169000Y260000D02*
X165000D01*
Y256000D01*
X165092D01*
X166237Y256307D01*
X167263Y256899D01*
X168101Y257737D01*
X168693Y258763D01*
X169000Y259908D01*
Y260000D01*
D02*
G37*
G36*
X164000D02*
X160000D01*
Y259908D01*
X160307Y258763D01*
X160899Y257737D01*
X161737Y256899D01*
X162763Y256307D01*
X163908Y256000D01*
X164000D01*
Y260000D01*
D02*
G37*
G36*
X189500Y259000D02*
X185500D01*
Y255000D01*
X185592D01*
X186737Y255307D01*
X187763Y255899D01*
X188601Y256737D01*
X189193Y257763D01*
X189500Y258908D01*
Y259000D01*
D02*
G37*
G36*
X184500D02*
X180500D01*
Y258908D01*
X180807Y257763D01*
X181399Y256737D01*
X182237Y255899D01*
X183263Y255307D01*
X184408Y255000D01*
X184500D01*
Y259000D01*
D02*
G37*
G36*
X145500D02*
X141500D01*
Y255000D01*
X141592D01*
X142737Y255307D01*
X143763Y255899D01*
X144601Y256737D01*
X145193Y257763D01*
X145500Y258908D01*
Y259000D01*
D02*
G37*
G36*
X140500D02*
X136500D01*
Y258908D01*
X136807Y257763D01*
X137399Y256737D01*
X138237Y255899D01*
X139263Y255307D01*
X140408Y255000D01*
X140500D01*
Y259000D01*
D02*
G37*
G36*
X274535Y258899D02*
X274470Y258834D01*
X273878Y257808D01*
X273571Y256663D01*
Y255479D01*
X273878Y254334D01*
X274470Y253308D01*
X274535Y253243D01*
X277364Y256071D01*
X274535Y258899D01*
D02*
G37*
G36*
X281607Y258899D02*
X278778Y256071D01*
X281607Y253243D01*
X281672Y253308D01*
X282264Y254334D01*
X282571Y255479D01*
Y256663D01*
X282264Y257808D01*
X281672Y258834D01*
X281607Y258899D01*
D02*
G37*
G36*
X219368Y255350D02*
X218632D01*
X217952Y255068D01*
X217432Y254548D01*
X217150Y253868D01*
Y253132D01*
X217432Y252452D01*
X217952Y251932D01*
X218632Y251650D01*
X219368D01*
X220048Y251932D01*
X220568Y252452D01*
X220850Y253132D01*
Y253868D01*
X220568Y254548D01*
X220048Y255068D01*
X219368Y255350D01*
D02*
G37*
G36*
X278071Y255364D02*
X275243Y252536D01*
X275308Y252470D01*
X276334Y251878D01*
X277479Y251571D01*
X278663D01*
X279808Y251878D01*
X280834Y252470D01*
X280900Y252536D01*
X278071Y255364D01*
D02*
G37*
G36*
X165092Y255000D02*
X165000D01*
Y251000D01*
X169000D01*
Y251092D01*
X168693Y252237D01*
X168101Y253263D01*
X167263Y254101D01*
X166237Y254693D01*
X165092Y255000D01*
D02*
G37*
G36*
X164000D02*
X163908D01*
X162763Y254693D01*
X161737Y254101D01*
X160899Y253263D01*
X160307Y252237D01*
X160000Y251092D01*
Y251000D01*
X164000D01*
Y255000D01*
D02*
G37*
G36*
X185592Y254000D02*
X185500D01*
Y250000D01*
X189500D01*
Y250092D01*
X189193Y251237D01*
X188601Y252263D01*
X187763Y253101D01*
X186737Y253693D01*
X185592Y254000D01*
D02*
G37*
G36*
X141592D02*
X141500D01*
Y250000D01*
X145500D01*
Y250092D01*
X145193Y251237D01*
X144601Y252263D01*
X143763Y253101D01*
X142737Y253693D01*
X141592Y254000D01*
D02*
G37*
G36*
X184500D02*
X184408D01*
X183263Y253693D01*
X182237Y253101D01*
X181399Y252263D01*
X180807Y251237D01*
X180500Y250092D01*
Y250000D01*
X184500D01*
Y254000D01*
D02*
G37*
G36*
X140500D02*
X140408D01*
X139263Y253693D01*
X138237Y253101D01*
X137399Y252263D01*
X136807Y251237D01*
X136500Y250092D01*
Y250000D01*
X140500D01*
Y254000D01*
D02*
G37*
G36*
X271592Y253500D02*
X270408D01*
X269263Y253193D01*
X268237Y252601D01*
X268172Y252536D01*
X271000Y249707D01*
X273828Y252536D01*
X273763Y252601D01*
X272737Y253193D01*
X271592Y253500D01*
D02*
G37*
G36*
X203868Y253350D02*
X203132D01*
X202452Y253068D01*
X201932Y252548D01*
X201650Y251868D01*
Y251132D01*
X201932Y250452D01*
X202452Y249932D01*
X203132Y249650D01*
X203868D01*
X204548Y249932D01*
X205068Y250452D01*
X205350Y251132D01*
Y251868D01*
X205068Y252548D01*
X204548Y253068D01*
X203868Y253350D01*
D02*
G37*
G36*
X52499Y256289D02*
X51501D01*
X50538Y256031D01*
X49674Y255532D01*
X48968Y254826D01*
X48469Y253962D01*
X48211Y252999D01*
Y252001D01*
X48469Y251038D01*
X48968Y250173D01*
X49674Y249468D01*
X50538Y248969D01*
X51501Y248711D01*
X52499D01*
X53462Y248969D01*
X54326Y249468D01*
X55032Y250173D01*
X55531Y251038D01*
X55789Y252001D01*
Y252999D01*
X55531Y253962D01*
X55032Y254826D01*
X54326Y255532D01*
X53462Y256031D01*
X52499Y256289D01*
D02*
G37*
G36*
X267464Y251828D02*
X267399Y251763D01*
X266807Y250737D01*
X266500Y249592D01*
Y248408D01*
X266807Y247263D01*
X267399Y246237D01*
X267464Y246172D01*
X270293Y249000D01*
X267464Y251828D01*
D02*
G37*
G36*
X274535D02*
X271707Y249000D01*
X274535Y246172D01*
X274601Y246237D01*
X275193Y247263D01*
X275500Y248408D01*
Y249592D01*
X275193Y250737D01*
X274601Y251763D01*
X274535Y251828D01*
D02*
G37*
G36*
X169000Y250000D02*
X165000D01*
Y246000D01*
X165092D01*
X166237Y246307D01*
X167263Y246899D01*
X168101Y247737D01*
X168693Y248763D01*
X169000Y249908D01*
Y250000D01*
D02*
G37*
G36*
X164000D02*
X160000D01*
Y249908D01*
X160307Y248763D01*
X160899Y247737D01*
X161737Y246899D01*
X162763Y246307D01*
X163908Y246000D01*
X164000D01*
Y250000D01*
D02*
G37*
G36*
X207868Y248850D02*
X207132D01*
X206452Y248568D01*
X205932Y248048D01*
X205650Y247368D01*
Y246632D01*
X205932Y245952D01*
X206452Y245432D01*
X207132Y245150D01*
X207868D01*
X208548Y245432D01*
X209068Y245952D01*
X209350Y246632D01*
Y247368D01*
X209068Y248048D01*
X208548Y248568D01*
X207868Y248850D01*
D02*
G37*
G36*
X189500Y249000D02*
X185500D01*
Y245000D01*
X185592D01*
X186737Y245307D01*
X187763Y245899D01*
X188601Y246737D01*
X189193Y247763D01*
X189500Y248908D01*
Y249000D01*
D02*
G37*
G36*
X184500D02*
X180500D01*
Y248908D01*
X180807Y247763D01*
X181399Y246737D01*
X182237Y245899D01*
X183263Y245307D01*
X184408Y245000D01*
X184500D01*
Y249000D01*
D02*
G37*
G36*
X145500D02*
X141500D01*
Y245000D01*
X141592D01*
X142737Y245307D01*
X143763Y245899D01*
X144601Y246737D01*
X145193Y247763D01*
X145500Y248908D01*
Y249000D01*
D02*
G37*
G36*
X140500D02*
X136500D01*
Y248908D01*
X136807Y247763D01*
X137399Y246737D01*
X138237Y245899D01*
X139263Y245307D01*
X140408Y245000D01*
X140500D01*
Y249000D01*
D02*
G37*
G36*
X271000Y248293D02*
X268172Y245464D01*
X268237Y245399D01*
X269263Y244807D01*
X270408Y244500D01*
X271592D01*
X272737Y244807D01*
X273763Y245399D01*
X273828Y245464D01*
X271000Y248293D01*
D02*
G37*
G36*
X264521Y246429D02*
X263336D01*
X262192Y246122D01*
X261166Y245530D01*
X261101Y245464D01*
X263929Y242636D01*
X266757Y245464D01*
X266692Y245530D01*
X265666Y246122D01*
X264521Y246429D01*
D02*
G37*
G36*
X165092Y245000D02*
X165000D01*
Y241000D01*
X169000D01*
Y241092D01*
X168693Y242237D01*
X168101Y243263D01*
X167263Y244101D01*
X166237Y244693D01*
X165092Y245000D01*
D02*
G37*
G36*
X164000D02*
X163908D01*
X162763Y244693D01*
X161737Y244101D01*
X160899Y243263D01*
X160307Y242237D01*
X160000Y241092D01*
Y241000D01*
X164000D01*
Y245000D01*
D02*
G37*
G36*
X213368Y243850D02*
X212632D01*
X211952Y243568D01*
X211432Y243048D01*
X211150Y242368D01*
Y241632D01*
X211432Y240952D01*
X211952Y240432D01*
X212632Y240150D01*
X213368D01*
X214048Y240432D01*
X214568Y240952D01*
X214850Y241632D01*
Y242368D01*
X214568Y243048D01*
X214048Y243568D01*
X213368Y243850D01*
D02*
G37*
G36*
X185592Y244000D02*
X185500D01*
Y240000D01*
X189500D01*
Y240092D01*
X189193Y241237D01*
X188601Y242263D01*
X187763Y243101D01*
X186737Y243693D01*
X185592Y244000D01*
D02*
G37*
G36*
X141592D02*
X141500D01*
Y240000D01*
X145500D01*
Y240092D01*
X145193Y241237D01*
X144601Y242263D01*
X143763Y243101D01*
X142737Y243693D01*
X141592Y244000D01*
D02*
G37*
G36*
X184500D02*
X184408D01*
X183263Y243693D01*
X182237Y243101D01*
X181399Y242263D01*
X180807Y241237D01*
X180500Y240092D01*
Y240000D01*
X184500D01*
Y244000D01*
D02*
G37*
G36*
X140500D02*
X140408D01*
X139263Y243693D01*
X138237Y243101D01*
X137399Y242263D01*
X136807Y241237D01*
X136500Y240092D01*
Y240000D01*
X140500D01*
Y244000D01*
D02*
G37*
G36*
X260393Y244757D02*
X260328Y244692D01*
X259736Y243666D01*
X259429Y242521D01*
Y241336D01*
X259736Y240192D01*
X260328Y239166D01*
X260393Y239101D01*
X263222Y241929D01*
X260393Y244757D01*
D02*
G37*
G36*
X267464Y244757D02*
X264636Y241929D01*
X267464Y239101D01*
X267530Y239166D01*
X268122Y240192D01*
X268429Y241336D01*
Y242521D01*
X268122Y243666D01*
X267530Y244692D01*
X267464Y244757D01*
D02*
G37*
G36*
X52499Y246289D02*
X51501D01*
X50538Y246031D01*
X49674Y245532D01*
X48968Y244827D01*
X48469Y243963D01*
X48211Y242999D01*
Y242001D01*
X48469Y241038D01*
X48968Y240174D01*
X49674Y239468D01*
X50538Y238969D01*
X51501Y238711D01*
X52499D01*
X53462Y238969D01*
X54326Y239468D01*
X55032Y240174D01*
X55531Y241038D01*
X55789Y242001D01*
Y242999D01*
X55531Y243963D01*
X55032Y244827D01*
X54326Y245532D01*
X53462Y246031D01*
X52499Y246289D01*
D02*
G37*
G36*
X196368Y242350D02*
X195632D01*
X194952Y242068D01*
X194432Y241548D01*
X194150Y240868D01*
Y240132D01*
X194432Y239452D01*
X194952Y238932D01*
X195632Y238650D01*
X196368D01*
X197048Y238932D01*
X197568Y239452D01*
X197850Y240132D01*
Y240868D01*
X197568Y241548D01*
X197048Y242068D01*
X196368Y242350D01*
D02*
G37*
G36*
X204520Y241501D02*
X203783D01*
X203103Y241220D01*
X202583Y240699D01*
X202302Y240019D01*
Y239283D01*
X202583Y238603D01*
X203103Y238083D01*
X203783Y237802D01*
X204520D01*
X205199Y238083D01*
X205720Y238603D01*
X206001Y239283D01*
Y240019D01*
X205720Y240699D01*
X205199Y241220D01*
X204520Y241501D01*
D02*
G37*
G36*
X263929Y241222D02*
X261101Y238393D01*
X261166Y238328D01*
X262192Y237736D01*
X263336Y237429D01*
X264521D01*
X265666Y237736D01*
X266692Y238328D01*
X266757Y238393D01*
X263929Y241222D01*
D02*
G37*
G36*
X169000Y240000D02*
X165000D01*
Y236000D01*
X165092D01*
X166237Y236307D01*
X167263Y236899D01*
X168101Y237737D01*
X168693Y238763D01*
X169000Y239908D01*
Y240000D01*
D02*
G37*
G36*
X164000D02*
X160000D01*
Y239908D01*
X160307Y238763D01*
X160899Y237737D01*
X161737Y236899D01*
X162763Y236307D01*
X163908Y236000D01*
X164000D01*
Y240000D01*
D02*
G37*
G36*
X189500Y239000D02*
X185500D01*
Y235000D01*
X185592D01*
X186737Y235307D01*
X187763Y235899D01*
X188601Y236737D01*
X189193Y237763D01*
X189500Y238908D01*
Y239000D01*
D02*
G37*
G36*
X184500D02*
X180500D01*
Y238908D01*
X180807Y237763D01*
X181399Y236737D01*
X182237Y235899D01*
X183263Y235307D01*
X184408Y235000D01*
X184500D01*
Y239000D01*
D02*
G37*
G36*
X145500D02*
X141500D01*
Y235000D01*
X141592D01*
X142737Y235307D01*
X143763Y235899D01*
X144601Y236737D01*
X145193Y237763D01*
X145500Y238908D01*
Y239000D01*
D02*
G37*
G36*
X140500D02*
X136500D01*
Y238908D01*
X136807Y237763D01*
X137399Y236737D01*
X138237Y235899D01*
X139263Y235307D01*
X140408Y235000D01*
X140500D01*
Y239000D01*
D02*
G37*
G36*
X155218Y237850D02*
X154482D01*
X153802Y237568D01*
X153282Y237048D01*
X153000Y236368D01*
Y235632D01*
X153282Y234952D01*
X153802Y234432D01*
X154482Y234150D01*
X155218D01*
X155650Y234329D01*
X156150Y234030D01*
Y233632D01*
X156432Y232952D01*
X156952Y232432D01*
X157632Y232150D01*
X158368D01*
X159048Y232432D01*
X159568Y232952D01*
X159850Y233632D01*
Y234368D01*
X159568Y235048D01*
X159048Y235568D01*
X158368Y235850D01*
X157632D01*
X157200Y235671D01*
X156700Y235970D01*
Y236368D01*
X156418Y237048D01*
X155898Y237568D01*
X155218Y237850D01*
D02*
G37*
G36*
X200925Y234050D02*
X200189D01*
X199509Y233768D01*
X198989Y233248D01*
X198707Y232568D01*
Y231832D01*
X198989Y231152D01*
X199509Y230632D01*
X200189Y230350D01*
X200925D01*
X201605Y230632D01*
X202125Y231152D01*
X202407Y231832D01*
Y232568D01*
X202125Y233248D01*
X201605Y233768D01*
X200925Y234050D01*
D02*
G37*
G36*
X207868Y231850D02*
X207132D01*
X206452Y231568D01*
X205932Y231048D01*
X205650Y230368D01*
Y229632D01*
X205932Y228952D01*
X206452Y228432D01*
X207132Y228150D01*
X207868D01*
X208548Y228432D01*
X209068Y228952D01*
X209350Y229632D01*
Y230368D01*
X209068Y231048D01*
X208548Y231568D01*
X207868Y231850D01*
D02*
G37*
G36*
X147368Y232350D02*
X146632D01*
X145952Y232068D01*
X145432Y231548D01*
X145150Y230868D01*
Y230132D01*
X145432Y229452D01*
X145952Y228932D01*
X146632Y228650D01*
X147226D01*
X147481Y228481D01*
X147650Y228226D01*
Y227632D01*
X147932Y226952D01*
X148452Y226432D01*
X149132Y226150D01*
X149868D01*
X150548Y226432D01*
X151068Y226952D01*
X151350Y227632D01*
Y228368D01*
X151068Y229048D01*
X150548Y229568D01*
X149868Y229850D01*
X149274D01*
X149019Y230019D01*
X148850Y230274D01*
Y230868D01*
X148568Y231548D01*
X148048Y232068D01*
X147368Y232350D01*
D02*
G37*
G36*
X79592Y227500D02*
X79500D01*
Y223500D01*
X83500D01*
Y223592D01*
X83193Y224737D01*
X82601Y225763D01*
X81763Y226601D01*
X80737Y227193D01*
X79592Y227500D01*
D02*
G37*
G36*
X89592D02*
X89500D01*
Y223500D01*
X93500D01*
Y223592D01*
X93193Y224737D01*
X92601Y225763D01*
X91763Y226601D01*
X90737Y227193D01*
X89592Y227500D01*
D02*
G37*
G36*
X99592D02*
X99500D01*
Y223500D01*
X103500D01*
Y223592D01*
X103193Y224737D01*
X102601Y225763D01*
X101763Y226601D01*
X100737Y227193D01*
X99592Y227500D01*
D02*
G37*
G36*
X78500D02*
X78408D01*
X77263Y227193D01*
X76237Y226601D01*
X75399Y225763D01*
X74807Y224737D01*
X74500Y223592D01*
Y223500D01*
X78500D01*
Y227500D01*
D02*
G37*
G36*
X88500D02*
X88408D01*
X87263Y227193D01*
X86237Y226601D01*
X85399Y225763D01*
X84807Y224737D01*
X84500Y223592D01*
Y223500D01*
X88500D01*
Y227500D01*
D02*
G37*
G36*
X98500D02*
X98408D01*
X97263Y227193D01*
X96237Y226601D01*
X95399Y225763D01*
X94807Y224737D01*
X94500Y223592D01*
Y223500D01*
X98500D01*
Y227500D01*
D02*
G37*
G36*
X194040Y229600D02*
X192960D01*
X191918Y229321D01*
X190982Y228781D01*
X190219Y228017D01*
X189679Y227082D01*
X189400Y226040D01*
Y224960D01*
X189679Y223918D01*
X190219Y222983D01*
X190982Y222219D01*
X191918Y221679D01*
X192960Y221400D01*
X194040D01*
X195082Y221679D01*
X196018Y222219D01*
X196781Y222983D01*
X197321Y223918D01*
X197600Y224960D01*
Y226040D01*
X197321Y227082D01*
X196781Y228017D01*
X196018Y228781D01*
X195082Y229321D01*
X194040Y229600D01*
D02*
G37*
G36*
X184040D02*
X182960D01*
X181918Y229321D01*
X180982Y228781D01*
X180219Y228017D01*
X179679Y227082D01*
X179400Y226040D01*
Y224960D01*
X179679Y223918D01*
X180219Y222983D01*
X180982Y222219D01*
X181918Y221679D01*
X182960Y221400D01*
X184040D01*
X185082Y221679D01*
X186018Y222219D01*
X186781Y222983D01*
X187321Y223918D01*
X187600Y224960D01*
Y226040D01*
X187321Y227082D01*
X186781Y228017D01*
X186018Y228781D01*
X185082Y229321D01*
X184040Y229600D01*
D02*
G37*
G36*
X263141Y223577D02*
X262405D01*
X261725Y223295D01*
X261205Y222775D01*
X260923Y222095D01*
Y221359D01*
X261205Y220679D01*
X261725Y220158D01*
X262405Y219877D01*
X263141D01*
X263821Y220158D01*
X264342Y220679D01*
X264623Y221359D01*
Y222095D01*
X264342Y222775D01*
X263821Y223295D01*
X263141Y223577D01*
D02*
G37*
G36*
X109540Y227100D02*
X108460D01*
X107418Y226821D01*
X106483Y226281D01*
X105719Y225518D01*
X105179Y224583D01*
X104900Y223540D01*
Y222460D01*
X105179Y221417D01*
X105719Y220482D01*
X106483Y219719D01*
X107418Y219179D01*
X108460Y218900D01*
X109540D01*
X110582Y219179D01*
X111518Y219719D01*
X112281Y220482D01*
X112821Y221417D01*
X113100Y222460D01*
Y223540D01*
X112821Y224583D01*
X112281Y225518D01*
X111518Y226281D01*
X110582Y226821D01*
X109540Y227100D01*
D02*
G37*
G36*
X103500Y222500D02*
X99500D01*
Y218500D01*
X99592D01*
X100737Y218807D01*
X101763Y219399D01*
X102601Y220237D01*
X103193Y221263D01*
X103500Y222408D01*
Y222500D01*
D02*
G37*
G36*
X98500D02*
X94500D01*
Y222408D01*
X94807Y221263D01*
X95399Y220237D01*
X96237Y219399D01*
X97263Y218807D01*
X98408Y218500D01*
X98500D01*
Y222500D01*
D02*
G37*
G36*
X93500D02*
X89500D01*
Y218500D01*
X89592D01*
X90737Y218807D01*
X91763Y219399D01*
X92601Y220237D01*
X93193Y221263D01*
X93500Y222408D01*
Y222500D01*
D02*
G37*
G36*
X88500D02*
X84500D01*
Y222408D01*
X84807Y221263D01*
X85399Y220237D01*
X86237Y219399D01*
X87263Y218807D01*
X88408Y218500D01*
X88500D01*
Y222500D01*
D02*
G37*
G36*
X83500D02*
X79500D01*
Y218500D01*
X79592D01*
X80737Y218807D01*
X81763Y219399D01*
X82601Y220237D01*
X83193Y221263D01*
X83500Y222408D01*
Y222500D01*
D02*
G37*
G36*
X78500D02*
X74500D01*
Y222408D01*
X74807Y221263D01*
X75399Y220237D01*
X76237Y219399D01*
X77263Y218807D01*
X78408Y218500D01*
X78500D01*
Y222500D01*
D02*
G37*
G36*
X103368Y216850D02*
X102632D01*
X101952Y216568D01*
X101432Y216048D01*
X101150Y215368D01*
Y214632D01*
X101432Y213952D01*
X101952Y213432D01*
X102632Y213150D01*
X103368D01*
X104048Y213432D01*
X104568Y213952D01*
X104850Y214632D01*
Y215368D01*
X104568Y216048D01*
X104048Y216568D01*
X103368Y216850D01*
D02*
G37*
G36*
X115868Y215850D02*
X115132D01*
X114452Y215568D01*
X113932Y215048D01*
X113650Y214368D01*
Y213632D01*
X113932Y212952D01*
X114452Y212432D01*
X115132Y212150D01*
X115868D01*
X116548Y212432D01*
X117068Y212952D01*
X117350Y213632D01*
Y214368D01*
X117068Y215048D01*
X116548Y215568D01*
X115868Y215850D01*
D02*
G37*
G36*
X194040Y219600D02*
X192960D01*
X191918Y219321D01*
X190982Y218781D01*
X190219Y218018D01*
X189679Y217083D01*
X189400Y216040D01*
Y214960D01*
X189679Y213917D01*
X190219Y212983D01*
X190982Y212219D01*
X191918Y211679D01*
X192960Y211400D01*
X194040D01*
X195082Y211679D01*
X196018Y212219D01*
X196781Y212983D01*
X197321Y213917D01*
X197600Y214960D01*
Y216040D01*
X197321Y217083D01*
X196781Y218018D01*
X196018Y218781D01*
X195082Y219321D01*
X194040Y219600D01*
D02*
G37*
G36*
X184040D02*
X182960D01*
X181918Y219321D01*
X180982Y218781D01*
X180219Y218018D01*
X179679Y217083D01*
X179400Y216040D01*
Y214960D01*
X179679Y213917D01*
X180219Y212983D01*
X180982Y212219D01*
X181918Y211679D01*
X182960Y211400D01*
X184040D01*
X185082Y211679D01*
X186018Y212219D01*
X186781Y212983D01*
X187321Y213917D01*
X187600Y214960D01*
Y216040D01*
X187321Y217083D01*
X186781Y218018D01*
X186018Y218781D01*
X185082Y219321D01*
X184040Y219600D01*
D02*
G37*
G36*
X256368Y214350D02*
X255632D01*
X254952Y214068D01*
X254432Y213548D01*
X254150Y212868D01*
Y212132D01*
X254432Y211452D01*
X254952Y210932D01*
X255632Y210650D01*
X256368D01*
X257048Y210932D01*
X257568Y211452D01*
X257850Y212132D01*
Y212868D01*
X257568Y213548D01*
X257048Y214068D01*
X256368Y214350D01*
D02*
G37*
G36*
X222368Y211850D02*
X221632D01*
X220952Y211568D01*
X220432Y211048D01*
X220150Y210368D01*
Y209632D01*
X220432Y208952D01*
X220952Y208432D01*
X221632Y208150D01*
X222368D01*
X223048Y208432D01*
X223568Y208952D01*
X223850Y209632D01*
Y210368D01*
X223568Y211048D01*
X223048Y211568D01*
X222368Y211850D01*
D02*
G37*
G36*
X323546Y210445D02*
X323500D01*
Y206795D01*
X327150D01*
Y206842D01*
X326867Y207897D01*
X326321Y208843D01*
X325548Y209616D01*
X324602Y210162D01*
X323546Y210445D01*
D02*
G37*
G36*
X322500D02*
X322454D01*
X321398Y210162D01*
X320452Y209616D01*
X319679Y208843D01*
X319133Y207897D01*
X318850Y206842D01*
Y206795D01*
X322500D01*
Y210445D01*
D02*
G37*
G36*
X194092Y210000D02*
X194000D01*
Y206000D01*
X198000D01*
Y206092D01*
X197693Y207237D01*
X197101Y208263D01*
X196263Y209101D01*
X195237Y209693D01*
X194092Y210000D01*
D02*
G37*
G36*
X193000D02*
X192908D01*
X191763Y209693D01*
X190737Y209101D01*
X189899Y208263D01*
X189307Y207237D01*
X189000Y206092D01*
Y206000D01*
X193000D01*
Y210000D01*
D02*
G37*
G36*
X251868Y211350D02*
X251132D01*
X250452Y211068D01*
X249932Y210548D01*
X249650Y209868D01*
Y209132D01*
X249767Y208850D01*
X249632Y208350D01*
X248952Y208068D01*
X248432Y207548D01*
X248150Y206868D01*
Y206132D01*
X248432Y205452D01*
X248952Y204932D01*
X249632Y204650D01*
X250368D01*
X251048Y204932D01*
X251568Y205452D01*
X251850Y206132D01*
Y206868D01*
X251733Y207150D01*
X251868Y207650D01*
X252548Y207932D01*
X253068Y208452D01*
X253350Y209132D01*
Y209868D01*
X253068Y210548D01*
X252548Y211068D01*
X251868Y211350D01*
D02*
G37*
G36*
X175133Y208115D02*
X174397D01*
X173717Y207834D01*
X173197Y207313D01*
X172915Y206633D01*
Y205897D01*
X173197Y205217D01*
X173717Y204697D01*
X174397Y204415D01*
X175133D01*
X175813Y204697D01*
X176334Y205217D01*
X176615Y205897D01*
Y206633D01*
X176334Y207313D01*
X175813Y207834D01*
X175133Y208115D01*
D02*
G37*
G36*
X238868Y207850D02*
X238132D01*
X237452Y207568D01*
X236932Y207048D01*
X236650Y206368D01*
Y205632D01*
X236932Y204952D01*
X237452Y204432D01*
X238132Y204150D01*
X238868D01*
X239548Y204432D01*
X240068Y204952D01*
X240350Y205632D01*
Y206368D01*
X240068Y207048D01*
X239548Y207568D01*
X238868Y207850D01*
D02*
G37*
G36*
X169368Y207350D02*
X168632D01*
X167952Y207068D01*
X167432Y206548D01*
X167150Y205868D01*
Y205132D01*
X167432Y204452D01*
X167952Y203932D01*
X168632Y203650D01*
X169368D01*
X170048Y203932D01*
X170568Y204452D01*
X170850Y205132D01*
Y205868D01*
X170568Y206548D01*
X170048Y207068D01*
X169368Y207350D01*
D02*
G37*
G36*
X327150Y205795D02*
X323500D01*
Y202146D01*
X323546D01*
X324602Y202429D01*
X325548Y202975D01*
X326321Y203747D01*
X326867Y204694D01*
X327150Y205749D01*
Y205795D01*
D02*
G37*
G36*
X322500D02*
X318850D01*
Y205749D01*
X319133Y204694D01*
X319679Y203747D01*
X320452Y202975D01*
X321398Y202429D01*
X322454Y202146D01*
X322500D01*
Y205795D01*
D02*
G37*
G36*
X184040Y209600D02*
X182960D01*
X181918Y209321D01*
X180982Y208781D01*
X180219Y208017D01*
X179679Y207083D01*
X179400Y206040D01*
Y204960D01*
X179679Y203918D01*
X180219Y202982D01*
X180982Y202219D01*
X181918Y201679D01*
X182960Y201400D01*
X184040D01*
X185082Y201679D01*
X186018Y202219D01*
X186781Y202982D01*
X187321Y203918D01*
X187600Y204960D01*
Y206040D01*
X187321Y207083D01*
X186781Y208017D01*
X186018Y208781D01*
X185082Y209321D01*
X184040Y209600D01*
D02*
G37*
G36*
X198000Y205000D02*
X194000D01*
Y201000D01*
X194092D01*
X195237Y201307D01*
X196263Y201899D01*
X197101Y202737D01*
X197693Y203763D01*
X198000Y204908D01*
Y205000D01*
D02*
G37*
G36*
X193000D02*
X189000D01*
Y204908D01*
X189307Y203763D01*
X189899Y202737D01*
X190737Y201899D01*
X191763Y201307D01*
X192908Y201000D01*
X193000D01*
Y205000D01*
D02*
G37*
G36*
X80092Y195000D02*
X80000D01*
Y191000D01*
X84000D01*
Y191092D01*
X83693Y192237D01*
X83101Y193263D01*
X82263Y194101D01*
X81237Y194693D01*
X80092Y195000D01*
D02*
G37*
G36*
X90092D02*
X90000D01*
Y191000D01*
X94000D01*
Y191092D01*
X93693Y192237D01*
X93101Y193263D01*
X92263Y194101D01*
X91237Y194693D01*
X90092Y195000D01*
D02*
G37*
G36*
X100092D02*
X100000D01*
Y191000D01*
X104000D01*
Y191092D01*
X103693Y192237D01*
X103101Y193263D01*
X102263Y194101D01*
X101237Y194693D01*
X100092Y195000D01*
D02*
G37*
G36*
X79000D02*
X78908D01*
X77763Y194693D01*
X76737Y194101D01*
X75899Y193263D01*
X75307Y192237D01*
X75000Y191092D01*
Y191000D01*
X79000D01*
Y195000D01*
D02*
G37*
G36*
X89000D02*
X88908D01*
X87763Y194693D01*
X86737Y194101D01*
X85899Y193263D01*
X85307Y192237D01*
X85000Y191092D01*
Y191000D01*
X89000D01*
Y195000D01*
D02*
G37*
G36*
X99000D02*
X98908D01*
X97763Y194693D01*
X96737Y194101D01*
X95899Y193263D01*
X95307Y192237D01*
X95000Y191092D01*
Y191000D01*
X99000D01*
Y195000D01*
D02*
G37*
G36*
X195999Y195289D02*
X195001D01*
X194037Y195031D01*
X193174Y194532D01*
X192468Y193826D01*
X191969Y192963D01*
X191711Y191999D01*
Y191001D01*
X191969Y190038D01*
X192468Y189173D01*
X193174Y188468D01*
X194037Y187969D01*
X195001Y187711D01*
X195999D01*
X196962Y187969D01*
X197827Y188468D01*
X198532Y189173D01*
X199031Y190038D01*
X199289Y191001D01*
Y191999D01*
X199031Y192963D01*
X198532Y193826D01*
X197827Y194532D01*
X196962Y195031D01*
X195999Y195289D01*
D02*
G37*
G36*
X185999D02*
X185001D01*
X184037Y195031D01*
X183174Y194532D01*
X182468Y193826D01*
X181969Y192963D01*
X181711Y191999D01*
Y191001D01*
X181969Y190038D01*
X182468Y189173D01*
X183174Y188468D01*
X184037Y187969D01*
X185001Y187711D01*
X185999D01*
X186962Y187969D01*
X187827Y188468D01*
X188532Y189173D01*
X189031Y190038D01*
X189289Y191001D01*
Y191999D01*
X189031Y192963D01*
X188532Y193826D01*
X187827Y194532D01*
X186962Y195031D01*
X185999Y195289D01*
D02*
G37*
G36*
X110040Y194600D02*
X108960D01*
X107917Y194321D01*
X106983Y193781D01*
X106219Y193017D01*
X105679Y192083D01*
X105400Y191040D01*
Y189960D01*
X105679Y188918D01*
X106219Y187982D01*
X106983Y187219D01*
X107917Y186679D01*
X108960Y186400D01*
X110040D01*
X111082Y186679D01*
X112018Y187219D01*
X112781Y187982D01*
X113321Y188918D01*
X113600Y189960D01*
Y191040D01*
X113321Y192083D01*
X112781Y193017D01*
X112018Y193781D01*
X111082Y194321D01*
X110040Y194600D01*
D02*
G37*
G36*
X104000Y190000D02*
X100000D01*
Y186000D01*
X100092D01*
X101237Y186307D01*
X102263Y186899D01*
X103101Y187737D01*
X103693Y188763D01*
X104000Y189908D01*
Y190000D01*
D02*
G37*
G36*
X99000D02*
X95000D01*
Y189908D01*
X95307Y188763D01*
X95899Y187737D01*
X96737Y186899D01*
X97763Y186307D01*
X98908Y186000D01*
X99000D01*
Y190000D01*
D02*
G37*
G36*
X94000D02*
X90000D01*
Y186000D01*
X90092D01*
X91237Y186307D01*
X92263Y186899D01*
X93101Y187737D01*
X93693Y188763D01*
X94000Y189908D01*
Y190000D01*
D02*
G37*
G36*
X89000D02*
X85000D01*
Y189908D01*
X85307Y188763D01*
X85899Y187737D01*
X86737Y186899D01*
X87763Y186307D01*
X88908Y186000D01*
X89000D01*
Y190000D01*
D02*
G37*
G36*
X84000D02*
X80000D01*
Y186000D01*
X80092D01*
X81237Y186307D01*
X82263Y186899D01*
X83101Y187737D01*
X83693Y188763D01*
X84000Y189908D01*
Y190000D01*
D02*
G37*
G36*
X79000D02*
X75000D01*
Y189908D01*
X75307Y188763D01*
X75899Y187737D01*
X76737Y186899D01*
X77763Y186307D01*
X78908Y186000D01*
X79000D01*
Y190000D01*
D02*
G37*
G36*
X231969Y188671D02*
X230889D01*
X229846Y188392D01*
X228911Y187852D01*
X228148Y187089D01*
X227608Y186154D01*
X227329Y185111D01*
Y184031D01*
X227608Y182989D01*
X228148Y182054D01*
X228911Y181290D01*
X229846Y180751D01*
X230889Y180471D01*
X231969D01*
X233012Y180751D01*
X233946Y181290D01*
X234710Y182054D01*
X235249Y182989D01*
X235529Y184031D01*
Y185111D01*
X235249Y186154D01*
X234710Y187089D01*
X233946Y187852D01*
X233012Y188392D01*
X231969Y188671D01*
D02*
G37*
G36*
X312368Y182850D02*
X311632D01*
X310952Y182568D01*
X310432Y182048D01*
X310150Y181368D01*
Y180632D01*
X310432Y179952D01*
X310952Y179432D01*
X311632Y179150D01*
X312368D01*
X313048Y179432D01*
X313568Y179952D01*
X313850Y180632D01*
Y181368D01*
X313568Y182048D01*
X313048Y182568D01*
X312368Y182850D01*
D02*
G37*
G36*
X239092Y182000D02*
X237908D01*
X236763Y181693D01*
X235737Y181101D01*
X235672Y181035D01*
X238500Y178207D01*
X241328Y181035D01*
X241263Y181101D01*
X240237Y181693D01*
X239092Y182000D01*
D02*
G37*
G36*
X323494Y184454D02*
X322506D01*
X321553Y184199D01*
X320698Y183705D01*
X320000Y183007D01*
X319506Y182152D01*
X319250Y181198D01*
Y180211D01*
X319506Y179257D01*
X320000Y178402D01*
X320698Y177704D01*
X321553Y177211D01*
X322506Y176955D01*
X323494D01*
X324447Y177211D01*
X325302Y177704D01*
X326000Y178402D01*
X326494Y179257D01*
X326750Y180211D01*
Y181198D01*
X326494Y182152D01*
X326000Y183007D01*
X325302Y183705D01*
X324447Y184199D01*
X323494Y184454D01*
D02*
G37*
G36*
X234964Y180328D02*
X234899Y180263D01*
X234307Y179237D01*
X234000Y178092D01*
Y176908D01*
X234307Y175763D01*
X234899Y174737D01*
X234964Y174672D01*
X237793Y177500D01*
X234964Y180328D01*
D02*
G37*
G36*
X242036D02*
X239207Y177500D01*
X242036Y174672D01*
X242101Y174737D01*
X242693Y175763D01*
X243000Y176908D01*
Y178092D01*
X242693Y179237D01*
X242101Y180263D01*
X242036Y180328D01*
D02*
G37*
G36*
X238500Y176793D02*
X235672Y173965D01*
X235737Y173899D01*
X236763Y173307D01*
X237908Y173000D01*
X239092D01*
X240237Y173307D01*
X241263Y173899D01*
X241328Y173965D01*
X238500Y176793D01*
D02*
G37*
G36*
X246164Y174929D02*
X244979D01*
X243834Y174622D01*
X242808Y174030D01*
X242743Y173965D01*
X245571Y171136D01*
X248399Y173965D01*
X248334Y174030D01*
X247308Y174622D01*
X246164Y174929D01*
D02*
G37*
G36*
X117368Y172850D02*
X116632D01*
X115952Y172568D01*
X115432Y172048D01*
X115150Y171368D01*
Y170632D01*
X115432Y169952D01*
X115952Y169432D01*
X116632Y169150D01*
X117368D01*
X118048Y169432D01*
X118568Y169952D01*
X118850Y170632D01*
Y171368D01*
X118568Y172048D01*
X118048Y172568D01*
X117368Y172850D01*
D02*
G37*
G36*
X242036Y173257D02*
X241970Y173192D01*
X241378Y172166D01*
X241071Y171021D01*
Y169836D01*
X241378Y168692D01*
X241970Y167666D01*
X242036Y167601D01*
X244864Y170429D01*
X242036Y173257D01*
D02*
G37*
G36*
X249107D02*
X246278Y170429D01*
X249107Y167601D01*
X249172Y167666D01*
X249764Y168692D01*
X250071Y169836D01*
Y171021D01*
X249764Y172166D01*
X249172Y173192D01*
X249107Y173257D01*
D02*
G37*
G36*
X245571Y169722D02*
X242743Y166893D01*
X242808Y166828D01*
X243834Y166236D01*
X244979Y165929D01*
X246164D01*
X247308Y166236D01*
X248334Y166828D01*
X248399Y166893D01*
X245571Y169722D01*
D02*
G37*
G36*
X253235Y167858D02*
X252050D01*
X250905Y167551D01*
X249879Y166959D01*
X249814Y166893D01*
X252642Y164065D01*
X255471Y166893D01*
X255405Y166959D01*
X254379Y167551D01*
X253235Y167858D01*
D02*
G37*
G36*
X249107Y166186D02*
X249041Y166121D01*
X248449Y165095D01*
X248142Y163950D01*
Y162765D01*
X248449Y161621D01*
X249041Y160595D01*
X249107Y160529D01*
X251935Y163358D01*
X249107Y166186D01*
D02*
G37*
G36*
X256178D02*
X253349Y163358D01*
X256178Y160529D01*
X256243Y160595D01*
X256836Y161621D01*
X257142Y162765D01*
Y163950D01*
X256836Y165095D01*
X256243Y166121D01*
X256178Y166186D01*
D02*
G37*
G36*
X116368Y163850D02*
X115632D01*
X114952Y163568D01*
X114432Y163048D01*
X114150Y162368D01*
Y161632D01*
X114432Y160952D01*
X114952Y160432D01*
X115632Y160150D01*
X116368D01*
X117048Y160432D01*
X117568Y160952D01*
X117850Y161632D01*
Y162368D01*
X117568Y163048D01*
X117048Y163568D01*
X116368Y163850D01*
D02*
G37*
G36*
X252642Y162651D02*
X249814Y159822D01*
X249879Y159757D01*
X250905Y159165D01*
X252050Y158858D01*
X253235D01*
X254379Y159165D01*
X255405Y159757D01*
X255471Y159822D01*
X252642Y162651D01*
D02*
G37*
G36*
X75868Y124850D02*
X75132D01*
X74452Y124568D01*
X73932Y124048D01*
X73650Y123368D01*
Y122632D01*
X73932Y121952D01*
X74452Y121432D01*
X75132Y121150D01*
X75868D01*
X76548Y121432D01*
X77068Y121952D01*
X77350Y122632D01*
Y123368D01*
X77068Y124048D01*
X76548Y124568D01*
X75868Y124850D01*
D02*
G37*
G36*
X60868Y123350D02*
X60132D01*
X59452Y123068D01*
X58932Y122548D01*
X58650Y121868D01*
Y121132D01*
X58932Y120452D01*
X59452Y119932D01*
X60132Y119650D01*
X60868D01*
X61548Y119932D01*
X62068Y120452D01*
X62350Y121132D01*
Y121868D01*
X62068Y122548D01*
X61548Y123068D01*
X60868Y123350D01*
D02*
G37*
G36*
X263027Y111500D02*
X263000D01*
Y108000D01*
X266500D01*
Y108027D01*
X266227Y109044D01*
X265701Y109956D01*
X264956Y110701D01*
X264044Y111227D01*
X263027Y111500D01*
D02*
G37*
G36*
X253027D02*
X253000D01*
Y108000D01*
X256500D01*
Y108027D01*
X256227Y109044D01*
X255701Y109956D01*
X254956Y110701D01*
X254044Y111227D01*
X253027Y111500D01*
D02*
G37*
G36*
X262000D02*
X261973D01*
X260956Y111227D01*
X260044Y110701D01*
X259299Y109956D01*
X258773Y109044D01*
X258500Y108027D01*
Y108000D01*
X262000D01*
Y111500D01*
D02*
G37*
G36*
X252000D02*
X251973D01*
X250956Y111227D01*
X250044Y110701D01*
X249299Y109956D01*
X248773Y109044D01*
X248500Y108027D01*
Y108000D01*
X252000D01*
Y111500D01*
D02*
G37*
G36*
X118868Y109350D02*
X118132D01*
X117452Y109068D01*
X116932Y108548D01*
X116650Y107868D01*
Y107132D01*
X116932Y106452D01*
X117452Y105932D01*
X118132Y105650D01*
X118868D01*
X119548Y105932D01*
X120068Y106452D01*
X120350Y107132D01*
Y107868D01*
X120068Y108548D01*
X119548Y109068D01*
X118868Y109350D01*
D02*
G37*
G36*
X342974Y111100D02*
X342026D01*
X341110Y110855D01*
X340290Y110381D01*
X339619Y109710D01*
X339145Y108890D01*
X338900Y107974D01*
Y107026D01*
X339145Y106110D01*
X339619Y105290D01*
X340290Y104619D01*
X341110Y104145D01*
X342026Y103900D01*
X342974D01*
X343890Y104145D01*
X344710Y104619D01*
X345381Y105290D01*
X345855Y106110D01*
X346100Y107026D01*
Y107974D01*
X345855Y108890D01*
X345381Y109710D01*
X344710Y110381D01*
X343890Y110855D01*
X342974Y111100D01*
D02*
G37*
G36*
X332974D02*
X332026D01*
X331110Y110855D01*
X330290Y110381D01*
X329619Y109710D01*
X329145Y108890D01*
X328900Y107974D01*
Y107026D01*
X329145Y106110D01*
X329619Y105290D01*
X330290Y104619D01*
X331110Y104145D01*
X332026Y103900D01*
X332974D01*
X333890Y104145D01*
X334710Y104619D01*
X335381Y105290D01*
X335855Y106110D01*
X336100Y107026D01*
Y107974D01*
X335855Y108890D01*
X335381Y109710D01*
X334710Y110381D01*
X333890Y110855D01*
X332974Y111100D01*
D02*
G37*
G36*
X322974D02*
X322026D01*
X321110Y110855D01*
X320290Y110381D01*
X319619Y109710D01*
X319145Y108890D01*
X318900Y107974D01*
Y107026D01*
X319145Y106110D01*
X319619Y105290D01*
X320290Y104619D01*
X321110Y104145D01*
X322026Y103900D01*
X322974D01*
X323890Y104145D01*
X324710Y104619D01*
X325381Y105290D01*
X325855Y106110D01*
X326100Y107026D01*
Y107974D01*
X325855Y108890D01*
X325381Y109710D01*
X324710Y110381D01*
X323890Y110855D01*
X322974Y111100D01*
D02*
G37*
G36*
X312974D02*
X312026D01*
X311110Y110855D01*
X310290Y110381D01*
X309619Y109710D01*
X309145Y108890D01*
X308900Y107974D01*
Y107026D01*
X309145Y106110D01*
X309619Y105290D01*
X310290Y104619D01*
X311110Y104145D01*
X312026Y103900D01*
X312974D01*
X313890Y104145D01*
X314710Y104619D01*
X315381Y105290D01*
X315855Y106110D01*
X316100Y107026D01*
Y107974D01*
X315855Y108890D01*
X315381Y109710D01*
X314710Y110381D01*
X313890Y110855D01*
X312974Y111100D01*
D02*
G37*
G36*
X302974D02*
X302026D01*
X301110Y110855D01*
X300290Y110381D01*
X299619Y109710D01*
X299145Y108890D01*
X298900Y107974D01*
Y107026D01*
X299145Y106110D01*
X299619Y105290D01*
X300290Y104619D01*
X301110Y104145D01*
X302026Y103900D01*
X302974D01*
X303890Y104145D01*
X304710Y104619D01*
X305381Y105290D01*
X305855Y106110D01*
X306100Y107026D01*
Y107974D01*
X305855Y108890D01*
X305381Y109710D01*
X304710Y110381D01*
X303890Y110855D01*
X302974Y111100D01*
D02*
G37*
G36*
X292974D02*
X292026D01*
X291110Y110855D01*
X290290Y110381D01*
X289619Y109710D01*
X289145Y108890D01*
X288900Y107974D01*
Y107026D01*
X289145Y106110D01*
X289619Y105290D01*
X290290Y104619D01*
X291110Y104145D01*
X292026Y103900D01*
X292974D01*
X293890Y104145D01*
X294710Y104619D01*
X295381Y105290D01*
X295855Y106110D01*
X296100Y107026D01*
Y107974D01*
X295855Y108890D01*
X295381Y109710D01*
X294710Y110381D01*
X293890Y110855D01*
X292974Y111100D01*
D02*
G37*
G36*
X272974D02*
X272026D01*
X271110Y110855D01*
X270290Y110381D01*
X269619Y109710D01*
X269145Y108890D01*
X268900Y107974D01*
Y107026D01*
X269145Y106110D01*
X269619Y105290D01*
X270290Y104619D01*
X271110Y104145D01*
X272026Y103900D01*
X272974D01*
X273890Y104145D01*
X274710Y104619D01*
X275381Y105290D01*
X275855Y106110D01*
X276100Y107026D01*
Y107974D01*
X275855Y108890D01*
X275381Y109710D01*
X274710Y110381D01*
X273890Y110855D01*
X272974Y111100D01*
D02*
G37*
G36*
X242974D02*
X242026D01*
X241110Y110855D01*
X240290Y110381D01*
X239619Y109710D01*
X239145Y108890D01*
X238900Y107974D01*
Y107026D01*
X239145Y106110D01*
X239619Y105290D01*
X240290Y104619D01*
X241110Y104145D01*
X242026Y103900D01*
X242974D01*
X243890Y104145D01*
X244710Y104619D01*
X245381Y105290D01*
X245855Y106110D01*
X246100Y107026D01*
Y107974D01*
X245855Y108890D01*
X245381Y109710D01*
X244710Y110381D01*
X243890Y110855D01*
X242974Y111100D01*
D02*
G37*
G36*
X232974D02*
X232026D01*
X231110Y110855D01*
X230290Y110381D01*
X229619Y109710D01*
X229145Y108890D01*
X228900Y107974D01*
Y107026D01*
X229145Y106110D01*
X229619Y105290D01*
X230290Y104619D01*
X231110Y104145D01*
X232026Y103900D01*
X232974D01*
X233890Y104145D01*
X234710Y104619D01*
X235381Y105290D01*
X235855Y106110D01*
X236100Y107026D01*
Y107974D01*
X235855Y108890D01*
X235381Y109710D01*
X234710Y110381D01*
X233890Y110855D01*
X232974Y111100D01*
D02*
G37*
G36*
X222974D02*
X222026D01*
X221110Y110855D01*
X220290Y110381D01*
X219619Y109710D01*
X219145Y108890D01*
X218900Y107974D01*
Y107026D01*
X219145Y106110D01*
X219619Y105290D01*
X220290Y104619D01*
X221110Y104145D01*
X222026Y103900D01*
X222974D01*
X223890Y104145D01*
X224710Y104619D01*
X225381Y105290D01*
X225855Y106110D01*
X226100Y107026D01*
Y107974D01*
X225855Y108890D01*
X225381Y109710D01*
X224710Y110381D01*
X223890Y110855D01*
X222974Y111100D01*
D02*
G37*
G36*
X212974D02*
X212026D01*
X211110Y110855D01*
X210290Y110381D01*
X209619Y109710D01*
X209145Y108890D01*
X208900Y107974D01*
Y107026D01*
X209145Y106110D01*
X209619Y105290D01*
X210290Y104619D01*
X211110Y104145D01*
X212026Y103900D01*
X212974D01*
X213890Y104145D01*
X214710Y104619D01*
X215381Y105290D01*
X215855Y106110D01*
X216100Y107026D01*
Y107974D01*
X215855Y108890D01*
X215381Y109710D01*
X214710Y110381D01*
X213890Y110855D01*
X212974Y111100D01*
D02*
G37*
G36*
X202974D02*
X202026D01*
X201110Y110855D01*
X200290Y110381D01*
X199619Y109710D01*
X199145Y108890D01*
X198900Y107974D01*
Y107026D01*
X199145Y106110D01*
X199619Y105290D01*
X200290Y104619D01*
X201110Y104145D01*
X202026Y103900D01*
X202974D01*
X203890Y104145D01*
X204710Y104619D01*
X205381Y105290D01*
X205855Y106110D01*
X206100Y107026D01*
Y107974D01*
X205855Y108890D01*
X205381Y109710D01*
X204710Y110381D01*
X203890Y110855D01*
X202974Y111100D01*
D02*
G37*
G36*
X266500Y107000D02*
X263000D01*
Y103500D01*
X263027D01*
X264044Y103773D01*
X264956Y104299D01*
X265701Y105044D01*
X266227Y105956D01*
X266500Y106973D01*
Y107000D01*
D02*
G37*
G36*
X262000D02*
X258500D01*
Y106973D01*
X258773Y105956D01*
X259299Y105044D01*
X260044Y104299D01*
X260956Y103773D01*
X261973Y103500D01*
X262000D01*
Y107000D01*
D02*
G37*
G36*
X256500D02*
X253000D01*
Y103500D01*
X253027D01*
X254044Y103773D01*
X254956Y104299D01*
X255701Y105044D01*
X256227Y105956D01*
X256500Y106973D01*
Y107000D01*
D02*
G37*
G36*
X252000D02*
X248500D01*
Y106973D01*
X248773Y105956D01*
X249299Y105044D01*
X250044Y104299D01*
X250956Y103773D01*
X251973Y103500D01*
X252000D01*
Y107000D01*
D02*
G37*
G36*
X163868Y106350D02*
X163132D01*
X162452Y106068D01*
X161932Y105548D01*
X161650Y104868D01*
Y104132D01*
X161932Y103452D01*
X162452Y102932D01*
X163132Y102650D01*
X163868D01*
X164548Y102932D01*
X165068Y103452D01*
X165350Y104132D01*
Y104868D01*
X165068Y105548D01*
X164548Y106068D01*
X163868Y106350D01*
D02*
G37*
G36*
X233368Y102850D02*
X232632D01*
X231952Y102568D01*
X231432Y102048D01*
X231150Y101368D01*
Y100632D01*
X231432Y99952D01*
X231952Y99432D01*
X232632Y99150D01*
X233368D01*
X234048Y99432D01*
X234568Y99952D01*
X234850Y100632D01*
Y101368D01*
X234568Y102048D01*
X234048Y102568D01*
X233368Y102850D01*
D02*
G37*
G36*
X228368Y100350D02*
X227632D01*
X226952Y100068D01*
X226432Y99548D01*
X226150Y98868D01*
Y98132D01*
X226432Y97452D01*
X226952Y96932D01*
X227632Y96650D01*
X228368D01*
X229048Y96932D01*
X229568Y97452D01*
X229850Y98132D01*
Y98868D01*
X229568Y99548D01*
X229048Y100068D01*
X228368Y100350D01*
D02*
G37*
G36*
X320368Y98350D02*
X319632D01*
X318952Y98068D01*
X318432Y97548D01*
X318150Y96868D01*
Y96132D01*
X318432Y95452D01*
X318952Y94932D01*
X319632Y94650D01*
X320368D01*
X321048Y94932D01*
X321568Y95452D01*
X321850Y96132D01*
Y96868D01*
X321568Y97548D01*
X321048Y98068D01*
X320368Y98350D01*
D02*
G37*
G36*
X339868Y97850D02*
X339132D01*
X338452Y97568D01*
X337932Y97048D01*
X337650Y96368D01*
Y95632D01*
X337932Y94952D01*
X338452Y94432D01*
X339132Y94150D01*
X339868D01*
X340548Y94432D01*
X341068Y94952D01*
X341350Y95632D01*
Y96368D01*
X341068Y97048D01*
X340548Y97568D01*
X339868Y97850D01*
D02*
G37*
G36*
X146368Y92850D02*
X145632D01*
X144952Y92568D01*
X144432Y92048D01*
X144150Y91368D01*
Y90632D01*
X144432Y89952D01*
X144952Y89432D01*
X145632Y89150D01*
X146368D01*
X147048Y89432D01*
X147568Y89952D01*
X147850Y90632D01*
Y91368D01*
X147568Y92048D01*
X147048Y92568D01*
X146368Y92850D01*
D02*
G37*
G36*
X160708Y90807D02*
X159972D01*
X159292Y90526D01*
X158771Y90005D01*
X158490Y89325D01*
Y88589D01*
X158771Y87909D01*
X159292Y87389D01*
X159972Y87107D01*
X160708D01*
X161388Y87389D01*
X161908Y87909D01*
X162190Y88589D01*
Y89325D01*
X161908Y90005D01*
X161388Y90526D01*
X160708Y90807D01*
D02*
G37*
G36*
X148399Y88319D02*
X147663D01*
X146983Y88037D01*
X146463Y87517D01*
X146181Y86837D01*
Y86101D01*
X146463Y85421D01*
X146983Y84900D01*
X147663Y84619D01*
X148399D01*
X149079Y84900D01*
X149599Y85421D01*
X149881Y86101D01*
Y86837D01*
X149599Y87517D01*
X149079Y88037D01*
X148399Y88319D01*
D02*
G37*
G36*
X30592Y82500D02*
X30500D01*
Y78500D01*
X34500D01*
Y78592D01*
X34193Y79737D01*
X33601Y80763D01*
X32763Y81601D01*
X31737Y82193D01*
X30592Y82500D01*
D02*
G37*
G36*
X20592D02*
X20500D01*
Y78500D01*
X24500D01*
Y78592D01*
X24193Y79737D01*
X23601Y80763D01*
X22763Y81601D01*
X21737Y82193D01*
X20592Y82500D01*
D02*
G37*
G36*
X10592D02*
X10500D01*
Y78500D01*
X14500D01*
Y78592D01*
X14193Y79737D01*
X13601Y80763D01*
X12763Y81601D01*
X11737Y82193D01*
X10592Y82500D01*
D02*
G37*
G36*
X29500D02*
X29408D01*
X28263Y82193D01*
X27237Y81601D01*
X26399Y80763D01*
X25807Y79737D01*
X25500Y78592D01*
Y78500D01*
X29500D01*
Y82500D01*
D02*
G37*
G36*
X19500D02*
X19408D01*
X18263Y82193D01*
X17237Y81601D01*
X16399Y80763D01*
X15807Y79737D01*
X15500Y78592D01*
Y78500D01*
X19500D01*
Y82500D01*
D02*
G37*
G36*
X9500D02*
X9408D01*
X8263Y82193D01*
X7237Y81601D01*
X6399Y80763D01*
X5807Y79737D01*
X5500Y78592D01*
Y78500D01*
X9500D01*
Y82500D01*
D02*
G37*
G36*
X127868Y81850D02*
X127132D01*
X126452Y81568D01*
X125932Y81048D01*
X125650Y80368D01*
Y79632D01*
X125932Y78952D01*
X126452Y78432D01*
X127132Y78150D01*
X127868D01*
X128548Y78432D01*
X129068Y78952D01*
X129350Y79632D01*
Y80368D01*
X129068Y81048D01*
X128548Y81568D01*
X127868Y81850D01*
D02*
G37*
G36*
X243027Y81500D02*
X243000D01*
Y78000D01*
X246500D01*
Y78027D01*
X246227Y79044D01*
X245701Y79956D01*
X244956Y80701D01*
X244044Y81227D01*
X243027Y81500D01*
D02*
G37*
G36*
X233027D02*
X233000D01*
Y78000D01*
X236500D01*
Y78027D01*
X236227Y79044D01*
X235701Y79956D01*
X234956Y80701D01*
X234044Y81227D01*
X233027Y81500D01*
D02*
G37*
G36*
X263027D02*
X263000D01*
Y78000D01*
X266500D01*
Y78027D01*
X266227Y79044D01*
X265701Y79956D01*
X264956Y80701D01*
X264044Y81227D01*
X263027Y81500D01*
D02*
G37*
G36*
X253027D02*
X253000D01*
Y78000D01*
X256500D01*
Y78027D01*
X256227Y79044D01*
X255701Y79956D01*
X254956Y80701D01*
X254044Y81227D01*
X253027Y81500D01*
D02*
G37*
G36*
X223027D02*
X223000D01*
Y78000D01*
X226500D01*
Y78027D01*
X226227Y79044D01*
X225701Y79956D01*
X224956Y80701D01*
X224044Y81227D01*
X223027Y81500D01*
D02*
G37*
G36*
X213027D02*
X213000D01*
Y78000D01*
X216500D01*
Y78027D01*
X216227Y79044D01*
X215701Y79956D01*
X214956Y80701D01*
X214044Y81227D01*
X213027Y81500D01*
D02*
G37*
G36*
X203027D02*
X203000D01*
Y78000D01*
X206500D01*
Y78027D01*
X206227Y79044D01*
X205701Y79956D01*
X204956Y80701D01*
X204044Y81227D01*
X203027Y81500D01*
D02*
G37*
G36*
X273027D02*
X273000D01*
Y78000D01*
X276500D01*
Y78027D01*
X276227Y79044D01*
X275701Y79956D01*
X274956Y80701D01*
X274044Y81227D01*
X273027Y81500D01*
D02*
G37*
G36*
X343027D02*
X343000D01*
Y78000D01*
X346500D01*
Y78027D01*
X346227Y79044D01*
X345701Y79956D01*
X344956Y80701D01*
X344044Y81227D01*
X343027Y81500D01*
D02*
G37*
G36*
X342000D02*
X341973D01*
X340956Y81227D01*
X340044Y80701D01*
X339299Y79956D01*
X338773Y79044D01*
X338500Y78027D01*
Y78000D01*
X342000D01*
Y81500D01*
D02*
G37*
G36*
X333027D02*
X333000D01*
Y78000D01*
X336500D01*
Y78027D01*
X336227Y79044D01*
X335701Y79956D01*
X334956Y80701D01*
X334044Y81227D01*
X333027Y81500D01*
D02*
G37*
G36*
X332000D02*
X331973D01*
X330956Y81227D01*
X330044Y80701D01*
X329299Y79956D01*
X328773Y79044D01*
X328500Y78027D01*
Y78000D01*
X332000D01*
Y81500D01*
D02*
G37*
G36*
X323027D02*
X323000D01*
Y78000D01*
X326500D01*
Y78027D01*
X326227Y79044D01*
X325701Y79956D01*
X324956Y80701D01*
X324044Y81227D01*
X323027Y81500D01*
D02*
G37*
G36*
X322000D02*
X321973D01*
X320956Y81227D01*
X320044Y80701D01*
X319299Y79956D01*
X318773Y79044D01*
X318500Y78027D01*
Y78000D01*
X322000D01*
Y81500D01*
D02*
G37*
G36*
X313027D02*
X313000D01*
Y78000D01*
X316500D01*
Y78027D01*
X316227Y79044D01*
X315701Y79956D01*
X314956Y80701D01*
X314044Y81227D01*
X313027Y81500D01*
D02*
G37*
G36*
X312000D02*
X311973D01*
X310956Y81227D01*
X310044Y80701D01*
X309299Y79956D01*
X308773Y79044D01*
X308500Y78027D01*
Y78000D01*
X312000D01*
Y81500D01*
D02*
G37*
G36*
X303027D02*
X303000D01*
Y78000D01*
X306500D01*
Y78027D01*
X306227Y79044D01*
X305701Y79956D01*
X304956Y80701D01*
X304044Y81227D01*
X303027Y81500D01*
D02*
G37*
G36*
X302000D02*
X301973D01*
X300956Y81227D01*
X300044Y80701D01*
X299299Y79956D01*
X298773Y79044D01*
X298500Y78027D01*
Y78000D01*
X302000D01*
Y81500D01*
D02*
G37*
G36*
X293027D02*
X293000D01*
Y78000D01*
X296500D01*
Y78027D01*
X296227Y79044D01*
X295701Y79956D01*
X294956Y80701D01*
X294044Y81227D01*
X293027Y81500D01*
D02*
G37*
G36*
X292000D02*
X291973D01*
X290956Y81227D01*
X290044Y80701D01*
X289299Y79956D01*
X288773Y79044D01*
X288500Y78027D01*
Y78000D01*
X292000D01*
Y81500D01*
D02*
G37*
G36*
X242000D02*
X241973D01*
X240956Y81227D01*
X240044Y80701D01*
X239299Y79956D01*
X238773Y79044D01*
X238500Y78027D01*
Y78000D01*
X242000D01*
Y81500D01*
D02*
G37*
G36*
X222000D02*
X221973D01*
X220956Y81227D01*
X220044Y80701D01*
X219299Y79956D01*
X218773Y79044D01*
X218500Y78027D01*
Y78000D01*
X222000D01*
Y81500D01*
D02*
G37*
G36*
X232000D02*
X231973D01*
X230956Y81227D01*
X230044Y80701D01*
X229299Y79956D01*
X228773Y79044D01*
X228500Y78027D01*
Y78000D01*
X232000D01*
Y81500D01*
D02*
G37*
G36*
X212000D02*
X211973D01*
X210956Y81227D01*
X210044Y80701D01*
X209299Y79956D01*
X208773Y79044D01*
X208500Y78027D01*
Y78000D01*
X212000D01*
Y81500D01*
D02*
G37*
G36*
X202000D02*
X201973D01*
X200956Y81227D01*
X200044Y80701D01*
X199299Y79956D01*
X198773Y79044D01*
X198500Y78027D01*
Y78000D01*
X202000D01*
Y81500D01*
D02*
G37*
G36*
X262000D02*
X261973D01*
X260956Y81227D01*
X260044Y80701D01*
X259299Y79956D01*
X258773Y79044D01*
X258500Y78027D01*
Y78000D01*
X262000D01*
Y81500D01*
D02*
G37*
G36*
X252000D02*
X251973D01*
X250956Y81227D01*
X250044Y80701D01*
X249299Y79956D01*
X248773Y79044D01*
X248500Y78027D01*
Y78000D01*
X252000D01*
Y81500D01*
D02*
G37*
G36*
X272000D02*
X271973D01*
X270956Y81227D01*
X270044Y80701D01*
X269299Y79956D01*
X268773Y79044D01*
X268500Y78027D01*
Y78000D01*
X272000D01*
Y81500D01*
D02*
G37*
G36*
X160368Y79350D02*
X159632D01*
X158952Y79068D01*
X158432Y78548D01*
X158150Y77868D01*
Y77132D01*
X158432Y76452D01*
X158952Y75932D01*
X159632Y75650D01*
X160368D01*
X161048Y75932D01*
X161568Y76452D01*
X161850Y77132D01*
Y77868D01*
X161568Y78548D01*
X161048Y79068D01*
X160368Y79350D01*
D02*
G37*
G36*
X147868D02*
X147132D01*
X146452Y79068D01*
X145932Y78548D01*
X145650Y77868D01*
Y77132D01*
X145932Y76452D01*
X146452Y75932D01*
X147132Y75650D01*
X147868D01*
X148548Y75932D01*
X149068Y76452D01*
X149350Y77132D01*
Y77868D01*
X149068Y78548D01*
X148548Y79068D01*
X147868Y79350D01*
D02*
G37*
G36*
X40540Y82100D02*
X39460D01*
X38418Y81821D01*
X37483Y81281D01*
X36719Y80518D01*
X36179Y79583D01*
X35900Y78540D01*
Y77460D01*
X36179Y76417D01*
X36719Y75482D01*
X37483Y74719D01*
X38418Y74179D01*
X39460Y73900D01*
X40540D01*
X41583Y74179D01*
X42518Y74719D01*
X43281Y75482D01*
X43821Y76417D01*
X44100Y77460D01*
Y78540D01*
X43821Y79583D01*
X43281Y80518D01*
X42518Y81281D01*
X41583Y81821D01*
X40540Y82100D01*
D02*
G37*
G36*
X346500Y77000D02*
X343000D01*
Y73500D01*
X343027D01*
X344044Y73773D01*
X344956Y74299D01*
X345701Y75044D01*
X346227Y75956D01*
X346500Y76973D01*
Y77000D01*
D02*
G37*
G36*
X342000D02*
X338500D01*
Y76973D01*
X338773Y75956D01*
X339299Y75044D01*
X340044Y74299D01*
X340956Y73773D01*
X341973Y73500D01*
X342000D01*
Y77000D01*
D02*
G37*
G36*
X336500D02*
X333000D01*
Y73500D01*
X333027D01*
X334044Y73773D01*
X334956Y74299D01*
X335701Y75044D01*
X336227Y75956D01*
X336500Y76973D01*
Y77000D01*
D02*
G37*
G36*
X332000D02*
X328500D01*
Y76973D01*
X328773Y75956D01*
X329299Y75044D01*
X330044Y74299D01*
X330956Y73773D01*
X331973Y73500D01*
X332000D01*
Y77000D01*
D02*
G37*
G36*
X326500D02*
X323000D01*
Y73500D01*
X323027D01*
X324044Y73773D01*
X324956Y74299D01*
X325701Y75044D01*
X326227Y75956D01*
X326500Y76973D01*
Y77000D01*
D02*
G37*
G36*
X322000D02*
X318500D01*
Y76973D01*
X318773Y75956D01*
X319299Y75044D01*
X320044Y74299D01*
X320956Y73773D01*
X321973Y73500D01*
X322000D01*
Y77000D01*
D02*
G37*
G36*
X316500D02*
X313000D01*
Y73500D01*
X313027D01*
X314044Y73773D01*
X314956Y74299D01*
X315701Y75044D01*
X316227Y75956D01*
X316500Y76973D01*
Y77000D01*
D02*
G37*
G36*
X312000D02*
X308500D01*
Y76973D01*
X308773Y75956D01*
X309299Y75044D01*
X310044Y74299D01*
X310956Y73773D01*
X311973Y73500D01*
X312000D01*
Y77000D01*
D02*
G37*
G36*
X306500D02*
X303000D01*
Y73500D01*
X303027D01*
X304044Y73773D01*
X304956Y74299D01*
X305701Y75044D01*
X306227Y75956D01*
X306500Y76973D01*
Y77000D01*
D02*
G37*
G36*
X302000D02*
X298500D01*
Y76973D01*
X298773Y75956D01*
X299299Y75044D01*
X300044Y74299D01*
X300956Y73773D01*
X301973Y73500D01*
X302000D01*
Y77000D01*
D02*
G37*
G36*
X296500D02*
X293000D01*
Y73500D01*
X293027D01*
X294044Y73773D01*
X294956Y74299D01*
X295701Y75044D01*
X296227Y75956D01*
X296500Y76973D01*
Y77000D01*
D02*
G37*
G36*
X292000D02*
X288500D01*
Y76973D01*
X288773Y75956D01*
X289299Y75044D01*
X290044Y74299D01*
X290956Y73773D01*
X291973Y73500D01*
X292000D01*
Y77000D01*
D02*
G37*
G36*
X276500D02*
X273000D01*
Y73500D01*
X273027D01*
X274044Y73773D01*
X274956Y74299D01*
X275701Y75044D01*
X276227Y75956D01*
X276500Y76973D01*
Y77000D01*
D02*
G37*
G36*
X272000D02*
X268500D01*
Y76973D01*
X268773Y75956D01*
X269299Y75044D01*
X270044Y74299D01*
X270956Y73773D01*
X271973Y73500D01*
X272000D01*
Y77000D01*
D02*
G37*
G36*
X266500D02*
X263000D01*
Y73500D01*
X263027D01*
X264044Y73773D01*
X264956Y74299D01*
X265701Y75044D01*
X266227Y75956D01*
X266500Y76973D01*
Y77000D01*
D02*
G37*
G36*
X262000D02*
X258500D01*
Y76973D01*
X258773Y75956D01*
X259299Y75044D01*
X260044Y74299D01*
X260956Y73773D01*
X261973Y73500D01*
X262000D01*
Y77000D01*
D02*
G37*
G36*
X256500D02*
X253000D01*
Y73500D01*
X253027D01*
X254044Y73773D01*
X254956Y74299D01*
X255701Y75044D01*
X256227Y75956D01*
X256500Y76973D01*
Y77000D01*
D02*
G37*
G36*
X252000D02*
X248500D01*
Y76973D01*
X248773Y75956D01*
X249299Y75044D01*
X250044Y74299D01*
X250956Y73773D01*
X251973Y73500D01*
X252000D01*
Y77000D01*
D02*
G37*
G36*
X246500D02*
X243000D01*
Y73500D01*
X243027D01*
X244044Y73773D01*
X244956Y74299D01*
X245701Y75044D01*
X246227Y75956D01*
X246500Y76973D01*
Y77000D01*
D02*
G37*
G36*
X242000D02*
X238500D01*
Y76973D01*
X238773Y75956D01*
X239299Y75044D01*
X240044Y74299D01*
X240956Y73773D01*
X241973Y73500D01*
X242000D01*
Y77000D01*
D02*
G37*
G36*
X236500D02*
X233000D01*
Y73500D01*
X233027D01*
X234044Y73773D01*
X234956Y74299D01*
X235701Y75044D01*
X236227Y75956D01*
X236500Y76973D01*
Y77000D01*
D02*
G37*
G36*
X232000D02*
X228500D01*
Y76973D01*
X228773Y75956D01*
X229299Y75044D01*
X230044Y74299D01*
X230956Y73773D01*
X231973Y73500D01*
X232000D01*
Y77000D01*
D02*
G37*
G36*
X226500D02*
X223000D01*
Y73500D01*
X223027D01*
X224044Y73773D01*
X224956Y74299D01*
X225701Y75044D01*
X226227Y75956D01*
X226500Y76973D01*
Y77000D01*
D02*
G37*
G36*
X222000D02*
X218500D01*
Y76973D01*
X218773Y75956D01*
X219299Y75044D01*
X220044Y74299D01*
X220956Y73773D01*
X221973Y73500D01*
X222000D01*
Y77000D01*
D02*
G37*
G36*
X216500D02*
X213000D01*
Y73500D01*
X213027D01*
X214044Y73773D01*
X214956Y74299D01*
X215701Y75044D01*
X216227Y75956D01*
X216500Y76973D01*
Y77000D01*
D02*
G37*
G36*
X212000D02*
X208500D01*
Y76973D01*
X208773Y75956D01*
X209299Y75044D01*
X210044Y74299D01*
X210956Y73773D01*
X211973Y73500D01*
X212000D01*
Y77000D01*
D02*
G37*
G36*
X206500D02*
X203000D01*
Y73500D01*
X203027D01*
X204044Y73773D01*
X204956Y74299D01*
X205701Y75044D01*
X206227Y75956D01*
X206500Y76973D01*
Y77000D01*
D02*
G37*
G36*
X202000D02*
X198500D01*
Y76973D01*
X198773Y75956D01*
X199299Y75044D01*
X200044Y74299D01*
X200956Y73773D01*
X201973Y73500D01*
X202000D01*
Y77000D01*
D02*
G37*
G36*
X34500Y77500D02*
X30500D01*
Y73500D01*
X30592D01*
X31737Y73807D01*
X32763Y74399D01*
X33601Y75237D01*
X34193Y76263D01*
X34500Y77408D01*
Y77500D01*
D02*
G37*
G36*
X29500D02*
X25500D01*
Y77408D01*
X25807Y76263D01*
X26399Y75237D01*
X27237Y74399D01*
X28263Y73807D01*
X29408Y73500D01*
X29500D01*
Y77500D01*
D02*
G37*
G36*
X24500D02*
X20500D01*
Y73500D01*
X20592D01*
X21737Y73807D01*
X22763Y74399D01*
X23601Y75237D01*
X24193Y76263D01*
X24500Y77408D01*
Y77500D01*
D02*
G37*
G36*
X19500D02*
X15500D01*
Y77408D01*
X15807Y76263D01*
X16399Y75237D01*
X17237Y74399D01*
X18263Y73807D01*
X19408Y73500D01*
X19500D01*
Y77500D01*
D02*
G37*
G36*
X14500D02*
X10500D01*
Y73500D01*
X10592D01*
X11737Y73807D01*
X12763Y74399D01*
X13601Y75237D01*
X14193Y76263D01*
X14500Y77408D01*
Y77500D01*
D02*
G37*
G36*
X9500D02*
X5500D01*
Y77408D01*
X5807Y76263D01*
X6399Y75237D01*
X7237Y74399D01*
X8263Y73807D01*
X9408Y73500D01*
X9500D01*
Y77500D01*
D02*
G37*
G36*
X340092Y69000D02*
X340000D01*
Y65000D01*
X344000D01*
Y65092D01*
X343693Y66237D01*
X343101Y67263D01*
X342263Y68101D01*
X341237Y68693D01*
X340092Y69000D01*
D02*
G37*
G36*
X339000D02*
X338908D01*
X337763Y68693D01*
X336737Y68101D01*
X335899Y67263D01*
X335307Y66237D01*
X335000Y65092D01*
Y65000D01*
X339000D01*
Y69000D01*
D02*
G37*
G36*
X330092D02*
X330000D01*
Y65000D01*
X334000D01*
Y65092D01*
X333693Y66237D01*
X333101Y67263D01*
X332263Y68101D01*
X331237Y68693D01*
X330092Y69000D01*
D02*
G37*
G36*
X329000D02*
X328908D01*
X327763Y68693D01*
X326737Y68101D01*
X325899Y67263D01*
X325307Y66237D01*
X325000Y65092D01*
Y65000D01*
X329000D01*
Y69000D01*
D02*
G37*
G36*
X320092D02*
X320000D01*
Y65000D01*
X324000D01*
Y65092D01*
X323693Y66237D01*
X323101Y67263D01*
X322263Y68101D01*
X321237Y68693D01*
X320092Y69000D01*
D02*
G37*
G36*
X319000D02*
X318908D01*
X317763Y68693D01*
X316737Y68101D01*
X315899Y67263D01*
X315307Y66237D01*
X315000Y65092D01*
Y65000D01*
X319000D01*
Y69000D01*
D02*
G37*
G36*
X310040Y68600D02*
X308960D01*
X307917Y68321D01*
X306982Y67781D01*
X306219Y67018D01*
X305679Y66083D01*
X305400Y65040D01*
Y63960D01*
X305679Y62918D01*
X306219Y61983D01*
X306982Y61219D01*
X307917Y60679D01*
X308960Y60400D01*
X310040D01*
X311083Y60679D01*
X312017Y61219D01*
X312781Y61983D01*
X313321Y62918D01*
X313600Y63960D01*
Y65040D01*
X313321Y66083D01*
X312781Y67018D01*
X312017Y67781D01*
X311083Y68321D01*
X310040Y68600D01*
D02*
G37*
G36*
X344000Y64000D02*
X340000D01*
Y60000D01*
X340092D01*
X341237Y60307D01*
X342263Y60899D01*
X343101Y61737D01*
X343693Y62763D01*
X344000Y63908D01*
Y64000D01*
D02*
G37*
G36*
X339000D02*
X335000D01*
Y63908D01*
X335307Y62763D01*
X335899Y61737D01*
X336737Y60899D01*
X337763Y60307D01*
X338908Y60000D01*
X339000D01*
Y64000D01*
D02*
G37*
G36*
X334000D02*
X330000D01*
Y60000D01*
X330092D01*
X331237Y60307D01*
X332263Y60899D01*
X333101Y61737D01*
X333693Y62763D01*
X334000Y63908D01*
Y64000D01*
D02*
G37*
G36*
X329000D02*
X325000D01*
Y63908D01*
X325307Y62763D01*
X325899Y61737D01*
X326737Y60899D01*
X327763Y60307D01*
X328908Y60000D01*
X329000D01*
Y64000D01*
D02*
G37*
G36*
X324000D02*
X320000D01*
Y60000D01*
X320092D01*
X321237Y60307D01*
X322263Y60899D01*
X323101Y61737D01*
X323693Y62763D01*
X324000Y63908D01*
Y64000D01*
D02*
G37*
G36*
X319000D02*
X315000D01*
Y63908D01*
X315307Y62763D01*
X315899Y61737D01*
X316737Y60899D01*
X317763Y60307D01*
X318908Y60000D01*
X319000D01*
Y64000D01*
D02*
G37*
G36*
X228999Y59289D02*
X228001D01*
X227038Y59031D01*
X226173Y58532D01*
X225468Y57827D01*
X224969Y56963D01*
X224711Y55999D01*
Y55001D01*
X224969Y54037D01*
X225468Y53174D01*
X226173Y52468D01*
X227038Y51969D01*
X228001Y51711D01*
X228999D01*
X229962Y51969D01*
X230826Y52468D01*
X231532Y53174D01*
X232031Y54037D01*
X232289Y55001D01*
Y55999D01*
X232031Y56963D01*
X231532Y57827D01*
X230826Y58532D01*
X229962Y59031D01*
X228999Y59289D01*
D02*
G37*
G36*
X216749D02*
X215751D01*
X214788Y59031D01*
X213924Y58532D01*
X213218Y57827D01*
X212719Y56963D01*
X212461Y55999D01*
Y55001D01*
X212719Y54037D01*
X213218Y53174D01*
X213924Y52468D01*
X214788Y51969D01*
X215751Y51711D01*
X216749D01*
X217712Y51969D01*
X218577Y52468D01*
X219282Y53174D01*
X219781Y54037D01*
X220039Y55001D01*
Y55999D01*
X219781Y56963D01*
X219282Y57827D01*
X218577Y58532D01*
X217712Y59031D01*
X216749Y59289D01*
D02*
G37*
G36*
X204499D02*
X203501D01*
X202537Y59031D01*
X201674Y58532D01*
X200968Y57827D01*
X200469Y56963D01*
X200211Y55999D01*
Y55001D01*
X200469Y54037D01*
X200968Y53174D01*
X201674Y52468D01*
X202537Y51969D01*
X203501Y51711D01*
X204499D01*
X205463Y51969D01*
X206327Y52468D01*
X207032Y53174D01*
X207531Y54037D01*
X207789Y55001D01*
Y55999D01*
X207531Y56963D01*
X207032Y57827D01*
X206327Y58532D01*
X205463Y59031D01*
X204499Y59289D01*
D02*
G37*
G36*
X150368Y51850D02*
X149632D01*
X148952Y51568D01*
X148432Y51048D01*
X148150Y50368D01*
Y49774D01*
X147981Y49519D01*
X147726Y49350D01*
X147132D01*
X146452Y49068D01*
X145932Y48548D01*
X145650Y47868D01*
Y47132D01*
X145932Y46452D01*
X146452Y45932D01*
X147132Y45650D01*
X147868D01*
X148548Y45932D01*
X149068Y46452D01*
X149350Y47132D01*
Y47726D01*
X149519Y47981D01*
X149774Y48150D01*
X150368D01*
X151048Y48432D01*
X151568Y48952D01*
X151850Y49632D01*
Y50368D01*
X151568Y51048D01*
X151048Y51568D01*
X150368Y51850D01*
D02*
G37*
G36*
X157868Y44350D02*
X157132D01*
X156452Y44068D01*
X155932Y43548D01*
X155886Y43437D01*
X155296Y43320D01*
X155048Y43568D01*
X154368Y43850D01*
X153632D01*
X152952Y43568D01*
X152432Y43048D01*
X152150Y42368D01*
Y41632D01*
X152432Y40952D01*
X152952Y40432D01*
X153632Y40150D01*
X154368D01*
X155048Y40432D01*
X155568Y40952D01*
X155614Y41063D01*
X156204Y41180D01*
X156452Y40932D01*
X157132Y40650D01*
X157868D01*
X158548Y40932D01*
X159068Y41452D01*
X159350Y42132D01*
Y42868D01*
X159068Y43548D01*
X158548Y44068D01*
X157868Y44350D01*
D02*
G37*
G36*
X111368Y46850D02*
X110632D01*
X109952Y46568D01*
X109432Y46048D01*
X109150Y45368D01*
Y44632D01*
X109432Y43952D01*
X109952Y43432D01*
X110632Y43150D01*
X111368D01*
X112048Y43432D01*
X112568Y43952D01*
X112850Y44632D01*
Y45368D01*
X112568Y46048D01*
X112048Y46568D01*
X111368Y46850D01*
D02*
G37*
G36*
X267878Y43972D02*
X267080Y43758D01*
X266313Y43316D01*
X265687Y42690D01*
X265277Y41980D01*
X265040Y41934D01*
X264734Y41950D01*
X264449Y42444D01*
X263897Y42996D01*
X263222Y43386D01*
X262469Y43588D01*
X261688D01*
X260935Y43386D01*
X260260Y42996D01*
X259708Y42444D01*
X259318Y41769D01*
X259188Y41282D01*
X258670D01*
X258540Y41769D01*
X258150Y42444D01*
X257598Y42996D01*
X256923Y43386D01*
X256170Y43588D01*
X255389D01*
X254636Y43386D01*
X253961Y42996D01*
X253409Y42444D01*
X253019Y41769D01*
X252817Y41015D01*
Y40235D01*
X253019Y39482D01*
X253409Y38807D01*
X253961Y38255D01*
X254636Y37865D01*
X255389Y37663D01*
X255957D01*
X256249Y37233D01*
X256258Y37186D01*
X256168Y37030D01*
X255966Y36276D01*
Y35496D01*
X256168Y34743D01*
X256558Y34068D01*
X257110Y33516D01*
X257785Y33126D01*
X258539Y32924D01*
X259318D01*
X260072Y33126D01*
X260747Y33516D01*
X261299Y34068D01*
X261689Y34743D01*
X261819Y35230D01*
X262337D01*
X262467Y34743D01*
X262857Y34068D01*
X263409Y33516D01*
X264084Y33126D01*
X264838Y32924D01*
X265617D01*
X266371Y33126D01*
X267046Y33516D01*
X267598Y34068D01*
X267988Y34743D01*
X268190Y35496D01*
Y36276D01*
X268059Y36763D01*
X268373Y37236D01*
X268423Y37263D01*
X268820D01*
X269675Y37492D01*
X270442Y37935D01*
X271068Y38561D01*
X271511Y39328D01*
X271724Y40125D01*
X268377D01*
Y40625D01*
X267878D01*
Y43972D01*
D02*
G37*
G36*
X228999Y49289D02*
X228001D01*
X227038Y49031D01*
X226173Y48532D01*
X225468Y47826D01*
X224969Y46962D01*
X224711Y45999D01*
Y45001D01*
X224969Y44038D01*
X225468Y43174D01*
X226173Y42468D01*
X227038Y41969D01*
X228001Y41711D01*
X228999D01*
X229962Y41969D01*
X230826Y42468D01*
X231532Y43174D01*
X232031Y44038D01*
X232289Y45001D01*
Y45999D01*
X232031Y46962D01*
X231532Y47826D01*
X230826Y48532D01*
X229962Y49031D01*
X228999Y49289D01*
D02*
G37*
G36*
X216749D02*
X215751D01*
X214788Y49031D01*
X213924Y48532D01*
X213218Y47826D01*
X212719Y46962D01*
X212461Y45999D01*
Y45001D01*
X212719Y44038D01*
X213218Y43174D01*
X213924Y42468D01*
X214788Y41969D01*
X215751Y41711D01*
X216749D01*
X217712Y41969D01*
X218577Y42468D01*
X219282Y43174D01*
X219781Y44038D01*
X220039Y45001D01*
Y45999D01*
X219781Y46962D01*
X219282Y47826D01*
X218577Y48532D01*
X217712Y49031D01*
X216749Y49289D01*
D02*
G37*
G36*
X204499D02*
X203501D01*
X202537Y49031D01*
X201674Y48532D01*
X200968Y47826D01*
X200469Y46962D01*
X200211Y45999D01*
Y45001D01*
X200469Y44038D01*
X200968Y43174D01*
X201674Y42468D01*
X202537Y41969D01*
X203501Y41711D01*
X204499D01*
X205463Y41969D01*
X206327Y42468D01*
X207032Y43174D01*
X207531Y44038D01*
X207789Y45001D01*
Y45999D01*
X207531Y46962D01*
X207032Y47826D01*
X206327Y48532D01*
X205463Y49031D01*
X204499Y49289D01*
D02*
G37*
G36*
X268878Y43972D02*
Y41125D01*
X271724D01*
X271511Y41923D01*
X271068Y42690D01*
X270442Y43316D01*
X269675Y43758D01*
X268878Y43972D01*
D02*
G37*
G36*
X342468Y48053D02*
X341532D01*
X340629Y47811D01*
X339819Y47343D01*
X339157Y46681D01*
X338689Y45871D01*
X338447Y44968D01*
Y44032D01*
X338689Y43129D01*
X339157Y42319D01*
X339819Y41657D01*
X340629Y41189D01*
X341532Y40947D01*
X342468D01*
X343371Y41189D01*
X344181Y41657D01*
X344843Y42319D01*
X345311Y43129D01*
X345553Y44032D01*
Y44968D01*
X345311Y45871D01*
X344843Y46681D01*
X344181Y47343D01*
X343371Y47811D01*
X342468Y48053D01*
D02*
G37*
G36*
X306673Y42890D02*
X304221D01*
Y38807D01*
X311190D01*
X311100Y39493D01*
X310642Y40598D01*
X309913Y41547D01*
X308964Y42276D01*
X307859Y42733D01*
X306673Y42890D01*
D02*
G37*
G36*
X303221D02*
X300768D01*
X299582Y42733D01*
X298477Y42276D01*
X297527Y41547D01*
X296799Y40598D01*
X296341Y39493D01*
X296251Y38807D01*
X303221D01*
Y42890D01*
D02*
G37*
G36*
X277146Y42763D02*
Y37575D01*
X280037D01*
Y39438D01*
X279921Y40315D01*
X279582Y41133D01*
X279043Y41836D01*
X278341Y42375D01*
X277523Y42713D01*
X277146Y42763D01*
D02*
G37*
G36*
X276146Y42763D02*
X275768Y42713D01*
X274950Y42375D01*
X274248Y41836D01*
X273709Y41133D01*
X273370Y40315D01*
X273254Y39438D01*
Y37575D01*
X276146D01*
Y42763D01*
D02*
G37*
G36*
X247854D02*
Y37575D01*
X250746D01*
Y39438D01*
X250630Y40315D01*
X250291Y41133D01*
X249752Y41836D01*
X249050Y42375D01*
X248232Y42713D01*
X247854Y42763D01*
D02*
G37*
G36*
X246854Y42763D02*
X246477Y42713D01*
X245659Y42375D01*
X244957Y41836D01*
X244418Y41133D01*
X244079Y40315D01*
X243963Y39438D01*
Y37575D01*
X246854D01*
Y42763D01*
D02*
G37*
G36*
X111368Y40850D02*
X110632D01*
X109952Y40568D01*
X109432Y40048D01*
X109150Y39368D01*
Y38632D01*
X109432Y37952D01*
X109952Y37432D01*
X110632Y37150D01*
X111368D01*
X112048Y37432D01*
X112568Y37952D01*
X112850Y38632D01*
Y39368D01*
X112568Y40048D01*
X112048Y40568D01*
X111368Y40850D01*
D02*
G37*
G36*
X104040Y45100D02*
X102960D01*
X101918Y44821D01*
X100982Y44281D01*
X100219Y43518D01*
X99679Y42582D01*
X99400Y41540D01*
Y40460D01*
X99679Y39417D01*
X100219Y38482D01*
X100982Y37719D01*
X101918Y37179D01*
X102960Y36900D01*
X104040D01*
X105082Y37179D01*
X106017Y37719D01*
X106781Y38482D01*
X107321Y39417D01*
X107600Y40460D01*
Y41540D01*
X107321Y42582D01*
X106781Y43518D01*
X106017Y44281D01*
X105082Y44821D01*
X104040Y45100D01*
D02*
G37*
G36*
X165040Y42600D02*
X163960D01*
X162917Y42321D01*
X161983Y41781D01*
X161219Y41017D01*
X160679Y40082D01*
X160400Y39040D01*
Y37960D01*
X160679Y36917D01*
X161219Y35982D01*
X161983Y35219D01*
X162917Y34679D01*
X163960Y34400D01*
X165040D01*
X166083Y34679D01*
X167017Y35219D01*
X167781Y35982D01*
X168321Y36917D01*
X168600Y37960D01*
Y39040D01*
X168321Y40082D01*
X167781Y41017D01*
X167017Y41781D01*
X166083Y42321D01*
X165040Y42600D01*
D02*
G37*
G36*
X311190Y37807D02*
X304221D01*
Y33725D01*
X306673D01*
X307859Y33881D01*
X308964Y34339D01*
X309913Y35067D01*
X310642Y36016D01*
X311100Y37121D01*
X311190Y37807D01*
D02*
G37*
G36*
X303221D02*
X296251D01*
X296341Y37121D01*
X296799Y36016D01*
X297527Y35067D01*
X298477Y34339D01*
X299582Y33881D01*
X300768Y33725D01*
X303221D01*
Y37807D01*
D02*
G37*
G36*
X144507Y41348D02*
X143493D01*
X142515Y41086D01*
X141637Y40579D01*
X140921Y39863D01*
X140414Y38985D01*
X140152Y38007D01*
Y36993D01*
X140414Y36015D01*
X140921Y35137D01*
X141637Y34421D01*
X142515Y33914D01*
X143493Y33652D01*
X144507D01*
X145485Y33914D01*
X146363Y34421D01*
X147079Y35137D01*
X147586Y36015D01*
X147848Y36993D01*
Y38007D01*
X147586Y38985D01*
X147079Y39863D01*
X146363Y40579D01*
X145485Y41086D01*
X144507Y41348D01*
D02*
G37*
G36*
X134507D02*
X133493D01*
X132515Y41086D01*
X131637Y40579D01*
X130921Y39863D01*
X130414Y38985D01*
X130152Y38007D01*
Y36993D01*
X130414Y36015D01*
X130921Y35137D01*
X131637Y34421D01*
X132515Y33914D01*
X133493Y33652D01*
X134507D01*
X135485Y33914D01*
X136363Y34421D01*
X137079Y35137D01*
X137586Y36015D01*
X137848Y36993D01*
Y38007D01*
X137586Y38985D01*
X137079Y39863D01*
X136363Y40579D01*
X135485Y41086D01*
X134507Y41348D01*
D02*
G37*
G36*
X124507D02*
X123493D01*
X122515Y41086D01*
X121637Y40579D01*
X120921Y39863D01*
X120414Y38985D01*
X120152Y38007D01*
Y36993D01*
X120414Y36015D01*
X120921Y35137D01*
X121637Y34421D01*
X122515Y33914D01*
X123493Y33652D01*
X124507D01*
X125485Y33914D01*
X126363Y34421D01*
X127079Y35137D01*
X127586Y36015D01*
X127848Y36993D01*
Y38007D01*
X127586Y38985D01*
X127079Y39863D01*
X126363Y40579D01*
X125485Y41086D01*
X124507Y41348D01*
D02*
G37*
G36*
X104092Y35500D02*
X104000D01*
Y31500D01*
X108000D01*
Y31592D01*
X107693Y32737D01*
X107101Y33763D01*
X106263Y34601D01*
X105237Y35193D01*
X104092Y35500D01*
D02*
G37*
G36*
X103000D02*
X102908D01*
X101763Y35193D01*
X100737Y34601D01*
X99899Y33763D01*
X99307Y32737D01*
X99000Y31592D01*
Y31500D01*
X103000D01*
Y35500D01*
D02*
G37*
G36*
X280037Y36575D02*
X277146D01*
Y31388D01*
X277523Y31438D01*
X278341Y31776D01*
X279043Y32315D01*
X279582Y33018D01*
X279921Y33836D01*
X280037Y34713D01*
Y36575D01*
D02*
G37*
G36*
X246854Y36575D02*
X243963D01*
Y34713D01*
X244079Y33836D01*
X244418Y33018D01*
X244957Y32315D01*
X245659Y31776D01*
X246477Y31438D01*
X246854Y31388D01*
Y36575D01*
D02*
G37*
G36*
X250746D02*
X247854D01*
Y31388D01*
X248232Y31438D01*
X249050Y31776D01*
X249752Y32315D01*
X250291Y33018D01*
X250630Y33836D01*
X250746Y34713D01*
Y36575D01*
D02*
G37*
G36*
X276146Y36575D02*
X273254D01*
Y34713D01*
X273370Y33836D01*
X273709Y33018D01*
X274248Y32315D01*
X274950Y31776D01*
X275768Y31438D01*
X276146Y31388D01*
Y36575D01*
D02*
G37*
G36*
X165092Y33000D02*
X165000D01*
Y29000D01*
X169000D01*
Y29092D01*
X168693Y30237D01*
X168101Y31263D01*
X167263Y32101D01*
X166237Y32693D01*
X165092Y33000D01*
D02*
G37*
G36*
X164000D02*
X163908D01*
X162763Y32693D01*
X161737Y32101D01*
X160899Y31263D01*
X160307Y30237D01*
X160000Y29092D01*
Y29000D01*
X164000D01*
Y33000D01*
D02*
G37*
G36*
X108000Y30500D02*
X104000D01*
Y26500D01*
X104092D01*
X105237Y26807D01*
X106263Y27399D01*
X107101Y28237D01*
X107693Y29263D01*
X108000Y30408D01*
Y30500D01*
D02*
G37*
G36*
X103000D02*
X99000D01*
Y30408D01*
X99307Y29263D01*
X99899Y28237D01*
X100737Y27399D01*
X101763Y26807D01*
X102908Y26500D01*
X103000D01*
Y30500D01*
D02*
G37*
G36*
X169000Y28000D02*
X165000D01*
Y24000D01*
X165092D01*
X166237Y24307D01*
X167263Y24899D01*
X168101Y25737D01*
X168693Y26763D01*
X169000Y27908D01*
Y28000D01*
D02*
G37*
G36*
X164000D02*
X160000D01*
Y27908D01*
X160307Y26763D01*
X160899Y25737D01*
X161737Y24899D01*
X162763Y24307D01*
X163908Y24000D01*
X164000D01*
Y28000D01*
D02*
G37*
G36*
X104092Y25500D02*
X104000D01*
Y21500D01*
X108000D01*
Y21592D01*
X107693Y22737D01*
X107101Y23763D01*
X106263Y24601D01*
X105237Y25193D01*
X104092Y25500D01*
D02*
G37*
G36*
X103000D02*
X102908D01*
X101763Y25193D01*
X100737Y24601D01*
X99899Y23763D01*
X99307Y22737D01*
X99000Y21592D01*
Y21500D01*
X103000D01*
Y25500D01*
D02*
G37*
G36*
X318000Y28457D02*
Y20500D01*
X322480D01*
Y23543D01*
X322310Y24832D01*
X321813Y26033D01*
X321021Y27064D01*
X319990Y27856D01*
X318789Y28353D01*
X318000Y28457D01*
D02*
G37*
G36*
X317000D02*
X316211Y28353D01*
X315010Y27856D01*
X313979Y27064D01*
X313188Y26033D01*
X312690Y24832D01*
X312520Y23543D01*
Y20500D01*
X317000D01*
Y28457D01*
D02*
G37*
G36*
X165092Y23000D02*
X165000D01*
Y19000D01*
X169000D01*
Y19092D01*
X168693Y20237D01*
X168101Y21263D01*
X167263Y22101D01*
X166237Y22693D01*
X165092Y23000D01*
D02*
G37*
G36*
X164000D02*
X163908D01*
X162763Y22693D01*
X161737Y22101D01*
X160899Y21263D01*
X160307Y20237D01*
X160000Y19092D01*
Y19000D01*
X164000D01*
Y23000D01*
D02*
G37*
G36*
X277146Y24062D02*
Y18875D01*
X280037D01*
Y20737D01*
X279921Y21614D01*
X279582Y22432D01*
X279043Y23135D01*
X278341Y23674D01*
X277523Y24013D01*
X277146Y24062D01*
D02*
G37*
G36*
X276146Y24062D02*
X275768Y24013D01*
X274950Y23674D01*
X274248Y23135D01*
X273709Y22432D01*
X273370Y21614D01*
X273254Y20737D01*
Y18875D01*
X276146D01*
Y24062D01*
D02*
G37*
G36*
X247854D02*
Y18875D01*
X250746D01*
Y20737D01*
X250630Y21614D01*
X250291Y22432D01*
X249752Y23135D01*
X249050Y23674D01*
X248232Y24013D01*
X247854Y24062D01*
D02*
G37*
G36*
X246854Y24062D02*
X246477Y24013D01*
X245659Y23674D01*
X244957Y23135D01*
X244418Y22432D01*
X244079Y21614D01*
X243963Y20737D01*
Y18875D01*
X246854D01*
Y24062D01*
D02*
G37*
G36*
X230540Y21437D02*
X230390D01*
Y17000D01*
X234827D01*
Y17150D01*
X234490Y18406D01*
X233840Y19531D01*
X232921Y20451D01*
X231795Y21101D01*
X230540Y21437D01*
D02*
G37*
G36*
X229390D02*
X229240D01*
X227984Y21101D01*
X226858Y20451D01*
X225939Y19531D01*
X225289Y18406D01*
X224953Y17150D01*
Y17000D01*
X229390D01*
Y21437D01*
D02*
G37*
G36*
X108000Y20500D02*
X104000D01*
Y16500D01*
X104092D01*
X105237Y16807D01*
X106263Y17399D01*
X107101Y18237D01*
X107693Y19263D01*
X108000Y20408D01*
Y20500D01*
D02*
G37*
G36*
X103000D02*
X99000D01*
Y20408D01*
X99307Y19263D01*
X99899Y18237D01*
X100737Y17399D01*
X101763Y16807D01*
X102908Y16500D01*
X103000D01*
Y20500D01*
D02*
G37*
G36*
X169000Y18000D02*
X165000D01*
Y14000D01*
X165092D01*
X166237Y14307D01*
X167263Y14899D01*
X168101Y15737D01*
X168693Y16763D01*
X169000Y17908D01*
Y18000D01*
D02*
G37*
G36*
X164000D02*
X160000D01*
Y17908D01*
X160307Y16763D01*
X160899Y15737D01*
X161737Y14899D01*
X162763Y14307D01*
X163908Y14000D01*
X164000D01*
Y18000D01*
D02*
G37*
G36*
X280037Y17875D02*
X277146D01*
Y12687D01*
X277523Y12737D01*
X278341Y13076D01*
X279043Y13614D01*
X279582Y14317D01*
X279921Y15135D01*
X280037Y16012D01*
Y17875D01*
D02*
G37*
G36*
X246854Y17875D02*
X243963D01*
Y16012D01*
X244079Y15135D01*
X244418Y14317D01*
X244957Y13614D01*
X245659Y13076D01*
X246477Y12737D01*
X246854Y12687D01*
Y17875D01*
D02*
G37*
G36*
X250746D02*
X247854D01*
Y12687D01*
X248232Y12737D01*
X249050Y13076D01*
X249752Y13614D01*
X250291Y14317D01*
X250630Y15135D01*
X250746Y16012D01*
Y17875D01*
D02*
G37*
G36*
X276146Y17875D02*
X273254D01*
Y16012D01*
X273370Y15135D01*
X273709Y14317D01*
X274248Y13614D01*
X274950Y13076D01*
X275768Y12737D01*
X276146Y12687D01*
Y17875D01*
D02*
G37*
G36*
X216708Y21037D02*
X215513D01*
X214359Y20728D01*
X213324Y20131D01*
X212480Y19286D01*
X211882Y18251D01*
X211573Y17097D01*
Y15903D01*
X211882Y14749D01*
X212480Y13714D01*
X213324Y12869D01*
X214359Y12272D01*
X215513Y11963D01*
X216708D01*
X217862Y12272D01*
X218896Y12869D01*
X219741Y13714D01*
X220338Y14749D01*
X220647Y15903D01*
Y17097D01*
X220338Y18251D01*
X219741Y19286D01*
X218896Y20131D01*
X217862Y20728D01*
X216708Y21037D01*
D02*
G37*
G36*
X293878Y28120D02*
X292694Y27964D01*
X291590Y27506D01*
X290642Y26779D01*
X289915Y25831D01*
X289458Y24728D01*
X289302Y23543D01*
Y16457D01*
X289458Y15272D01*
X289915Y14169D01*
X290642Y13221D01*
X291590Y12494D01*
X292694Y12037D01*
X293878Y11880D01*
X295062Y12037D01*
X296166Y12494D01*
X297114Y13221D01*
X297841Y14169D01*
X298298Y15272D01*
X298454Y16457D01*
Y23543D01*
X298298Y24728D01*
X297841Y25831D01*
X297114Y26779D01*
X296166Y27506D01*
X295062Y27964D01*
X293878Y28120D01*
D02*
G37*
G36*
X234827Y16000D02*
X230390D01*
Y11563D01*
X230540D01*
X231795Y11900D01*
X232921Y12549D01*
X233840Y13469D01*
X234490Y14594D01*
X234827Y15850D01*
Y16000D01*
D02*
G37*
G36*
X229390D02*
X224953D01*
Y15850D01*
X225289Y14594D01*
X225939Y13469D01*
X226858Y12549D01*
X227984Y11900D01*
X229240Y11563D01*
X229390D01*
Y16000D01*
D02*
G37*
G36*
X322480Y19500D02*
X318000D01*
Y11543D01*
X318789Y11647D01*
X319990Y12144D01*
X321021Y12936D01*
X321813Y13967D01*
X322310Y15168D01*
X322480Y16457D01*
Y19500D01*
D02*
G37*
G36*
X317000D02*
X312520D01*
Y16457D01*
X312690Y15168D01*
X313188Y13967D01*
X313979Y12936D01*
X315010Y12144D01*
X316211Y11647D01*
X317000Y11543D01*
Y19500D01*
D02*
G37*
G36*
X104092Y15500D02*
X104000D01*
Y11500D01*
X108000D01*
Y11592D01*
X107693Y12737D01*
X107101Y13763D01*
X106263Y14601D01*
X105237Y15193D01*
X104092Y15500D01*
D02*
G37*
G36*
X103000D02*
X102908D01*
X101763Y15193D01*
X100737Y14601D01*
X99899Y13763D01*
X99307Y12737D01*
X99000Y11592D01*
Y11500D01*
X103000D01*
Y15500D01*
D02*
G37*
G36*
X165092Y13000D02*
X165000D01*
Y9000D01*
X169000D01*
Y9092D01*
X168693Y10237D01*
X168101Y11263D01*
X167263Y12101D01*
X166237Y12693D01*
X165092Y13000D01*
D02*
G37*
G36*
X164000D02*
X163908D01*
X162763Y12693D01*
X161737Y12101D01*
X160899Y11263D01*
X160307Y10237D01*
X160000Y9092D01*
Y9000D01*
X164000D01*
Y13000D01*
D02*
G37*
G36*
X108000Y10500D02*
X104000D01*
Y6500D01*
X104092D01*
X105237Y6807D01*
X106263Y7399D01*
X107101Y8237D01*
X107693Y9263D01*
X108000Y10408D01*
Y10500D01*
D02*
G37*
G36*
X103000D02*
X99000D01*
Y10408D01*
X99307Y9263D01*
X99899Y8237D01*
X100737Y7399D01*
X101763Y6807D01*
X102908Y6500D01*
X103000D01*
Y10500D01*
D02*
G37*
G36*
X80968Y12553D02*
X80032D01*
X79129Y12311D01*
X78319Y11843D01*
X77657Y11181D01*
X77189Y10371D01*
X76947Y9468D01*
Y8532D01*
X77189Y7629D01*
X77657Y6819D01*
X78319Y6157D01*
X79129Y5689D01*
X80032Y5447D01*
X80968D01*
X81871Y5689D01*
X82681Y6157D01*
X83343Y6819D01*
X83811Y7629D01*
X84053Y8532D01*
Y9468D01*
X83811Y10371D01*
X83343Y11181D01*
X82681Y11843D01*
X81871Y12311D01*
X80968Y12553D01*
D02*
G37*
G36*
X169000Y8000D02*
X165000D01*
Y4000D01*
X165092D01*
X166237Y4307D01*
X167263Y4899D01*
X168101Y5737D01*
X168693Y6763D01*
X169000Y7908D01*
Y8000D01*
D02*
G37*
G36*
X164000D02*
X160000D01*
Y7908D01*
X160307Y6763D01*
X160899Y5737D01*
X161737Y4899D01*
X162763Y4307D01*
X163908Y4000D01*
X164000D01*
Y8000D01*
D02*
G37*
%LPD*%
D78*
X99000Y223000D02*
D03*
X79000D02*
D03*
X89000D02*
D03*
X99500Y190500D02*
D03*
X79500D02*
D03*
X89500D02*
D03*
X20000Y78000D02*
D03*
X10000D02*
D03*
X30000D02*
D03*
X103500Y31000D02*
D03*
Y11000D02*
D03*
Y21000D02*
D03*
X319500Y64500D02*
D03*
X339500D02*
D03*
X329500D02*
D03*
X164500Y28500D02*
D03*
Y8500D02*
D03*
Y18500D02*
D03*
X245571Y170429D02*
D03*
X252642Y163358D02*
D03*
X238500Y177500D02*
D03*
X271000Y249000D02*
D03*
X263929Y241929D02*
D03*
X278071Y256071D02*
D03*
X141000Y249500D02*
D03*
Y239500D02*
D03*
Y259500D02*
D03*
X131500Y319500D02*
D03*
Y329500D02*
D03*
Y309500D02*
D03*
X113000Y319500D02*
D03*
Y329500D02*
D03*
Y309500D02*
D03*
X193500Y205500D02*
D03*
X185000Y249500D02*
D03*
Y239500D02*
D03*
Y259500D02*
D03*
X164500Y250500D02*
D03*
Y240500D02*
D03*
Y260500D02*
D03*
D80*
X317500Y20000D02*
D03*
X33000Y329500D02*
D03*
D81*
X303720Y38307D02*
D03*
X46780Y311193D02*
D03*
D83*
X229890Y16500D02*
D03*
D84*
X332500Y77500D02*
D03*
X342500D02*
D03*
X322500D02*
D03*
X312500D02*
D03*
X302500D02*
D03*
X292500D02*
D03*
X272500D02*
D03*
X262500D02*
D03*
X252500D02*
D03*
X242500D02*
D03*
X232500D02*
D03*
X222500D02*
D03*
X212500D02*
D03*
X202500D02*
D03*
X262500Y107500D02*
D03*
X252500D02*
D03*
X256500Y327500D02*
D03*
X246500D02*
D03*
X236500D02*
D03*
X226500D02*
D03*
X216500D02*
D03*
X206500D02*
D03*
X196500D02*
D03*
X186500D02*
D03*
X176500D02*
D03*
X166500D02*
D03*
X196500Y297500D02*
D03*
X272500Y327500D02*
D03*
X282500D02*
D03*
X292500D02*
D03*
X302500D02*
D03*
X312500D02*
D03*
X322500D02*
D03*
X332500D02*
D03*
X342500D02*
D03*
D85*
X276645Y18375D02*
D03*
Y37075D02*
D03*
X247355D02*
D03*
Y18375D02*
D03*
D86*
X268377Y40625D02*
D03*
X41125Y271123D02*
D03*
D87*
X323000Y206295D02*
D03*
D88*
X18875Y292145D02*
D03*
X37575D02*
D03*
Y262855D02*
D03*
X18875D02*
D03*
D89*
X175100Y210100D02*
D03*
X169100Y201700D02*
D03*
X309500Y183900D02*
D03*
X195800Y237000D02*
D03*
X197700Y234500D02*
D03*
X201500Y238000D02*
D03*
X209500Y227000D02*
D03*
X200500Y255500D02*
D03*
X210000Y250000D02*
D03*
X214000Y245500D02*
D03*
X219500Y250000D02*
D03*
X157500Y239000D02*
D03*
X162000Y234000D02*
D03*
X152000Y225000D02*
D03*
X143000Y230500D02*
D03*
X119500Y173500D02*
D03*
X120000Y161500D02*
D03*
X155000Y111500D02*
D03*
X87500Y155000D02*
D03*
X4000Y149000D02*
D03*
X6000Y98000D02*
D03*
X43000Y103500D02*
D03*
X133340Y27957D02*
D03*
X201000Y27500D02*
D03*
X115000Y38500D02*
D03*
X115500Y45000D02*
D03*
X160500D02*
D03*
X152500Y38500D02*
D03*
X143000Y47500D02*
D03*
X152500Y53000D02*
D03*
X111500Y70000D02*
D03*
X259500Y213500D02*
D03*
X262000Y217500D02*
D03*
X275020Y211020D02*
D03*
X271020Y215020D02*
D03*
X257500Y197500D02*
D03*
X217500Y210500D02*
D03*
X103500Y218500D02*
D03*
X120000Y213500D02*
D03*
X56500Y121500D02*
D03*
X79500Y123000D02*
D03*
X169000Y104500D02*
D03*
X160500Y93500D02*
D03*
X156000Y77500D02*
D03*
X131500Y81000D02*
D03*
X121000Y157000D02*
D03*
X124500Y141500D02*
D03*
X13000Y141000D02*
D03*
X96000D02*
D03*
X54000Y137000D02*
D03*
X38500Y141500D02*
D03*
X44000Y153500D02*
D03*
X101000Y146000D02*
D03*
X103000Y116500D02*
D03*
X138500Y98000D02*
D03*
X194000Y88500D02*
D03*
X142500Y80000D02*
D03*
X155000Y62500D02*
D03*
X149500Y60500D02*
D03*
X50500Y186500D02*
D03*
X70000Y225000D02*
D03*
X47000Y265000D02*
D03*
X152000Y200000D02*
D03*
X139500Y219000D02*
D03*
X296000Y252000D02*
D03*
X299000Y261500D02*
D03*
X265500Y230000D02*
D03*
X291000Y229500D02*
D03*
X294500Y236500D02*
D03*
X7000Y259500D02*
D03*
X75500Y346000D02*
D03*
X99500Y324000D02*
D03*
X251000Y179000D02*
D03*
X146500Y168500D02*
D03*
X46000Y221500D02*
D03*
X27000Y242000D02*
D03*
X30500Y248500D02*
D03*
X11500Y259500D02*
D03*
X50500Y300500D02*
D03*
X80000Y305000D02*
D03*
X100000Y263500D02*
D03*
X123500Y237000D02*
D03*
X113500Y238500D02*
D03*
X67500Y247000D02*
D03*
M02*
