M48
;Layer_Color=9474304
;FILE_FORMAT=2:5
INCH,LZ
;TYPE=PLATED
T1F00S00C0.01300
T2F00S00C0.03150
T4F00S00C0.03543
T5F00S00C0.03937
T7F00S00C0.04000
T8F00S00C0.04016
T9F00S00C0.04331
T11F00S00C0.05906
%
T01
X0006Y0098
X0043Y01035
X00385Y01415
X0044Y01535
X0054Y0137
X0013Y0141
X0004Y0149
X00565Y01215
X00605
X00755Y0123
X00795
X0103Y01165
X01185Y01075
X01385Y0098
X0146Y0091
X0148031Y0086469
X01475Y00775
X01425Y008
X01315Y0081
X01275Y008
X01115Y007
X0111Y0045
X01155
X0115Y00385
X0111Y0039
X013334Y0027957
X0143Y00475
X01475
X015Y005
X01525Y0053
X01495Y00605
X0155Y00625
X0156Y00775
X016
X016034Y0088957
X01605Y00935
X01635Y01045
X0169
X0155Y01115
X01245Y01415
X0101Y0146
X0096Y0141
X00875Y0155
X0194Y00885
X0201Y00275
X01605Y0045
X01575Y00425
X0154Y0042
X01525Y00385
X0228Y00985
X0233Y0101
X032Y00965
X03395Y0096
X0312Y0181
X03095Y01839
X027502Y021102
X027102Y021502
X0262Y02175
X0262773Y0221727
X02655Y023
X02595Y02135
X0256Y02125
X02515Y02095
X025Y02065
X02385Y0206
X0222Y021
X02175Y02105
X0213Y0242
X0214Y02455
X02195Y025
X0219Y02535
X0296Y0252
X0299Y02615
X02945Y02365
X0291Y02295
X02575Y01975
X0251Y0179
X02095Y0227
X02075Y023
X0200557Y02322
X01977Y02345
X01958Y0237
X0196Y02405
X02015Y0238
X0204152Y0239651
X02075Y0247
X021Y025
X02035Y02515
X02005Y02555
X01575Y0239
X0158Y0234
X0162
X015485Y0236
X01495Y0228
X0147Y02305
X0143
X0152Y0225
X01395Y0219
X012Y02135
X01155Y0214
X0103Y0215
X01035Y02185
X01135Y02385
X01235Y0237
X01Y02635
X00675Y0247
X007Y0225
X008Y0305
X01195Y01735
X0117Y0171
X0116Y0162
X012Y01615
X0121Y0157
X01465Y01685
X0152Y02
X01691Y02017
X0169Y02055
X0174765Y0206265
X01751Y02101
X0046Y02215
X00505Y01865
X0027Y0242
X00305Y02485
X00115Y02595
X0007
X0047Y0265
X00505Y03005
X00755Y0346
X00995Y0324
T02
X0258928Y0035886
X0265228
X0262078Y0040625
X025578
X0268377
X0041125Y0271123
Y0277421
Y028372
X0036386Y0280572
Y0274272
T04
X0323Y0180705
Y0206295
T05
X021611Y00165
X022989
T07
X001Y0078
X002
X003
X004
X01035Y0041
Y0031
Y0021
Y0011
X01645Y00085
Y00185
Y00285
Y00385
X03095Y00645
X03195
X03295
X03395
X0252642Y0163358
X0245571Y0170429
X02385Y01775
X0231429Y0184571
X0263929Y0241929
X0271Y0249
X0278071Y0256071
X0285142Y0263142
X0185Y02595
Y02495
Y02395
X01645Y02405
Y02505
Y02605
Y02705
X0185Y02695
X0141
Y02595
Y02495
Y02395
X0109Y0223
X0099
X0089
X0079
X00795Y01905
X00895
X00995
X01095
X0113Y02995
Y03095
X01315
Y02995
Y03195
Y03295
X0113
Y03195
T08
X0204Y00455
Y00555
X021625
Y00455
X02285
Y00555
X01955Y01915
X01855
X0052Y02425
Y02525
T09
X0124Y00375
X0134
X0144
X02025Y00775
Y01075
X02125
X02225
X02325
X02425
X02525
X02625
X02725
X02925
X03025
X03125
X03225
X03325
X03425
Y00775
X03325
X03225
X03125
X03025
X02925
X02725
X02625
X02525
X02425
X02325
X02225
X02125
X02165Y02975
X02265
X02365
X02465
X02565
X02725
X02825
X02925
X03025
X03125
X03225
X03325
X03425
X02065
X01965
X01865
X01765
X01665
X00885Y0294
Y0304
Y0284
X01835Y02255
X01935
Y02155
X01835
Y02055
X01935
X01965Y03275
X02065
X01865
X01765
X01665
X02165
X02265
X02365
X02465
X02565
X02725
X02825
X02925
X03025
X03125
X03225
X03325
X03425
T11
X00805Y0009
X0342Y00445
X0021Y03025
X0338Y0341
M30
