G04*
G04 #@! TF.GenerationSoftware,Altium Limited,Altium Designer,21.1.1 (26)*
G04*
G04 Layer_Color=8388736*
%FSLAX25Y25*%
%MOIN*%
G70*
G04*
G04 #@! TF.SameCoordinates,EDDA1932-7B83-4B75-B1E8-7C0ED368C603*
G04*
G04*
G04 #@! TF.FilePolarity,Negative*
G04*
G01*
G75*
G04:AMPARAMS|DCode=37|XSize=54mil|YSize=73mil|CornerRadius=0mil|HoleSize=0mil|Usage=FLASHONLY|Rotation=135.000|XOffset=0mil|YOffset=0mil|HoleType=Round|Shape=Rectangle|*
%AMROTATEDRECTD37*
4,1,4,0.04490,0.00672,-0.00672,-0.04490,-0.04490,-0.00672,0.00672,0.04490,0.04490,0.00672,0.0*
%
%ADD37ROTATEDRECTD37*%

%ADD45C,0.00000*%
%ADD46R,0.05200X0.07900*%
%ADD47R,0.07296X0.05550*%
%ADD48R,0.07900X0.05200*%
%ADD49R,0.05909X0.01381*%
%ADD50R,0.05987X0.01381*%
G04:AMPARAMS|DCode=51|XSize=22mil|YSize=63.02mil|CornerRadius=0mil|HoleSize=0mil|Usage=FLASHONLY|Rotation=45.000|XOffset=0mil|YOffset=0mil|HoleType=Round|Shape=Rectangle|*
%AMROTATEDRECTD51*
4,1,4,0.01450,-0.03006,-0.03006,0.01450,-0.01450,0.03006,0.03006,-0.01450,0.01450,-0.03006,0.0*
%
%ADD51ROTATEDRECTD51*%

G04:AMPARAMS|DCode=52|XSize=22mil|YSize=63.02mil|CornerRadius=0mil|HoleSize=0mil|Usage=FLASHONLY|Rotation=135.000|XOffset=0mil|YOffset=0mil|HoleType=Round|Shape=Rectangle|*
%AMROTATEDRECTD52*
4,1,4,0.03006,0.01450,-0.01450,-0.03006,-0.03006,-0.01450,0.01450,0.03006,0.03006,0.01450,0.0*
%
%ADD52ROTATEDRECTD52*%

%ADD53R,0.06706X0.05524*%
G04:AMPARAMS|DCode=54|XSize=71.39mil|YSize=31.23mil|CornerRadius=6.9mil|HoleSize=0mil|Usage=FLASHONLY|Rotation=0.000|XOffset=0mil|YOffset=0mil|HoleType=Round|Shape=RoundedRectangle|*
%AMROUNDEDRECTD54*
21,1,0.07139,0.01742,0,0,0.0*
21,1,0.05758,0.03123,0,0,0.0*
1,1,0.01381,0.02879,-0.00871*
1,1,0.01381,-0.02879,-0.00871*
1,1,0.01381,-0.02879,0.00871*
1,1,0.01381,0.02879,0.00871*
%
%ADD54ROUNDEDRECTD54*%
G04:AMPARAMS|DCode=55|XSize=55.64mil|YSize=31.23mil|CornerRadius=9.81mil|HoleSize=0mil|Usage=FLASHONLY|Rotation=0.000|XOffset=0mil|YOffset=0mil|HoleType=Round|Shape=RoundedRectangle|*
%AMROUNDEDRECTD55*
21,1,0.05564,0.01161,0,0,0.0*
21,1,0.03602,0.03123,0,0,0.0*
1,1,0.01961,0.01801,-0.00581*
1,1,0.01961,-0.01801,-0.00581*
1,1,0.01961,-0.01801,0.00581*
1,1,0.01961,0.01801,0.00581*
%
%ADD55ROUNDEDRECTD55*%
%ADD56R,0.06902X0.03162*%
%ADD57R,0.05524X0.06706*%
G04:AMPARAMS|DCode=58|XSize=52mil|YSize=79mil|CornerRadius=0mil|HoleSize=0mil|Usage=FLASHONLY|Rotation=135.000|XOffset=0mil|YOffset=0mil|HoleType=Round|Shape=Rectangle|*
%AMROTATEDRECTD58*
4,1,4,0.04632,0.00955,-0.00955,-0.04632,-0.04632,-0.00955,0.00955,0.04632,0.04632,0.00955,0.0*
%
%ADD58ROTATEDRECTD58*%

G04:AMPARAMS|DCode=59|XSize=55.24mil|YSize=63.11mil|CornerRadius=0mil|HoleSize=0mil|Usage=FLASHONLY|Rotation=225.000|XOffset=0mil|YOffset=0mil|HoleType=Round|Shape=Rectangle|*
%AMROTATEDRECTD59*
4,1,4,-0.00278,0.04184,0.04184,-0.00278,0.00278,-0.04184,-0.04184,0.00278,-0.00278,0.04184,0.0*
%
%ADD59ROTATEDRECTD59*%

%ADD60R,0.04137X0.02956*%
%ADD61R,0.04100X0.07100*%
%ADD62R,0.13000X0.07100*%
%ADD63O,0.03200X0.09461*%
%ADD64R,0.06311X0.05524*%
%ADD65C,0.07800*%
%ADD66C,0.07178*%
%ADD67O,0.08674X0.15761*%
%ADD68O,0.13792X0.07887*%
%ADD69C,0.07296*%
%ADD70C,0.08674*%
%ADD71C,0.06800*%
%ADD72O,0.05524X0.10249*%
%ADD73C,0.05524*%
%ADD74C,0.07099*%
%ADD75O,0.10249X0.05524*%
%ADD76C,0.03300*%
%ADD77C,0.05906*%
D37*
X234849Y198151D02*
D03*
X226151Y206849D02*
D03*
D45*
X207390Y55500D02*
G03*
X207390Y55500I-3390J0D01*
G01*
Y45500D02*
G03*
X207390Y45500I-3390J0D01*
G01*
X231890Y55500D02*
G03*
X231890Y55500I-3390J0D01*
G01*
Y45500D02*
G03*
X231890Y45500I-3390J0D01*
G01*
X219640D02*
G03*
X219640Y45500I-3390J0D01*
G01*
Y55500D02*
G03*
X219640Y55500I-3390J0D01*
G01*
X55390Y242500D02*
G03*
X55390Y242500I-3390J0D01*
G01*
Y252500D02*
G03*
X55390Y252500I-3390J0D01*
G01*
X198890Y191500D02*
G03*
X198890Y191500I-3390J0D01*
G01*
X188890D02*
G03*
X188890Y191500I-3390J0D01*
G01*
D46*
X81100Y175500D02*
D03*
X92900D02*
D03*
X149400Y110000D02*
D03*
X137600D02*
D03*
X155900Y98000D02*
D03*
X144100D02*
D03*
X87100Y162500D02*
D03*
X98900D02*
D03*
X102100Y175500D02*
D03*
X113900D02*
D03*
X166400Y69000D02*
D03*
X154600D02*
D03*
X331100Y96500D02*
D03*
X342900D02*
D03*
X312100D02*
D03*
X323900D02*
D03*
X113400Y208500D02*
D03*
X101600D02*
D03*
X166600Y174000D02*
D03*
X178400D02*
D03*
X92400Y208500D02*
D03*
X80600D02*
D03*
X111700Y283500D02*
D03*
X123500D02*
D03*
X75300Y305000D02*
D03*
X63500D02*
D03*
X53000Y226000D02*
D03*
X64800D02*
D03*
X97200Y238500D02*
D03*
X109000D02*
D03*
D47*
X37236Y166350D02*
D03*
X16764D02*
D03*
X37236Y153650D02*
D03*
X16764D02*
D03*
X37236Y116350D02*
D03*
X16764D02*
D03*
X37236Y103650D02*
D03*
X16764D02*
D03*
X109764D02*
D03*
X130236D02*
D03*
X109764Y116350D02*
D03*
X130236D02*
D03*
X127736Y163850D02*
D03*
X107264D02*
D03*
X127736Y151150D02*
D03*
X107264D02*
D03*
D48*
X7000Y154100D02*
D03*
Y165900D02*
D03*
X6500Y104100D02*
D03*
Y115900D02*
D03*
X118000Y5100D02*
D03*
Y16900D02*
D03*
X201500Y10100D02*
D03*
Y21900D02*
D03*
X133000Y5100D02*
D03*
Y16900D02*
D03*
X143500Y73400D02*
D03*
Y61600D02*
D03*
X48000Y140900D02*
D03*
Y129100D02*
D03*
X62559Y140900D02*
D03*
Y129100D02*
D03*
X89500Y140900D02*
D03*
Y129100D02*
D03*
X76000Y140900D02*
D03*
Y129100D02*
D03*
X147500Y16900D02*
D03*
Y5100D02*
D03*
X179500Y21900D02*
D03*
Y10100D02*
D03*
X191000Y21900D02*
D03*
Y10100D02*
D03*
X185000Y40400D02*
D03*
Y28600D02*
D03*
X87000Y330100D02*
D03*
Y341900D02*
D03*
X63500Y284000D02*
D03*
Y295800D02*
D03*
X158500Y220900D02*
D03*
Y209100D02*
D03*
X146500D02*
D03*
Y220900D02*
D03*
X33000Y254900D02*
D03*
Y243100D02*
D03*
X7000Y254900D02*
D03*
Y243100D02*
D03*
X99000Y330100D02*
D03*
Y341900D02*
D03*
X123500Y241100D02*
D03*
Y252900D02*
D03*
Y272900D02*
D03*
Y261100D02*
D03*
X51000Y202500D02*
D03*
Y190700D02*
D03*
X67500Y263500D02*
D03*
Y251700D02*
D03*
X75500Y330100D02*
D03*
Y341900D02*
D03*
X50000Y295900D02*
D03*
Y284100D02*
D03*
D49*
X116839Y73937D02*
D03*
D50*
Y71969D02*
D03*
Y70000D02*
D03*
Y68032D02*
D03*
Y66063D02*
D03*
X134161D02*
D03*
Y68032D02*
D03*
Y70000D02*
D03*
Y71969D02*
D03*
Y73937D02*
D03*
D51*
X283107Y202222D02*
D03*
X280915Y200030D02*
D03*
X278652Y197767D02*
D03*
X276460Y195575D02*
D03*
X274197Y193313D02*
D03*
X272005Y191121D02*
D03*
X269743Y188858D02*
D03*
X267551Y186666D02*
D03*
X244166Y210051D02*
D03*
X246358Y212243D02*
D03*
X248621Y214505D02*
D03*
X250813Y216697D02*
D03*
X253076Y218960D02*
D03*
X255268Y221152D02*
D03*
X257530Y223415D02*
D03*
X259722Y225607D02*
D03*
D52*
X259586Y186530D02*
D03*
X257394Y188722D02*
D03*
X255131Y190984D02*
D03*
X252939Y193176D02*
D03*
X250676Y195439D02*
D03*
X248484Y197631D02*
D03*
X246221Y199894D02*
D03*
X244029Y202086D02*
D03*
X267414Y225470D02*
D03*
X269606Y223278D02*
D03*
X271869Y221016D02*
D03*
X274061Y218824D02*
D03*
X276324Y216561D02*
D03*
X278516Y214369D02*
D03*
X280779Y212106D02*
D03*
X282970Y209914D02*
D03*
D53*
X130492Y129095D02*
D03*
X104508Y140905D02*
D03*
Y129095D02*
D03*
X130492Y140905D02*
D03*
X32992Y129095D02*
D03*
X7008Y140905D02*
D03*
Y129095D02*
D03*
X32992Y140905D02*
D03*
D54*
X145984Y82000D02*
D03*
Y85740D02*
D03*
Y89480D02*
D03*
X155000D02*
D03*
Y85740D02*
D03*
Y82000D02*
D03*
D55*
X180559Y54760D02*
D03*
X190441Y58500D02*
D03*
X180559Y62240D02*
D03*
D56*
X188260Y76500D02*
D03*
Y81500D02*
D03*
Y86500D02*
D03*
Y91500D02*
D03*
X167000Y76500D02*
D03*
Y81500D02*
D03*
Y86500D02*
D03*
Y91500D02*
D03*
D57*
X158405Y199992D02*
D03*
X146595Y174008D02*
D03*
X158405D02*
D03*
X146595Y199992D02*
D03*
D58*
X239828Y193172D02*
D03*
X248172Y184828D02*
D03*
X292828Y257172D02*
D03*
X301172Y248828D02*
D03*
X285672Y233328D02*
D03*
X277328Y241672D02*
D03*
X279172Y225828D02*
D03*
X270828Y234172D02*
D03*
D59*
X294567Y244943D02*
D03*
X288443Y251068D02*
D03*
X289835Y240211D02*
D03*
X283710Y246336D02*
D03*
D60*
X58224Y276740D02*
D03*
Y273000D02*
D03*
Y269260D02*
D03*
X48923D02*
D03*
Y273000D02*
D03*
Y276740D02*
D03*
D61*
X77900Y263600D02*
D03*
X87000D02*
D03*
X96100D02*
D03*
D62*
X87000Y238400D02*
D03*
D63*
X43000Y225700D02*
D03*
X38000D02*
D03*
X33000D02*
D03*
X28000D02*
D03*
X23000D02*
D03*
X18000D02*
D03*
X13000D02*
D03*
X8000D02*
D03*
Y202300D02*
D03*
X13000D02*
D03*
X18000D02*
D03*
X23000D02*
D03*
X28000D02*
D03*
X33000D02*
D03*
X38000D02*
D03*
X43000D02*
D03*
D64*
X24000Y255193D02*
D03*
X15339D02*
D03*
X24000Y248500D02*
D03*
X15338D02*
D03*
D65*
X99000Y223000D02*
D03*
X109000D02*
D03*
X79000D02*
D03*
X89000D02*
D03*
X99500Y190500D02*
D03*
X109500D02*
D03*
X79500D02*
D03*
X89500D02*
D03*
X20000Y78000D02*
D03*
X10000D02*
D03*
X40000D02*
D03*
X30000D02*
D03*
X103500Y31000D02*
D03*
Y41000D02*
D03*
Y11000D02*
D03*
Y21000D02*
D03*
X319500Y64500D02*
D03*
X309500D02*
D03*
X339500D02*
D03*
X329500D02*
D03*
X164500Y28500D02*
D03*
Y38500D02*
D03*
Y8500D02*
D03*
Y18500D02*
D03*
X245571Y170429D02*
D03*
X252642Y163358D02*
D03*
X231429Y184571D02*
D03*
X238500Y177500D02*
D03*
X271000Y249000D02*
D03*
X263929Y241929D02*
D03*
X285142Y263142D02*
D03*
X278071Y256071D02*
D03*
X141000Y249500D02*
D03*
Y239500D02*
D03*
Y269500D02*
D03*
Y259500D02*
D03*
X131500Y319500D02*
D03*
Y329500D02*
D03*
Y299500D02*
D03*
Y309500D02*
D03*
X113000Y319500D02*
D03*
Y329500D02*
D03*
Y299500D02*
D03*
Y309500D02*
D03*
X183500Y225500D02*
D03*
X193500D02*
D03*
X183500Y215500D02*
D03*
X193500D02*
D03*
X183500Y205500D02*
D03*
X193500D02*
D03*
X185000Y249500D02*
D03*
Y239500D02*
D03*
Y269500D02*
D03*
Y259500D02*
D03*
X164500Y250500D02*
D03*
Y240500D02*
D03*
Y270500D02*
D03*
Y260500D02*
D03*
D66*
X204000Y55500D02*
D03*
Y45500D02*
D03*
X228500Y55500D02*
D03*
Y45500D02*
D03*
X216250D02*
D03*
Y55500D02*
D03*
X52000Y242500D02*
D03*
Y252500D02*
D03*
X195500Y191500D02*
D03*
X185500D02*
D03*
D67*
X293878Y20000D02*
D03*
X317500D02*
D03*
X56622Y329500D02*
D03*
X33000D02*
D03*
D68*
X303720Y38307D02*
D03*
X46780Y311193D02*
D03*
D69*
X144000Y37500D02*
D03*
X134000D02*
D03*
X124000D02*
D03*
X88500Y304000D02*
D03*
Y294000D02*
D03*
Y284000D02*
D03*
D70*
X216110Y16500D02*
D03*
X229890D02*
D03*
D71*
X332500Y77500D02*
D03*
X342500D02*
D03*
X322500D02*
D03*
X312500D02*
D03*
X302500D02*
D03*
X292500D02*
D03*
X272500D02*
D03*
X262500D02*
D03*
X252500D02*
D03*
X242500D02*
D03*
X232500D02*
D03*
X222500D02*
D03*
X212500D02*
D03*
X202500D02*
D03*
X272500Y107500D02*
D03*
X262500D02*
D03*
X252500D02*
D03*
X242500D02*
D03*
X232500D02*
D03*
X222500D02*
D03*
X212500D02*
D03*
X202500D02*
D03*
X342500D02*
D03*
X332500D02*
D03*
X322500D02*
D03*
X312500D02*
D03*
X302500D02*
D03*
X292500D02*
D03*
X256500Y327500D02*
D03*
X246500D02*
D03*
X236500D02*
D03*
X226500D02*
D03*
X216500D02*
D03*
X206500D02*
D03*
X196500D02*
D03*
X186500D02*
D03*
X176500D02*
D03*
X166500D02*
D03*
X256500Y297500D02*
D03*
X246500D02*
D03*
X236500D02*
D03*
X226500D02*
D03*
X216500D02*
D03*
X206500D02*
D03*
X196500D02*
D03*
X186500D02*
D03*
X176500D02*
D03*
X166500D02*
D03*
X342500D02*
D03*
X332500D02*
D03*
X322500D02*
D03*
X312500D02*
D03*
X302500D02*
D03*
X292500D02*
D03*
X282500D02*
D03*
X272500D02*
D03*
Y327500D02*
D03*
X282500D02*
D03*
X292500D02*
D03*
X302500D02*
D03*
X312500D02*
D03*
X322500D02*
D03*
X332500D02*
D03*
X342500D02*
D03*
D72*
X276645Y18375D02*
D03*
Y37075D02*
D03*
X247355D02*
D03*
Y18375D02*
D03*
D73*
X255780Y40625D02*
D03*
X258928Y35886D02*
D03*
X265228D02*
D03*
X262078Y40625D02*
D03*
X268377D02*
D03*
X41125Y271123D02*
D03*
Y277421D02*
D03*
X36386Y274272D02*
D03*
Y280572D02*
D03*
X41125Y283720D02*
D03*
D74*
X323000Y180705D02*
D03*
Y206295D02*
D03*
D75*
X18875Y292145D02*
D03*
X37575D02*
D03*
Y262855D02*
D03*
X18875D02*
D03*
D76*
X175100Y210100D02*
D03*
X169100Y201700D02*
D03*
X309500Y183900D02*
D03*
X200557Y232200D02*
D03*
X195800Y237000D02*
D03*
X197700Y234500D02*
D03*
X201500Y238000D02*
D03*
X209500Y227000D02*
D03*
X200500Y255500D02*
D03*
X210000Y250000D02*
D03*
X214000Y245500D02*
D03*
X219500Y250000D02*
D03*
X157500Y239000D02*
D03*
X162000Y234000D02*
D03*
X158000D02*
D03*
X152000Y225000D02*
D03*
X149500Y228000D02*
D03*
X143000Y230500D02*
D03*
X119500Y173500D02*
D03*
X120000Y161500D02*
D03*
X155000Y111500D02*
D03*
X87500Y155000D02*
D03*
X4000Y149000D02*
D03*
X6000Y98000D02*
D03*
X43000Y103500D02*
D03*
X160340Y88957D02*
D03*
X133340Y27957D02*
D03*
X201000Y27500D02*
D03*
X115000Y38500D02*
D03*
X115500Y45000D02*
D03*
X160500D02*
D03*
X152500Y38500D02*
D03*
X143000Y47500D02*
D03*
X152500Y53000D02*
D03*
X147500Y47500D02*
D03*
X150000Y50000D02*
D03*
X111500Y70000D02*
D03*
X111000Y45000D02*
D03*
Y39000D02*
D03*
X233000Y101000D02*
D03*
X160000Y77500D02*
D03*
X259500Y213500D02*
D03*
X262000Y217500D02*
D03*
X275020Y211020D02*
D03*
X271020Y215020D02*
D03*
X250000Y206500D02*
D03*
X256000Y212500D02*
D03*
X251500Y209500D02*
D03*
X262773Y221727D02*
D03*
X257500Y197500D02*
D03*
X217500Y210500D02*
D03*
X103500Y218500D02*
D03*
X120000Y213500D02*
D03*
X56500Y121500D02*
D03*
X79500Y123000D02*
D03*
X169000Y104500D02*
D03*
X160500Y93500D02*
D03*
X156000Y77500D02*
D03*
X131500Y81000D02*
D03*
X154000Y42000D02*
D03*
X116000Y162000D02*
D03*
X117000Y171000D02*
D03*
X121000Y157000D02*
D03*
X124500Y141500D02*
D03*
X13000Y141000D02*
D03*
X148031Y86469D02*
D03*
X96000Y141000D02*
D03*
X54000Y137000D02*
D03*
X38500Y141500D02*
D03*
X44000Y153500D02*
D03*
X101000Y146000D02*
D03*
X103000Y116500D02*
D03*
X75500Y123000D02*
D03*
X138500Y98000D02*
D03*
X60500Y121500D02*
D03*
X228000Y98500D02*
D03*
X163500Y104500D02*
D03*
X194000Y88500D02*
D03*
X142500Y80000D02*
D03*
X155000Y62500D02*
D03*
X149500Y60500D02*
D03*
X118500Y107500D02*
D03*
X312000Y181000D02*
D03*
X339500Y96000D02*
D03*
X146000Y91000D02*
D03*
X320000Y96500D02*
D03*
X157500Y42500D02*
D03*
X127500Y80000D02*
D03*
X147500Y77500D02*
D03*
X50500Y186500D02*
D03*
X70000Y225000D02*
D03*
X47000Y265000D02*
D03*
X154850Y236000D02*
D03*
X152000Y200000D02*
D03*
X139500Y219000D02*
D03*
X296000Y252000D02*
D03*
X299000Y261500D02*
D03*
X265500Y230000D02*
D03*
X291000Y229500D02*
D03*
X294500Y236500D02*
D03*
X7000Y259500D02*
D03*
X115500Y214000D02*
D03*
X103000Y215000D02*
D03*
X75500Y346000D02*
D03*
X99500Y324000D02*
D03*
X251000Y179000D02*
D03*
X146500Y168500D02*
D03*
X46000Y221500D02*
D03*
X27000Y242000D02*
D03*
X30500Y248500D02*
D03*
X11500Y259500D02*
D03*
X50500Y300500D02*
D03*
X80000Y305000D02*
D03*
X100000Y263500D02*
D03*
X123500Y237000D02*
D03*
X113500Y238500D02*
D03*
X67500Y247000D02*
D03*
X207500D02*
D03*
X204152Y239651D02*
D03*
X196000Y240500D02*
D03*
X203500Y251500D02*
D03*
X174765Y206265D02*
D03*
X169000Y205500D02*
D03*
X219000Y253500D02*
D03*
X213000Y242000D02*
D03*
X207500Y230000D02*
D03*
X238500Y206000D02*
D03*
X147000Y230500D02*
D03*
X222000Y210000D02*
D03*
D77*
X342000Y44500D02*
D03*
X80500Y9000D02*
D03*
X338000Y341000D02*
D03*
X21000Y302500D02*
D03*
M02*
