G04*
G04 #@! TF.GenerationSoftware,Altium Limited,Altium Designer,21.1.1 (26)*
G04*
G04 Layer_Color=8421504*
%FSLAX25Y25*%
%MOIN*%
G70*
G04*
G04 #@! TF.SameCoordinates,EDDA1932-7B83-4B75-B1E8-7C0ED368C603*
G04*
G04*
G04 #@! TF.FilePolarity,Positive*
G04*
G01*
G75*
%ADD24C,0.06102*%
%ADD25R,0.04400X0.07100*%
%ADD26R,0.06496X0.04750*%
%ADD27R,0.07100X0.04400*%
%ADD28R,0.05709X0.01181*%
%ADD29R,0.05787X0.01181*%
G04:AMPARAMS|DCode=30|XSize=20mil|YSize=61.02mil|CornerRadius=0mil|HoleSize=0mil|Usage=FLASHONLY|Rotation=45.000|XOffset=0mil|YOffset=0mil|HoleType=Round|Shape=Rectangle|*
%AMROTATEDRECTD30*
4,1,4,0.01450,-0.02865,-0.02865,0.01450,-0.01450,0.02865,0.02865,-0.01450,0.01450,-0.02865,0.0*
%
%ADD30ROTATEDRECTD30*%

G04:AMPARAMS|DCode=31|XSize=20mil|YSize=61.02mil|CornerRadius=0mil|HoleSize=0mil|Usage=FLASHONLY|Rotation=135.000|XOffset=0mil|YOffset=0mil|HoleType=Round|Shape=Rectangle|*
%AMROTATEDRECTD31*
4,1,4,0.02865,0.01450,-0.01450,-0.02865,-0.02865,-0.01450,0.01450,0.02865,0.02865,0.01450,0.0*
%
%ADD31ROTATEDRECTD31*%

%ADD32R,0.05906X0.04724*%
G04:AMPARAMS|DCode=33|XSize=63.39mil|YSize=23.23mil|CornerRadius=2.9mil|HoleSize=0mil|Usage=FLASHONLY|Rotation=0.000|XOffset=0mil|YOffset=0mil|HoleType=Round|Shape=RoundedRectangle|*
%AMROUNDEDRECTD33*
21,1,0.06339,0.01742,0,0,0.0*
21,1,0.05758,0.02323,0,0,0.0*
1,1,0.00581,0.02879,-0.00871*
1,1,0.00581,-0.02879,-0.00871*
1,1,0.00581,-0.02879,0.00871*
1,1,0.00581,0.02879,0.00871*
%
%ADD33ROUNDEDRECTD33*%
G04:AMPARAMS|DCode=34|XSize=47.64mil|YSize=23.23mil|CornerRadius=5.81mil|HoleSize=0mil|Usage=FLASHONLY|Rotation=0.000|XOffset=0mil|YOffset=0mil|HoleType=Round|Shape=RoundedRectangle|*
%AMROUNDEDRECTD34*
21,1,0.04764,0.01161,0,0,0.0*
21,1,0.03602,0.02323,0,0,0.0*
1,1,0.01161,0.01801,-0.00581*
1,1,0.01161,-0.01801,-0.00581*
1,1,0.01161,-0.01801,0.00581*
1,1,0.01161,0.01801,0.00581*
%
%ADD34ROUNDEDRECTD34*%
%ADD35R,0.06102X0.02362*%
%ADD36R,0.04724X0.05906*%
G04:AMPARAMS|DCode=37|XSize=54mil|YSize=73mil|CornerRadius=0mil|HoleSize=0mil|Usage=FLASHONLY|Rotation=135.000|XOffset=0mil|YOffset=0mil|HoleType=Round|Shape=Rectangle|*
%AMROTATEDRECTD37*
4,1,4,0.04490,0.00672,-0.00672,-0.04490,-0.04490,-0.00672,0.00672,0.04490,0.04490,0.00672,0.0*
%
%ADD37ROTATEDRECTD37*%

G04:AMPARAMS|DCode=38|XSize=44mil|YSize=71mil|CornerRadius=0mil|HoleSize=0mil|Usage=FLASHONLY|Rotation=135.000|XOffset=0mil|YOffset=0mil|HoleType=Round|Shape=Rectangle|*
%AMROTATEDRECTD38*
4,1,4,0.04066,0.00955,-0.00955,-0.04066,-0.04066,-0.00955,0.00955,0.04066,0.04066,0.00955,0.0*
%
%ADD38ROTATEDRECTD38*%

G04:AMPARAMS|DCode=39|XSize=47.24mil|YSize=55.11mil|CornerRadius=0mil|HoleSize=0mil|Usage=FLASHONLY|Rotation=225.000|XOffset=0mil|YOffset=0mil|HoleType=Round|Shape=Rectangle|*
%AMROTATEDRECTD39*
4,1,4,-0.00278,0.03619,0.03619,-0.00278,0.00278,-0.03619,-0.03619,0.00278,-0.00278,0.03619,0.0*
%
%ADD39ROTATEDRECTD39*%

%ADD40R,0.03937X0.02756*%
%ADD41R,0.03300X0.06300*%
%ADD42R,0.12200X0.06300*%
%ADD43O,0.02400X0.08661*%
%ADD44R,0.05511X0.04724*%
D24*
X342000Y44500D02*
D03*
X80500Y9000D02*
D03*
X338000Y341000D02*
D03*
X21000Y302500D02*
D03*
D25*
X81100Y175500D02*
D03*
X92900D02*
D03*
X149400Y110000D02*
D03*
X137600D02*
D03*
X155900Y98000D02*
D03*
X144100D02*
D03*
X87100Y162500D02*
D03*
X98900D02*
D03*
X102100Y175500D02*
D03*
X113900D02*
D03*
X166400Y69000D02*
D03*
X154600D02*
D03*
X331100Y96500D02*
D03*
X342900D02*
D03*
X312100D02*
D03*
X323900D02*
D03*
X113400Y208500D02*
D03*
X101600D02*
D03*
X166600Y174000D02*
D03*
X178400D02*
D03*
X92400Y208500D02*
D03*
X80600D02*
D03*
X111700Y283500D02*
D03*
X123500D02*
D03*
X75300Y305000D02*
D03*
X63500D02*
D03*
X53000Y226000D02*
D03*
X64800D02*
D03*
X97200Y238500D02*
D03*
X109000D02*
D03*
D26*
X37236Y166350D02*
D03*
X16764D02*
D03*
X37236Y153650D02*
D03*
X16764D02*
D03*
X37236Y116350D02*
D03*
X16764D02*
D03*
X37236Y103650D02*
D03*
X16764D02*
D03*
X109764D02*
D03*
X130236D02*
D03*
X109764Y116350D02*
D03*
X130236D02*
D03*
X127736Y163850D02*
D03*
X107264D02*
D03*
X127736Y151150D02*
D03*
X107264D02*
D03*
D27*
X7000Y154100D02*
D03*
Y165900D02*
D03*
X6500Y104100D02*
D03*
Y115900D02*
D03*
X118000Y5100D02*
D03*
Y16900D02*
D03*
X201500Y10100D02*
D03*
Y21900D02*
D03*
X133000Y5100D02*
D03*
Y16900D02*
D03*
X143500Y73400D02*
D03*
Y61600D02*
D03*
X48000Y140900D02*
D03*
Y129100D02*
D03*
X62559Y140900D02*
D03*
Y129100D02*
D03*
X89500Y140900D02*
D03*
Y129100D02*
D03*
X76000Y140900D02*
D03*
Y129100D02*
D03*
X147500Y16900D02*
D03*
Y5100D02*
D03*
X179500Y21900D02*
D03*
Y10100D02*
D03*
X191000Y21900D02*
D03*
Y10100D02*
D03*
X185000Y40400D02*
D03*
Y28600D02*
D03*
X87000Y330100D02*
D03*
Y341900D02*
D03*
X63500Y284000D02*
D03*
Y295800D02*
D03*
X158500Y220900D02*
D03*
Y209100D02*
D03*
X146500D02*
D03*
Y220900D02*
D03*
X33000Y254900D02*
D03*
Y243100D02*
D03*
X7000Y254900D02*
D03*
Y243100D02*
D03*
X99000Y330100D02*
D03*
Y341900D02*
D03*
X123500Y241100D02*
D03*
Y252900D02*
D03*
Y272900D02*
D03*
Y261100D02*
D03*
X51000Y202500D02*
D03*
Y190700D02*
D03*
X67500Y263500D02*
D03*
Y251700D02*
D03*
X75500Y330100D02*
D03*
Y341900D02*
D03*
X50000Y295900D02*
D03*
Y284100D02*
D03*
D28*
X116839Y73937D02*
D03*
D29*
Y71969D02*
D03*
Y70000D02*
D03*
Y68032D02*
D03*
Y66063D02*
D03*
X134161D02*
D03*
Y68032D02*
D03*
Y70000D02*
D03*
Y71969D02*
D03*
Y73937D02*
D03*
D30*
X283107Y202222D02*
D03*
X280915Y200030D02*
D03*
X278652Y197767D02*
D03*
X276460Y195575D02*
D03*
X274197Y193313D02*
D03*
X272005Y191121D02*
D03*
X269743Y188858D02*
D03*
X267551Y186666D02*
D03*
X244166Y210051D02*
D03*
X246358Y212243D02*
D03*
X248621Y214505D02*
D03*
X250813Y216697D02*
D03*
X253076Y218960D02*
D03*
X255268Y221152D02*
D03*
X257530Y223415D02*
D03*
X259722Y225607D02*
D03*
D31*
X259586Y186530D02*
D03*
X257394Y188722D02*
D03*
X255131Y190984D02*
D03*
X252939Y193176D02*
D03*
X250676Y195439D02*
D03*
X248484Y197631D02*
D03*
X246221Y199894D02*
D03*
X244029Y202086D02*
D03*
X267414Y225470D02*
D03*
X269606Y223278D02*
D03*
X271869Y221016D02*
D03*
X274061Y218824D02*
D03*
X276324Y216561D02*
D03*
X278516Y214369D02*
D03*
X280779Y212106D02*
D03*
X282970Y209914D02*
D03*
D32*
X130492Y129095D02*
D03*
X104508Y140905D02*
D03*
Y129095D02*
D03*
X130492Y140905D02*
D03*
X32992Y129095D02*
D03*
X7008Y140905D02*
D03*
Y129095D02*
D03*
X32992Y140905D02*
D03*
D33*
X145984Y82000D02*
D03*
Y85740D02*
D03*
Y89480D02*
D03*
X155000D02*
D03*
Y85740D02*
D03*
Y82000D02*
D03*
D34*
X180559Y54760D02*
D03*
X190441Y58500D02*
D03*
X180559Y62240D02*
D03*
D35*
X188260Y76500D02*
D03*
Y81500D02*
D03*
Y86500D02*
D03*
Y91500D02*
D03*
X167000Y76500D02*
D03*
Y81500D02*
D03*
Y86500D02*
D03*
Y91500D02*
D03*
D36*
X158405Y199992D02*
D03*
X146595Y174008D02*
D03*
X158405D02*
D03*
X146595Y199992D02*
D03*
D37*
X234849Y198151D02*
D03*
X226151Y206849D02*
D03*
D38*
X239828Y193172D02*
D03*
X248172Y184828D02*
D03*
X292828Y257172D02*
D03*
X301172Y248828D02*
D03*
X285672Y233328D02*
D03*
X277328Y241672D02*
D03*
X279172Y225828D02*
D03*
X270828Y234172D02*
D03*
D39*
X294567Y244943D02*
D03*
X288443Y251068D02*
D03*
X289835Y240211D02*
D03*
X283710Y246336D02*
D03*
D40*
X58224Y276740D02*
D03*
Y273000D02*
D03*
Y269260D02*
D03*
X48923D02*
D03*
Y273000D02*
D03*
Y276740D02*
D03*
D41*
X77900Y263600D02*
D03*
X87000D02*
D03*
X96100D02*
D03*
D42*
X87000Y238400D02*
D03*
D43*
X43000Y225700D02*
D03*
X38000D02*
D03*
X33000D02*
D03*
X28000D02*
D03*
X23000D02*
D03*
X18000D02*
D03*
X13000D02*
D03*
X8000D02*
D03*
Y202300D02*
D03*
X13000D02*
D03*
X18000D02*
D03*
X23000D02*
D03*
X28000D02*
D03*
X33000D02*
D03*
X38000D02*
D03*
X43000D02*
D03*
D44*
X24000Y255193D02*
D03*
X15339D02*
D03*
X24000Y248500D02*
D03*
X15338D02*
D03*
M02*
